<svg xmlns="http://www.w3.org/2000/svg" xmlns:xlink="http://www.w3.org/1999/xlink" version="1.1" x="0px" y="0px" viewBox="0 0 100 100" enable-background="new 0 0 100 100" xml:space="preserve"><path d="M91.653,42.673c-0.568-0.032-1.048-0.167-1.428-0.412l-1.562,1.048l-1.187-1.827c-0.212,0.317-0.5,0.562-0.871,0.728  c-0.137-0.319-0.286-0.637-0.441-0.953c-0.381-1.105-0.699-2.234-0.994-3.385c-1.389-5.665-2.93-11-4.675-16.767  c-0.463-1.844-2.015-3.582-3.829-4.243c-6.469-2.326-14.937-3.63-23.665-4.806c-0.014-0.001-0.026-0.003-0.042-0.005v0.002  c-0.013-0.001-0.021-0.002-0.035-0.004c-8.75-0.991-17.282-1.793-24.123-1.118c-1.921,0.199-3.85,1.505-4.75,3.179  c-3.1,5.167-5.898,9.965-8.628,15.118c-0.566,1.043-1.152,2.063-1.791,3.041c-0.229,0.268-0.449,0.541-0.663,0.815  c-0.694-0.551-0.92-1.368-0.736-2.403c2.877-1.812,2.02-6.113-1.976-6.403c-3.176-0.232-5.228,0.478-6.108,1.839  c-0.211,0.318-0.248,0.52-0.25,0.899c0.025,2.118,1.69,3.14,3.983,3.735c0.935,0.241,1.182,0.19,1.576,1.195  c0.469,1.192,0.89,3.204,1.366,4.547c-0.508,1.028-0.923,2.093-1.225,3.202c-0.982,2.176-2.33,3.868-3.57,5.634  c-1.619,2.305-2.299,4.458-2.805,7.246c-0.535,3.011-0.769,6.475-0.717,10.319c0,0,0.044,5.062,2.28,9.538  c-0.115,4.812,0.167,9.262,0.709,13.74c0.183,1.539,0.923,2.576,2.247,3.112h4.742c1.289-0.012,2.406,0.25,3.443-0.616  c1.813-1.528,1.344-4.547,1.368-6.646v-2.547l26.857,3.331l0.042,0.004v-0.002l0.034,0.004l0.812,0.101  c1.018,0.126,2.012-0.374,2.516-1.269l0.05-0.089l24.585,4.523c1.81,1.987,4.468,3.211,7.632,3.211  c6.693,0,13.071-5.426,14.246-12.118c0.704-4.014-0.632-7.561-3.251-9.767c0.22-1.357,0.392-2.673,0.48-3.914  c0.19-2.827,0.057-5.083-0.949-7.714c-0.771-2.014-1.666-3.986-2.087-6.334c-0.023-1.148-0.163-2.283-0.405-3.402  c0.302-0.453,0.618-1.007,0.938-1.571c0.367,0.211,0.708,0.416,0.989,0.612c0.887,0.613,0.779,0.842,0.803,1.807  c0.05,2.369,0.662,4.224,2.718,4.735c0.372,0.086,0.575,0.095,0.933-0.038c1.528-0.545,2.69-2.38,3.194-5.523  C98.067,42.11,94.083,40.288,91.653,42.673z M73.931,20.392c1.857,0.503,2.113,1.012,2.784,2.742  c1.69,4.712,2.867,8.987,4.112,13.696c0.214,0.815,0.01,1.683-0.546,2.317c-0.556,0.633-1.391,0.947-2.227,0.839  c-4.943-0.64-12.283-1.566-20.213-2.556l4.008-4.966l2.828,3.419l-1.398-3.625l14.302,3.065l-13.28-4.904l2.003-11.858  C68.842,19.097,71.355,19.697,73.931,20.392z M19.895,29.279c2.357-4.263,4.542-8.12,7.332-12.277  c1.073-1.513,1.445-1.944,3.369-1.979c7.286-0.125,13.945,0.312,21.853,1.232v-0.003c4.662,0.614,8.861,1.291,12.972,2.129  l-4.592,11.017l-2.482-1.816l0.289-1.253l-2.239-0.173l-0.592-0.432l0.199-3.781l-3.114,1.649l-5.749-4.205l4.217,4.733  l-3.028,0.673l4.104,0.535l4.718,5.295l-8.685,3.99l11.954-2.356l-3.408,5.068c-12.902-1.608-27.187-3.361-35.199-4.31  c-0.837-0.1-1.57-0.608-1.955-1.358C19.474,30.909,19.486,30.016,19.895,29.279z M12.789,60.874  c-0.163,1.312-1.357,2.243-2.67,2.081c-1.3-0.161-2.232-1.356-2.07-2.669c0.162-1.302,1.357-2.231,2.657-2.07  C12.017,58.379,12.95,59.572,12.789,60.874z M15.752,54.017c-3.167-0.393-5.436-3.307-5.043-6.475  c0.394-3.178,3.304-5.438,6.471-5.045c3.18,0.395,5.451,3.295,5.057,6.474C21.844,52.138,18.931,54.411,15.752,54.017z   M69.704,78.129c-3.006,1.104-6.325,1.48-9.865,1.459c-0.984-0.005-1.287-0.005-2.306-0.065L47.09,77.486c0,0-0.247,0.5-0.509,1.027  c-0.295,0.593-1.692,1.085-2.233,1.01C35.592,78.308,26.388,76,20.593,72.044c-3.243-2.205-4.089-4.356-2.329-6.803  c1.256-1.971,2.686-3.861,4.19-5.707c1.47-1.954,3.767-2.967,7.135-2.791c5.716,0.305,11.696,0.954,17.641,1.565l0.001-0.003  c2.955,0.429,6.984,2.182,9.234,4.057c0.459,0.07-0.324-3.915,0.134-3.844c2.459,0.391,4.887,0.806,7.253,1.27  c3.309,0.651,5.29,2.194,6.237,4.449c1.007,2.157,2.794,5.647,3.53,7.862C74.733,74.902,73.386,76.78,69.704,78.129z M73.729,56.119  l4.108-1.507l-3.739-0.604c0.931-2.438,3.426-4.034,6.131-3.698c3.168,0.393,5.438,3.294,5.044,6.473  c-0.054,0.435-0.164,0.849-0.307,1.245L79.9,57.05l-2.15,4.539C75.382,60.832,73.753,58.619,73.729,56.119z M80,69.202  c0.161-1.302,1.356-2.231,2.669-2.067c1.302,0.161,2.233,1.354,2.072,2.656c-0.162,1.312-1.356,2.245-2.66,2.082  C80.769,71.711,79.838,70.516,80,69.202z M88.739,77.175c-0.557,3.172-3.202,5.827-6.273,6.571c3.091-2.681,5.28-6.521,6.321-8.599  C88.874,75.788,88.863,76.468,88.739,77.175z"></path></svg>