<?xml version="1.0" encoding="UTF-8"?>
<!DOCTYPE svg PUBLIC "-//W3C//DTD SVG 1.1//EN" "http://www.w3.org/Graphics/SVG/1.1/DTD/svg11.dtd">
<svg xmlns="http://www.w3.org/2000/svg" xml:space="preserve" style="shape-rendering:geometricPrecision; text-rendering:geometricPrecision; image-rendering:optimizeQuality; fill-rule:evenodd; clip-rule:evenodd"
viewBox="0 0 16.0001 16.0001" xmlns:xlink="http://www.w3.org/1999/xlink">
  <path d="M4.24298 3.72285l2.24912 0 0 -0.791046 0 -0.107776 0.076329 -0.076329 0.366143 -0.365995 0.076329 -0.0764766 0.076329 -0.076329 0.000147638 0 0.107628 0 0.260434 0 1.21373 0 0.260434 0 0.107776 0 0.076329 0.076329 0.076329 0.076329 0.366143 0.366143 0.076329 0.076329 0 0.107776 0 0.791046 2.12451 0 0.260434 0.000147638 0 0.260286 0 8.92458 0 0.260582 -0.260434 -0.000147638 -7.51405 0 -0.260434 0.000147638 0 -0.260582 0 -8.92458 0 -0.260286 0.260434 -0.000147638zm1.24976 8.03462l0 0.250099 -0.989324 0 0 0.639864 6.99318 0 0 -8.40372 -1.86408 0 0 0.442767 0 0.260434 -0.260434 0 -0.442472 0 -0.260434 0 0 -0.260434 0 -0.442767 -1.21373 0 0 0.442767 0 0.260434 -0.260434 0 -0.442472 0 -0.260434 0 0 -0.260434 0 -0.442767 -1.98869 0 0 7.51375 0.989324 0zm5.99869 0l0 0.250099 -0.249952 0 0 -0.250099 0.249952 0zm-0.499903 0l0 0.250099 -0.249952 0 0 -0.250099 0.249952 0zm-0.499903 0l0 0.250099 -1.24976 0 0 -0.250099 1.24976 0zm-1.49971 0l0 0.250099 -0.249952 0 0 -0.250099 0.249952 0zm-0.499903 0l0 0.250099 -0.249952 0 0 -0.250099 0.249952 0zm-0.499903 0l0 0.250099 -1.24976 0 0 -0.250099 1.24976 0zm-1.49971 0l0 0.250099 -0.249804 0 0 -0.250099 0.249804 0zm-0.499755 0l0 0.250099 -0.249952 0 0 -0.250099 0.249952 0zm1.4628 -8.03462l1.21373 0 0 -0.530612 -1.21373 0 0 0.530612z"/>
</svg>
