<?xml version="1.0" encoding="UTF-8"?>
<!DOCTYPE svg PUBLIC "-//W3C//DTD SVG 1.1//EN" "http://www.w3.org/Graphics/SVG/1.1/DTD/svg11.dtd">
<svg xmlns="http://www.w3.org/2000/svg" xml:space="preserve" style="shape-rendering:geometricPrecision; text-rendering:geometricPrecision; image-rendering:optimizeQuality; fill-rule:evenodd; clip-rule:evenodd"
viewBox="0 0 21.3337 21.3337" xmlns:xlink="http://www.w3.org/1999/xlink">
  <path d="M9.84005 5.19887l1.65376 0c0.125395,0 0.239766,0.051969 0.322444,0.135041l0.000787409 -0.000590557c0.0824811,0.0824811 0.13445,0.197836 0.13445,0.323428l0 0.655715c0,0.125985 -0.051969,0.24075 -0.13445,0.323231 -0.0824811,0.0824811 -0.197246,0.13445 -0.323231,0.13445l-1.65376 0c-0.124607,0 -0.239766,-0.0515753 -0.322838,-0.135237l-0.000590557 0.000787409c-0.0820874,-0.0820874 -0.134253,-0.196852 -0.134253,-0.323231l0 -0.655715c0,-0.125789 0.0515753,-0.240947 0.134253,-0.323625 0.0830716,-0.0830716 0.19764,-0.134253 0.323428,-0.134253zm-1.69962 10.4779l0 0.333468 -1.31911 0 0 0.522839 7.69121 0 0 -0.522839 -1.37304 0 0 -0.333468 1.37304 0 0 -8.18492 -1.37304 0 0 -0.333468 1.37304 0 0 -2.3575 -7.69121 0 0 2.3575 1.31911 0 0 0.333468 -1.31911 0 0 8.18492 1.31911 0zm4.66579 0l0 0.333468 -0.333271 0 0 -0.333468 0.333271 0zm-0.666542 0l0 0.333468 -0.333271 0 0 -0.333468 0.333271 0zm-0.666542 0l0 0.333468 -1.66635 0 0 -0.333468 1.66635 0zm-1.99962 0l0 0.333468 -0.333271 0 0 -0.333468 0.333271 0zm-0.666542 0l0 0.333468 -0.333271 0 0 -0.333468 0.333271 0zm3.99925 -8.51839l0 0.333468 -0.333271 0 0 -0.333468 0.333271 0zm-0.666542 0l0 0.333468 -0.333271 0 0 -0.333468 0.333271 0zm-0.666542 0l0 0.333468 -1.66635 0 0 -0.333468 1.66635 0zm-1.99962 0l0 0.333468 -0.333271 0 0 -0.333468 0.333271 0zm-0.666542 0l0 0.333468 -0.333271 0 0 -0.333468 0.333271 0zm-2.3329 -3.052l8.38571 0 0.347247 0 0 0.347247 0 12.4267 0 0.347247 -0.347247 0 -8.38571 0 -0.347247 0 0 -0.347247 0 -12.4267 0 -0.347247 0.347247 0zm4.78292 1.78702l-1.18013 0 0 0.182285 1.18013 0 0 -0.182285z"/>
</svg>
