<?xml version="1.0" encoding="UTF-8"?>
<!DOCTYPE svg PUBLIC "-//W3C//DTD SVG 1.1//EN" "http://www.w3.org/Graphics/SVG/1.1/DTD/svg11.dtd">
<svg xmlns="http://www.w3.org/2000/svg" xml:space="preserve" style="shape-rendering:geometricPrecision; text-rendering:geometricPrecision; image-rendering:optimizeQuality; fill-rule:evenodd; clip-rule:evenodd"
viewBox="0 0 32.0007 32.0007" xmlns:xlink="http://www.w3.org/1999/xlink">
  <path d="M8.52416 9.89692l-0.160042 -4.09672 -0.0197838 -0.508178 0.510245 -0.0289375 2.83942 -0.160928 0.532686 -0.0301186 0.0144687 0.53682 0.0761824 2.79424 0.000590561 0 0.0522647 0.760052 1.44451 -0.098919 0.0454732 -0.00295281 0.0460638 0.00501977 0.338982 0.0377959 0.0782494 -1.2886 0.033662 -0.551289 0.546269 0.0649617 2.52052 0.300891 0.481603 0.0575797 -0.0239177 0.48367 -0.065257 1.33349 0.893224 0.0992143 0.888499 -0.059942 -0.00649617 -0.556899 0 -0.00206696 -0.0159452 -3.26521 -0.00236224 -0.486622 0.486622 -0.0342525 2.94542 -0.206696 0.549517 -0.0383865 0.00383865 0.555128 0.0304139 4.38196 0.0366148 3.46896 0 0.0386818 -0.338096 4.83079 0.349022 4.07103 0.0014764 0.0162404 -0.0014764 0.0428157 -0.0791352 2.49128 0.000295281 1.23043 0.000295281 0.466839 -0.464181 0.0499024 -3.79436 0.408373 -0.0546269 0.00590561 -0.0552175 -0.00590561 -6.59421 -0.706902 -3.67181 0.300596 -0.561624 0.0460638 0 -0.564872 0 -1.24667 0.00206696 -0.0428157 0.31034 -3.68687 -0.232091 -4.50332 -0.00118112 -0.0265753 0.00118112 -0.0265753 0.232681 -4.44427 -0.150888 -2.19098 0 -0.0162404zm12.1582 1.02226l-0.497843 0.00413393 -0.00383865 -0.376187 -0.0236224 0.0014764 -1.42384 0.0959662 -0.0451779 0.00324809 -0.0463591 -0.00531505 -1.42502 -0.15827 -0.485441 -0.0537411 0.0236224 -0.487508 0.0655523 -1.33703 -1.49264 -0.178054 -0.0779541 1.28418 -0.0330714 0.547155 -0.542726 -0.0608278 -0.835349 -0.0933087 -1.79885 0.123132 0.0425204 0.710445 -0.497843 0.0295281 -0.0422251 -0.705721 -0.137896 0.00944898 -0.0360242 -0.519989 -0.0879936 -1.27975 0 -0.0224413 -0.0620089 -2.27986 -1.79678 0.101872 0.139668 3.5723 0.000590561 0 0.15266 2.21726 0.00206696 0.0265753 -0.00206696 0.0345478 -0.232976 4.45283 0.232976 4.51956 0.00236224 0.043111 -0.00236224 0.02628 -0.284355 3.37506 1.89954 -0.156203 0.0705721 -0.967044 0.497843 0.0354337 -0.0649617 0.890271 0.745288 -0.0614184 0.0212602 -0.0014764 0.0245083 0.00236224 6.62226 0.709855 0.891157 -0.0956709 0 -0.24154 0 -0.0360242 0.00118112 -0.00679145 0.00620089 -0.221165 0.497843 0.0135829 -0.00590561 0.214374 0.000885842 0 0 0.223823 1.88773 -0.202562 0.0720485 -2.26894 -0.350498 -4.08993 -0.00295281 -0.0345478 0.00295281 -0.0428157 0.340754 -4.86829 -0.0363195 -3.43529 0 -0.00206696 -0.0265753 -3.82861 -1.90928 0.133762 0.0135829 2.77652 0.0121065 1.04677 0.041044 0.893519zm-11.2785 14.1233l0 0.473925 1.90869 -0.156203 0 -0.474516 -1.90869 0.156794zm2.4089 0.276678l0.744698 -0.0608278 0.0434062 -0.00354337 0.0522647 0.00561033 6.59155 0.706606 0.892928 -0.0959662 0 -0.47363 -0.864877 0.0927181 -0.0259847 0.00295281 -0.0265753 -0.00295281 -6.62403 -0.71015 -0.783379 0.0643712 0 0.474811zm8.82505 0.497843l1.88241 -0.202562 -0.000295281 -0.473039 -2.37553 0.255122 0.493414 0 0 0.42048zm-4.64211 -16.859c0.288784,0 0.522647,0.233862 0.522647,0.522351 0,0.288784 -0.233862,0.522647 -0.522647,0.522647 -0.288489,0 -0.522351,-0.233862 -0.522351,-0.522647 0,-0.288489 0.233862,-0.522351 0.522351,-0.522351zm-4.40736 2.4842l0.497843 0.0212602 -0.0227366 0.499615 -0.497843 -0.0212602 0.0227366 -0.499615zm-0.0454732 0.998934l0.497843 0.0212602 -0.0227366 0.499319 -0.497843 -0.0212602 0.0227366 -0.499319zm-0.0454732 0.998639l0.497843 0.0212602 -0.111616 2.46175 0.000590561 0.0138782 -0.497843 0.0212602 -0.00118112 -0.0239177 -0.000295281 -0.0106301 0.000295281 -0.0106301 0.112207 -2.47297zm-0.0885842 3.01777l0.497843 -0.0212602 0.0224413 0.499615 -0.497843 0.0212602 -0.0224413 -0.499615zm0.0448826 0.998934l0.497843 -0.0212602 0.0224413 0.499319 -0.497843 0.0212602 -0.0224413 -0.499319zm0.0445874 0.998639l0.497843 -0.0212602 0.101281 2.2648 0.000590561 0.0174216 -0.000590561 0.0109254 -0.0171263 0.231795 -0.497843 -0.0354337 0.0162404 -0.221165 -0.100395 -2.24709zm0.0475402 2.96698l0.497843 0.0354337 -0.0366148 0.498729 -0.497843 -0.0354337 0.0366148 -0.498729zm-0.0729343 0.997163l0.497843 0.0354337 -0.0363195 0.498434 -0.497843 -0.0354337 0.0363195 -0.498434zm9.18382 1.48467l-0.497843 -0.0135829 0.0516741 -1.88389 -0.0439968 -0.589085 0.497843 -0.0354337 0.0445874 0.595581 0.000295281 0.00649617 -0.000295281 0.0180121 -0.0522647 1.9019zm-0.0295281 -3.02072l-0.497843 0.0354337 -0.0372054 -0.498434 0.497843 -0.0354337 0.0372054 0.498434zm-0.0744107 -0.996867l-0.497843 0.0354337 -0.0369101 -0.498434 0.497843 -0.0354337 0.0369101 0.498434zm-0.0738201 -0.996867l-0.497843 0.0354337 -0.091537 -1.23368 -0.000885842 -0.0144687 0.000885842 -0.0180121 0.0770682 -1.26026 0.497843 0.0295281 -0.0758871 1.24254 0.0903559 1.21892zm0.0159452 -2.96048l-0.497843 -0.0295281 0.0304139 -0.499024 0.497843 0.0295281 -0.0304139 0.499024zm0.0605325 -0.998048l-0.497843 -0.0295281 0.0301186 -0.499024 0.497843 0.0295281 -0.0301186 0.499024zm0.0602372 -0.997753l-0.497843 -0.0295281 0.0829738 -1.37246 -0.0112207 -1.10789 0.497843 -0.00413393 0.0115159 1.12236 0 0.016831 -0.0832691 1.37483z"/>
</svg>
