<?xml version="1.0" encoding="UTF-8"?>
<!DOCTYPE svg PUBLIC "-//W3C//DTD SVG 1.1//EN" "http://www.w3.org/Graphics/SVG/1.1/DTD/svg11.dtd">
<svg xmlns="http://www.w3.org/2000/svg" xml:space="preserve" style="shape-rendering:geometricPrecision; text-rendering:geometricPrecision; image-rendering:optimizeQuality; fill-rule:evenodd; clip-rule:evenodd"
viewBox="0 0 32.0007 32.0007" xmlns:xlink="http://www.w3.org/1999/xlink">
  <path d="M10.7358 21.6686l10.5291 0 0 -13.1908 -1.1448 0 0 1.97868 -0.500205 0 0 -1.97868 -7.16114 0 0 1.97868 -0.500205 0 0 -1.97868 -1.22276 0 0 13.1908zm9.38431 -0.214078l-0.500205 0 0 -0.49991 0.500205 0 0 0.49991zm0 -0.99982l-0.500205 0 0 -2.49955 0.500205 0 0 2.49955zm0 -2.99946l-0.500205 0 0 -0.49991 0.500205 0 0 0.49991zm0 -0.99982l-0.500205 0 0 -0.49991 0.500205 0 0 0.49991zm0 -0.99982l-0.500205 0 0 -2.49955 0.500205 0 0 2.49955zm0 -2.99946l-0.500205 0 0 -0.49991 0.500205 0 0 0.49991zm0 -0.99982l-0.500205 0 0 -0.49991 0.500205 0 0 0.49991zm-7.66135 9.9982l-0.500205 0 0 -0.49991 0.500205 0 0 0.49991zm0 -0.99982l-0.500205 0 0 -2.49955 0.500205 0 0 2.49955zm0 -2.99946l-0.500205 0 0 -0.49991 0.500205 0 0 0.49991zm0 -0.99982l-0.500205 0 0 -0.49991 0.500205 0 0 0.49991zm0 -0.99982l-0.500205 0 0 -2.49955 0.500205 0 0 2.49955zm0 -2.99946l-0.500205 0 0 -0.49991 0.500205 0 0 0.49991zm0 -0.99982l-0.500205 0 0 -0.49991 0.500205 0 0 0.49991zm-1.72296 12.6463l0.250988 0.250988 0.59499 -0.594695 0.176578 -0.175987 0.175987 0.175987 0.594105 0.594105 0.594105 -0.594105 0.177168 -0.176578 0.176578 0.176578 0.594105 0.594105 0.594105 -0.594105 0.177168 -0.176578 0.176578 0.176578 0.594695 0.594695 0.59499 -0.594695 0.176578 -0.175987 0.175987 0.175987 0.594105 0.594105 0.594105 -0.594105 0.176873 -0.176578 0.176873 0.176578 0.594105 0.594105 0.594105 -0.594105 0.176873 -0.176578 0.176873 0.176578 0.594105 0.594105 0.594105 -0.594105 0.176283 -0.175987 0.176283 0.175987 0.0797258 0.0797258 0 -1.12827 -10.5291 0 0 1.39225zm10.5291 0.441149l-0.254827 -0.254827 -0.594695 0.594695 -0.176873 0.177168 -0.176873 -0.177168 -0.594105 -0.594105 -0.594105 0.594105 -0.176873 0.177168 -0.176873 -0.177168 -0.594105 -0.594105 -0.594105 0.594105 -0.176873 0.177168 -0.176873 -0.177168 -0.594695 -0.594695 -0.59499 0.594695 -0.176283 0.176283 -0.176283 -0.176283 -0.594105 -0.594105 -0.594105 0.594105 -0.176578 0.177168 -0.177168 -0.177168 -0.594105 -0.594105 -0.594105 0.594105 -0.176873 0.177168 -0.176873 -0.177168 -0.594695 -0.594695 -0.59499 0.594695 -0.176283 0.176283 -0.176283 -0.176283 -0.0735249 -0.0735249 0 1.12236 10.5291 0 0 -1.3887zm-7.24058 -20.4399l0.303253 -0.303253 0.734363 0 2.08261 0 0.73643 0 0.303253 0.303253 0.645779 0.645779 0.15266 0.15266 0 0.215555 0 1.89275 0 0.425499 2.8031 0 0.520875 0.000295281 0 0.52058 0 13.7116 0 0.520875 0 0.52117 0 3.74268 0 0.520875 -0.520875 0 -11.5709 0 -0.520875 0 0 -0.520875 0 -3.74268 0 -0.52117 0 -0.520875 0 -13.7116 0 -0.52058 0.520875 -0.000295281 3.01098 0 0 -0.425499 0 -1.89275 0 -0.215555 0.15266 -0.15266 0.645779 -0.645779zm3.12023 1.53487l-2.08055 0 0 1.37187 0 0.425499 2.08055 0 0 -0.425499 0 -1.37187z"/>
</svg>
