<?xml version="1.0" encoding="UTF-8"?>
<!DOCTYPE svg PUBLIC "-//W3C//DTD SVG 1.1//EN" "http://www.w3.org/Graphics/SVG/1.1/DTD/svg11.dtd">
<svg xmlns="http://www.w3.org/2000/svg" xml:space="preserve" style="shape-rendering:geometricPrecision; text-rendering:geometricPrecision; image-rendering:optimizeQuality; fill-rule:evenodd; clip-rule:evenodd"
viewBox="0 0 64.003 64.003" xmlns:xlink="http://www.w3.org/1999/xlink">
  <path d="M21.4721 44.3852l21.0587 0 0 -26.3822 -2.40659 0 0 2.91035 -1.00043 0 0 -2.91035 -14.3226 0 0 2.91035 -1.00043 0 0 -2.91035 -2.32864 0 0 26.3822zm17.6517 -28.4657l0 -0.00531517 1.00043 0 0 0.00531517 3.44837 0 1.04177 0.000590575 0 1.04118 0 27.4239 0 1.04177 0 1.04236 0 7.48554 0 1.04177 -1.04177 0 -23.1423 0 -1.04177 0 0 -1.04177 0 -7.48554 0 -1.04236 0 -1.04177 0 -27.4239 0 -1.04118 1.04177 -0.000590575 3.37041 0 0 -0.00531517 1.00043 0 0 0.00531517 1.63707 0c0.12343,-2.25954 0.641955,-4.30529 1.41738,-5.85673 1.00221,-2.00441 2.46447,-3.24462 4.14584,-3.24462 1.68255,0 3.14363,1.24021 4.14584,3.24462 0.775425,1.55144 1.29395,3.59719 1.41738,5.85673l1.55912 0zm1.00043 28.4604l0 -0.470688 -1.00043 0 0 0.470688 1.00043 0zm0 -1.46994l-1.00043 0 0 -0.999843 1.00043 0 0 0.999843zm0 -1.99969l-1.00043 0 0 -4.99922 1.00043 0 0 4.99922zm0 -5.99906l-1.00043 0 0 -0.999843 1.00043 0 0 0.999843zm0 -1.99969l-1.00043 0 0 -0.999843 1.00043 0 0 0.999843zm0 -1.99969l-1.00043 0 0 -4.99922 1.00043 0 0 4.99922zm0 -5.99906l-1.00043 0 0 -0.999843 1.00043 0 0 0.999843zm0 -1.99969l-1.00043 0 0 -0.999843 1.00043 0 0 0.999843zm-15.3231 21.4668l0 -0.470688 -1.00043 0 0 0.470688 1.00043 0zm0 -1.46994l-1.00043 0 0 -0.999843 1.00043 0 0 0.999843zm0 -1.99969l-1.00043 0 0 -4.99922 1.00043 0 0 4.99922zm0 -5.99906l-1.00043 0 0 -0.999843 1.00043 0 0 0.999843zm0 -1.99969l-1.00043 0 0 -0.999843 1.00043 0 0 0.999843zm0 -1.99969l-1.00043 0 0 -4.99922 1.00043 0 0 4.99922zm0 -5.99906l-1.00043 0 0 -0.999843 1.00043 0 0 0.999843zm0 -1.99969l-1.00043 0 0 -0.999843 1.00043 0 0 0.999843zm-3.32907 26.3296l0.512619 0.512619 1.19001 -1.18942 0.352573 -0.351983 0.352573 0.351983 1.18824 1.18824 1.18824 -1.18824 0.353754 -0.353164 0.353754 0.353164 1.18824 1.18824 1.18824 -1.18824 0.353754 -0.353164 0.353754 0.353164 1.14749 1.14749 0.0419308 0.0419308 0.0437025 -0.0437025 1.14631 -1.14572 0.352573 -0.351983 0.352573 0.351983 1.06953 1.06953 0.118706 0.118706 0.124611 -0.124611 1.06363 -1.06363 0.353164 -0.353164 0.354345 0.353164 0.992166 0.992166 0.196071 0.196071 0.206701 -0.206701 0.981535 -0.981535 0.353754 -0.353164 0.353754 0.353164 0.91421 0.91421 0.274027 0.274027 0.288791 -0.288791 0.899445 -0.899445 0.351983 -0.351983 0.353164 0.351983 0.148825 0.148825 0 -2.24596 -21.0587 0 0 2.481 0 0.292925zm21.0587 0.882319l-0.499036 -0.499036 -1.18942 1.18942 -0.353754 0.354345 -0.353754 -0.354345 -1.18824 -1.18824 -1.18824 1.18824 -0.354345 0.354345 -0.353164 -0.354345 -1.18824 -1.18824 -1.18824 1.18824 -0.354345 0.354345 -0.353164 -0.354345 -1.14394 -1.14394 -0.0454743 -0.0454743 -0.0478366 0.0478366 -1.14217 1.14158 -0.353164 0.352573 -0.351983 -0.352573 -1.06599 -1.06599 -0.122249 -0.122249 -0.128745 0.128745 -1.05949 1.05949 -0.353754 0.354345 -0.353754 -0.354345 -0.988032 -0.988032 -0.200205 -0.200205 -0.210835 0.210835 -0.977401 0.977401 -0.353754 0.354345 -0.353754 -0.354345 -0.910076 -0.910076 -0.279342 -0.279342 -0.294106 0.294106 -0.895902 0.895311 -0.353164 0.352573 -0.351983 -0.352573 -0.157683 -0.157683 0 2.25541 21.0587 0 0 -2.52294 0 -0.265168zm-7.04969 -34.2055c-0.0106303,-0.175401 -0.023623,-0.348439 -0.0389779,-0.520296 -0.156502,-1.71975 -0.568724,-3.24521 -1.15044,-4.40923 -0.644908,-1.28982 -1.45931,-2.08827 -2.29025,-2.08827 -0.830348,0 -1.64534,0.797867 -2.29025,2.08827 -0.631915,1.26501 -1.06185,2.95642 -1.18292,4.86102l-0.00413402 0.0685067 6.95697 0z"/>
</svg>
