<?xml version="1.0" encoding="UTF-8"?>
<!DOCTYPE svg PUBLIC "-//W3C//DTD SVG 1.1//EN" "http://www.w3.org/Graphics/SVG/1.1/DTD/svg11.dtd">
<svg xmlns="http://www.w3.org/2000/svg" xml:space="preserve" style="shape-rendering:geometricPrecision; text-rendering:geometricPrecision; image-rendering:optimizeQuality; fill-rule:evenodd; clip-rule:evenodd"
viewBox="0 0 64.6726 64.6726" xmlns:xlink="http://www.w3.org/1999/xlink">
  <path d="M16.9098 41.2353l0.615117 0 -0.307558 -0.307558 -0.307558 0.307558zm2.69395 4.82197l0 1.00386 -3.63796 0 0 2.73128 32.741 0 0 -2.73128 -3.63796 0 0 -1.00386 3.63796 0 0 -2.73128 -32.741 0 0 2.73128 3.63796 0zm23.2826 0l0 1.00386 -3.63796 0 0 -1.00386 3.63796 0zm-5.8205 0l0 1.00386 -3.63796 0 0 -1.00386 3.63796 0zm-5.82109 0l0 1.00386 -3.63796 0 0 -1.00386 3.63796 0zm-5.8205 0l0 1.00386 -3.63737 0 0 -1.00386 3.63737 0zm1.17097 -35.7728l0.589635 -0.625784 1.49275 0 7.31266 0 1.4969 0 0.589635 0.625784 1.22372 1.29897 0.286225 0.304003 0 0.41067 0 3.79855 0 0.853934 10.1654 0 1.04119 0 0 1.04534 0 23.2393 0.00414819 0 0 1.04534 0 8.55712 0 1.04534 -1.04534 0 -34.8317 0 -1.04534 0 0 -1.04534 0 -8.55712 0 -1.04534 0.00414819 0 0 -23.2393 0 -1.04534 1.04119 0 10.1654 0 0 -0.853934 0 -3.79855 0 -0.41067 0.286225 -0.304003 1.22312 -1.29897zm9.39505 6.66614l0 -0.853934 0 -2.75736 -7.30851 0 0 2.75736 0 0.853934 7.30851 0zm9.74053 24.2847l1.0169 -1.0169 -1.41927 -1.41868 0.709933 -0.709933 1.41927 1.41868 1.25334 -1.25334 0 -6.15295 -1.25334 -1.25394 -1.41927 1.41927 -0.709933 -0.709933 1.41927 -1.41927 -1.41927 -1.41927 0.709933 -0.709933 1.41927 1.41927 1.25334 -1.25394 0 -6.15295 -1.25334 -1.25394 -1.41927 1.41927 -0.709933 -0.709933 1.41927 -1.41927 -1.0169 -1.01631 -6.62702 0 -1.01631 1.01631 1.41868 1.41927 -0.709933 0.709933 -1.41868 -1.41927 -1.41927 1.41927 -0.709933 -0.709933 1.41927 -1.41927 -1.0169 -1.01631 -6.62762 0 -1.01631 1.01631 1.41868 1.41927 -0.709933 0.709933 -1.41868 -1.41927 -1.41927 1.41927 -0.709933 -0.709933 1.41927 -1.41927 -1.0169 -1.01631 -6.62702 0 -1.01631 1.01631 1.41868 1.41927 -0.709933 0.709933 -1.41868 -1.41927 -1.25512 1.25512 0 6.15058 1.25512 1.25512 1.41868 -1.41927 0.709933 0.709933 -1.41927 1.41927 1.41927 1.41927 -0.709933 0.709933 -1.41868 -1.41927 -1.25512 1.25512 0 6.14939 1.25572 1.25512 1.41868 -1.41868 0.709933 0.709933 -1.41868 1.41868 1.0169 1.01749 6.62584 0 1.0169 -1.0169 -1.41927 -1.41868 0.709933 -0.709933 1.41927 1.41868 1.41868 -1.41868 0.709933 0.709933 -1.41868 1.41868 1.01631 1.0169 6.62762 0 1.0169 -1.0169 -1.41927 -1.41868 0.709933 -0.709933 1.41927 1.41868 1.41868 -1.41868 0.709933 0.709933 -1.41868 1.41868 1.01631 1.0169 6.62702 0zm2.98018 -1.56031l-0.543412 0.543412 0.543412 0.543412 0 -1.08682zm-0.946379 1.56031l-0.306966 -0.306966 -0.306966 0.306966 0.613932 0zm-10.0801 0l-0.306966 -0.306966 -0.306966 0.306966 0.613932 0zm11.0265 -11.641l-0.544005 0.544005 0.544005 0.544005 0 -1.08801zm-8.4226 7.00332l1.41927 -1.41927 -1.41927 -1.41868 0.709933 -0.709933 1.41927 1.41868 1.41868 -1.41868 0.709933 0.709933 -1.41868 1.41868 1.41868 1.41927 -0.709933 0.709933 -1.41868 -1.41927 -1.41927 1.41927 -0.709933 -0.709933zm-10.0807 0l1.41927 -1.41927 -1.41927 -1.41868 0.709933 -0.709933 1.41927 1.41927 1.41927 -1.41927 0.709933 0.709933 -1.41927 1.41868 1.41927 1.41927 -0.709933 0.709933 -1.41927 -1.41927 -1.41927 1.41927 -0.709933 -0.709933zm10.0807 -10.0807l1.41927 -1.41927 -1.41927 -1.41868 0.709933 -0.709933 1.41927 1.41868 1.41868 -1.41868 0.709933 0.709933 -1.41868 1.41868 1.41868 1.41927 -0.709933 0.709933 -1.41868 -1.41927 -1.41927 1.41927 -0.709933 -0.709933zm-12.6846 14.7184l-0.306966 -0.306966 -0.306966 0.306966 0.613932 0zm7.64452 -9.67772l1.41927 -1.41927 -1.41927 -1.41927 0.709933 -0.709933 1.41927 1.41927 1.41868 -1.41927 0.709933 0.709933 -1.41927 1.41927 1.41927 1.41927 -0.709933 0.709933 -1.41868 -1.41927 -1.41927 1.41927 -0.709933 -0.709933zm-10.0807 0l1.41927 -1.41927 -1.41927 -1.41927 0.709933 -0.709933 1.41927 1.41927 1.41868 -1.41927 0.709933 0.709933 -1.41927 1.41927 1.41927 1.41927 -0.709933 0.709933 -1.41868 -1.41927 -1.41927 1.41927 -0.709933 -0.709933zm11.9035 -12.5163l0.306373 0.306373 0.306373 -0.306373 -0.612746 0zm-16.9436 17.5563l1.41927 -1.41927 -1.41927 -1.41868 0.709933 -0.709933 1.41927 1.41868 1.41868 -1.41868 0.709933 0.709933 -1.41868 1.41868 1.41868 1.41927 -0.709933 0.709933 -1.41868 -1.41927 -1.41927 1.41927 -0.709933 -0.709933zm10.0801 -10.0807l1.41927 -1.41927 -1.41927 -1.41868 0.709933 -0.709933 1.41927 1.41927 1.41927 -1.41927 0.709933 0.709933 -1.41927 1.41868 1.41927 1.41927 -0.709933 0.709933 -1.41927 -1.41927 -1.41927 1.41927 -0.709933 -0.709933zm-10.0801 0l1.41927 -1.41927 -1.41927 -1.41868 0.709933 -0.709933 1.41927 1.41868 1.41868 -1.41868 0.709933 0.709933 -1.41868 1.41868 1.41868 1.41927 -0.709933 0.709933 -1.41868 -1.41927 -1.41927 1.41927 -0.709933 -0.709933zm-4.16596 4.16656l0.54519 -0.54519 -0.54519 -0.54519 0 1.09038zm11.0288 -11.6422l0.306373 0.306373 0.306373 -0.306373 -0.612746 0zm-11.0288 1.5615l0.54519 -0.54519 -0.54519 -0.54519 0 1.09038zm0.94875 -1.5615l0.306373 0.306373 0.306373 -0.306373 -0.612746 0zm30.2409 0l0.306373 0.306373 0.306373 -0.306373 -0.612746 0zm1.55972 0.472893l-0.543412 0.543412 0.543412 0.543412 0 -1.08682zm-32.7493 20.1578l0 1.09157 0.545783 -0.545783 -0.545783 -0.545783z"/>
</svg>
