<?xml version="1.0" encoding="UTF-8"?>
<!DOCTYPE svg PUBLIC "-//W3C//DTD SVG 1.1//EN" "http://www.w3.org/Graphics/SVG/1.1/DTD/svg11.dtd">
<svg xmlns="http://www.w3.org/2000/svg" xml:space="preserve" style="shape-rendering:geometricPrecision; text-rendering:geometricPrecision; image-rendering:optimizeQuality; fill-rule:evenodd; clip-rule:evenodd"
viewBox="0 0 63.997 63.997" xmlns:xlink="http://www.w3.org/1999/xlink">
  <path d="M43.0117 13.3576l0 1.22592 6.3416 0 1.03754 0 0 1.04168 0 32.7266 0 1.04168 -1.03754 0 -34.7096 0 -1.03754 0 0 -1.04168 0 -32.7266 0 -1.04168 1.03754 0 6.3416 0 0 -1.22592 2.08336 0 0 1.22592 2.89473 0c0.110427,-1.20525 0.866293,-2.42527 2.02371,-3.30632 1.0529,-0.802517 2.46542,-1.35702 4.0114,-1.35702 1.54598,0 2.95851,0.554499 4.0114,1.35702 1.15742,0.881056 1.91565,2.10107 2.02608,3.30632l2.89237 0 0 -1.22592 2.08336 0zm-9.44596 15.9003l0.0118104 0.00708624 0.0112199 0.00767676 1.07357 0 0 -0.00236208 0.813146 0 1.04109 -3.8874c0.0708624,-0.266325 0.344864,-0.424584 0.611189,-0.353722 0.266325,0.0708624 0.424584,0.344864 0.353722,0.611189l-0.829091 3.09551 2.77426 -1.60208c0.23798,-0.137591 0.543869,-0.0560994 0.68146,0.18188 0.137591,0.23798 0.0560994,0.543869 -0.18188,0.68146l-2.77545 1.60267 3.09492 0.829091c0.266325,0.0708624 0.424584,0.344864 0.353722,0.611189 -0.0708624,0.266325 -0.344864,0.424584 -0.611189,0.353722l-3.89094 -1.04227 -0.39742 0.689137 -0.00767676 0.014763 -0.535602 0.926526 0 0.0165346 0 0.0165346 0.535602 0.926526 -0.00059052 0.00059052 0.00059052 0.00118104 0.405687 0.70331 3.89035 -1.04345c0.266325,-0.0708624 0.540326,0.087397 0.611189,0.353722 0.0708624,0.266325 -0.087397,0.540326 -0.353722,0.611189l-3.0961 0.829681 2.77485 1.60208c0.23798,0.13641 0.320062,0.441709 0.183652,0.679689 -0.13641,0.23798 -0.441709,0.320062 -0.679689,0.183652l-2.77663 -1.60267 0.829681 3.09669c0.0708624,0.266325 -0.087397,0.540326 -0.353722,0.611189 -0.266325,0.0708624 -0.540326,-0.087397 -0.611189,-0.353722l-1.04109 -3.8874 -0.813146 0 0 -0.00236208 -1.07416 0 -0.0112199 0.00649572 0.00059052 0.00059052 -0.0124009 0.00708624 -0.537373 0.93066 -0.00059052 -0.00059052 -0.405097 0.702129 2.84808 2.84808c0.194872,0.194872 0.194872,0.512572 0,0.707443 -0.194872,0.194872 -0.512572,0.194872 -0.707443,0l-2.26405 -2.26405 0 3.20121c0,0.275773 -0.224398,0.500171 -0.500171,0.500171 -0.275773,0 -0.500171,-0.224398 -0.500171,-0.500171l0 -3.20121 -2.26405 2.26405c-0.194872,0.194872 -0.512572,0.194872 -0.707443,0 -0.194872,-0.194872 -0.194872,-0.512572 0,-0.707443l2.84808 -2.84808 -0.380886 -0.660202 -0.0248019 -0.0413364 -0.537373 -0.93066 -0.0124009 -0.00708624 -0.0118104 -0.00708624 -1.07298 0 0 0.00236208 -0.813146 0 -1.04109 3.8874c-0.0708624,0.266325 -0.344864,0.424584 -0.611189,0.353722 -0.266325,-0.0708624 -0.424584,-0.344864 -0.353722,-0.611189l0.829681 -3.09669 -2.77663 1.60267c-0.23798,0.13641 -0.543279,0.0543279 -0.679689,-0.183652 -0.13641,-0.23798 -0.0543279,-0.543279 0.183652,-0.679689l2.77485 -1.60208 -3.0961 -0.829681c-0.266325,-0.0708624 -0.424584,-0.344864 -0.353722,-0.611189 0.0708624,-0.266325 0.344864,-0.424584 0.611189,-0.353722l3.89035 1.04286 0.405687 -0.702719 0.00059052 -0.00118104 -0.00059052 -0.00059052 0.535602 -0.926526 0 -0.0165346 0 -0.0165346 -0.535602 -0.926526 -0.0224398 -0.0401554 -0.383248 -0.663745 -3.89035 1.04227c-0.266325,0.0708624 -0.540326,-0.087397 -0.611189,-0.353722 -0.0708624,-0.266325 0.087397,-0.540326 0.353722,-0.611189l3.09492 -0.829091 -2.77545 -1.60267c-0.23798,-0.137591 -0.319471,-0.443481 -0.18188,-0.68146 0.137591,-0.23798 0.443481,-0.319471 0.68146,-0.18188l2.77426 1.60208 -0.829091 -3.09551c-0.0708624,-0.266325 0.087397,-0.540326 0.353722,-0.611189 0.266325,-0.0708624 0.540326,0.087397 0.611189,0.353722l1.04168 3.8874 0.812556 0 0 0.00236208 1.07298 0 0.0124009 -0.00708624 -0.00059052 -0.00059052 0.0118104 -0.00708624 0.537964 -0.93066 0.0171251 -0.028345 0.388562 -0.673193 -2.84808 -2.84749c-0.194872,-0.194872 -0.194872,-0.512572 0,-0.707443 0.194872,-0.194872 0.512572,-0.194872 0.707443,0l2.26405 2.26346 0 -3.20121c0,-0.275773 0.224398,-0.500171 0.500171,-0.500171 0.275773,0 0.500171,0.224398 0.500171,0.500171l0 3.20121 2.26405 -2.26346c0.194872,-0.194872 0.512572,-0.194872 0.707443,0 0.194872,0.194872 0.194872,0.512572 0,0.707443l-2.84867 2.84749 0.405687 0.702129 0.00059052 -0.00059052 0.537964 0.93066zm-0.48777 0.870427l-0.0265734 -0.0153535 -1.0529 0 -1.0529 0 -0.0265734 0.0153535 -0.00059052 -0.00059052 -0.00118104 0.00059052 -0.028345 0.0165346 -0.524973 0.908811 -0.523201 0.905858 0 0.0389743 0 0.0389743 0.523201 0.905858 0.524382 0.908811 0.0236208 0.013582 0.00708624 0.0029526 0.0265734 0.0153535 1.0529 0 1.0529 0 0.0265734 -0.0153535 0.00059052 0.00059052 0.00118104 -0.00059052 0.0289355 -0.0171251 0.524382 -0.90822 0.523201 -0.905858 0 -0.0389743 0 -0.0389743 -0.523201 -0.905858 -0.524382 -0.90822 -0.0307071 -0.0171251zm-17.3967 17.1818l32.6345 0 0 -30.6433 -3.36538 0 0 2.05324 -25.9032 0 0 -2.05324 -3.36597 0 0 30.6433zm13.3328 -32.7266l5.97134 0c-0.120466,-0.300575 -0.402735,-0.631266 -0.791888,-0.927707 -0.571033,-0.435213 -1.34284,-0.735788 -2.19496,-0.735788 -0.852121,0 -1.62393,0.300575 -2.19496,0.735788 -0.389153,0.296441 -0.66906,0.627133 -0.789526,0.927707z"/>
</svg>
