<?xml version="1.0" encoding="UTF-8"?>
<!DOCTYPE svg PUBLIC "-//W3C//DTD SVG 1.1//EN" "http://www.w3.org/Graphics/SVG/1.1/DTD/svg11.dtd">
<svg xmlns="http://www.w3.org/2000/svg" xml:space="preserve" style="shape-rendering:geometricPrecision; text-rendering:geometricPrecision; image-rendering:optimizeQuality; fill-rule:evenodd; clip-rule:evenodd"
viewBox="0 0 128 128" xmlns:xlink="http://www.w3.org/1999/xlink">
  <path d="M102.1,103.075l-77.192,0l0,-78.15l77.192,0l0,78.15Zm-10.344,-7.653l-0.707,-0.709l-2.376,-2.376l-2.376,2.376l-0.709,0.709l-0.706,-0.709l-2.377,-2.376l-3.085,3.085l-0.706,-0.709l-2.379,-2.379l-2.38,2.379l-0.702,0.703l-0.703,-0.703l-2.38,-2.379l-2.379,2.379l-0.708,0.709l-0.707,-0.709l-2.376,-2.376l-2.376,2.376l-0.709,0.709l-0.706,-0.709l-2.377,-2.376l-2.376,2.376l-0.709,0.709l-0.706,-0.709l-2.379,-2.379l-2.38,2.379l-0.706,0.705l-0.704,-0.705l-2.376,-2.376l-2.377,2.376l-0.708,0.709l-0.707,-0.709l-2.376,-2.376l-2.376,2.376l-0.709,0.709l-0.706,-0.709l-2.379,-2.379l-2.38,2.379l-0.706,0.705l-0.704,-0.705l-0.293,-0.293l0,4.488l0,0l68.858,0l0,-3.495l-0.005,0.005l-0.705,-0.705l-2.38,-2.379l-3.087,3.088Zm6.177,-9.402l-68.858,0l0,5.57l1.003,1.003l2.379,-2.379l0.706,-0.704l0.705,0.704l2.376,2.377l2.376,-2.377l0.707,-0.706l0.708,0.706l2.377,2.377l2.376,-2.377l0.706,-0.706l0.709,0.706l2.379,2.379l2.38,-2.379l0.705,-0.704l0.705,0.704l2.376,2.377l2.377,-2.377l0.706,-0.706l0.709,0.706l2.376,2.377l2.376,-2.377l0.707,-0.706l0.708,0.706l2.377,2.377l3.08,-3.081l0.706,0.704l2.382,2.381l2.383,-2.381l0.705,-0.704l0.705,0.704l2.376,2.377l2.377,-2.377l0.706,-0.706l0.709,0.706l2.376,2.377l3.083,-3.083l0.708,0.706l2.377,2.377l3.08,-3.081l0.706,0.704l2.38,2.379l0.01,-0.009l0,0l0,-6.564Zm0,-56.929l-68.858,0l0,52.762l68.858,0l0,-52.762Zm-21.858,35.359l0,3.243c-0.874,0.598 -2.3,1.035 -3.45,1.035c-2.496,0 -4.336,-1.76 -4.336,-4.129c0,-2.357 1.898,-4.105 4.497,-4.105c1.23,0 2.553,0.471 3.404,1.219l-1.357,1.644c-0.552,-0.529 -1.357,-0.874 -2.059,-0.874c-1.161,0 -2.035,0.909 -2.035,2.116c0,1.231 0.885,2.128 2.058,2.128c0.334,0 0.782,-0.115 1.219,-0.311l0,-1.966l2.059,0Zm-20.286,4.174l-4.129,0l0,-8.061l3.956,0c1.887,0 3.094,0.793 3.094,2.035c0,0.817 -0.529,1.495 -1.369,1.737c0.989,0.207 1.622,1.012 1.622,2.035c0,1.38 -1.242,2.254 -3.174,2.254Zm12.604,0l-2.553,0l-0.472,-1.288l-3.254,0l-0.483,1.288l-2.461,0l3.438,-8.061l2.461,0l3.324,8.061Zm-12.903,-3.266l-1.449,0l0,1.484l1.449,0c0.61,0 0.989,-0.299 0.989,-0.771c0,-0.437 -0.379,-0.713 -0.989,-0.713Zm9.246,0.23l-0.966,-2.633l-0.989,2.633l1.955,0Zm-9.246,-3.231l-1.449,0l0,1.368l1.449,0c0.472,0 0.77,-0.276 0.77,-0.701c0,-0.414 -0.298,-0.667 -0.77,-0.667Zm17.997,-13.363c-2.53,0 -4.393,1.725 -4.393,4.094c0,2.38 1.863,4.14 4.393,4.14c2.53,0 4.393,-1.771 4.393,-4.14c0,-2.358 -1.863,-4.094 -4.393,-4.094Zm-20.032,-0.035c-2.012,0 -3.335,0.989 -3.335,2.542c0,2.84 4.209,2.07 4.209,3.289c0,0.368 -0.322,0.54 -0.828,0.54c-0.828,0 -2.173,-0.529 -3.001,-1.23l-0.897,1.817c1.012,0.793 2.507,1.276 3.875,1.276c1.806,0 3.324,-0.816 3.324,-2.53c0,-2.909 -4.209,-2.208 -4.209,-3.392c0,-0.299 0.264,-0.437 0.667,-0.437c0.678,0 1.851,0.425 2.679,0.897l0.886,-1.84c-0.874,-0.564 -2.139,-0.932 -3.37,-0.932Zm8.049,8.165l-2.392,0l0,-8.061l2.392,0l0,3.208l2.864,0l0,-3.208l2.392,0l0,8.061l-2.392,0l0,-3.001l-2.864,0l0,3.001Zm-14.062,-6.221l-4.198,0l0,1.265l3.807,0l0,1.84l-3.807,0l0,1.276l4.313,0l0,1.84l-6.705,0l0,-8.061l6.59,0l0,1.84Zm35.163,6.221l-2.392,0l0,-8.061l3.657,0c2.082,0 3.278,1.035 3.278,2.863c0,1.921 -1.196,3.025 -3.278,3.025l-1.265,0l0,2.173Zm-9.084,-6.129c1.058,0 1.909,0.885 1.909,2.104c0,1.219 -0.851,2.128 -1.909,2.128c-1.058,0 -1.978,-0.909 -1.978,-2.128c0,-1.219 0.909,-2.104 1.978,-2.104Zm10.234,-0.092l-1.15,0l0,2.208l1.15,0c0.713,0 1.127,-0.391 1.127,-1.116c0,-0.701 -0.414,-1.092 -1.127,-1.092Zm-27.353,-19.71l15.197,0c0.756,0 1.445,0.312 1.94,0.806c0.494,0.495 0.806,1.187 0.806,1.941l0,3.934c0,0.745 -0.31,1.433 -0.808,1.93l-0.008,0.008c-0.495,0.496 -1.181,0.808 -1.93,0.808l-15.197,0c-1.482,0 -2.746,-1.234 -2.746,-2.746l0,-3.934c0,-0.755 0.311,-1.447 0.805,-1.942c0.499,-0.498 1.187,-0.805 1.941,-0.805l0,0Zm13.776,4.167l-12.355,0l0,1.093l12.355,0l0,-1.093Z"/>
</svg>