<?xml version="1.0" encoding="UTF-8"?>
<!DOCTYPE svg PUBLIC "-//W3C//DTD SVG 1.1//EN" "http://www.w3.org/Graphics/SVG/1.1/DTD/svg11.dtd">
<svg xmlns="http://www.w3.org/2000/svg" xml:space="preserve" style="shape-rendering:geometricPrecision; text-rendering:geometricPrecision; image-rendering:optimizeQuality; fill-rule:evenodd; clip-rule:evenodd"
viewBox="0 0 128 128" xmlns:xlink="http://www.w3.org/1999/xlink">
  <path d="M37.808,95.11l0.008,-0.146l1.053,-14.407l-0.788,-17.605l-0.005,-0.089l0.005,-0.09l0.789,-17.366l-1.054,-17.66l-0.122,-2.05l2.051,-0.146l16.824,-1.193l0.179,-0.012l0.227,0.028l16.213,2.093l14.527,-0.916l2.183,-0.137l0.022,2.195l0.228,22.702l0,0.138l-1.145,18.878l1.182,15.909l0.003,0.056l-0.003,0.147l-0.267,9.671l0.007,0l0,6.706l-1.831,0.227l-12.851,1.593l-0.253,0.032l-0.253,-0.032l-22.319,-2.756l-12.332,1.163l-2.278,0.215l0,-7.148Zm7.594,-0.571m0,0l-0.706,0.705l-0.704,-0.705l-1.839,-1.839l-0.178,2.443l0,2.551l10.307,-0.972l0.253,-0.024l0.195,0.024l22.26,2.75l10.768,-1.336l0,-3.026l0.008,-0.057l0.021,-0.732l-0.001,0l-0.994,-0.995l-2.376,2.377l-0.708,0.708l-0.707,-0.708l-2.377,-2.377l-2.376,2.377l-0.708,0.708l-0.707,-0.708l-2.376,-2.377l-3.082,3.082l-0.705,-0.705l-2.526,-2.525l-2.413,1.502l-0.675,0.42l-0.56,-0.561l-2.376,-2.376l-2.376,2.376l-0.708,0.709l-0.707,-0.709l-2.377,-2.376l-2.376,2.376l-0.707,0.709l-0.708,-0.709l-2.379,-2.378l-2.38,2.378Zm-3.056,-4.476l2.356,2.356l2.38,-2.378l0.705,-0.704l0.705,0.704l2.377,2.376l2.376,-2.376l0.707,-0.707l0.708,0.707l2.376,2.376l2.377,-2.376l0.707,-0.707l0.708,0.707l2.524,2.524l2.409,-1.502l0.671,-0.417l0.559,0.558l2.379,2.379l2.379,-2.379l0.708,-0.706l0.707,0.706l2.376,2.376l2.377,-2.376l0.707,-0.706l0.708,0.706l2.376,2.376l2.377,-2.376l0.707,-0.706l0.707,0.706l0.363,0.363l0.109,-3.922l-11.071,1.37l-0.252,0.032l-0.253,-0.032l-22.325,-2.759l-9.512,0.903l-0.212,2.904Zm0.519,-7.104l9.068,-0.86l0.253,-0.024l0.194,0.024l22.268,2.752l11.233,-1.391l-1.038,-13.961l-0.01,-0.12l0.01,-0.148l1.154,-19.005l-0.205,-20.387l-12.52,0.789l-0.176,0.012l-0.214,-0.029l-16.2,-2.09l-14.593,1.035l0.937,15.699l0.005,0.092l-0.005,0.119l-0.791,17.398l0.791,17.659l0.006,0.148l-0.006,0.089l-0.161,2.199Zm33.692,-21.146l0,3.243c-0.874,0.598 -2.3,1.035 -3.45,1.035c-2.495,0 -4.335,-1.76 -4.335,-4.129c0,-2.357 1.897,-4.105 4.496,-4.105c1.231,0 2.553,0.471 3.404,1.219l-1.357,1.644c-0.552,-0.529 -1.357,-0.874 -2.058,-0.874c-1.162,0 -2.036,0.909 -2.036,2.116c0,1.231 0.886,2.128 2.059,2.128c0.333,0 0.782,-0.115 1.219,-0.311l0,-1.966l2.058,0Zm-20.286,4.174l-4.128,0l0,-8.061l3.956,0c1.886,0 3.093,0.793 3.093,2.035c0,0.817 -0.529,1.495 -1.368,1.737c0.989,0.207 1.621,1.012 1.621,2.035c0,1.38 -1.242,2.254 -3.174,2.254Zm12.604,0l-2.553,0l-0.471,-1.288l-3.255,0l-0.483,1.288l-2.461,0l3.439,-8.061l2.461,0l3.323,8.061Zm-12.903,-3.266l-1.449,0l0,1.484l1.449,0c0.61,0 0.989,-0.299 0.989,-0.771c0,-0.437 -0.379,-0.713 -0.989,-0.713Zm9.246,0.23l-0.966,-2.633l-0.989,2.633l1.955,0Zm-9.246,-3.231l-1.449,0l0,1.368l1.449,0c0.472,0 0.771,-0.276 0.771,-0.701c0,-0.414 -0.299,-0.667 -0.771,-0.667Zm16.694,-13.363c-2.53,0 -4.393,1.725 -4.393,4.094c0,2.38 1.863,4.14 4.393,4.14c2.53,0 4.393,-1.771 4.393,-4.14c0,-2.358 -1.863,-4.094 -4.393,-4.094Zm-17.426,-0.035c-2.012,0 -3.335,0.989 -3.335,2.542c0,2.84 4.209,2.07 4.209,3.289c0,0.368 -0.322,0.54 -0.828,0.54c-0.828,0 -2.173,-0.529 -3.001,-1.23l-0.897,1.817c1.012,0.793 2.507,1.276 3.875,1.276c1.806,0 3.324,-0.816 3.324,-2.53c0,-2.909 -4.209,-2.208 -4.209,-3.392c0,-0.299 0.264,-0.437 0.667,-0.437c0.678,0 1.851,0.425 2.679,0.897l0.886,-1.84c-0.874,-0.564 -2.139,-0.932 -3.37,-0.932Zm6.747,8.165l-2.392,0l0,-8.061l2.392,0l0,3.208l2.863,0l0,-3.208l2.392,0l0,8.061l-2.392,0l0,-3.001l-2.863,0l0,3.001Zm-11.457,-6.221l-4.198,0l0,1.265l3.807,0l0,1.84l-3.807,0l0,1.276l4.313,0l0,1.84l-6.705,0l0,-8.061l6.59,0l0,1.84Zm29.952,6.221l-2.392,0l0,-8.061l3.657,0c2.081,0 3.277,1.035 3.277,2.863c0,1.921 -1.196,3.025 -3.277,3.025l-1.265,0l0,2.173Zm-7.782,-6.129c1.058,0 1.909,0.885 1.909,2.104c0,1.219 -0.851,2.128 -1.909,2.128c-1.058,0 -1.978,-0.909 -1.978,-2.128c0,-1.219 0.909,-2.104 1.978,-2.104Zm8.932,-0.092l-1.15,0l0,2.208l1.15,0c0.713,0 1.127,-0.391 1.127,-1.116c0,-0.701 -0.414,-1.092 -1.127,-1.092Z"/>
</svg>