<?xml version="1.0" encoding="UTF-8"?>
<!DOCTYPE svg PUBLIC "-//W3C//DTD SVG 1.1//EN" "http://www.w3.org/Graphics/SVG/1.1/DTD/svg11.dtd">
<svg xmlns="http://www.w3.org/2000/svg" xml:space="preserve" style="shape-rendering:geometricPrecision; text-rendering:geometricPrecision; image-rendering:optimizeQuality; fill-rule:evenodd; clip-rule:evenodd"
viewBox="0 0 12.8001 12.8001" xmlns:xlink="http://www.w3.org/1999/xlink">
  <path d="M5.59961 2.67284l0.0179528 -0.0011811 0.0226772 0.00283465 1.75016 0.225827 1.3728 -0.0865749 0 -0.647245 -1.36441 0.0859844 -0.0174803 0.0011811 -0.0214961 -0.00283465 -1.74886 -0.225591 -1.60276 0.113622 0 0.646772 1.59142 -0.112795zm2.27032 -0.325512c0.115512,0 0.209055,0.0935434 0.209055,0.208937 0,0.115512 -0.0935434,0.209055 -0.209055,0.209055 -0.0784253,0 -0.146457,-0.0434646 -0.182126,-0.10748l-0.295748 0.0185433 -0.00885828 0.000590552 -0.00992127 -0.00129921 -1.76103 -0.227244 -0.630946 0.0447638c-0.0350788,0.0659056 -0.104764,0.110906 -0.184725,0.110906 -0.115394,0 -0.208937,-0.0935434 -0.208937,-0.209055 0,-0.115394 0.0935434,-0.208937 0.208937,-0.208937 0.0783072,0 0.146811,0.0434646 0.182599,0.107126l0.627993 -0.0445276 0.00921261 -0.000590552 0.0103937 0.00129921 1.76173 0.227244 0.297166 -0.0186614c0.0351969,-0.0660237 0.104291,-0.110669 0.184252,-0.110669zm1.30996 0.742442l0.0237402 2.36587 0 0.0138189 -0.123662 2.03717 0.127677 1.71662 0.000472442 0.00555119 -0.000472442 0.0147638 -0.0288189 1.04339 0.000708662 0 0 0.524883 0.00011811 0.184016 -0.183189 0.0226772 -1.38603 0.171851 -0.0251575 0.00318898 -0.0253937 -0.00318898 -2.40863 -0.29752 -1.33193 0.125669 -0.227835 0.0214961 0 -0.228189 0 -0.524883 0.000826773 -0.0146457 0.113622 -1.55445 -0.0850395 -1.89969 -0.000354331 -0.00897639 0.000354331 -0.00897639 0.0851576 -1.87382 -0.101221 -1.695 -0.0133465 -0.222402 0 -0.00177166 0 -0.191929 0 -0.870237 0 -0.193701 0.193701 -0.0138189 1.81441 -0.128622 0.0179528 -0.0011811 0.0226772 0.00283465 1.75016 0.225827 1.56815 -0.0988584 0.221339 -0.013937 0 0.221457 0 1.06394 0 0.0807875zm-0.417048 7.32367l-1.16492 0.144213 -0.0120473 0.00153543 -0.0122835 -0.00153543 -2.41937 -0.298937 -1.14603 0.108543 0 0.216378 1.12949 -0.106536 0.0253937 -0.00236221 0.0193701 0.00236221 2.40272 0.296811 1.17768 -0.146103 0 -0.21437zm-4.74556 -0.247205l1.13043 -0.107126 0.0122835 -0.00106299 0.00921261 0.00106299 2.41654 0.298583 1.1798 -0.145984 0.0266929 -0.964726 -0.128268 -1.72311 -0.000826773 -0.0120473 0.000826773 -0.0147638 0.124488 -2.04992 -0.0222048 -2.21693 -1.36748 0.0862206 -0.0174803 0.0011811 -0.0214961 -0.00283465 -1.74886 -0.225591 -1.5913 0.112795 0.102047 1.70918 0.000590552 0.00921261 -0.000590552 0.0119291 -0.0853938 1.87701 0.0853938 1.90524 0.000708662 0.0147638 -0.000708662 0.00885828 -0.10441 1.42807z"/>
</svg>
