<?xml version="1.0" encoding="UTF-8"?>
<!DOCTYPE svg PUBLIC "-//W3C//DTD SVG 1.1//EN" "http://www.w3.org/Graphics/SVG/1.1/DTD/svg11.dtd">
<svg xmlns="http://www.w3.org/2000/svg" xml:space="preserve" style="shape-rendering:geometricPrecision; text-rendering:geometricPrecision; image-rendering:optimizeQuality; fill-rule:evenodd; clip-rule:evenodd"
viewBox="0 0 12.8001 12.8001" xmlns:xlink="http://www.w3.org/1999/xlink">
  <path d="M7.13245 1.91162c0.359882,0.159803 0.745985,0.44563 1.07847,0.778111 0.332363,0.332363 0.61819,0.718347 0.777875,1.07823 0.0868111,0.195473 0.129567,0.368741 0.132284,0.514016 0.0034252,0.181063 -0.0523229,0.325985 -0.160984,0.427205l0.000236221 0.000236221 -0.192284 0.192284 0.562678 0.484961 0.00437008 0.00377953 0.0102756 0.0108662 0.789214 0.833859 0.000236221 -0.000236221 0.408308 0.408189 0.130158 0.130158 -0.113032 0.144921 -0.944293 1.21181 -0.0155906 0.0200788 -0.0201969 0.0157087 -2.1026 1.64008 -0.942993 1.13953 -0.145866 0.176339 -0.161693 -0.161693 -0.408189 -0.408189 -0.00980316 -0.0114567 -1.12122 -1.29791 -1.3004 -1.18902c-0.0966143,-0.0818505 -0.191221,-0.168425 -0.281575,-0.25878l0.000472442 -0.000472442c-0.333189,-0.333189 -0.619253,-0.719056 -0.778584,-1.07788 -0.100866,-0.227362 -0.142441,-0.424843 -0.130984,-0.583347 0.0102756,-0.142559 0.060945,-0.259489 0.147756,-0.346536l0.000826773 -0.000826773c0.0127559,-0.0127559 0.0263386,-0.0249213 0.0403938,-0.0360237l3.78662 -3.7865c0.0968505,-0.118465 0.241181,-0.182362 0.42626,-0.183662 0.148819,-0.00106299 0.329056,0.0412205 0.533859,0.132166zm-3.49772 5.04532c0.11811,0.052441 0.256418,0.190748 0.308859,0.308859 0.052441,0.11811 -0.000826773,0.171378 -0.118937,0.118937 -0.11811,-0.052441 -0.256418,-0.190748 -0.308859,-0.308859 -0.052441,-0.11811 0.000826773,-0.171378 0.118937,-0.118937zm4.83875 -1.76067l-3.34985 3.34985 -0.000944883 0.000944883 -0.00826773 0.00850395 0.000354331 0.000354331c-0.0868111,0.0868111 -0.204095,0.13748 -0.347126,0.147756 -0.0172441,0.0011811 -0.0349607,0.00165355 -0.0530316,0.00153543l0.264213 0.241536 0.0111024 0.0101575 0.00602363 0.00696851 1.03819 1.20177 0.81071 -0.980434 0.00637796 -0.00755906 0.00921261 -0.00732284 2.11276 -1.64811 0.817088 -1.04788 -0.735473 -0.777166 -0.581339 -0.500906zm-5.01886 2.35677l0.180709 0.165236c0.236457,0.204095 0.485197,0.372638 0.716221,0.475158l0.000354331 -0.000708662c0.162638,0.0721654 0.292796,0.10252 0.386457,0.0959056 0.0379134,-0.00271654 0.0651969,-0.0120473 0.0805513,-0.0262205l0.000708662 -0.000708662 0.00897639 -0.00956694c0.0103937,-0.0157087 0.0166536,-0.0399213 0.0188977,-0.072756 0.000590552,-0.00850395 0.0011811,-0.0175984 0.0011811,-0.0265748l0 -0.00129921 0 -0.0011811 0 -0.00248032 0 -0.0011811 0 -0.00129921 0 -0.000472442 -0.000708662 -0.0119291 0 -0.00448819 0 -0.00129921 -0.000354331 -0.00496064 -0.000236221 -0.00236221 -0.000944883 -0.0132284 -0.00011811 0 -0.00011811 -0.00177166 -0.000590552 -0.00496064 -0.00165355 -0.0145276 -0.000236221 -0.00141732 -0.000590552 -0.00389764 -0.00011811 -0.000708662 -0.00141732 -0.00944883 -0.00011811 -0.000826773 -0.000590552 -0.00389764 -0.000354331 -0.00177166 -0.00106299 -0.00543308 -0.000354331 -0.00236221 -0.000590552 -0.00354331 -0.000354331 -0.00129921 -0.000708662 -0.00437008 -0.00011811 -0.000590552 -0.00212599 -0.00968505 -0.000236221 -0.0011811 -0.00389764 -0.0179528 -0.000236221 -0.00106299 -0.00129921 -0.00472442 0 -0.000236221 -0.0011811 -0.00531497 -0.000236221 -0.000826773 -0.0108662 -0.0401575 -0.000354331 -0.0011811 -0.000826773 -0.00236221 -0.00011811 -0.000590552 -0.0114567 -0.0356693 -0.00106299 -0.00330709 -0.000708662 -0.00236221 -0.00165355 -0.00437008 -0.000472442 -0.00129921 -0.00377953 -0.0106299 -0.000354331 -0.000944883 -0.000236221 -0.000826773 -0.00188977 -0.00496064 -0.00578741 -0.0158268 -0.000708662 -0.00177166 -0.00177166 -0.00531497 -0.000354331 -0.000708662 -0.00425197 -0.010748 -0.000354331 -0.00106299 -0.000708662 -0.00165355 -0.00177166 -0.00437008 -0.0011811 -0.00271654 -0.00129921 -0.00330709 -0.00448819 -0.0112205 -0.000472442 -0.0011811 -0.00248032 -0.00602363 0 -0.000236221 -0.00106299 -0.00248032 -0.00212599 -0.00472442 -0.00212599 -0.00472442 -0.00106299 -0.00271654 -0.00153543 -0.00366142 -0.00165355 -0.00377953 -0.0011811 -0.00248032 -0.00555119 -0.0124016 -0.00011811 0c-0.015,-0.0337796 -0.0312993,-0.068504 -0.0488977,-0.102992l0 -0.000236221c-0.144567,-0.280748 -0.376654,-0.58004 -0.644765,-0.848151l-0.00956694 -0.0102756c-0.161457,-0.160512 -0.333898,-0.308032 -0.507402,-0.430985l-0.0046063 -0.00318898 -0.0106299 -0.00744095 -0.0344882 -0.0238583 -0.0108662 -0.00744095 -0.00401575 -0.00259843 -0.0112205 -0.00744095 -0.0337796 -0.0223229 -0.0114567 -0.00744095 -0.0034252 -0.00212599 -0.011811 -0.00744095c-0.0905907,-0.0572835 -0.180591,-0.107362 -0.268465,-0.147992l-0.000472442 -0.00011811 -0.0290552 -0.012874 -0.0147638 -0.0068504 -0.00271654 -0.0011811 -0.00472442 -0.00200788 -0.00129921 -0.000472442 -0.0056693 -0.00248032 -0.000472442 -0.000236221 -0.0290552 -0.0119291 -0.00507875 -0.00200788c-0.015,-0.00590552 -0.0296457,-0.0116929 -0.0440552,-0.0167717l-0.000354331 -0.00011811 -0.0056693 -0.00177166 -0.00106299 -0.000472442c-0.0794883,-0.0275197 -0.150118,-0.0431103 -0.211181,-0.0480709 -0.0180709,-0.00141732 -0.0343701,-0.00212599 -0.0493701,-0.00165355l-0.010748 0.000826773c-0.0327166,0.00236221 -0.0569292,0.00850395 -0.0729922,0.019252l0 0.00011811c-0.00330709,0.00212599 -0.00673229,0.00519686 -0.00933072,0.00767717 -0.0147638,0.0151181 -0.0242126,0.042756 -0.0270473,0.0823229 -0.0068504,0.0946064 0.023504,0.224882 0.0950789,0.386339 0.137835,0.310276 0.392599,0.651497 0.692717,0.951497l0.000826773 0 0.0542127 0.0529135zm2.71571 2.76118l0.189567 0.189567 0.810237 -0.979017 0.0131103 -0.0157087 0.0193701 -0.0152362 2.10177 -1.63949 0.81567 -1.04669 -0.189331 -0.189331 -0.807993 1.03618 -0.00744095 0.00968505 -0.00980316 0.00755906 -2.11323 1.64847 -0.82193 0.994017zm-2.89512 -4.54536l0.0167717 0.00744095 0.000236221 0 0.0164173 0.00755906 0.000472442 0.000236221 0.0162992 0.00755906 0.000708662 0.000236221 0.0329528 0.0159449 0.000944883 0.000354331c0.332481,0.163583 0.682087,0.429095 0.98823,0.73441l0.00496064 0.00448819c0.161339,0.161339 0.31193,0.334961 0.442205,0.512481l0.0116929 0.0161811 0.0132284 0.018189 0.0115748 0.016063 0.000708662 0.0011811 0.0114567 0.0158268 0.000708662 0.0011811 0.0112205 0.0161811 0.000708662 0.0011811 0.0113386 0.0158268 0.000708662 0.0011811 0.0109843 0.0161811 0.000708662 0.0011811 0.0109843 0.0161811 0.000708662 0.000944883 0.0106299 0.0164173 0.000708662 0.000944883 0.010748 0.016063 0.000708662 0.000944883 0.0105118 0.0164173 0.000708662 0.000944883c0.0295276,0.0457087 0.0572835,0.0914174 0.0833859,0.137244l0.000472442 0.000590552 0.00944883 0.0164173 0.000354331 0.000590552 0.00921261 0.0167717 0.000354331 0.000590552 0.00921261 0.0164173 0.000354331 0.000590552c0.0124016,0.0227953 0.0244488,0.0454725 0.0359056,0.0681497l0.000236221 0.000354331 0.00850395 0.0166536 0.00011811 0.000354331 0.00838584 0.0166536 0.00011811 0.000354331 0.00803151 0.0168898 0.00011811 0.000236221 0.00803151 0.0166536 0.00011811 0.00011811 0.00767717 0.0168898 0.00011811 0.00011811 0.00767717 0.0168898 0.00011811 0 0.00732284 0.0170079 0.00011811 0 0.00165355 0.00354331 0.00177166 0.00389764 0.00141732 0.00295276 0.000354331 0.000944883 0.00330709 0.00767717 0.000944883 0.00200788 0.000708662 0.00188977 0.00177166 0.00389764 0.00318898 0.00744095 0.00153543 0.00389764 0.00177166 0.00389764 0 0.00011811 0.000354331 0.000708662 0.00259843 0.00625985 0.000354331 0.000826773 0.0120473 0.0295276 0.00011811 0.000354331 0.00141732 0.00377953 0 0.00011811 0.0170079 0.0447638 0.00141732 0.00354331 0.00259843 0.00744095 0.00129921 0.00377953 0.000472442 0.00129921 0.00141732 0.00389764 0.00200788 0.00578741 0.00011811 0.000236221 0.00106299 0.00330709 0.00496064 0.0145276 0.000708662 0.00200788 0.00283465 0.00897639 0.000354331 0.000944883 0.00425197 0.0132284 0.00106299 0.00354331 0.000944883 0.00295276 0.00011811 0.000590552 0.00956694 0.0316536 3.4467 -3.4467 0.000826773 0.000826773 0.00897639 -0.00897639c0.0209055,-0.0184252 0.0315355,-0.0585827 0.0304725,-0.11811 -0.00165355,-0.0912993 -0.0328347,-0.209882 -0.0963781,-0.352914 -0.137244,-0.309213 -0.392245,-0.650316 -0.693308,-0.951379 -0.301063,-0.301063 -0.642284,-0.556182 -0.951615,-0.693544 -0.148819,-0.0660237 -0.271536,-0.0969686 -0.364489,-0.09626 -0.0517323,0.000354331 -0.0872836,0.0113386 -0.105236,0.0307087 -0.00708662,0.0102756 -0.0153543,0.0197244 -0.0244488,0.0288189l-3.42839 3.42827c0.016063,0.0046063 0.032126,0.00980316 0.0486615,0.0151181l0.00011811 0 0.0034252 0.00106299 0.000354331 0.00011811 0.00885828 0.00295276 0.0140551 0.00484253 0.00307087 0.000944883 0.00200788 0.000708662 0.000236221 0.00011811 0.00496064 0.00177166 0.0056693 0.00200788 0.00011811 0 0.00354331 0.00129921 0.0512599 0.019252 0.00307087 0.0011811 0.000472442 0.000236221 0.00389764 0.00141732 0.0262205 0.0105118 0.000590552 0.000236221 0.00637796 0.00271654 0.00106299 0.000472442 0.00602363 0.00248032 0.000944883 0.000472442 0.00389764 0.00153543 0.00744095 0.00318898 0.00389764 0.00177166 0.00177166 0.000708662 0.00212599 0.000944883 0.00744095 0.00330709 0.00106299 0.000354331 0.00283465 0.00141732 0.00389764 0.00177166 0.00366142 0.00165355z"/>
</svg>
