<?xml version="1.0" encoding="UTF-8"?>
<!DOCTYPE svg PUBLIC "-//W3C//DTD SVG 1.1//EN" "http://www.w3.org/Graphics/SVG/1.1/DTD/svg11.dtd">
<svg xmlns="http://www.w3.org/2000/svg" xml:space="preserve" style="shape-rendering:geometricPrecision; text-rendering:geometricPrecision; image-rendering:optimizeQuality; fill-rule:evenodd; clip-rule:evenodd"
viewBox="0 0 16.0001 16.0001" xmlns:xlink="http://www.w3.org/1999/xlink">
  <path d="M6.03708 10.313l0 -0.000147638 0.000147638 -0.000147638 0 -0.000147638c0.00974412,-0.0163878 0.0166831,-0.0395671 0.0202264,-0.0690947l0.000147638 -0.00103347 0.00177166 -0.0181595c0.000738191,-0.0112205 0.000885829,-0.022441 0.000885829,-0.0343997l-0.000295276 -0.0157973 -0.000885829 -0.0183071 -0.000147638 -0.00236221 -0.000295276 -0.00295276 -0.000295276 -0.00324804 -0.000295276 -0.00428151 -0.000738191 -0.00871066 -0.000147638 -0.000295276 -0.00103347 -0.0112205 -0.000147638 -0.00162402 -0.00295276 -0.0211123 -0.00103347 -0.00561025 0 -0.000147638 -0.000885829 -0.00605317 0 -0.000885829 -0.000885829 -0.00487206 -0.000442915 -0.00221457 -0.000442915 -0.00398623 -0.000147638 -0.000590553 -0.00177166 -0.00959649 -0.000442915 -0.00177166 -0.00206694 -0.0107776 -0.000147638 -0.00132874 -0.000147638 -0.000295276 -0.00118111 -0.00590553 -0.00132874 -0.00620081 -0.000590553 -0.00250985 -0.000738191 -0.00369096 -0.000738191 -0.00383859 -0.000590553 -0.00265749 -0.00118111 -0.00487206 -0.00930121 -0.0382383 -0.000738191 -0.00221457 -0.00546262 -0.0199312 -0.000295276 -0.00147638 -0.00147638 -0.00516734 -0.00103347 -0.00295276 -0.00118111 -0.00383859 -0.00634844 -0.0205217 -0.000147638 -0.000147638 -0.00221457 -0.00708664 -0.000295276 -0.00118111 -0.0019193 -0.00561025 -0.000738191 -0.00265749 -0.00147638 -0.00442915 -0.00428151 -0.0124016 -0.000590553 -0.00177166 -0.00250985 -0.00679136 0 -0.000295276 -0.00265749 -0.00738191 -0.000295276 -0.000738191 -0.00236221 -0.00634844 -0.000738191 -0.00236221 -0.00649608 -0.0174213 -0.000885829 -0.00236221 -0.00221457 -0.00634844 -0.000442915 -0.000885829 -0.00442915 -0.0113681 -0.00221457 -0.00546262 -0.00221457 -0.00575789 -0.00147638 -0.00354332 -0.00162402 -0.00398623 -0.0019193 -0.00487206 -0.00118111 -0.00280513 -0.00250985 -0.00634844 -0.000590553 -0.00118111 -0.0031004 -0.00767719 0 -0.000295276 -0.0031004 -0.00723427 -0.000885829 -0.00206694 -0.00265749 -0.00590553 -0.00132874 -0.00339568 -0.0019193 -0.00442915 -0.00206694 -0.00487206 -0.00147638 -0.0031004 -0.006939 -0.0159449 -0.000147638 0c-0.171703,-0.386517 -0.49075,-0.812896 -0.867079,-1.18923l-0.0119587 -0.0128445c-0.201821,-0.200493 -0.417373,-0.384302 -0.634254,-0.537994l-0.00575789 -0.00398623c-0.111762,-0.0788388 -0.223524,-0.149558 -0.33381,-0.210532l-0.00206694 -0.00103347c-0.0552167,-0.0304135 -0.10999,-0.0586124 -0.164321,-0.0838585l-0.000590553 -0.000147638 -0.036319 -0.0165355 -0.027756 -0.0121063 -0.00162402 -0.000590553 -0.0165355 -0.006939 -0.0050197 -0.00206694 -0.00428151 -0.0019193 -0.00324804 -0.00118111 -0.0237698 -0.00944885 -0.00472442 -0.0019193 -0.00413387 -0.00162402 -0.00265749 -0.00103347 -0.00620081 -0.00236221 -0.000885829 -0.000295276c-0.116487,-0.0444391 -0.219538,-0.0696853 -0.306792,-0.0764766 -0.0202264,-0.00162402 -0.0388289,-0.0019193 -0.0559549,-0.00162402l-0.000147638 0 -0.00177166 0.000147638 -0.0107776 0.000442915 -0.000738191 0 -0.0109252 0.000590553 -0.000442915 0 -0.00103347 0.000295276 -0.000738191 0 -0.00324804 0.000295276 -0.000738191 0.000147638 -0.00398623 0.000442915 -0.00177166 0 -0.000442915 0 -0.00177166 0.000442915 -0.000442915 0 -0.0143209 0.00206694 -0.00162402 0.000295276 -0.000147638 0.000147638 -0.00472442 0.00103347 -0.00103347 0.000295276 -0.00738191 0.00147638 -0.00132874 0.000442915 -0.00900593 0.00250985 -0.00162402 0.000442915 -0.000590553 0 -0.00118111 0.000442915c-0.0172737,0.00575789 -0.0307088,0.0132874 -0.0401576,0.022441 -0.0184548,0.0188977 -0.0302658,0.053445 -0.0338092,0.102904 -0.00856302,0.118258 0.02938,0.281103 0.118849,0.482925 0.172294,0.387846 0.49075,0.814373 0.865898,1.18937l0.00103347 0c0.106152,0.106152 0.216585,0.20817 0.32879,0.303249l0.00708664 0.00575789 0.00664372 0.00575789 0.00369096 0.0031004 0.00339568 0.00265749 0.0206694 0.0172737 0.00708664 0.00575789 0.00649608 0.00531498 0.000590553 0.000442915 0.00708664 0.00575789 0.00664372 0.00575789 0.00428151 0.00339568 0.00280513 0.00236221 0.00708664 0.00575789 0.00708664 0.00575789 0.00177166 0.00132874 0.00487206 0.00398623 0.00708664 0.00575789 0.00664372 0.00531498 0.000442915 0.000295276 0.00708664 0.00575789 0.00250985 0.00177166 0.00900593 0.00723427 0.00265749 0.00206694 0.0280513 0.0219981 0.00708664 0.00531498 0 0.000147638c0.0891735,0.0690947 0.179676,0.133613 0.270178,0.19252 0.143652,0.0938979 0.285975,0.173623 0.422541,0.234154 0.203298,0.090207 0.365995,0.12815 0.483072,0.119882 0.048573,-0.00354332 0.0831203,-0.0153544 0.102018,-0.0339568l0.0107776 -0.0116634 0.00132874 -0.00221457zm-1.49366 -1.61679c0.147638,0.0655514 0.320523,0.238436 0.386074,0.386074 0.0655514,0.147638 -0.00103347,0.214223 -0.148672,0.148672 -0.147638,-0.0655514 -0.320523,-0.238436 -0.386074,-0.386074 -0.0655514,-0.147638 0.00103347,-0.214223 0.148672,-0.148672zm-1.56452 -1.50591l4.73653 -4.73638c0.121063,-0.148081 0.301477,-0.227953 0.532826,-0.229577 0.186024,-0.00132874 0.41132,0.0515257 0.667325,0.165207 0.449854,0.199755 0.932483,0.557039 1.34808,0.972641 0.415454,0.415454 0.772739,0.897936 0.972346,1.34779 0.108514,0.244341 0.161959,0.460927 0.165355,0.642522 0.00428151,0.226329 -0.0654037,0.407482 -0.201231,0.534008l0.000295276 0.000295276 -0.240355 0.240355 0.703349 0.606203 0.00546262 0.00472442 0.0128445 0.0135827 0.986519 1.04233 0.000295276 -0.000295276 0.510385 0.510238 0.162697 0.162697 -0.14129 0.181152 -0.747492 0.959353 -0.181004 0.232383 -0.207579 -0.209056 -1.43918 -1.44981c-0.452659,0.580661 -0.867227,1.04572 -1.3193,1.4755 -0.453692,0.431399 -0.941932,0.823969 -1.54311,1.25965l0.846558 0.979727 0.400247 0.400247 0.167422 0.167422 -0.151182 0.182481 -0.857483 1.03613 -0.182333 0.220424 -0.202117 -0.202117 -0.510238 -0.510238 -0.012254 -0.0143209 -1.40153 -1.6224 -1.61516 -1.47697c-0.124459,-0.104823 -0.246113,-0.216585 -0.362304,-0.332777l0.000590553 -0.000590553c-0.416488,-0.416488 -0.774067,-0.898822 -0.973231,-1.34735 -0.126083,-0.284204 -0.178052,-0.531055 -0.163731,-0.729185 0.0128445,-0.178199 0.0761813,-0.324361 0.184695,-0.433171l0.00103347 -0.00103347c0.0149115,-0.0149115 0.0308564,-0.0284942 0.0472442,-0.0417816zm1.11511 0.020817l0.0209646 0.00974412 0.000295276 0 0.0205217 0.00944885 0.000590553 0.000295276 0.0203741 0.00974412 0.000885829 0.000295276c0.427413,0.202264 0.880662,0.542275 1.27589,0.936027l0.00797247 0.00723427c0.143209,0.143209 0.279922,0.295129 0.405119,0.450149l0.0160926 0.0199312 0.000885829 0.00132874 0.0157973 0.0194882 0.000885829 0.00132874 0.0159449 0.0199312 0.000885829 0.00132874 0.0157973 0.0199312 0.000885829 0.00132874 0.015502 0.0199312 0.000885829 0.00132874 0.0153544 0.0199312 0.000885829 0.00132874 0.0153544 0.0202264 0.000885829 0.00132874 0.0150591 0.0199312 0.000885829 0.00132874 0.0147638 0.0199312 0.000885829 0.00132874 0.0146162 0.0199312 0.000885829 0.00132874 0.0147638 0.0203741 0.000885829 0.00132874 0.0141733 0.0202264 0.000885829 0.00118111 0.0141733 0.0205217 0.000885829 0.00118111 0.0141733 0.0200788 0.000885829 0.00118111 0.0137304 0.0205217 0.000885829 0.00118111 0.013878 0.0202264 0.000885829 0.00118111 0.0134351 0.0205217 0.000885829 0.00118111 0.0137304 0.0200788 0.000885829 0.00118111 0.0129922 0.0205217 0.000885829 0.00118111c0.0840062,0.129479 0.158416,0.258662 0.221457,0.385631l0.000295276 0.000295276 0.0103347 0.0209646 0.000147638 0.000295276 0.00974412 0.0209646 0.000147638 0.000295276 0.00989176 0.020817 0.000147638 0.000147638 0.00959649 0.0211123 0.000147638 0 0.00959649 0.020817 0.000147638 0 0.0160926 0.0380907 0.000295276 0.000738191 0.000442915 0.00118111 0.0110729 0.0264272 0.000442915 0.00132874 0.0190453 0.0472442 0.00118111 0.00295276 0.000590553 0.0019193 0.00177166 0.00442915 0.00177166 0.00487206 0.000738191 0.00162402 0.00103347 0.00280513 0.00177166 0.00487206 0.00177166 0.00442915 0.000147638 0.000738191 0.00162402 0.00398623 0.00177166 0.00442915 0.000295276 0.00118111 0.00561025 0.0157973 0.000590553 0.00162402 0.0186024 0.0537403 0.000590553 0.00162402 0.0050197 0.0160926 0.000442915 0.00103347 0 0.000295276 0.00132874 0.00413387 0.00398623 0.0125493 0.000295276 0.000738191 0.00132874 0.00442915 0.00132874 0.00442915 0.00132874 0.00442915 0.00132874 0.00428151 0.000295276 0.00132874 0.00103347 0.0031004 0.00398623 0.0128445 3.81719 -3.81719 0.0203741 -0.0202264 0.471261 -0.471409 0.00103347 0.00103347 0.0112205 -0.0112205c0.026132,-0.0230316 0.0394194,-0.0732286 0.0380907,-0.147638 -0.00206694,-0.114124 -0.0410434,-0.262353 -0.120473,-0.441143 -0.171556,-0.386517 -0.490307,-0.812896 -0.866637,-1.18923 -0.37633,-0.37633 -0.802857,-0.695229 -1.18952,-0.866932 -0.186024,-0.0825298 -0.33942,-0.121211 -0.455612,-0.120325 -0.0646656,0.000442915 -0.109105,0.0141733 -0.131546,0.0383859 -0.00885829,0.0128445 -0.019193,0.0246556 -0.0305611,0.0360237l-4.28609 4.28594 0.00103347 0.000442915 0.00339568 0.000885829 0.00442915 0.00132874 0.00413387 0.00118111 0.000295276 0.000147638 0.00428151 0.00132874 0.00442915 0.00132874 0.0031004 0.000885829 0.00132874 0.000442915 0.00442915 0.00132874 0.0349903 0.0110729 0.00413387 0.00132874c0.05876,0.019193 0.119735,0.0423722 0.182481,0.0690947l0.00118111 0.000590553 0.0382383 0.0162402zm2.3067 3.47511l-0.00767719 0.00826774 0.000442915 0.000442915c-0.0754431,0.0754431 -0.169784,0.128593 -0.280217,0.158563l-0.00531498 0.00132874 -0.0286418 0.00708664 -0.00177166 0.000442915 -0.000738191 0.000147638 -0.0081201 0.00162402 -0.00472442 0.000885829 -0.00369096 0.000885829 -0.000295276 0 -0.00856302 0.00162402 -0.00295276 0.000590553 -0.00546262 0.00118111 -0.00206694 0.000295276 -0.00664372 0.00103347 -0.00118111 0.000295276 -0.0159449 0.00221457 -0.000590553 0 -0.00738191 0.00118111 -0.0019193 0.000147638 -0.00605317 0.000738191 -0.041634 0.00442915 -0.0268702 0.00118111 -0.00118111 0.000147638 -0.0181595 0.000442915 -0.00118111 0 -0.00856302 0 -0.00118111 0.000147638 -0.00206694 0 -0.00664372 0.000295276 0.329824 0.301625 0.013878 0.0126969 0.00752955 0.00871066 1.39681 1.61679 0.308121 0.308121 0.524116 -0.633073 -0.232973 -0.232973 -0.012254 -0.0143209 -1.04498 -1.2096 -0.186762 -0.216142 0.23253 -0.165207c0.690799,-0.490454 1.2285,-0.9127 1.71836,-1.3785 0.488535,-0.46447 0.93455,-0.977218 1.4442,-1.65015l0.180857 -0.238583 0.21068 0.212156 1.44124 1.45187 0.425198 -0.545671 -0.347688 -0.347688 -0.0050197 -0.00605317 -0.978842 -1.03435 -0.726528 -0.626281 -4.18746 4.18746 -0.00383859 0.00354332z"/>
</svg>
