<?xml version="1.0" encoding="UTF-8"?>
<!DOCTYPE svg PUBLIC "-//W3C//DTD SVG 1.1//EN" "http://www.w3.org/Graphics/SVG/1.1/DTD/svg11.dtd">
<svg xmlns="http://www.w3.org/2000/svg" xml:space="preserve" style="shape-rendering:geometricPrecision; text-rendering:geometricPrecision; image-rendering:optimizeQuality; fill-rule:evenodd; clip-rule:evenodd"
viewBox="0 0 32.0006 32.0006" xmlns:xlink="http://www.w3.org/1999/xlink">
  <path d="M8.97885 7.52253l0 -0.00442919 0 -0.479829 0 -2.17562 0 -0.484258 0.484258 -0.0345477 4.53608 -0.321559 0.0448824 -0.00295279 0.0566936 0.0070867 4.37545 0.564574 3.92042 -0.247149 0.553353 -0.0348429 0 0.553649 0 2.65988 0 0.201971 0.0593511 5.91474 0 0.0345477 -0.309157 5.09298 0.319197 4.29159 0.00118112 0.0138781 -0.00118112 0.0369099 -0.0720481 2.6085 0.00177168 0 0 1.31222 0 0.460045 -0.457683 0.0566936 -3.4651 0.429631 -0.0628945 0.00797254 -0.063485 -0.00797254 -6.02163 -0.743808 -3.32986 0.314177 -0.569594 0.0537408 0 -0.570479 0 -1.31222 0.00206695 -0.0366146 0.284059 -3.88617 -0.212601 -4.74927 -0.000885838 -0.0224412 0.000885838 -0.0224412 0.212896 -4.6846 -0.253054 -4.23755 -0.0333666 -0.556011zm2.33389 18.2737l0 0.541247 -1.29214 0.12195 0 -0.540952 1.29214 -0.122246zm0.500203 0.494002l0 -0.541542 1.07275 -0.101576 6.0485 0.747352 0.030709 0.00383863 0.0301185 -0.00383863 2.91234 -0.360536 0 0.535932 -1.26941 0.157384 0 -0.230908 -0.500203 0 0 0.292917 -1.17462 0.145868 -6.00687 -0.742037 -0.0484258 -0.00590558 -0.063485 0.00590558 -1.03141 0.0971469zm10.1012 -0.760639l-1.2762 0.157974 0.00501975 -0.184254 -0.497841 -0.0135828 -0.00620086 0.221164 -0.00118112 0.00679142 0 0.0315949 -1.17314 0.145277 -6.04141 -0.746466 -0.0230318 -0.00265751 -0.030709 0.00265751 -1.02196 0.0968516 0.050788 -0.693611 -0.497841 -0.0354335 -0.0566936 0.77688 -1.30041 0.123131 0.261027 -3.57022 0.00177168 -0.0221459 -0.00177168 -0.0369099 -0.213487 -4.76315 0.213487 -4.69258 0.0014764 -0.0298232 -0.0014764 -0.0230318 -0.255121 -4.27299 1.28712 -0.0912413 0.00974421 0.162108 0.497841 -0.0295279 -0.0100395 -0.167719 2.19363 -0.155612 4.3722 0.563983 0.0537408 0.0070867 0.0437013 -0.00295279 1.64913 -0.103938 0.0183073 1.83664 0.497841 -0.00413391 -0.0186026 -1.8638 1.27206 -0.0803159 0.0555125 5.54239 -0.311224 5.12487 -0.00206695 0.0369099 0.00206695 0.0301185 0.320673 4.30783 -0.0667331 2.41184zm-11.8936 -20.1823l0 1.61695 3.97859 -0.281992 0.0448824 -0.00295279 0.0566936 0.0070867 4.37545 0.564574 3.43203 -0.21644 0 -1.61813 -3.41107 0.214963 -0.0437013 0.00295279 -0.0537408 -0.0070867 -4.3722 -0.563983 -4.00694 0.284059zm1.97099 0.118112c0.196361,0 0.366737,0.107777 0.455911,0.267818l1.57059 -0.11132 0.0230318 -0.0014764 0.0259846 0.00324807 4.40438 0.568117 0.741446 -0.0466541c0.0876979,-0.164766 0.262208,-0.276677 0.462112,-0.276677 0.288783,0 0.522644,0.233861 0.522644,0.522349 0,0.288783 -0.233861,0.522644 -0.522644,0.522644 -0.196065,0 -0.367623,-0.108958 -0.456797,-0.268704l-0.737903 0.0463588 -0.0221459 0.0014764 -0.0248035 -0.00324807 -4.40261 -0.568117 -1.57886 0.111911c-0.0879932,0.164766 -0.260436,0.277267 -0.46034,0.277267 -0.288488,0 -0.522349,-0.233861 -0.522349,-0.522644 0,-0.288488 0.233861,-0.522349 0.522349,-0.522349zm8.66526 19.5383l-0.497841 -0.0135828 0.0516739 -1.88388 -0.0439966 -0.589082 0.497841 -0.0354335 0.0445872 0.595578 0.000295279 0.00649614 -0.000295279 0.018012 -0.0522644 1.90189zm-0.0295279 -3.02071l-0.497841 0.0354335 -0.0372052 -0.498431 0.497841 -0.0354335 0.0372052 0.498431zm-0.0744104 -0.996863l-0.497841 0.0354335 -0.0369099 -0.498431 0.497841 -0.0354335 0.0369099 0.498431zm-0.0738198 -0.996863l-0.497841 0.0354335 -0.0915366 -1.23368 -0.000885838 -0.0144687 0.000885838 -0.018012 0.0770679 -1.26025 0.497841 0.0295279 -0.0758868 1.24253 0.0903554 1.21891zm0.0159451 -2.96047l-0.497841 -0.0295279 0.0304138 -0.499022 0.497841 0.0295279 -0.0304138 0.499022zm0.0605322 -0.998044l-0.497841 -0.0295279 0.0301185 -0.499022 0.497841 0.0295279 -0.0301185 0.499022zm0.060237 -0.997748l-0.497841 -0.0295279 0.0829735 -1.37246 -0.0112206 -1.10789 0.497841 -0.00413391 0.0115159 1.12236 0 0.0168309 -0.0832687 1.37482zm0.0667331 -3.01392l-0.497841 0.00413391 -0.00501975 -0.499908 0.497841 -0.00413391 0.00501975 0.499908zm-0.0100395 -0.999815l-0.497841 0.00413391 -0.00501975 -0.499908 0.497841 -0.00413391 0.00501975 0.499908zm-9.29657 -2.44432l0.497841 -0.0295279 0.0298232 0.499022 -0.497841 0.0295279 -0.0298232 -0.499022zm0.0596464 0.998044l0.497841 -0.0295279 0.149116 2.49511 -0.497841 0.0295279 -0.149116 -2.49511zm0.152955 2.96903l0.497841 0.0212601 -0.0227365 0.499612 -0.497841 -0.0212601 0.0227365 -0.499612zm-0.045473 0.99893l0.497841 0.0212601 -0.0227365 0.499317 -0.497841 -0.0212601 0.0227365 -0.499317zm-0.045473 0.998634l0.497841 0.0212601 -0.111616 2.46174 0.000590558 0.0138781 -0.497841 0.0212601 -0.00118112 -0.0239176 -0.000295279 -0.0106301 0.000295279 -0.0106301 0.112206 -2.47296zm-0.0885838 3.01775l0.497841 -0.0212601 0.0224412 0.499612 -0.497841 0.0212601 -0.0224412 -0.499612zm0.0448824 0.99893l0.497841 -0.0212601 0.0224412 0.499317 -0.497841 0.0212601 -0.0224412 -0.499317zm0.0445872 0.998634l0.497841 -0.0212601 0.101281 2.26479 0.000590558 0.0174215 -0.000590558 0.0109253 -0.0171262 0.231794 -0.497841 -0.0354335 0.0162404 -0.221164 -0.100395 -2.24707zm0.04754 2.96697l0.497841 0.0354335 -0.0366146 0.498727 -0.497841 -0.0354335 0.0366146 -0.498727zm-0.072934 0.997158l0.497841 0.0354335 -0.0363193 0.498431 -0.497841 -0.0354335 0.0363193 -0.498431z"/>
</svg>
