<?xml version="1.0" encoding="UTF-8"?>
<!DOCTYPE svg PUBLIC "-//W3C//DTD SVG 1.1//EN" "http://www.w3.org/Graphics/SVG/1.1/DTD/svg11.dtd">
<svg xmlns="http://www.w3.org/2000/svg" xml:space="preserve" style="shape-rendering:geometricPrecision; text-rendering:geometricPrecision; image-rendering:optimizeQuality; fill-rule:evenodd; clip-rule:evenodd"
viewBox="0 0 64.003 64.003" xmlns:xlink="http://www.w3.org/1999/xlink">
  <path d="M19.6484 11.3479l9.07241 -0.643136 0.0897674 -0.00590575 0.11339 0.0141738 8.75114 1.12918 7.84106 -0.494311 1.09256 -0.0685067 0.0135832 1.38372 -0.000590575 0.000590575 0.00531517 0.496673 0.114572 11.4589 0 0.0690973 -0.618332 10.1862 0.638411 8.58341 0.0023623 0.027757 -0.0023623 0.0738218 -0.1441 5.21714 0.00354345 0 0 2.62451 0.000590575 0.920116 -0.915982 0.11339 -6.9304 0.859286 -0.125792 0.0159455 -0.126974 -0.0159455 -12.0436 -1.48766 -6.65991 0.628372 -1.13922 0.107485 0 -1.14099 0 -2.62451 0.00413402 -0.0732313 0.568133 -7.77255 -0.425214 -9.49881 -0.00177172 -0.0448837 0.00177172 -0.0448837 0.425804 -9.36947 -0.179535 -3.00957 -2.64459 0.187212 -1.96898 0.139966 1.00043 -1.70263 2.82708 -4.81023 0.000590575 0.000590575 0.817946 -1.39139 0.542738 -0.0389779zm-0.699241 5.53841l-0.0389779 -0.656129 -0.255128 0.0183078 -0.403953 0.687429 0.698059 -0.0496083zm1.91051 -2.87964l6.178 -0.438206 0.0897674 -0.00590575 0.11339 0.0141738 8.75114 1.12918 7.29124 -0.459467 0.411631 -0.700422 -5.9778 0.376787 -0.0874051 0.00590575 -0.107485 -0.0141738 -8.74464 -1.128 -7.95681 0.563999 0.0389779 0.656129zm21.1526 2.40305l-5.97839 0.376787 -0.0874051 0.00590575 -0.107485 -0.0141738 -8.74464 -1.128 -6.11068 0.432891 0.0395685 0.656129 4.33128 -0.307099 0.0897674 -0.00590575 0.11339 0.0141738 8.75114 1.12918 7.29183 -0.459467 0.411631 -0.700422zm2.569 -0.274617l-1.47112 2.50286 -0.280523 0.478366 -0.549825 0.0342533 -7.92906 0.499626 -0.0874051 0.00590575 -0.107485 -0.0141738 -8.74464 -1.128 -4.26395 0.302374 0.183669 3.08044 0.00295287 0.0460648 -0.00295287 0.0596481 -0.426986 9.38541 0.426986 9.52656 0.00354345 0.0738218 -0.00354345 0.0442931 -0.522068 7.14064 5.65239 -0.535651 0.0614198 -0.00531517 0.0460648 0.00531517 12.0832 1.49297 5.89925 -0.72995 0.13347 -4.82381 -0.641364 -8.6159 -0.00413402 -0.0602386 0.00413402 -0.0738218 0.622466 -10.25 -0.0844522 -8.44168zm-0.0437025 33.2742l-5.82484 0.721092 -0.0602386 0.00767747 -0.0614198 -0.00767747 -12.0973 -1.49474 -5.73035 0.542738 0 1.08193 5.64767 -0.532698 0.126974 -0.0118115 0.0968543 0.0118115 12.0141 1.48411 5.88862 -0.730541 0 -1.07189z"/>
</svg>
