<?xml version="1.0" encoding="UTF-8"?>
<!DOCTYPE svg PUBLIC "-//W3C//DTD SVG 1.1//EN" "http://www.w3.org/Graphics/SVG/1.1/DTD/svg11.dtd">
<svg xmlns="http://www.w3.org/2000/svg" xml:space="preserve" style="shape-rendering:geometricPrecision; text-rendering:geometricPrecision; image-rendering:optimizeQuality; fill-rule:evenodd; clip-rule:evenodd"
viewBox="0 0 1.38719e+006 1.38719e+006" xmlns:xlink="http://www.w3.org/1999/xlink">
  <path d="M489754 607398l230.4 -140.8c11225.6,-7244.8 25804.8,-7347.2 40307.2,-1625.6 15142.4,5977.6 30169.6,18265.6 41395.2,35366.4l38.4 64 25.6 38.4 230.4 345.6 12.8 12.8c11059.2,17011.2 16268.8,35507.2 15731.2,51660.8 -499.2,15667.2 -6464,29081.6 -17702.4,36454.4l-435.2 294.4 -25.6 25.6c-11200,7078.4 -25676.8,7129.6 -40076.8,1446.4 -15142.4,-5977.6 -30169.6,-18265.6 -41395.2,-35366.4l-38.4 -64 -25.6 -38.4 -217.6 -332.8 -12.8 -12.8c-11059.2,-17011.2 -16281.6,-35520 -15744,-51673.6 499.2,-15667.2 6464,-29081.6 17702.4,-36454.4zm49804.8 -358874l68108.8 -4825.6 985.6 -64 1139.2 140.8 190925 24627.2 32140.8 -2022.4c3801.6,-7142.4 11366.4,-11993.6 20032,-11993.6 12518.4,0 22656,10137.6 22656,22643.2 0,12518.4 -10137.6,22656 -22656,22656 -8499.2,0 -15936,-4723.2 -19801.6,-11648l-31987.2 2009.6 -972.8 64 -1062.4 -140.8 -190848 -24627.2 -68441.6 4851.2c-3814.4,7142.4 -11289.6,12019.2 -19955.2,12019.2 -12505.6,0 -22643.2,-10137.6 -22643.2,-22656 0,-12505.6 10137.6,-22643.2 22643.2,-22643.2 8499.2,0 15872,4684.8 19737.6,11609.6zm-150336 77568l0 -179.2 -1241.6 -20723.2 1241.6 -89.6 0 -94310.4 0 -20992 20992 -1497.6 196634 -13939.2 1932.8 -128 2470.4 307.2 189670 24473.6 169946 -10713.6 23987.2 -1510.4 0 24000 0 115302 0 8755.2 2572.8 256397 0 1497.6 -13401.6 220774 13836.8 186035 38.4 601.6 -38.4 1600 -3123.2 113075 76.8 0 0 56883.2 0 19942.4 -19840 2457.6 -150208 18624 -2739.2 345.6 -2739.2 -345.6 -261030 -32243.2 -144346 13619.2 -24691.2 2329.6 0 -24729.6 0 -56883.2 89.6 -1587.2 12313.6 -168461 -9216 -205875 -51.2 -972.8 51.2 -972.8 9228.8 -203072 -10969.6 -183693 -1446.4 102.4 0 -24204.8zm45158.4 -94297.6l0 70092.8 172467 -12224 1932.8 -128 2470.4 307.2 189670 24473.6 148774 -9382.4 0 -70144 -147866 9318.4 -1907.2 128 -2316.8 -307.2 -189530 -24448 -173696 12313.6zm173696 102989l-172454 12224 11059.2 185229 51.2 998.4 -51.2 1292.8 -9254.4 203418 9254.4 206477 64 1600 -64 960 -11315.2 154765 122509 -11609.6 1318.4 -115.2 1011.2 115.2 261888 32358.4 127859 -15820.8 2892.8 -104550 -13900.8 -186739 -102.4 -1305.6 102.4 -1600 13491.2 -222157 -2406.4 -240256 -148198 9344 -1907.2 128 -2316.8 -307.2 -189530 -24448zm-173696 788749l0 23449.6 122406 -11545.6 2739.2 -256 2112 256 260390 32166.4 127629 -15833.6 0 -23232 -126246 15628.8 -1318.4 166.4 -1318.4 -166.4 -262195 -32396.8 -124198 11763.2zm118874 -322650c-22092.8,69286.4 28710.4,92940.8 79654.4,71808 19878.4,-8243.2 39948.8,-13542.4 60697.6,-14566.4 20736,1024 40806.4,6323.2 60684.8,14566.4 50944,21120 101747,-2521.6 79654.4,-71808 -51814.4,-162534 -228877,-162534 -280691,0zm344192 -193485l-230.4 -140.8c-11225.6,-7244.8 -25804.8,-7347.2 -40307.2,-1625.6 -15142.4,5977.6 -30169.6,18265.6 -41395.2,35366.4l-38.4 64 -25.6 38.4 -230.4 345.6 -12.8 12.8c-11059.2,17011.2 -16268.8,35507.2 -15731.2,51660.8 499.2,15667.2 6464,29081.6 17702.4,36454.4l435.2 294.4 25.6 25.6c11200,7078.4 25676.8,7129.6 40076.8,1446.4 15142.4,-5977.6 30169.6,-18265.6 41395.2,-35366.4l38.4 -64 25.6 -38.4 217.6 -332.8 12.8 -12.8c11059.2,-17011.2 16281.6,-35520 15744,-51673.6 -499.2,-15667.2 -6464,-29081.6 -17702.4,-36454.4zm-94400 -64972.8c-5696,-15001.6 -15936,-26009.6 -29299.2,-29427.2 -13388.8,-3417.6 -27648,1331.2 -39859.2,11763.2 -12659.2,10828.8 -23116.8,27686.4 -28300.8,48000l-12.8 25.6 0 25.6c-5171.2,20288 -4108.8,40102.4 1817.6,55667.2l0 12.8c5606.4,14758.4 15564.8,25664 28620.8,29260.8l64 0 601.6 153.6c13376,3417.6 27635.2,-1331.2 39846.4,-11750.4 12659.2,-10828.8 23129.6,-27712 28313.6,-48000 5196.8,-20300.8 4121.6,-40140.8 -1792,-55731.2zm-218893 0c5696,-15001.6 15936,-26009.6 29299.2,-29427.2 13388.8,-3417.6 27648,1331.2 39859.2,11763.2 12659.2,10828.8 23116.8,27686.4 28300.8,48000l12.8 25.6 0 25.6c5171.2,20288 4108.8,40102.4 -1817.6,55667.2l0 12.8c-5606.4,14758.4 -15564.8,25664 -28620.8,29260.8l-64 0 -601.6 153.6c-13376,3417.6 -27635.2,-1331.2 -39846.4,-11750.4 -12659.2,-10828.8 -23129.6,-27712 -28313.6,-48000 -5196.8,-20300.8 -4121.6,-40140.8 1792,-55731.2z"/>
</svg>
