<?xml version="1.0" encoding="UTF-8"?>
<!DOCTYPE svg PUBLIC "-//W3C//DTD SVG 1.1//EN" "http://www.w3.org/Graphics/SVG/1.1/DTD/svg11.dtd">
<svg xmlns="http://www.w3.org/2000/svg" xml:space="preserve" style="shape-rendering:geometricPrecision; text-rendering:geometricPrecision; image-rendering:optimizeQuality; fill-rule:evenodd; clip-rule:evenodd"
viewBox="0 0 1.38719e+006 1.38719e+006" xmlns:xlink="http://www.w3.org/1999/xlink">
  <path d="M497818 585779c-5657.6,0 -10752,665.6 -15321.6,1984 -4556.8,1292.8 -8460.8,3174.4 -11699.2,5632 -3264,2457.6 -5760,5427.2 -7488,8896 -1753.6,3468.8 -2624,7372.8 -2649.6,11724.8 25.6,3776 691.2,7040 1945.6,9766.4 1254.4,2700.8 2956.8,4992 5081.6,6873.6 2137.6,1856 4531.2,3404.8 7193.6,4620.8 2662.4,1241.6 5440,2265.6 8256,3097.6 2854.4,819.2 5593.6,1548.8 8256,2163.2 2662.4,640 5068.8,1280 7206.4,1958.4 2124.8,665.6 3840,1446.4 5107.2,2355.2 1254.4,934.4 1894.4,2086.4 1907.2,3468.8 -12.8,1548.8 -652.8,2662.4 -1868.8,3379.2 -1241.6,729.6 -2931.2,1075.2 -5056,1075.2 -2227.2,-12.8 -4774.4,-371.2 -7616,-1075.2 -2854.4,-678.4 -5798.4,-1651.2 -8883.2,-2880 -3046.4,-1241.6 -6028.8,-2662.4 -8870.4,-4300.8 -2867.2,-1625.6 -5427.2,-3366.4 -7705.6,-5235.2l-10649.6 21542.4c2892.8,2214.4 6067.2,4172.8 9536,5888 3456,1715.2 7065.6,3148.8 10867.2,4352 3776,1177.6 7628.8,2086.4 11532.8,2700.8 3904,627.2 7744,934.4 11532.8,934.4 3942.4,0 7705.6,-358.4 11315.2,-1062.4 3609.6,-678.4 6950.4,-1753.6 10009.6,-3187.2 3059.2,-1433.6 5721.6,-3251.2 7987.2,-5452.8 2265.6,-2214.4 4044.8,-4825.6 5299.2,-7846.4 1267.2,-3008 1907.2,-6464 1920,-10316.8 -12.8,-3929.6 -678.4,-7283.2 -1932.8,-10112 -1254.4,-2828.8 -2956.8,-5222.4 -5081.6,-7180.8 -2137.6,-1971.2 -4544,-3596.8 -7206.4,-4902.4 -2662.4,-1318.4 -5401.6,-2406.4 -8256,-3302.4 -2841.6,-857.6 -5593.6,-1651.2 -8256,-2304 -2662.4,-665.6 -5056,-1344 -7193.6,-2022.4 -2124.8,-665.6 -3827.2,-1446.4 -5081.6,-2355.2 -1254.4,-908.8 -1920,-2022.4 -1945.6,-3366.4 25.6,-1292.8 499.2,-2201.6 1472,-2764.8 947.2,-576 2227.2,-844.8 3852.8,-819.2 1920,12.8 4134.4,307.2 6630.4,896 2483.2,588.8 5094.4,1369.6 7846.4,2355.2 2726.4,998.4 5427.2,2073.6 8064,3264 2649.6,1203.2 5081.6,2419.2 7308.8,3635.2l10406.4 -21798.4c-3289.6,-2086.4 -6976,-3878.4 -11084.8,-5427.2 -4108.8,-1523.2 -8422.4,-2726.4 -12966.4,-3571.2 -4531.2,-844.8 -9100.8,-1254.4 -13721.6,-1280zm-87603.2 -339827l196634 -13939.2 1932.8 -128 2470.4 307.2 189670 24473.6 169946 -10713.6 23654.4 -1484.8 243.2 23795.2 2662.4 265331 0 1497.6 -13401.6 220774 13836.8 186035 38.4 601.6 -38.4 1600 -3123.2 113075 76.8 0 0 56883.2 0 19942.4 -19840 2457.6 -150208 18624 -2739.2 345.6 -2739.2 -345.6 -261030 -32243.2 -144346 13619.2 -24691.2 2329.6 0 -24729.6 0 -56883.2 89.6 -1587.2 12313.6 -168461 -9216 -205875 -51.2 -972.8 51.2 -972.8 9228.8 -203072 -12326.4 -206477 -1331.2 -22220.8 22233.6 -1587.2zm539443 824934l-126246 15628.8 -1318.4 166.4 -1318.4 -166.4 -262195 -32396.8 -124198 11763.2 0 23449.6 122406 -11545.6 2739.2 -256 2112 256 260390 32166.4 127629 -15833.6 0 -23232zm-514291 -26790.4l122509 -11609.6 1318.4 -115.2 1011.2 115.2 261888 32358.4 127859 -15820.8 2892.8 -104550 -13900.8 -186739 -102.4 -1305.6 102.4 -1600 13491.2 -222157 -2406.4 -240256 -148198 9344 -1907.2 128 -2316.8 -307.2 -189530 -24448 -172454 12224 11059.2 185229 51.2 998.4 -51.2 1292.8 -9254.4 203418 9254.4 206477 64 1600 -64 960 -11315.2 154765zm197082 -370266l0 -86809.6 -25996.8 0 0 44582.4 -34304 -44582.4 -24025.6 0 0 86809.6 26124.8 0 0 -44339.2 34176 44339.2 24025.6 0zm77184 -12262.4l4326.4 12262.4 30592 0 -35289.6 -86809.6 -29478.4 0 -36659.2 86809.6 29478.4 0 4454.4 -12262.4 32576 0zm-7065.6 -20556.8l-18073.6 0 9164.8 -25382.4 8908.8 25382.4zm92902.4 -54860.8c-6860.8,25.6 -13132.8,1139.2 -18854.4,3302.4 -5708.8,2163.2 -10688,5222.4 -14899.2,9164.8 -4211.2,3968 -7475.2,8601.6 -9779.2,13977.6 -2329.6,5337.6 -3494.4,11225.6 -3532.8,17638.4 38.4,6502.4 1177.6,12467.2 3430.4,17920 2265.6,5452.8 5452.8,10201.6 9548.8,14195.2 4108.8,4032 8960,7142.4 14553.6,9356.8 5593.6,2201.6 11724.8,3328 18419.2,3366.4 3353.6,0 6745.6,-409.6 10176,-1241.6 3443.2,-806.4 6809.6,-1958.4 10086.4,-3494.4 3302.4,-1497.6 6438.4,-3340.8 9408,-5465.6 2956.8,-2124.8 5657.6,-4492.8 8089.6,-7142.4l-16588.8 -17702.4c-1920,2022.4 -4006.4,3788.8 -6259.2,5260.8 -2240,1484.8 -4531.2,2624 -6848,3430.4 -2291.2,793.6 -4492.8,1216 -6579.2,1216 -3494.4,-51.2 -6592,-908.8 -9292.8,-2624 -2688,-1715.2 -4787.2,-4070.4 -6310.4,-7065.6 -1548.8,-3008 -2342.4,-6451.2 -2355.2,-10380.8 12.8,-3878.4 806.4,-7283.2 2355.2,-10252.8 1523.2,-2969.6 3622.4,-5299.2 6310.4,-6976 2700.8,-1689.6 5798.4,-2560 9292.8,-2585.6 2240,0 4556.8,499.2 6912,1446.4 2368,947.2 4646.4,2291.2 6848,4044.8 2188.8,1740.8 4172.8,3776 5926.4,6156.8l16588.8 -19699.2c-2240,-2406.4 -4787.2,-4595.2 -7616,-6553.6 -2841.6,-1945.6 -5875.2,-3596.8 -9075.2,-5004.8 -3225.6,-1382.4 -6528,-2432 -9881.6,-3174.4 -3392,-742.4 -6758.4,-1113.6 -10073.6,-1113.6zm103424 87680l34304 0 -32819.2 -51891.2 30963.2 -34918.4 -33075.2 0 -25881.6 30092.8 0 -30092.8 -28723.2 0 0 86809.6 28723.2 0 0 -20428.8 8422.4 -9420.8 18086.4 29849.6zm-343590 39513.6l0 86809.6 46067.2 0c5299.2,-25.6 10112,-576 14387.2,-1715.2 4288,-1152 7961.6,-2790.4 11020.8,-4915.2 3046.4,-2124.8 5401.6,-4684.8 7040,-7692.8 1625.6,-2995.2 2457.6,-6336 2470.4,-10073.6 -12.8,-3648 -742.4,-7001.6 -2137.6,-10009.6 -1433.6,-3008 -3417.6,-5555.2 -5990.4,-7590.4 -2560,-2073.6 -5593.6,-3520 -9088,-4313.6 2995.2,-934.4 5580.8,-2316.8 7769.6,-4134.4 2163.2,-1817.6 3852.8,-3968 5056,-6438.4 1177.6,-2483.2 1766.4,-5145.6 1792,-8012.8 -25.6,-3315.2 -819.2,-6336 -2432,-9011.2 -1612.8,-2688 -3929.6,-5004.8 -6937.6,-6924.8 -3008,-1920 -6630.4,-3379.2 -10841.6,-4416 -4224,-1024 -8972.8,-1561.6 -14220.8,-1561.6l-43955.2 0zm28608 21056l13747.2 0c1996.8,12.8 3584,550.4 4761.6,1625.6 1177.6,1075.2 1779.2,2560 1792,4441.6 -12.8,1932.8 -614.4,3468.8 -1792,4595.2 -1177.6,1113.6 -2764.8,1689.6 -4761.6,1715.2l-13747.2 0 0 -12377.6zm0 31449.6l13747.2 0c2700.8,25.6 4825.6,601.6 6387.2,1715.2 1574.4,1139.2 2380.8,2662.4 2406.4,4595.2 -25.6,2137.6 -832,3827.2 -2406.4,5068.8 -1561.6,1216 -3686.4,1856 -6387.2,1868.8l-13747.2 0 0 -13248zm125850 22041.6l4326.4 12262.4 30592 0 -35289.6 -86809.6 -29478.4 0 -36659.2 86809.6 29478.4 0 4454.4 -12262.4 32576 0zm-7065.6 -20556.8l-18073.6 0 9164.8 -25382.4 8908.8 25382.4zm106278 -12876.8l0 20185.6c-2137.6,883.2 -4198.4,1561.6 -6156.8,2086.4 -1984,499.2 -3737.6,755.2 -5248,755.2 -3788.8,-38.4 -7129.6,-921.6 -10060.8,-2675.2 -2931.2,-1779.2 -5248,-4211.2 -6937.6,-7308.8 -1676.8,-3097.6 -2521.6,-6643.2 -2560,-10688 12.8,-2956.8 486.4,-5683.2 1446.4,-8153.6 960,-2496 2304,-4646.4 4044.8,-6489.6 1715.2,-1830.4 3750.4,-3251.2 6105.6,-4262.4 2355.2,-1011.2 4915.2,-1510.4 7718.4,-1536 2419.2,0 4915.2,396.8 7449.6,1139.2 2560,742.4 5043.2,1792 7436.8,3174.4 2393.6,1369.6 4582.4,2982.4 6540.8,4851.2l16217.6 -19686.4c-2329.6,-2048 -4966.4,-3904 -7884.8,-5529.6 -2905.6,-1651.2 -6003.2,-3059.2 -9280,-4236.8 -3289.6,-1152 -6656,-2035.2 -10099.2,-2675.2 -3443.2,-627.2 -6873.6,-934.4 -10252.8,-934.4 -7129.6,25.6 -13670.4,1139.2 -19609.6,3328 -5952,2188.8 -11110.4,5260.8 -15475.2,9216 -4377.6,3993.6 -7769.6,8652.8 -10176,14041.6 -2406.4,5388.8 -3622.4,11315.2 -3660.8,17753.6 38.4,6451.2 1203.2,12403.2 3532.8,17830.4 2304,5401.6 5568,10112 9779.2,14118.4 4211.2,3980.8 9190.4,7078.4 14899.2,9292.8 5721.6,2176 11993.6,3302.4 18854.4,3340.8 3110.4,0 6400,-294.4 9804.8,-844.8 3417.6,-537.6 6822.4,-1331.2 10227.2,-2316.8 3392,-985.6 6630.4,-2163.2 9702.4,-3532.8 3084.8,-1356.8 5849.6,-2841.6 8281.6,-4454.4l0 -35788.8 -24640 0z"/>
</svg>
