<?xml version="1.0" encoding="UTF-8"?>
<!DOCTYPE svg PUBLIC "-//W3C//DTD SVG 1.1//EN" "http://www.w3.org/Graphics/SVG/1.1/DTD/svg11.dtd">
<svg xmlns="http://www.w3.org/2000/svg" xml:space="preserve" style="shape-rendering:geometricPrecision; text-rendering:geometricPrecision; image-rendering:optimizeQuality; fill-rule:evenodd; clip-rule:evenodd"
viewBox="0 0 128 128" xmlns:xlink="http://www.w3.org/1999/xlink">
  <path d="M60.418,49.64l0,8.011l4.251,0c0.489,-0.003 0.933,-0.054 1.327,-0.159c0.396,-0.106 0.735,-0.257 1.017,-0.453c0.281,-0.196 0.499,-0.433 0.65,-0.71c0.15,-0.277 0.227,-0.585 0.228,-0.93c-0.001,-0.336 -0.069,-0.646 -0.198,-0.923c-0.132,-0.278 -0.315,-0.513 -0.552,-0.701c-0.237,-0.191 -0.516,-0.324 -0.839,-0.398c0.277,-0.086 0.515,-0.213 0.717,-0.381c0.2,-0.168 0.356,-0.366 0.467,-0.594c0.108,-0.229 0.163,-0.475 0.165,-0.74c-0.002,-0.306 -0.076,-0.584 -0.224,-0.831c-0.149,-0.248 -0.363,-0.462 -0.641,-0.639c-0.277,-0.177 -0.611,-0.312 -1,-0.408c-0.39,-0.094 -0.828,-0.144 -1.312,-0.144l-4.056,0l0,0Zm9.826,-14.625l1.113,0.472l0.312,0.134l0.274,0.249l6.966,6.365l0.344,0.315l0.177,0.425l1.826,4.414l0.151,0.367l0.004,0.414l0.125,17.377l0,0.098l-0.731,16.772l0.754,14.131l0,0.146l-0.17,8.59l0.007,0l0,2.157l-0.773,0.626l-4.934,3.997l-0.43,0.348l-0.53,0.091l-3.26,0.562l-0.234,0.042l-0.245,-0.017l-14.131,-0.893l-0.052,-0.002l-0.136,-0.023l-5.543,-0.875l-0.463,-0.072l-0.366,-0.246l-2.706,-1.803l-0.936,-0.624l0,-1.109l0,-2.159l0.008,-0.106l0.672,-12.796l-0.503,-15.641l0,-0.13l0.504,-15.43l-0.673,-15.685l-0.032,-0.724l0.431,-0.586l3.01,-4.09l0.189,-0.256l0.258,-0.192l6.189,-4.564l0.12,-0.088l-2.654,-1.439l-0.185,-0.099l-0.206,-0.185l-4.18,-3.731l-0.317,-0.283l-0.171,-0.352l-3.372,-6.921l-0.914,-1.875l1.881,-0.908l4.946,-2.382l0.463,-0.223l0.513,0.019l3.389,0.126l1.845,-0.301l4.085,-1.418l0.353,-0.123l3.044,0l0.296,0.081l7.192,1.977l0.445,0.123l0.336,0.277l1.887,1.559l3.324,1.64l0.183,0.091l0.176,0.137l2.473,1.934l1.671,1.307l-1.338,1.638l-3.596,4.405l-0.123,0.15l-0.162,0.134l-2.651,2.203l-0.218,0.181l-0.247,0.112l-4.754,2.165l0,0Zm-9.838,-2.736l5.832,0l6.789,-3.092l2.273,-1.887l2.135,-2.615l-0.626,-0.49l-3.367,-1.662l-0.228,-0.111l-0.18,-0.15l-1.732,-1.432l-6.45,-1.772l-1.902,0l-3.915,1.359l-0.185,0.065l-0.158,0.025l-2.203,0.36l-0.199,0.033l-0.207,-0.008l-3.083,-0.116l-2.599,1.253l2.286,4.693l3.656,3.263l3.548,1.924l0.099,0.055l0.137,0.1l0.279,0.205l0,0Zm6.269,5.736l-6.557,0l-1.1,0.531l-5.781,4.264l-2.391,3.248l0.645,15.024l0,0.146l-0.504,15.448l0.504,15.682l0,0.171l-0.67,12.755l0.003,0l0,1.051l1.402,0.935l4.944,0.78l13.834,0.874l2.494,-0.43l3.731,-3.022l0,-0.188l0.009,-0.04l0.169,-8.524l-0.757,-14.179l-0.005,-0.087l0.005,-0.109l0.734,-16.865l-0.12,-16.88l-1.499,-3.621l-6.347,-5.8l-2.743,-1.164l0,0Zm-0.361,-3.735l-6.272,0l0,1.734l6.272,0l0,-1.734Zm-3.256,17.303l1.268,0c0.184,0.002 0.331,0.051 0.44,0.15c0.108,0.1 0.164,0.237 0.165,0.41c-0.001,0.179 -0.057,0.32 -0.165,0.424c-0.109,0.103 -0.256,0.156 -0.44,0.158l-1.268,0l0,-1.142l0,0Zm0,2.902l1.268,0c0.249,0.003 0.445,0.056 0.59,0.159c0.145,0.105 0.219,0.245 0.222,0.424c-0.003,0.197 -0.077,0.353 -0.222,0.467c-0.145,0.112 -0.341,0.172 -0.59,0.173l-1.268,0l0,-1.223l0,0Zm1.999,13.907l2.994,0l-1.578,-2.606c0.414,-0.253 0.728,-0.592 0.944,-1.02c0.215,-0.427 0.324,-0.932 0.325,-1.517c-0.001,-0.611 -0.137,-1.129 -0.403,-1.555c-0.267,-0.427 -0.654,-0.753 -1.162,-0.976c-0.509,-0.222 -1.126,-0.335 -1.851,-0.337l-3.874,0l0,8.011l2.651,0l0,-2.08l0.994,0l0.96,2.08l0,0Zm-1.954,-4.092l0,-1.907l1.223,0c0.287,0.001 0.51,0.084 0.666,0.245c0.156,0.162 0.234,0.393 0.237,0.691c-0.003,0.311 -0.081,0.548 -0.237,0.716c-0.156,0.168 -0.379,0.254 -0.666,0.255l-1.223,0l0,0Zm4.285,8.492l0,-2.011l-6.776,0l0,8.01l6.878,0l0,-2.011l-4.228,0l0,-0.995l3.749,0l0,-2.01l-3.749,0l0,-0.983l4.126,0l0,0Zm-1.908,15.838l0.399,1.131l2.823,0l-3.256,-8.01l-2.72,0l-3.383,8.01l2.72,0l0.411,-1.131l3.006,0Zm-0.652,-1.897l-1.668,0l0.846,-2.342l0.822,2.342Zm-4.593,6.216l0,8.01l3.473,0c0.681,-0.002 1.291,-0.097 1.841,-0.283c0.545,-0.189 1.014,-0.457 1.403,-0.811c0.391,-0.349 0.69,-0.771 0.897,-1.263c0.209,-0.492 0.315,-1.044 0.316,-1.654c-0.001,-0.612 -0.104,-1.162 -0.309,-1.651c-0.204,-0.491 -0.497,-0.912 -0.877,-1.26c-0.382,-0.351 -0.84,-0.62 -1.374,-0.807c-0.532,-0.187 -1.131,-0.28 -1.794,-0.281l-3.576,0l0,0Zm2.65,2.056l0.87,0c0.344,0.003 0.643,0.084 0.898,0.246c0.253,0.16 0.452,0.388 0.591,0.683c0.14,0.292 0.211,0.638 0.212,1.037c-0.001,0.394 -0.066,0.735 -0.196,1.025c-0.127,0.287 -0.31,0.51 -0.544,0.666c-0.236,0.158 -0.514,0.238 -0.836,0.24l-0.995,0l0,-3.897l0,0Z"/>
</svg>