<?xml version="1.0" encoding="UTF-8"?>
<!DOCTYPE svg PUBLIC "-//W3C//DTD SVG 1.1//EN" "http://www.w3.org/Graphics/SVG/1.1/DTD/svg11.dtd">
<svg xmlns="http://www.w3.org/2000/svg" xml:space="preserve" style="shape-rendering:geometricPrecision; text-rendering:geometricPrecision; image-rendering:optimizeQuality; fill-rule:evenodd; clip-rule:evenodd"
viewBox="0 0 21.333 21.333" xmlns:xlink="http://www.w3.org/1999/xlink">
  <path d="M6.64001 5.40756l8.04057 -0.0925177 -0.0110234 -1.19486 -1.91295 0.146847 -0.00216531 0.000196846 -0.0122045 -0.000196846 -4.24558 -0.0576759 -1.92063 -0.0133855 0.063975 1.21159zm8.73229 -0.0887776c0.100982,0.0200783 0.192122,0.0686993 0.26279,0.137989 0.0944862,0.0927145 0.15354,0.221846 0.155115,0.364756l0 0.00137792c0.000984231,0.143304 -0.0559043,0.273616 -0.148619,0.368102 -0.0692898,0.0706678 -0.159445,0.121257 -0.260034,0.14291l0.0143698 1.58008 0 0.023031 -0.211019 3.47689 0.217712 2.92986 0.000590538 0.00925177 -0.000590538 0.0246058 -0.0494084 1.79032 0 0.0122045 -0.100785 1.56886 -0.0185035 0.287592 -0.28523 0.0352355 -2.3653 0.293104 -0.0181098 0.00236215 -0.0320859 -0.000984231 -4.07609 -0.107872 -0.0177162 0 -2.38361 -0.185232 -0.342119 -0.0265742 0.0220468 -0.340938 0.100982 -1.56886 0 -0.00275585 0.193893 -2.65309 -0.145076 -3.24245 -0.000787385 -0.0149603 0.000787385 -0.0149603 0.145469 -3.20072 -0.0295269 -0.55983c-0.120864,-0.0143698 -0.23031,-0.0696835 -0.31082,-0.151965 -0.0905492,-0.0927145 -0.146454,-0.21968 -0.147635,-0.358654 -0.000984231,-0.13858 0.0527548,-0.266333 0.141139,-0.360228l-0.000196846 -0.000196846c0.0698804,-0.0740142 0.16102,-0.127753 0.26338,-0.150981l-0.110628 -2.09602 -0.0194878 -0.367315 0.368102 0.00374008 3.12985 0.0328733 0.0122045 0 2.96844 0.136808 2.69069 -0.169681 0.364165 -0.0228342 0.00334638 0.365937 0.0183067 2.00921zm-0.682466 1.03384l-7.9951 0.092124 0.0287395 0.542902 0.000787385 0.0151572 -0.000787385 0.0175193 -0.145666 3.20347 0.145666 3.2517 0.000984231 0.0246058 -0.000984231 0.0147635 -0.195075 2.66805 -0.000196846 0 -0.0789353 1.22517 2.04169 0.158658 0 0.000393692 4.02609 0.106691 2.06216 -0.255506 0.0822817 -1.28147 0.000393692 0 0.0484242 -1.75351 -0.218696 -2.94068 -0.00157477 -0.0200783 0.00157477 -0.0246058 0.212397 -3.49855 -0.0141729 -1.54682zm-5.3924 -2.66175l-2.74955 -0.0287395 0.0106297 0.201767 1.94071 0.0135824 0.00137792 0 4.23337 0.0574791 1.93264 -0.148422 -0.000984231 -0.105313 -2.34208 0.147635 -0.0155508 0.000984231 -0.0210625 -0.000984231 -2.9895 -0.137792 0 -0.000196846zm1.35981 0.72774c0.190547,0 0.344874,0.154327 0.344874,0.344874 0,0.190547 -0.154327,0.344874 -0.344874,0.344874 -0.190547,0 -0.344874,-0.154327 -0.344874,-0.344874 0,-0.190547 0.154327,-0.344874 0.344874,-0.344874z"/>
</svg>
