<?xml version="1.0" encoding="UTF-8"?>
<!DOCTYPE svg PUBLIC "-//W3C//DTD SVG 1.1//EN" "http://www.w3.org/Graphics/SVG/1.1/DTD/svg11.dtd">
<svg xmlns="http://www.w3.org/2000/svg" xml:space="preserve" style="shape-rendering:geometricPrecision; text-rendering:geometricPrecision; image-rendering:optimizeQuality; fill-rule:evenodd; clip-rule:evenodd"
viewBox="0 0 15.9998 15.9998" xmlns:xlink="http://www.w3.org/1999/xlink">
  <path d="M4.73141 2.83681l2.26797 -0.160775 0.0222929 -0.00147635 0.0284936 0.00354324 2.18766 0.282278 1.96015 -0.123571 0.27283 -0.0171257 0.00280507 0.274454 0.0307081 3.06033 0 0.0172733 -0.154574 2.54641 0.159594 2.14573 0.000442906 0.00693885 -0.000442906 0.0184544 -0.036023 1.30421 0.000885811 0 0 0.656091 -0.000147635 0.230016 -0.228687 0.028346 -1.7325 0.214809 -0.0315939 0.00398615 -0.0315939 -0.00398615 -3.01072 -0.371893 -1.66488 0.157084 -0.284788 0.0268696 0 -0.285231 0 -0.656091 0.00103345 -0.0183068 0.142025 -1.94303 -0.106297 -2.37456 -0.000590541 -0.0112203 0.000590541 -0.0112203 0.106445 -2.34223 -0.142173 -2.3815 -0.0153541 -0.256295 0.256442 -0.0183068zm6.09748 0.544036l0.027903 2.78351 0 0.00841521 -0.155165 2.55586 0.160184 2.15355 0.000147635 0.00339561 -0.000147635 0.00885811 -0.036023 1.3079 0.000442906 0 0 0.184987 -0.000147635 0.110431 -0.109693 0.0135824 -1.21917 0.150883 -0.0152064 0.00191926 -0.0152064 -0.00191926 -3.02416 -0.373665 -1.16853 0.110726 -0.13671 0.0129919 0 -0.137005 0 -0.0729318 0.000590541 -0.00885811 0.142468 -1.94893 -0.10674 -2.38401 -0.00029527 -0.00531487 0.00029527 -0.00531487 0.106888 -2.35006 -0.129771 -2.17142 -0.126376 0.00900575 0.127557 2.13643 0.000590541 0.0115155 -0.000590541 0.0149112 -0.10674 2.34622 0.10674 2.3815 0.000738176 0.0184544 -0.000738176 0.0110726 -0.141877 1.94007 0 0.366726 1.41184 -0.133167 0.0315939 -0.0029527 0.0243598 0.0029527 3.00334 0.371007 1.47207 -0.182625 0 -0.426075 0.00103345 -0.00708649 0.0357277 -1.29284 -0.160332 -2.15385 -0.00118108 -0.0150588 0.00118108 -0.0184544 0.155607 -2.56236 -0.0277554 -2.77111 -0.128738 0.00811994zm-5.42928 -0.0699791l0.130214 2.17969 0.00029527 0.00561014 -0.00029527 0.00708649 -0.106888 2.35198 0.106888 2.38756 0.00029527 0.00885811 -0.00029527 0.00531487 -0.137596 1.88087 1.0423 -0.0987679 0.0150588 -0.00132872 0.0118108 0.00132872 3.02062 0.373222 1.09412 -0.135381 0 -0.0745558 0.000590541 -0.00339561 0.0358753 -1.30229 -0.160479 -2.15754 -0.000590541 -0.00723412 0.000590541 -0.00900575 0.155755 -2.56368 -0.0277554 -2.7627 -1.33182 0.0840044 -0.0219976 0.00147635 -0.026722 -0.00354324 -2.18603 -0.281983 -1.61395 0.114417z"/>
</svg>
