<?xml version="1.0" encoding="UTF-8"?>
<!DOCTYPE svg PUBLIC "-//W3C//DTD SVG 1.1//EN" "http://www.w3.org/Graphics/SVG/1.1/DTD/svg11.dtd">
<svg xmlns="http://www.w3.org/2000/svg" xml:space="preserve" style="shape-rendering:geometricPrecision; text-rendering:geometricPrecision; image-rendering:optimizeQuality; fill-rule:evenodd; clip-rule:evenodd"
viewBox="0 0 12.8001 12.8001" xmlns:xlink="http://www.w3.org/1999/xlink">
  <path d="M4.4269 7.00336l-0.424371 -0.366969 -0.0101575 -0.00885828 -0.00696851 -0.00755906 -0.359764 -0.395315 -0.112205 -0.123307 0.101221 -0.132166 0.383032 -0.499961 0.00980316 -0.0126378 0.0113386 -0.0108662c0.00212599,-0.00200788 0.775395,-0.761694 0.842718,-0.820277l0.661654 -0.569764c0.028937,-0.0249213 0.455788,-0.761103 0.456969,-0.763229l0.0258662 -0.0445276 0.0444095 -0.0265748 0.588426 -0.351378 0.182835 -0.161575 0.130512 -0.115276 0.132047 0.11374 0.499134 0.430158 0.00413386 0.00354331 0.00992127 0.0105118 0.637324 0.673347 0.000354331 -0.000354331 0.524764 0.548032 0.450591 0.253229 0.202914 0.114095 -0.143504 0.182835 -0.383032 0.488386 -0.0197244 0.0252756 -0.0248032 0.0168898 -0.53256 0.364252 -0.796536 0.958702 -0.0133465 0.0161811 -0.0148819 0.0119291 -0.708308 0.572127 -0.606261 0.641812 -0.0392126 0.0415749 -0.0544489 0.0146457 -0.301772 0.0813781 -0.112087 0.0303544 -0.0817324 -0.083504 -0.611457 -0.624213 -0.542717 -0.474804 -0.00011811 0.00011811zm-1.76835 -0.319843l0.117756 0.0865749 0.331182 0.243189 0.858544 0.630709 0.0229134 0.0168898 0.0170079 0.021378 0.905316 1.13953 -0.000354331 0.000354331 0.582166 0.691182 0.649607 0.193465 0.705237 -1.12217 0.0180709 -0.0285827 0.0266929 -0.0218504 1.47685 -1.20201 0.549804 -0.550749 0.00874017 -0.00874017 0.00838584 -0.00673229 0.758623 -0.607914 0.338504 -0.271181 0.102992 -0.0826773 0.00555119 -0.947245 -0.0766536 -0.341575 -0.300591 -0.217914 -0.00496064 -0.00401575 -0.866694 -0.666261 -0.0102756 -0.0079134 -0.0100394 -0.0100394 -0.673229 -0.674528 -0.0131103 -0.0132284 -0.00968505 -0.0135827 -0.644646 -0.912875 -0.43004 -0.233386 -0.513071 0.201969 -1.29047 1.45134 -0.00578741 0.00673229 -0.0129921 0.0112205 -1.31646 1.15677 -0.83197 0.833505 -0.0152362 0.0153543 -0.0188977 0.0122835 -0.43878 0.286654 0 0.946064zm0.117756 1.74166l0 -1.13953 -0.448938 -0.329764 -0.0855119 -0.0627166 0 -0.104882 0 -1.1628 0 -0.111851 0.095197 -0.0622442 0.515197 -0.336496 0.820395 -0.82193 0.0106299 -0.00980316 1.31043 -1.15146 1.3174 -1.48169 0.0329528 -0.0368504 0.0467717 -0.0185433 0.649961 -0.255827 0.0901182 -0.0354331 0.0848033 0.046063 0.557245 0.302363 0.0422835 0.0230315 0.0285827 0.0403938 0.663662 0.939804 0.649961 0.651261 0.85134 0.65445 0.00011811 -0.00011811 0.363898 0.26374 0.0633072 0.0459449 0.0172441 0.0768899 0.0989765 0.44126 0.00519686 0.0227953 -0.000236221 0.0236221 -0.00625985 1.07055 -0.000472442 0.0996852 -0.0768899 0.0614174 -0.440079 0.352678 0 0.849332 0 0.0862206 -0.0610631 0.0610631 -3.99851 3.99898 -0.147166 0.147402 -0.147402 -0.147402 -2.84209 -2.84233 -0.0610631 -0.0610631 0 -0.0862206zm0.416693 -0.833387l0 0.747166 2.63374 2.63398 3.79016 -3.79063 0 -0.429095 -0.411733 0.329882 -0.548387 0.549331 -0.00732284 0.00744095 -0.00897639 0.00720473 -1.45914 1.1876 -0.771261 1.22717 -0.0839765 0.133819 -0.151181 -0.0451182 -0.859017 -0.255827 -0.0582284 -0.0173622 -0.0409843 -0.0485434 -0.626812 -0.744214 -0.00413386 -0.00413386 -0.888308 -1.11803 -0.504449 -0.37063zm4.76965 -1.98036l-0.480591 -0.427796 -0.00484253 -0.00425197 -0.00614174 -0.00755906 -0.456851 -0.559489 -0.578977 0.503977 -0.645828 0.803859 -0.00543308 0.0068504 -0.00708662 0.00602363 -0.9913 0.854292 0.45378 0.397087 0.0109843 0.0101575 0.533505 0.544607 0.135236 -0.0364961 0.576024 -0.609686 0.0090945 -0.00944883 0.0112205 -0.00921261 0.704883 -0.56941 0.742324 -0.893505zm-3.3287 1.04362l1.00547 -0.866576 0.646772 -0.80504 0.00649607 -0.0079134 0.00555119 -0.00496064 0.662245 -0.576497 0.0777166 -0.0675591 0.065315 0.0800788 0.51626 0.632127 0.486851 0.433465 0.485906 -0.332245 0.219685 -0.280158 -0.272953 -0.153425 -0.0252756 -0.0141732 -0.0207874 -0.0217323 -0.545552 -0.569764 -0.000826773 -0.00153543 -0.628465 -0.664017 -0.363071 -0.312756 -0.0667324 0.0589371 -0.0144095 0.012874 -0.0152362 0.00897639 -0.55878 0.333662c-0.0983859,0.168071 -0.448938,0.762757 -0.515906,0.820513l-0.661654 0.569764 -0.000826773 0.000708662c-0.0602363,0.0518505 -0.724017,0.705237 -0.816851,0.796536l-0.271772 0.354804 0.240709 0.264449 0.360119 0.311457z"/>
</svg>
