<?xml version="1.0" encoding="UTF-8"?>
<!DOCTYPE svg PUBLIC "-//W3C//DTD SVG 1.1//EN" "http://www.w3.org/Graphics/SVG/1.1/DTD/svg11.dtd">
<svg xmlns="http://www.w3.org/2000/svg" xml:space="preserve" style="shape-rendering:geometricPrecision; text-rendering:geometricPrecision; image-rendering:optimizeQuality; fill-rule:evenodd; clip-rule:evenodd"
viewBox="0 0 128 128" xmlns:xlink="http://www.w3.org/1999/xlink">
  <path d="M52.587,26.1l26.006,1.978l20.553,-0.763l2.43,-0.091l2.323,-0.085l0,0l0.035,2.119l0.363,21.246l0.003,0.142l-0.011,0.102l-1.812,17.583l1.861,14.752l0.025,0.192l-0.008,0.158l-0.427,9.104l0.002,4.465l0.001,1.935l-1.93,0.141l-20.406,1.49l-0.145,0.012l-0.148,-0.012l-35.634,-2.593l-19.834,1.103l-2.197,0.122l0,-6.871l0.017,-0.134l1.657,-13.371l-1.245,-16.402l-0.012,-0.154l0.012,-0.155l1.25,-16.207l-1.662,-16.411l-0.221,-2.186l2.542,-0.107l4.463,-0.185l0,-0.002l21.913,-0.915l0.153,-0.006l0.083,0.006Zm47.369,13.307l-20.769,5.092l-0.066,0.017l-0.082,0.007l-25.396,2.285l-0.184,0.018l-0.171,-0.05l-24.41,-6.928l0.592,5.852l0.021,0.202l-0.013,0.156l-1.25,16.211l1.25,16.457l0.016,0.211l-0.024,0.197l-1.666,13.433l0,2.239l2.49,-0.139l0.556,-0.158l0.036,0.125l2.044,-0.114l-0.156,-0.557l9.618,-2.729l0.539,1.92l-3.548,1.007l6.206,-0.345l0.148,-0.007l0.112,0.007l35.599,2.591l10.465,-0.764l0.406,-1.809l5.965,1.342l1.495,-0.108l-0.001,-2.621l0,-0.09l0.419,-8.944l-1.868,-14.81l-0.031,-0.247l0.022,-0.224l1.824,-17.703l-0.188,-11.022l0,0l0,0l0,0Zm-11.974,55.492l0.437,-1.944l1.95,0.439l-0.437,1.944l-1.95,-0.439Zm-3.901,-0.879l0.437,-1.944l1.951,0.439l-0.437,1.945l-1.951,-0.44Zm-11.723,-1.8l0.203,-1.984l7.073,0.746l0.052,0.005l0.065,0.015l2.816,0.635l-0.437,1.944l-2.751,-0.62l-7.021,-0.741l0,0Zm-27.505,0.389l-0.538,-1.921l1.117,-0.316l0.103,-0.029l0.112,-0.007l0.837,-0.046l0.109,1.992l-0.726,0.04l-1.014,0.287l0,0Zm3.737,-0.437l-0.108,-1.992l1.996,-0.109l0.108,1.991l-1.996,0.11Zm19.792,-0.372l0.203,-1.985l1.988,0.211l-0.203,1.984l-1.988,-0.21Zm-15.8,0.152l-0.108,-1.991l9.982,-0.549l0.109,1.991l-9.983,0.549Zm11.822,-0.573l0.203,-1.984l1.989,0.21l-0.203,1.984l-1.989,-0.21Zm-15.131,-13.701c0.17,0.176 0.314,0.415 0.468,0.637l0.049,0.07l0.079,0.182l0.003,0.197l-0.075,0.183l-0.136,0.138c0.355,0.479 0.731,0.936 1.129,1.375l0.167,-0.098l0.195,-0.037l0.193,0.04l0.163,0.113c0.158,0.165 0.32,0.326 0.485,0.485l0.112,0.162l0.041,0.194l-0.038,0.194l-0.107,0.161c0.442,0.401 0.904,0.78 1.384,1.136l0.138,-0.137l0.183,-0.074l0.198,0.003c0.241,0.105 0.452,0.268 0.675,0.413l0.072,0.046l0.141,0.138l0.078,0.181l0.002,0.197l-0.074,0.181c0.515,0.31 1.04,0.591 1.579,0.846l0.108,-0.161l0.165,-0.109l0.194,-0.036c0.284,0.061 0.55,0.196 0.826,0.305l0.166,0.107l0.111,0.163l0.039,0.193l-0.037,0.191c0.036,0.013 0.072,0.026 0.108,0.039c0.524,0.183 1.057,0.342 1.595,0.477l0.086,-0.178l0.14,-0.138l0.183,-0.074l0.197,0.003c0.224,0.049 0.449,0.094 0.674,0.135l0.183,0.073l0.141,0.137l0.077,0.182l0,0.194c0.591,0.086 1.182,0.143 1.776,0.173l0.044,-0.191l0.111,-0.163l0.165,-0.108l0.194,-0.035c0.061,0.001 0.122,0.002 0.183,0.003c0.233,0.003 0.361,0 0.507,-0.003l0.194,0.035l0.166,0.108l0.111,0.163l0.038,0.191c0.597,-0.029 1.188,-0.087 1.776,-0.173l0.009,-0.194l0.077,-0.182l0.141,-0.138l0.183,-0.072c0.211,-0.038 0.42,-0.08 0.628,-0.125l0.24,-0.012l0.183,0.074l0.14,0.138l0.075,0.179c0.572,-0.141 1.138,-0.312 1.693,-0.51l0.024,-0.009l-0.038,-0.191l0.04,-0.194l0.112,-0.162l0.165,-0.107c0.096,-0.038 0.239,-0.096 0.24,-0.097c0.131,-0.054 0.261,-0.11 0.391,-0.166l0.193,-0.041l0.194,0.036l0.164,0.109l0.108,0.161c0.538,-0.256 1.061,-0.536 1.571,-0.841l-0.064,-0.187l0.002,-0.198l0.078,-0.181l0.141,-0.137c0.191,-0.122 0.379,-0.249 0.564,-0.379l0.182,-0.079l0.197,-0.003l0.183,0.074l0.138,0.137c0.474,-0.351 0.932,-0.728 1.371,-1.126l-0.093,-0.172l-0.038,-0.194l0.041,-0.194l0.113,-0.162c0.164,-0.159 0.325,-0.32 0.483,-0.484l0.163,-0.113l0.193,-0.04l0.195,0.037l0.16,0.108c0.044,-0.049 0.088,-0.098 0.131,-0.147c0.353,-0.396 0.688,-0.81 1.004,-1.237l-0.135,-0.14l-0.074,-0.183l0.003,-0.198l0.079,-0.181c0.113,-0.163 0.225,-0.327 0.333,-0.493l0.046,-0.072l0.137,-0.141l0.181,-0.078l0.197,-0.002l0.181,0.074c0.308,-0.512 0.591,-1.041 0.847,-1.581l-0.161,-0.108l-0.109,-0.165l-0.036,-0.194c0.06,-0.284 0.194,-0.549 0.303,-0.824l0.108,-0.166l0.162,-0.111l0.193,-0.039l0.191,0.037c0.013,-0.034 0.025,-0.069 0.038,-0.104c0.183,-0.524 0.342,-1.056 0.476,-1.595l-0.176,-0.093l-0.138,-0.14l-0.074,-0.183l0.004,-0.198c0.042,-0.194 0.082,-0.388 0.118,-0.584l0.015,-0.084l0.072,-0.184l0.138,-0.141l0.181,-0.077l0.195,-0.001c0.086,-0.588 0.143,-1.179 0.172,-1.772l-0.19,-0.051l-0.163,-0.111l-0.108,-0.165l-0.035,-0.195c0.002,-0.1 0.004,-0.251 0.004,-0.252c0,-0.143 -0.002,-0.287 -0.004,-0.431l0.035,-0.194l0.108,-0.165l0.163,-0.111l0.191,-0.039c-0.028,-0.6 -0.088,-1.193 -0.174,-1.783l-0.193,0l-0.183,-0.077l-0.138,-0.142c-0.105,-0.267 -0.143,-0.564 -0.206,-0.854l-0.003,-0.198l0.074,-0.183l0.139,-0.14l0.179,-0.074c-0.143,-0.582 -0.317,-1.154 -0.519,-1.717l-0.191,0.038l-0.193,-0.04l-0.163,-0.111c-0.158,-0.244 -0.252,-0.525 -0.37,-0.797l-0.041,-0.192l0.036,-0.194l0.109,-0.165l0.161,-0.108c-0.257,-0.541 -0.539,-1.069 -0.848,-1.582l-0.18,0.075l-0.198,-0.002l-0.181,-0.078c-0.17,-0.175 -0.314,-0.414 -0.467,-0.635l-0.049,-0.07l-0.079,-0.182l-0.003,-0.197l0.074,-0.184l0.137,-0.137c-0.356,-0.479 -0.736,-0.942 -1.138,-1.386l-0.161,0.108l-0.194,0.037l-0.193,-0.04c-0.24,-0.166 -0.434,-0.391 -0.646,-0.596l-0.113,-0.163l-0.041,-0.193l0.038,-0.194l0.107,-0.161c-0.444,-0.403 -0.906,-0.781 -1.386,-1.137l-0.138,0.136l-0.183,0.075l-0.197,-0.003c-0.24,-0.104 -0.452,-0.267 -0.674,-0.412l-0.072,-0.046l-0.142,-0.137l-0.077,-0.181l-0.002,-0.197l0.074,-0.181c-0.044,-0.026 -0.088,-0.052 -0.132,-0.079c-0.449,-0.263 -0.91,-0.509 -1.38,-0.734l-0.07,-0.034l-0.108,0.161l-0.165,0.109l-0.193,0.036c-0.281,-0.06 -0.547,-0.194 -0.823,-0.303l-0.166,-0.107l-0.112,-0.163l-0.039,-0.193l0.037,-0.192c-0.562,-0.201 -1.133,-0.375 -1.711,-0.516l-0.081,0.177l-0.14,0.139l-0.183,0.074l-0.197,-0.003c-0.195,-0.042 -0.389,-0.082 -0.585,-0.118l-0.085,-0.015l-0.184,-0.072l-0.142,-0.138l-0.077,-0.183l0,-0.193c-0.272,-0.041 -0.544,-0.074 -0.817,-0.102c-0.32,-0.032 -0.641,-0.055 -0.963,-0.071l-0.043,0.191l-0.11,0.163l-0.166,0.108l-0.194,0.035c-0.224,-0.004 -0.448,-0.004 -0.672,0l-0.194,-0.035l-0.166,-0.108l-0.111,-0.163l-0.038,-0.191c-0.599,0.028 -1.195,0.086 -1.787,0.173l-0.001,0.195l-0.078,0.181l-0.141,0.138c-0.228,0.089 -0.503,0.13 -0.765,0.186l-0.084,0.019l-0.198,0.003l-0.183,-0.074l-0.14,-0.139l-0.075,-0.179c-0.583,0.143 -1.156,0.317 -1.72,0.519l0.037,0.19l-0.039,0.194l-0.111,0.162c-0.242,0.157 -0.523,0.251 -0.794,0.369l-0.193,0.041l-0.194,-0.036l-0.165,-0.109l-0.108,-0.161c-0.543,0.257 -1.071,0.54 -1.584,0.848l0.074,0.181l-0.002,0.197l-0.078,0.181c-0.175,0.17 -0.413,0.313 -0.633,0.466l-0.07,0.049l-0.181,0.079l-0.198,0.002l-0.183,-0.074l-0.138,-0.137c-0.483,0.356 -0.945,0.737 -1.388,1.139l0.107,0.16l0.038,0.195l-0.041,0.193c-0.165,0.238 -0.39,0.432 -0.595,0.645l-0.162,0.112l-0.194,0.041l-0.194,-0.038l-0.16,-0.107c-0.402,0.441 -0.783,0.906 -1.14,1.387l0.137,0.137l0.074,0.184l-0.003,0.197c-0.105,0.24 -0.267,0.451 -0.411,0.673l-0.046,0.071l-0.137,0.142l-0.182,0.078l-0.197,0.001l-0.18,-0.074c-0.309,0.513 -0.592,1.042 -0.849,1.583l0.161,0.107l0.108,0.165l0.037,0.194c-0.06,0.281 -0.194,0.547 -0.303,0.823l-0.107,0.165l-0.163,0.112l-0.193,0.04l-0.192,-0.038c-0.202,0.564 -0.375,1.137 -0.519,1.718l0.179,0.074l0.139,0.141l0.073,0.183c-0.004,0.274 -0.083,0.567 -0.137,0.867l-0.072,0.184l-0.139,0.141l-0.182,0.077l-0.188,0c-0.089,0.592 -0.145,1.188 -0.174,1.785l0.187,0.038l0.163,0.111l0.108,0.165c0.032,0.174 0.032,0.429 0.032,0.429c-0.001,0.054 0.002,0.104 0.002,0.104c0,0 -0.002,0.171 0.001,0.344l-0.035,0.195l-0.108,0.165l-0.163,0.111l-0.188,0.038c0.028,0.595 0.086,1.192 0.173,1.785l0.19,0l0.182,0.077l0.138,0.141c0.099,0.252 0.137,0.536 0.197,0.813l0.012,0.239l-0.074,0.183l-0.138,0.14l-0.179,0.075c0.143,0.58 0.316,1.153 0.517,1.716l0.192,-0.037l0.193,0.04l0.163,0.111c0.154,0.238 0.251,0.524 0.37,0.798l0.041,0.192l-0.037,0.194l-0.108,0.165l-0.161,0.108c0.256,0.54 0.538,1.068 0.846,1.58l0.181,-0.074l0.197,0.002c0.06,0.026 0.121,0.052 0.181,0.078Zm23.997,6c-0.04,0.025 0.025,-0.015 0,0Zm-9.247,-27.053c0.268,0.002 0.535,0.012 0.803,0.031c0,0 0.332,0.026 0.605,0.059c4.222,0.519 8.05,3.475 9.611,7.481c0.429,1.101 0.688,2.265 0.775,3.444c0,0 0.033,0.482 0.031,0.916c-0.001,0.271 -0.012,0.542 -0.03,0.812c0,0 -0.024,0.311 -0.053,0.554c-0.459,3.858 -2.956,7.488 -6.588,9.262c-1.035,0.506 -2.143,0.857 -3.281,1.045c0,0 -0.379,0.061 -0.68,0.092c-1.041,0.109 -2.094,0.079 -3.13,-0.083c0,0 -0.356,-0.061 -0.659,-0.127c-4.66,-1.018 -8.537,-5.073 -9.22,-9.942c-0.574,-4.094 1.15,-8.437 4.442,-11.017c1.833,-1.438 4.092,-2.315 6.428,-2.493c0,0 0.507,-0.035 0.946,-0.034Zm17.697,14.541c0,0 0.078,0.005 -0.015,-0.004c0,0 0.01,0.002 0.015,0.004Zm-35.636,-3.515c0,0 0.058,-0.003 -0.039,-0.009c0,0 0.025,0.006 0.039,0.009Zm-17.422,-29.937l24.993,7.093l25.13,-2.261l21.136,-5.181l-0.092,-5.44l-20.378,4.989l-0.144,0.035l-0.157,0.015l-25.403,2.303l-0.393,0.036l-0.355,-0.101l-24.903,-7.075l0.566,5.587l0,0Zm10.069,-6.889l15.036,4.273l24.853,-2.254l2.941,-0.72l-2.976,0.111l-0.152,0.005l-0.075,-0.005l-25.996,-1.979l-13.631,0.569Zm0,0l0,0l0,0l0,0Z" style="fill-rule:nonzero;"/>
</svg>