<?xml version="1.0" encoding="UTF-8"?>
<!DOCTYPE svg PUBLIC "-//W3C//DTD SVG 1.1//EN" "http://www.w3.org/Graphics/SVG/1.1/DTD/svg11.dtd">
<svg xmlns="http://www.w3.org/2000/svg" xml:space="preserve" style="shape-rendering:geometricPrecision; text-rendering:geometricPrecision; image-rendering:optimizeQuality; fill-rule:evenodd; clip-rule:evenodd"
viewBox="0 0 16.0001 16.0001" xmlns:xlink="http://www.w3.org/1999/xlink">
  <path d="M6.15917 13.2364l0.000295276 0.000147638c0.0187501,0.0107776 0.036319,0.0246556 0.0522639,0.0407482 0.000147638,0.000295276 0.241093,-0.0531498 0.188682,0.152806 0.0550691,-0.000590553 0.103494,-0.00605317 0.139223,-0.0146162 0.0445868,-0.0568407 0.113091,-0.0937503 0.190306,-0.0937503l0.0360237 0c0.0772148,0 0.14631,0.0369096 0.191044,0.0937503 0.037943,0.00915357 0.0893211,0.0146162 0.148672,0.0146162l0.0315946 -0.000147638c0.0110729,-0.062451 0.0414863,-0.118996 0.10128,-0.162254 0.00797247,-0.00605317 0.0160926,-0.0121063 0.0250985,-0.0174213 0.0230316,-0.0137304 0.0509352,-0.0246556 0.0823821,-0.0317422l0.00147638 -0.000295276 0.00605317 -0.00162402c0.0147638,-0.00339568 0.0301182,-0.00561025 0.0459155,-0.00634844l0.00265749 0 0.000147638 0 0.0352855 -0.00413387 0.0361714 -0.331891 0.000147638 0 0.0157973 -0.145719 0 -0.228692 0.000295276 0c0,-0.0100394 0.000442915,-0.0205217 0.00162402,-0.0307088 0.0141733,-0.113386 0.0391241,-0.214961 0.0705711,-0.305021 0.0149115,-0.0429627 0.0318899,-0.0843014 0.0496065,-0.122835l0 -0.257481 0 -0.646803 -0.00428151 0 0.00295276 -0.121359 0.00132874 -0.0482777 0.000590553 -0.0470966c0,-0.110729 -0.00738191,-0.218357 -0.020817,-0.319637 -0.0134351,-0.102461 -0.0339568,-0.198869 -0.0593506,-0.285237l-0.00782483 -0.0267225 0.00472442 -0.0273131c0.0243603,-0.140109 0.0437009,-0.290109 0.0563978,-0.446901 0.0124016,-0.151477 0.0190453,-0.310926 0.0190453,-0.475986 0,-0.339273 -0.0280513,-0.657433 -0.0773624,-0.935584 -0.0333662,-0.18691 -0.0757384,-0.356989 -0.126083,-0.503004 -0.0875495,-0.00649608 -0.162107,-0.0596459 -0.199312,-0.135384l-0.000295276 0.000147638 -0.00413387 -0.00841538 -0.000442915 0.000147638 -0.0050197 -0.00944885 0 0.000147638 -0.000590553 -0.000885829 -0.00841538 -0.0163878c-0.00944885,-0.0178642 -0.0199312,-0.0360237 -0.0304135,-0.0532974l-0.00546262 -0.00959649 -0.000147638 0c-0.146457,-0.264863 -0.284647,-0.556891 -0.285089,-0.557777 -0.0174213,-0.0354332 -0.0253938,-0.0727857 -0.0252461,-0.109843l-0.00132874 0 0 -0.39759c-0.0264272,-0.00206694 -0.0558073,-0.00369096 -0.0872542,-0.00369096l-0.0184548 -0.000442915 -0.0146162 0.000295276 0 0.000147638 -0.0444391 0.00221457c-0.0496065,0.00236221 -0.0968507,-0.0107776 -0.13627,-0.0348426l0 0.433761 0 0.0267225 -0.0128445 0.0259843c-0.000295276,0.000738191 -0.132136,0.280217 -0.282727,0.552315l-0.00132874 0.00236221 -0.0200788 0.0345474 -0.0215552 0.0397147 -0.00885829 0.0163878 -0.00738191 0.0160926 -0.00103347 0.00132874 -0.0113681 0.0233268c0.0280513,0.119735 0.0527069,0.252609 0.0729333,0.396409 0.081644,0.580809 0.132432,1.3785 0.132432,2.25473 0,0.876233 -0.0507876,0.856154 -0.132432,1.43711 -0.0364666,0.259105 -0.0856302,0.481005 -0.146752,0.658467l-0.149558 0.409991 0.215552 0.341783zm-1.42914 -2.82875l0 -0.0531498 0 -0.0451773 0 -0.0451773c0,-0.00944885 0.000885829,-0.0186024 0.0019193,-0.027756l-0.000442915 -0.0137304 0.000147638 -0.00472442 -0.000147638 0 -0.000442915 -0.0488683 0.000147638 -0.00206694 -0.000147638 0c0,-0.128741 0.00826774,-0.252314 0.0234745,-0.367619 0.0135827,-0.102313 0.0324804,-0.197392 0.0550691,-0.284351 -0.0218505,-0.135089 -0.0397147,-0.277412 -0.051821,-0.424608 -0.0126969,-0.155758 -0.0194882,-0.325247 -0.0194882,-0.506104l-0.00103347 0c0,-0.355513 0.0307088,-0.696114 0.0845967,-1.0001 0.0565454,-0.31757 0.140109,-0.593949 0.241979,-0.805957l-0.000442915 -0.000295276 0.00885829 -0.0193406 0.006939 -0.0134351 -0.000295276 -0.000147638 0.0100394 -0.0188977 0.00664372 -0.0113681 0.00487206 -0.00885829 0.0115158 -0.0212599 0.00442915 -0.00738191 -0.000738191 -0.000442915 0.0219981 -0.0376478 0.000147638 -0.000147638c0.112057,-0.202855 0.202855,-0.385779 0.245818,-0.474657l0 -0.512895c0,-0.151772 0.108514,-0.25379 0.283613,-0.297048 0.0792817,-0.0196359 0.182776,-0.0317422 0.290847,-0.0317422 0.108071,0 0.211566,0.012254 0.290847,0.0317422 0.113239,0.0279036 0.199016,0.081644 0.244932,0.156939 0.0203741,-0.0872542 0.0504923,-0.207875 0.118849,-0.338977 0.18381,-0.352117 0.372048,-0.75827 0.418112,-0.922887l0 -0.221457 0.000885829 0c0,-0.151477 0.108514,-0.25379 0.282727,-0.296901 0.0791341,-0.0196359 0.182629,-0.0318899 0.2907,-0.0318899 0.107924,0 0.211418,0.012254 0.2907,0.0317422 0.091831,0.0227363 0.165355,0.0623033 0.214371,0.116191 0.0358761,-0.0686518 0.0745573,-0.142323 0.115305,-0.218652 0.199755,-0.374115 0.443948,-0.831351 0.443948,-0.940751 0,-0.0217028 0.00206694,-0.0441438 0.00590553,-0.067323l0.00250985 -0.0115158 0 -0.204036c0,-0.151772 0.108366,-0.25379 0.283465,-0.297048 0.0794294,-0.0196359 0.182776,-0.0317422 0.290995,-0.0317422 0.108071,0 0.211418,0.0121063 0.2907,0.0317422 0.175099,0.043258 0.283613,0.145276 0.283613,0.297048l0 0.292619c0.00900593,0.0401576 0.0219981,0.0986224 0.0373525,0.171999 0.0553643,-0.00738191 0.115896,-0.0118111 0.178199,-0.0118111 0.108071,0 0.211418,0.012254 0.290552,0.0318899 0.174361,0.0431104 0.282727,0.145424 0.282727,0.296901l0.00103347 0 0 0.511567c0.0429627,0.0885829 0.134203,0.273869 0.247737,0.479234l0.0202264 0.034695 0.00708664 0.0128445 0.0181595 0.0336615 0.00634844 0.012254 0.00516734 0.00944885 0.00856302 0.0178642 0.00605317 0.0129922 0.00516734 0.0116634c0.0999511,0.210975 0.181743,0.483958 0.237255,0.796804 0.0540356,0.303987 0.0847444,0.644441 0.0847444,0.999954 0,0.172737 -0.00723427,0.342225 -0.0206694,0.505513 -0.0121063,0.147195 -0.02938,0.289814 -0.0512305,0.424903 0.0227363,0.0871066 0.0411911,0.182186 0.0544785,0.283613l0.00132874 0.00959649c0.0146162,0.112796 0.0221457,0.233711 0.0221457,0.359204l0 0.0019193 -0.000147638 0.00959649 -0.000442915 0.0391241 0 0.00383859 -0.000295276 0.0109252c0.00147638,0.0104823 0.0019193,0.020817 0.0019193,0.0317422l0 0.00649608 0 0.319489 0 1.37363c0,0.0159449 -0.00147638,0.0317422 -0.00428151,0.0466537l-0.0146162 0.134941 -0.000147638 0.00103347 0.000147638 0 -0.000295276 0.00369096 -0.000442915 0.00354332 -0.046506 0.426084c-0.00383859,0.132284 -0.0875495,0.229282 -0.225001,0.285237l-0.00649608 0.00280513c-0.0307088,0.108366 -0.124754,0.187943 -0.260286,0.231054 -0.0838585,0.0267225 -0.194882,0.043258 -0.312403,0.043258 -0.117668,0 -0.228544,-0.0165355 -0.312403,-0.043258 -0.015502,-0.0050197 -0.0305611,-0.010187 -0.0450297,-0.0160926 -0.0144685,0.00575789 -0.0299706,0.0109252 -0.0456202,0.0160926 -0.0838585,0.0267225 -0.194735,0.043258 -0.312403,0.043258l-0.00620081 0c-0.0200788,0.0438486 -0.0419293,0.106742 -0.0550691,0.19001l0 0.254824c0,0.0156497 -0.00132874,0.031004 -0.00398623,0.0457679l-0.0149115 0.136861 -0.0472442 0.433466c-0.00383859,0.132284 -0.0875495,0.229282 -0.225148,0.285237l-0.00723427 0.00324804c-0.0308564,0.108514 -0.124164,0.187353 -0.259105,0.230316 -0.0840062,0.0267225 -0.19503,0.0434056 -0.312698,0.0434056 -0.117668,0 -0.228839,-0.0166831 -0.312698,-0.0434056 -0.0156497,-0.00487206 -0.0305611,-0.010187 -0.044882,-0.0160926 -0.0144685,0.00590553 -0.0296753,0.0110729 -0.0453249,0.0160926 -0.0838585,0.0267225 -0.194882,0.0434056 -0.31255,0.0434056l0 -0.000885829 -0.00561025 0 -0.0110729 0.0284942c-0.0203741,0.0583171 -0.0364666,0.122244 -0.0456202,0.190306l0 0.227068c0,0.00871066 -0.000295276,0.0177166 -0.00118111,0.026132l0.000147638 0 -0.0168308 0.155611 -0.000147638 0.000885829 0.000147638 0 -0.000442915 0.00369096 -0.000295276 0.00369096 -0.046506 0.426084c-0.00383859,0.132284 -0.0875495,0.229282 -0.225001,0.285237l-0.00649608 0.00280513c-0.0307088,0.108366 -0.124754,0.187943 -0.260286,0.230906 -0.0838585,0.0267225 -0.194882,0.0434056 -0.312403,0.0434056 -0.117668,0 -0.228544,-0.0166831 -0.312403,-0.0434056 -0.0156497,-0.00487206 -0.0305611,-0.0100394 -0.0450297,-0.0160926 -0.0144685,0.00590553 -0.0301182,0.0110729 -0.0456202,0.0160926 -0.0838585,0.0267225 -0.194882,0.0434056 -0.312403,0.0434056 -0.117668,0 -0.228544,-0.0166831 -0.312403,-0.0434056 -0.135384,-0.0431104 -0.228987,-0.122392 -0.259843,-0.230759l-0.0217028 -0.00930121c-0.00959649,-0.00428151 -0.0184548,-0.00915357 -0.0274607,-0.0137304l-0.338092 -0.479677 -0.549952 -0.531202c-0.0336615,-0.0324804 -0.0559549,-0.0723427 -0.0668801,-0.114863l-0.000295276 0.000147638 -0.00236221 -0.0081201 -0.000738191 -0.00236221c-0.00752955,-0.0233268 -0.012254,-0.0470966 -0.0137304,-0.0713093l-0.000295276 -0.00265749 -0.000147638 -0.00103347 -0.0470966 -0.43568 -0.000147638 0 -0.0169784 -0.155463c-0.00103347,-0.00915357 -0.00118111,-0.0180119 -0.00118111,-0.0270178l-0.000885829 0 0 -1.38987zm0.881696 2.14563l0.0312993 0.00752955 0 -0.0594982 0 0 0 -0.176428 0 0 0 -1.30645 0 -0.118554 0.000885829 0c0.000738191,-0.115453 0.00856302,-0.226329 0.0219981,-0.329824 0.013878,-0.104823 0.0343997,-0.203298 0.0590553,-0.292324 -0.00797247,-0.0487206 -0.0150591,-0.0984747 -0.0218505,-0.148967l0 -0.000295276 -0.000885829 -0.00679136 -0.00103347 -0.00664372 -0.000147638 0 -0.000738191 -0.00723427 -0.000147638 0 -0.000738191 -0.00664372 0 0 -0.000738191 -0.006939 -0.000147638 -0.000147638 -0.00118111 -0.00649608 0 -0.000147638 -0.000590553 -0.006939 -0.000147638 -0.000147638c-0.01063,-0.0806105 -0.0190453,-0.16255 -0.0264272,-0.246999 -0.0131398,-0.16004 -0.0200788,-0.325985 -0.0200788,-0.494883 0,-0.349607 0.0298229,-0.682384 0.0820869,-0.977513 0.00871066,-0.0487206 0.0184548,-0.0969983 0.0283465,-0.143652l-0.0019193 -0.0135827c-0.0615652,-0.437009 -0.0537403,-0.707482 -0.0720475,-0.707482 -0.0184548,0 -0.01063,0.270621 -0.0720475,0.70763 -0.201083,1.43017 -0.199755,2.91896 -0.00280513,4.34942zm0.0748526 -5.5509c0.150886,0 0.278593,0.142766 0.378544,0.397442 0.109843,-0.202117 0.199016,-0.385041 0.231497,-0.452954l0 -0.448673c-0.142766,-0.281399 -0.118111,-0.238879 -0.1125,-0.229282l-0.012254 -0.0248032 0 -0.0267225 0 -0.178199c-0.0385336,-0.0336615 -0.0664372,-0.0686518 -0.0829727,-0.0933074l-0.00221457 -0.0031004 -0.000442915 -0.000590553c-0.0233268,-0.0352855 -0.037943,-0.0772148 -0.0404529,-0.122097 -0.0264272,-0.00206694 -0.0559549,-0.00369096 -0.0876971,-0.00369096 -0.0315946,0 -0.0606793,0.00147638 -0.0872542,0.00354332l0 0.397442 -0.000590553 0c0,0.0370572 -0.00856302,0.0744097 -0.0259843,0.109843 -0.000442915,0.000885829 -0.136418,0.289076 -0.281989,0.552462l-0.00590553 0.0103347 -0.0219981 0.0376478 -0.000442915 -0.000295276 -0.00575789 0.0110729c-0.00531498,0.0126969 -0.0116634,0.0246556 -0.0190453,0.0364666l-0.00428151 0.00930121 -0.000147638 0 -0.00265749 0.00487206c-0.0259843,0.0535927 -0.0503446,0.112943 -0.0733762,0.177609 0.0760337,-0.107185 0.161959,-0.164321 0.257924,-0.164321zm3.57639 3.13023l0 -0.591439 -0.00487206 0 0.00295276 -0.121359 0.00132874 -0.0481301 0.000590553 -0.0470966c0,-0.110729 -0.00738191,-0.218209 -0.020817,-0.319489 -0.0134351,-0.102609 -0.0338092,-0.199016 -0.0592029,-0.285532l-0.00782483 -0.0267225 0.00457679 -0.0273131c0.0245079,-0.140109 0.0438486,-0.290109 0.0565454,-0.447344 0.0124016,-0.151182 0.0190453,-0.310483 0.0190453,-0.475395 0,-0.339273 -0.0280513,-0.657581 -0.0775101,-0.935731 -0.0354332,-0.199312 -0.0822345,-0.378987 -0.136861,-0.53135 -0.084892,-0.00841538 -0.155758,-0.060827 -0.192077,-0.134646l-0.000147638 0.000147638 -0.00413387 -0.00841538 -0.000442915 0.000147638 -0.0081201 -0.0149115 -0.00265749 -0.00590553 -0.0141733 -0.0262796 -0.000295276 0.000295276 -0.0221457 -0.0376478 -0.00265749 -0.00487206 -0.000147638 0c-0.146457,-0.264715 -0.284647,-0.557039 -0.284942,-0.557925 -0.0174213,-0.0354332 -0.0253938,-0.0727857 -0.0252461,-0.109843l-0.00147638 0 0 -0.397295c-0.0262796,-0.00206694 -0.0558073,-0.00354332 -0.0872542,-0.00354332l-0.0193406 -0.000738191 -0.0146162 0.000295276 0 0.000147638 -0.0437009 0.00206694 -0.00944885 0 0 0.399066c0,0.0468013 -0.0124016,0.0907975 -0.0348426,0.12815 -0.0321851,0.067323 -0.151772,0.313288 -0.278298,0.54198l-0.00708664 0.012254 -0.0162402 0.0276084 -0.0178642 0.0332186 -0.00546262 0.0100394 -0.00413387 0.00782483 -0.00162402 0.00324804 -0.00162402 0.00354332 -0.00354332 0.00767719c-0.0788388,0.163878 -0.145424,0.383417 -0.193701,0.641045 -0.048573,0.259696 -0.077953,0.553791 -0.0823821,0.86516 -0.000590553,0.053888 -0.0181595,0.103199 -0.0476872,0.143504 0.0577266,0.163436 0.106004,0.35256 0.142914,0.559992 0.0524116,0.295129 0.0822345,0.627758 0.0822345,0.977365 0,0.169046 -0.00708664,0.335139 -0.0202264,0.495326 -0.0124016,0.153691 -0.0308564,0.302068 -0.0543309,0.441291 0.0248032,0.0897641 0.044882,0.188977 0.05876,0.294981 0.0135827,0.103494 0.0215552,0.214371 0.022441,0.329824l0.000442915 0 0 0.118554 0 0.531498 0 0.249213c0.0252461,-0.00428151 0.0510828,-0.00428151 0.0778054,0 0.0118111,0.00206694 0.0302658,0.00398623 0.0532974,0.00561025 0.0250985,0.0019193 0.0457679,0.00295276 0.0605317,0.00295276l0 -0.000885829c0.0593506,0 0.111172,-0.00531498 0.14941,-0.0146162 0.0447344,-0.0568407 0.112943,-0.0937503 0.190306,-0.0937503l0.0360237 0 0 0.000885829c0.0764766,0 0.144981,0.036319 0.18942,0.0924215 0.0380907,0.00944885 0.090207,0.0150591 0.150296,0.0150591l0.0273131 -0.000147638c0.00974412,-0.104823 0.0705711,-0.192668 0.232973,-0.215995 0.0109252,-0.00206694 0.0219981,-0.00339568 0.0335139,-0.00383859l0.00265749 0 0.000147638 0 0.0352855 -0.00383859 0.0361714 -0.332186 0.0150591 -0.137894 0 -0.261172 0.000885829 0c0,-0.0110729 0.000442915,-0.0225887 0.00206694,-0.0338092 0.0219981,-0.161073 0.0735238,-0.293505 0.123573,-0.389765l0 -0.0584647 0 -0.0998035 0 -0.0258367 0.000590553 -0.00103347 0 -0.00177166 0 -0.108662zm1.51994 -1.51994l0 -0.793556c-0.000738191,-0.0081201 -0.00103347,-0.0168308 -0.000885829,-0.0253938l0.00132874 -0.0484253 0.000442915 -0.044882c-0.000147638,-0.102904 -0.00664372,-0.20256 -0.0186024,-0.296458l-0.00103347 -0.0050197c-0.0124016,-0.0947838 -0.0315946,-0.184548 -0.055512,-0.265749l0.000147638 0c-0.0103347,-0.0352855 -0.0132874,-0.0741144 -0.00664372,-0.112796 0.0236221,-0.136122 0.0425198,-0.282284 0.0550691,-0.435976 0.0121063,-0.147934 0.0186024,-0.30384 0.0186024,-0.464913 0,-0.333515 -0.0271654,-0.64385 -0.0750002,-0.913143 -0.0478348,-0.269735 -0.116044,-0.499903 -0.19754,-0.672049l-0.00679136 -0.0129922 -0.00516734 -0.0109252 -0.00826774 -0.015502 0.000147638 0 -0.017569 -0.0323328 -0.0218505 -0.0373525 0.000147638 0 -0.00280513 -0.0050197c-0.126674,-0.228839 -0.246704,-0.477314 -0.277265,-0.541537 -0.0215552,-0.0367619 -0.0345474,-0.0801676 -0.0345474,-0.126083l0 -0.397442c-0.0264272,-0.00206694 -0.0558073,-0.00354332 -0.0871066,-0.00354332 -0.0462108,0 -0.0874018,0.00265749 -0.121802,0.00679136 -0.0215552,0.0364666 -0.0531498,0.0670278 -0.0921263,0.0887306l0 0.0900593c0.113386,0.0633368 0.158268,0.206841 0.0999511,0.325247 -0.000442915,0.000885829 -0.138485,0.292914 -0.286566,0.560287l-0.00708664 0.0121063 -0.0162402 0.0280513 -0.006939 0.0116634 -0.0107776 0.0202264 0.000442915 0.000147638 -0.00250985 0.00457679 0.000147638 0.000147638 -0.000442915 0.00103347 -0.00369096 0.00634844 -0.00132874 0.00280513 -0.00546262 0.0115158 -0.00664372 0.0137304c-0.0773624,0.16314 -0.143061,0.380316 -0.190601,0.634254 -0.0484253,0.259548 -0.0781006,0.553496 -0.0823821,0.865013 -0.000590553,0.0565454 -0.0205217,0.108071 -0.0527069,0.149115 0.0611222,0.168012 0.112943,0.364962 0.151624,0.581842 0.0524116,0.295129 0.0822345,0.627905 0.0822345,0.977513 0,0.168898 -0.00708664,0.334696 -0.0202264,0.494736 -0.0124016,0.153987 -0.0308564,0.302363 -0.0544785,0.441881 0.0249509,0.0897641 0.044882,0.189125 0.05876,0.295129 0.0135827,0.103347 0.0215552,0.214075 0.022441,0.329529l0 0.0215552 0 0.000885829 0 0.0961125 0 0.477167 0 0.282432c0.0281989,-0.006939 0.0586124,-0.00841538 0.0891735,-0.00413387 0.01063,0.00132874 0.0259843,0.00324804 0.0434056,0.00442915l0.00413387 0 0.00103347 0 0 0.000295276c0.0113681,0.000738191 0.0286418,0.000885829 0.0507876,0.000885829 0.0593506,0 0.111467,-0.00546262 0.14941,-0.0147638 0.0445868,-0.0568407 0.113091,-0.0936027 0.190306,-0.0936027l0.0360237 0c0.0772148,0 0.146457,0.0367619 0.191044,0.0936027 0.037943,0.00930121 0.0893211,0.0147638 0.148672,0.0147638l0.0315946 -0.000147638c0.0112205,-0.0637797 0.0425198,-0.120768 0.104085,-0.164174l0.00782483 -0.00561025 0.000738191 -0.000442915 0.0156497 -0.0104823c0.0243603,-0.0140256 0.0528545,-0.0252461 0.0856302,-0.0320375 0.015502,-0.00383859 0.0315946,-0.00634844 0.0482777,-0.00708664l0.00265749 0 0.000147638 0 0.0354332 -0.00398623 0.0361714 -0.332038 0.000147638 0 0.0147638 -0.136713 0 -0.8783zm-2.32619 -4.13048c0.0853349,0.00369096 0.165207,0.0149115 0.22943,0.0307088 0.174804,0.0434056 0.283318,0.145424 0.283318,0.297048l0 0.0128445c0.0484253,-0.189863 0.107185,-0.359056 0.174361,-0.500641l0.00457679 -0.0110729 0.00885829 -0.0190453 0.000295276 0.000147638 0.00531498 -0.0118111 0.010187 -0.0190453 0.00280513 -0.00575789 0.000590553 -0.000885829 0.000590553 0.000295276 0.0156497 -0.02938 0.006939 -0.0135827 0.0219981 -0.0376478c0.157382,-0.284942 0.272393,-0.530907 0.272688,-0.531645 0.0228839,-0.046506 0.0580218,-0.0826774 0.0999511,-0.106004l0 -0.0893211c-0.0414863,-0.0228839 -0.0769195,-0.0581695 -0.0999511,-0.104233l-0.0391241 -0.077953 0.000738191 -0.000442915c-0.0104823,-0.020817 -0.0183071,-0.0439962 -0.0225887,-0.0680612 -0.00885829,-0.0496065 -0.0225887,-0.11752 -0.0376478,-0.18942l0.000295276 0 -0.000295276 -0.00103347c-0.0156497,-0.076329 -0.0339568,-0.158859 -0.0460631,-0.211566 -0.00634844,-0.0219981 -0.010187,-0.0457679 -0.010187,-0.0699805l0 -0.151182c-0.0262796,-0.00206694 -0.0558073,-0.00354332 -0.0871066,-0.00354332 -0.0317422,0 -0.060827,0.00132874 -0.0874018,0.00354332l0 0.0648132 0 0.000147638c0.000147638,0.0214075 -0.00250985,0.0429627 -0.00856302,0.0642226 -0.0110729,0.238731 -0.281103,0.744097 -0.502708,1.15926l-0.108662 0.204922c-0.00723427,0.026132 -0.0144685,0.0531498 -0.0212599,0.0803152 -0.0259843,0.104676 -0.0484253,0.216881 -0.0670278,0.334991zm-1.64661 1.62313c0.0851873,0.00369096 0.164617,0.0150591 0.228544,0.0308564 0.174361,0.0431104 0.282727,0.145424 0.282727,0.296901l0.000885829 0 0 0.0134351c0.0493112,-0.193997 0.109548,-0.366586 0.178642,-0.509943l0.000442915 -0.00118111 0.00147638 -0.0031004 0.000295276 -0.000738191 0.00546262 -0.0119587 0.00738191 -0.0162402 0.0100394 -0.0188977 0.000147638 0.000147638 0.00118111 -0.00265749 0.0215552 -0.0397147 0.000295276 0.000147638 0.00354332 -0.00708664 0.0218505 -0.0376478c0.112205,-0.202707 0.20315,-0.385779 0.246113,-0.474657l0 -0.468456c0,-0.046506 0.0132874,-0.0903546 0.0352855,-0.127412 -0.0228839,-0.0401576 -0.0369096,-0.0766243 -0.0369096,-0.132874l0 -0.146752c-0.0255414,-0.0267225 -0.0473919,-0.051821 -0.0621557,-0.0701282 -0.0398623,-0.0438486 -0.0646656,-0.103051 -0.0646656,-0.167422l0 -0.0132874c-0.0262796,-0.00206694 -0.0558073,-0.00354332 -0.0871066,-0.00354332 -0.0315946,0 -0.0609746,0.00147638 -0.0871066,0.00354332l0 0.0884353 -0.000442915 0c0.000147638,0.0253938 -0.00398623,0.0512305 -0.012254,0.0767719l-0.00236221 0.00723427 -0.00398623 0.0134351 -0.000590553 -0.000147638c-0.0556596,0.198426 -0.259696,0.644293 -0.455759,1.01959 -0.0419293,0.0804628 -0.084892,0.157973 -0.128445,0.231054 -0.0129922,0.0439962 -0.0258367,0.0900593 -0.0376478,0.137451 -0.0259843,0.104676 -0.0476872,0.216733 -0.0664372,0.334844z"/>
</svg>
