<?xml version="1.0" encoding="UTF-8"?>
<!DOCTYPE svg PUBLIC "-//W3C//DTD SVG 1.1//EN" "http://www.w3.org/Graphics/SVG/1.1/DTD/svg11.dtd">
<svg xmlns="http://www.w3.org/2000/svg" xml:space="preserve" style="shape-rendering:geometricPrecision; text-rendering:geometricPrecision; image-rendering:optimizeQuality; fill-rule:evenodd; clip-rule:evenodd"
viewBox="0 0 21.3336 21.3336" xmlns:xlink="http://www.w3.org/1999/xlink">
  <path d="M5.67799 6.59414l-0.1063 -2.73368 -0.0129922 -0.338782 0.339963 -0.0192915 1.89489 -0.107087 0.0216537 0 5.5644 0.0645673 1.96123 -0.13819 0.366538 -0.0257876 0.00236222 0.370278 0.0200789 2.92423 0.0250002 2.31458 0 0.0257876 -0.225986 3.22325 0.233072 2.71695 0.000984258 0.0108268 -0.000984258 0.0285435 -0.0525594 1.65178 0.000984258 0 0 0.831304 0 0.311222 -0.310632 0.0332679 -2.53151 0.272443 -0.0364175 0.00393703 -0.0368113 -0.00393703 -4.40042 -0.471656 -2.44982 0.200592 -0.374412 0.0307089 0 -0.376577 0 -0.831304 0.00137796 -0.0285435 0.206891 -2.46065 -0.154725 -3.00455 -0.000787406 -0.0177166 0.000787406 -0.0177166 0.155119 -2.96557 -0.100985 -1.46241 0 -0.0108268zm5.64708 -2.46635l0.0370081 3.88191 0 0.0104331 -0.207285 3.54608 0.214175 2.98703 0.000393703 0.00433074 -0.000393703 0.0114174 -0.0484255 1.81438 0.000590555 0 0 0.121261 1.51182 0.162009 2.18801 -0.235041 0.0482286 -1.51418 -0.234057 -2.72954 -0.00196852 -0.0230316 0.00196852 -0.0285435 0.227757 -3.24825 -0.0248033 -2.29214 0 -0.00137796 -0.0175198 -2.55533 -1.59863 0.112599 -0.0257876 0 -2.07108 -0.0240159zm-0.00393703 12.7113l0 0.316341 1.51044 0.162009 2.18427 -0.235041 0 -0.31575 -2.16537 0.232679 -0.0173229 0.00196852 -0.0177166 -0.00196852 -1.4943 -0.160237zm-0.333467 0.28071l0 -0.316341 -0.690162 -0.0740162 0.000196852 0.316341 0.689965 0.0740162zm0 -0.650988l0 -0.0854336 0.000787406 -0.00393703 0.0482286 -1.8069 -0.214371 -2.99214 -0.000590555 -0.00925203 0.000590555 -0.0116142 0.207875 -3.55612 -0.0370081 -3.87935 -0.674807 -0.00787406 0.17067 2.96065 0.000590555 0.00708666 -0.000590555 0.00905517 -0.142914 3.26203 0.142914 3.31045 0.000590555 0.0118111 -0.000590555 0.00708666 -0.19193 2.71045 0.690555 0.0740162zm-3.89825 -3.35612c0.0919297,0 0.166536,0.0748036 0.166536,0.166733 0,0.0919297 -0.0746068,0.166536 -0.166536,0.166536 -0.0923234,0 -0.166733,-0.0746068 -0.166733,-0.166536 0,-0.0919297 0.0744099,-0.166733 0.166733,-0.166733zm5.98941 -5.17483c0.0919297,0 0.166733,0.0744099 0.166733,0.166536 0,0.0919297 -0.0748036,0.166733 -0.166733,0.166733 -0.0919297,0 -0.166536,-0.0748036 -0.166536,-0.166733 0,-0.0921266 0.0746068,-0.166536 0.166536,-0.166536zm1.03505 -1.03524c0.0921266,0 0.166536,0.0746068 0.166536,0.16693 0,0.0919297 -0.0744099,0.16634 -0.166536,0.16634 -0.0921266,0 -0.166733,-0.0744099 -0.166733,-0.16634 0,-0.0923234 0.0746068,-0.16693 0.166733,-0.16693zm-1.03505 -1.03485c0.0919297,0 0.166733,0.0746068 0.166733,0.166536 0,0.0919297 -0.0748036,0.166733 -0.166733,0.166733 -0.0919297,0 -0.166536,-0.0748036 -0.166536,-0.166733 0,-0.0919297 0.0746068,-0.166536 0.166536,-0.166536zm-1.20158 1.20178c0,-0.0923234 0.0744099,-0.16693 0.166733,-0.16693 0.0919297,0 0.166536,0.0746068 0.166536,0.16693 0,0.0919297 -0.0746068,0.16634 -0.166536,0.16634 -0.0923234,0 -0.166733,-0.0744099 -0.166733,-0.16634zm2.23663 -2.23682c0.0921266,0 0.166536,0.0746068 0.166536,0.166733 0,0.0919297 -0.0744099,0.166536 -0.166536,0.166536 -0.0921266,0 -0.166733,-0.0746068 -0.166733,-0.166536 0,-0.0921266 0.0746068,-0.166733 0.166733,-0.166733zm-2.06989 0c0.0919297,0 0.166536,0.0746068 0.166536,0.166733 0,0.0919297 -0.0746068,0.166536 -0.166536,0.166536 -0.0923234,0 -0.166733,-0.0746068 -0.166733,-0.166536 0,-0.0921266 0.0744099,-0.166733 0.166733,-0.166733zm1.03485 7.24512c0.0919297,0 0.166733,0.0744099 0.166733,0.166536 0,0.0919297 -0.0748036,0.166733 -0.166733,0.166733 -0.0919297,0 -0.166536,-0.0748036 -0.166536,-0.166733 0,-0.0921266 0.0746068,-0.166536 0.166536,-0.166536zm1.03505 -1.03524c0.0921266,0 0.166536,0.0748036 0.166536,0.16693 0,0.0919297 -0.0744099,0.16634 -0.166536,0.16634 -0.0921266,0 -0.166733,-0.0744099 -0.166733,-0.16634 0,-0.0921266 0.0746068,-0.16693 0.166733,-0.16693zm-1.03505 -1.03485c0.0919297,0 0.166733,0.0746068 0.166733,0.166536 0,0.0919297 -0.0748036,0.166733 -0.166733,0.166733 -0.0919297,0 -0.166536,-0.0748036 -0.166536,-0.166733 0,-0.0919297 0.0746068,-0.166536 0.166536,-0.166536zm-1.20158 1.20178c0,-0.0923234 0.0744099,-0.16693 0.166733,-0.16693 0.0919297,0 0.166536,0.0746068 0.166536,0.16693 0,0.0919297 -0.0746068,0.16634 -0.166536,0.16634 -0.0923234,0 -0.166733,-0.0744099 -0.166733,-0.16634zm2.23663 -2.23682c0.0921266,0 0.166536,0.0744099 0.166536,0.166733 0,0.0919297 -0.0744099,0.166536 -0.166536,0.166536 -0.0921266,0 -0.166733,-0.0746068 -0.166733,-0.166536 0,-0.0923234 0.0746068,-0.166733 0.166733,-0.166733zm-2.06989 0c0.0919297,0 0.166536,0.0744099 0.166536,0.166733 0,0.0919297 -0.0746068,0.166536 -0.166536,0.166536 -0.0923234,0 -0.166733,-0.0746068 -0.166733,-0.166536 0,-0.0923234 0.0744099,-0.166733 0.166733,-0.166733zm1.03485 7.24512c0.0919297,0 0.166733,0.0744099 0.166733,0.16634 0,0.0923234 -0.0748036,0.16693 -0.166733,0.16693 -0.0919297,0 -0.166536,-0.0746068 -0.166536,-0.16693 0,-0.0919297 0.0746068,-0.16634 0.166536,-0.16634zm1.03505 -1.03524c0.0921266,0 0.166536,0.0748036 0.166536,0.166733 0,0.0921266 -0.0744099,0.166536 -0.166536,0.166536 -0.0921266,0 -0.166733,-0.0744099 -0.166733,-0.166536 0,-0.0919297 0.0746068,-0.166733 0.166733,-0.166733zm-1.03505 -1.03485c0.0919297,0 0.166733,0.0746068 0.166733,0.166536 0,0.0923234 -0.0748036,0.166733 -0.166733,0.166733 -0.0919297,0 -0.166536,-0.0744099 -0.166536,-0.166733 0,-0.0919297 0.0746068,-0.166536 0.166536,-0.166536zm-1.20158 1.20158c0,-0.0919297 0.0744099,-0.166733 0.166733,-0.166733 0.0919297,0 0.166536,0.0748036 0.166536,0.166733 0,0.0921266 -0.0746068,0.166536 -0.166536,0.166536 -0.0923234,0 -0.166733,-0.0744099 -0.166733,-0.166536zm2.23663 -2.23663c0.0921266,0 0.166536,0.0748036 0.166536,0.166733 0,0.0919297 -0.0744099,0.166536 -0.166536,0.166536 -0.0921266,0 -0.166733,-0.0746068 -0.166733,-0.166536 0,-0.0919297 0.0746068,-0.166733 0.166733,-0.166733zm-2.06989 0c0.0919297,0 0.166536,0.0748036 0.166536,0.166733 0,0.0919297 -0.0746068,0.166536 -0.166536,0.166536 -0.0923234,0 -0.166733,-0.0746068 -0.166733,-0.166536 0,-0.0919297 0.0744099,-0.166733 0.166733,-0.166733zm-3.91971 -5.17483c0.0919297,0 0.166733,0.0744099 0.166733,0.166536 0,0.0919297 -0.0748036,0.166733 -0.166733,0.166733 -0.0919297,0 -0.166536,-0.0748036 -0.166536,-0.166733 0,-0.0921266 0.0746068,-0.166536 0.166536,-0.166536zm1.03505 -1.03524c0.0921266,0 0.166536,0.0746068 0.166536,0.16693 0,0.0919297 -0.0744099,0.16634 -0.166536,0.16634 -0.0921266,0 -0.166733,-0.0744099 -0.166733,-0.16634 0,-0.0923234 0.0746068,-0.16693 0.166733,-0.16693zm-1.03505 -1.03485c0.0919297,0 0.166733,0.0746068 0.166733,0.166536 0,0.0919297 -0.0748036,0.166733 -0.166733,0.166733 -0.0919297,0 -0.166536,-0.0748036 -0.166536,-0.166733 0,-0.0919297 0.0746068,-0.166536 0.166536,-0.166536zm-1.20158 1.20178c0,-0.0923234 0.0744099,-0.16693 0.166733,-0.16693 0.0919297,0 0.166536,0.0746068 0.166536,0.16693 0,0.0919297 -0.0746068,0.16634 -0.166536,0.16634 -0.0923234,0 -0.166733,-0.0744099 -0.166733,-0.16634zm2.23663 -2.23682c0.0921266,0 0.166536,0.0746068 0.166536,0.166733 0,0.0919297 -0.0744099,0.166536 -0.166536,0.166536 -0.0921266,0 -0.166733,-0.0746068 -0.166733,-0.166536 0,-0.0921266 0.0746068,-0.166733 0.166733,-0.166733zm-2.06989 0c0.0919297,0 0.166536,0.0746068 0.166536,0.166733 0,0.0919297 -0.0746068,0.166536 -0.166536,0.166536 -0.0923234,0 -0.166733,-0.0746068 -0.166733,-0.166536 0,-0.0921266 0.0744099,-0.166733 0.166733,-0.166733zm1.03485 7.24512c0.0919297,0 0.166733,0.0744099 0.166733,0.166536 0,0.0919297 -0.0748036,0.166733 -0.166733,0.166733 -0.0919297,0 -0.166536,-0.0748036 -0.166536,-0.166733 0,-0.0921266 0.0746068,-0.166536 0.166536,-0.166536zm1.03505 -1.03524c0.0921266,0 0.166536,0.0748036 0.166536,0.16693 0,0.0919297 -0.0744099,0.16634 -0.166536,0.16634 -0.0921266,0 -0.166733,-0.0744099 -0.166733,-0.16634 0,-0.0921266 0.0746068,-0.16693 0.166733,-0.16693zm-1.03505 -1.03485c0.0919297,0 0.166733,0.0746068 0.166733,0.166536 0,0.0919297 -0.0748036,0.166733 -0.166733,0.166733 -0.0919297,0 -0.166536,-0.0748036 -0.166536,-0.166733 0,-0.0919297 0.0746068,-0.166536 0.166536,-0.166536zm-1.20158 1.20178c0,-0.0923234 0.0744099,-0.16693 0.166733,-0.16693 0.0919297,0 0.166536,0.0746068 0.166536,0.16693 0,0.0919297 -0.0746068,0.16634 -0.166536,0.16634 -0.0923234,0 -0.166733,-0.0744099 -0.166733,-0.16634zm2.23663 -2.23682c0.0921266,0 0.166536,0.0744099 0.166536,0.166733 0,0.0919297 -0.0744099,0.166536 -0.166536,0.166536 -0.0921266,0 -0.166733,-0.0746068 -0.166733,-0.166536 0,-0.0923234 0.0746068,-0.166733 0.166733,-0.166733zm-2.06989 0c0.0919297,0 0.166536,0.0744099 0.166536,0.166733 0,0.0919297 -0.0746068,0.166536 -0.166536,0.166536 -0.0923234,0 -0.166733,-0.0746068 -0.166733,-0.166536 0,-0.0923234 0.0744099,-0.166733 0.166733,-0.166733zm2.06989 6.20988c0.0921266,0 0.166536,0.0748036 0.166536,0.166733 0,0.0921266 -0.0744099,0.166536 -0.166536,0.166536 -0.0921266,0 -0.166733,-0.0744099 -0.166733,-0.166536 0,-0.0919297 0.0746068,-0.166733 0.166733,-0.166733zm-1.03505 -1.03485c0.0919297,0 0.166733,0.0746068 0.166733,0.166536 0,0.0923234 -0.0748036,0.166733 -0.166733,0.166733 -0.0919297,0 -0.166536,-0.0744099 -0.166536,-0.166733 0,-0.0919297 0.0746068,-0.166536 0.166536,-0.166536zm-1.20158 1.20158c0,-0.0919297 0.0744099,-0.166733 0.166733,-0.166733 0.0919297,0 0.166536,0.0748036 0.166536,0.166733 0,0.0921266 -0.0746068,0.166536 -0.166536,0.166536 -0.0923234,0 -0.166733,-0.0744099 -0.166733,-0.166536zm2.23663 -2.23663c0.0921266,0 0.166536,0.0748036 0.166536,0.166733 0,0.0919297 -0.0744099,0.166536 -0.166536,0.166536 -0.0921266,0 -0.166733,-0.0746068 -0.166733,-0.166536 0,-0.0919297 0.0746068,-0.166733 0.166733,-0.166733zm0.806107 3.58112l-1.57029 -0.168308 -2.13033 0.175001 0 0.316341 2.10434 -0.172245 0.0289372 -0.00236222 0.0348427 0.00374018 1.53288 0.164371 -0.000393703 -0.316537zm-3.68309 -0.328742l2.101 -0.172639 0.0141733 -0.000984258 0.0163387 0.00157481 1.55217 0.16634 0.190552 -2.69155 -0.142717 -3.30573 -0.000196852 -0.00708666 0.000196852 -0.00708666 0.142914 -3.25986 -0.171458 -2.97581 -2.15769 -0.0250002 -1.55099 0.087599 0.0927171 2.38407 0.000393703 0 0.102166 1.47993 0.00137796 0.0177166 -0.00137796 0.0230316 -0.155316 2.97128 0.155316 3.01537 0.00157481 0.0287403 -0.00157481 0.0175198 -0.189568 2.25257z"/>
</svg>
