<?xml version="1.0" encoding="UTF-8"?>
<!DOCTYPE svg PUBLIC "-//W3C//DTD SVG 1.1//EN" "http://www.w3.org/Graphics/SVG/1.1/DTD/svg11.dtd">
<svg xmlns="http://www.w3.org/2000/svg" xml:space="preserve" style="shape-rendering:geometricPrecision; text-rendering:geometricPrecision; image-rendering:optimizeQuality; fill-rule:evenodd; clip-rule:evenodd"
viewBox="0 0 32.0007 32.0007" xmlns:xlink="http://www.w3.org/1999/xlink">
  <path d="M8.12907 14.2269l0.00177168 0.000885842c0.576388,0.256599 1.17817,0.640759 1.75603,1.10317l0.0103348 0.00856314c0.109254,0.0879936 0.217327,0.177759 0.324809,0.270772l0.00679145 0.00620089 0.0755918 0.0661429 0.00590561 0.00531505c0.108073,0.0953756 0.214374,0.192818 0.318903,0.292918l0.00177168 0.00206696 0.156794 0.15207 0.000295281 0.000590561 0.0395676 0.0386818 0 0.000885842c0.324513,0.324513 0.630424,0.668515 0.907397,1.02226l0.00324809 0.00442921 0.0301186 0.0380912 0.00324809 0.00442921 0.0295281 0.0380912 0.00324809 0.00442921 0.0295281 0.0383865 0.00354337 0.00442921 0.0283469 0.0380912 0.00354337 0.00442921 0.0289375 0.0386818 0.00354337 0.00442921 0.0277564 0.0380912 0.00354337 0.00442921 0.0283469 0.038977c0.333962,0.459161 0.614479,0.925705 0.813793,1.37542l-0.000885842 0.000590561c0.0921275,0.207287 0.165357,0.405716 0.218508,0.592038l8.62574 -8.62662c0.0129923,-0.0129923 0.0268705,-0.0250988 0.041044,-0.0363195 0.0416346,-0.0513788 0.0620089,-0.145869 0.059942,-0.27845l0 -0.00177168c-0.00472449,-0.229138 -0.0826786,-0.52619 -0.241244,-0.882889 -0.320675,-0.722256 -0.897062,-1.51361 -1.58359,-2.2276 -0.693614,-0.72137 -1.49087,-1.35298 -2.24088,-1.74599l-0.000295281 0.000590561 -0.15266 -0.0770682c-0.0366148,-0.0177168 -0.0832691,-0.0392723 -0.140258,-0.0643712 -0.374711,-0.165948 -0.681508,-0.244197 -0.910941,-0.242721 -0.140554,0.00118112 -0.233567,0.031595 -0.273725,0.0865172 -0.0162404,0.022146 -0.0330714,0.043111 -0.0519694,0.0620089l0.00118112 0.00118112 -8.58056 8.57967 0.0723437 0.022146 0.024213 0.00797258 0.00236224 0.000590561 0.00649617 0.00206696 0.00885842 0.00295281 0.00885842 0.00265753 0.000295281 0 0.00856314 0.00265753 0.0162404 0.00561033 0.00206696 0.000590561 0.0138782 0.00472449 0.00383865 0.0014764 0.00442921 0.00118112 0.00442921 0.0014764 0.0091537 0.00354337 0.00885842 0.00265753 0.00295281 0.00118112 0.0129923 0.00442921 0.00177168 0.000590561 0.00974426 0.00354337 0.000295281 0 0.00856314 0.00324809 0.0171263 0.00590561 0.000590561 0.000295281 0.00944898 0.00354337 0.00885842 0.00295281 0.00590561 0.00206696 0.00738201 0.00295281 0.0416346 0.0153546 0.00206696 0.000885842 0.0076773 0.00265753 0.00885842 0.00354337 0.0091537 0.00354337 0.000295281 0 0.00885842 0.00354337 0.0286422 0.0112207 0.00885842 0.00354337 0.00472449 0.00177168 0.022146 0.00885842 0.0014764 0.000590561 0.00206696 0.000885842 0.00679145 0.00265753 0.00177168 0.000885842 0.0177168 0.00708673 0.0377959 0.0159452 0.00974426 0.00442921 0.00472449 0.00177168 0.00413393 0.00177168 0.074706 0.0318903zm4.6424 6.93201l-0.00974426 0.0103348 -0.0295281 0.031595c-0.217031,0.217031 -0.510245,0.344002 -0.86842,0.369396 -0.12579,0.0091537 -0.262209,0.00413393 -0.406897,-0.0138782l4.78207 4.78148 5.37913 -11.8803c0.0348431,-0.0764777 0.0696862,-0.152955 0.104234,-0.229728l0.190161 -0.0469496 -1.08161 -1.08161 -8.05939 8.05968zm-4.68197 -1.49737c-0.130514,-0.119293 -0.258666,-0.240654 -0.383865,-0.365853 -0.831805,-0.831805 -1.54697,-1.79737 -1.94738,-2.69827l-0.00206696 0c-0.250988,-0.566053 -0.354041,-1.05976 -0.325399,-1.45957 0.0256894,-0.35788 0.15207,-0.651389 0.369691,-0.869011 0.033662,-0.033662 0.0699815,-0.0640759 0.106892,-0.0933087l9.47703 -9.47614c0.24213,-0.293804 0.60001,-0.451779 1.0577,-0.455323l0.00206696 0c0.375302,-0.00265753 0.826195,0.102758 1.33585,0.328352 0.0419298,0.0183074 0.0944898,0.0439968 0.154432,0.072639l0.0183074 0.00856314 0.00118112 0.000295281 0.00797258 0.00383865 0.159452 0.0803163 -0.000590561 0.000885842 0.00679145 0.00324809c0.854542,0.446169 1.74895,1.1513 2.51609,1.94915 0.762119,0.792828 1.41026,1.6893 1.78261,2.52819 0.214669,0.48367 0.321856,0.912417 0.33101,1.27266l0 0.0112207 0 0.00177168c0.00826786,0.444693 -0.125494,0.802573 -0.387113,1.05445l-0.0150593 0.0150593 -0.787809 0.788104 4.855 4.85471 0.36851 0.368215 -0.36851 0.368215 -9.61877 9.61877 -0.0330714 0.0330714 -0.36792 0.368215 -0.36851 -0.368215 -7.94482 -7.94393 0.000295281 -0.000295281zm3.77516 -0.277564l-0.038977 -0.0906511 0.000295281 -0.000295281 0.000295281 0 -0.000590561 -0.0014764 -0.000295281 0 -0.00206696 0c-0.167424,-0.377369 -0.403649,-0.772749 -0.687413,-1.16459l-0.024213 -0.033662 -0.00295281 -0.00354337 -0.0253941 -0.0345478 -0.00295281 -0.00354337 -0.0253941 -0.0345478 -0.00265753 -0.00354337 -0.02628 -0.0345478 -0.00265753 -0.00354337 -0.0256894 -0.0339573 -0.00265753 -0.00354337 -0.0268705 -0.0345478c-0.26339,-0.339868 -0.559852,-0.674716 -0.877574,-0.992438l-0.0354337 -0.0354337 0 -0.000295281c-0.0584656,-0.057875 -0.118112,-0.115159 -0.177464,-0.171558l-0.00177168 -0.00206696 -0.10571 -0.0986237 -0.00324809 -0.00324809 -0.0693909 -0.06319 -0.00383865 -0.00383865 -0.0321856 -0.0289375 -0.00413393 -0.00383865 -0.0327761 -0.0289375 -0.00442921 -0.00413393 -0.0318903 -0.0280517 -0.00501977 -0.00472449 -0.031595 -0.0274611 -0.00561033 -0.00501977 -0.0307092 -0.0265753 -0.0372054 -0.0318903 -0.00620089 -0.00561033 -0.0307092 -0.0259847 -0.111026 -0.0930134 -0.00797258 -0.00679145c-0.0714579,-0.0587608 -0.143506,-0.116341 -0.215555,-0.172149l-0.0103348 -0.00826786c-0.196066,-0.151479 -0.393609,-0.292623 -0.589675,-0.419003l-0.016831 -0.0109254 -0.0203744 -0.0129923 -0.016831 -0.0109254 -0.0206696 -0.0129923 -0.0174216 -0.0109254 -0.150298 -0.0912417 -0.0183074 -0.0106301 -0.0936039 -0.0540363 -0.0174216 -0.00974426c-0.135239,-0.0752965 -0.269591,-0.14203 -0.401877,-0.201677l-0.0250988 -0.0106301c-0.318608,-0.141735 -0.592038,-0.218803 -0.813793,-0.236224 -0.0507883,-0.00383865 -0.0953756,-0.00531505 -0.136715,-0.00354337l-0.00324809 0 -0.00206696 0 -0.00620089 0.000885842 -0.00324809 0 -0.00206696 0 -0.0212602 0.0014764 -0.00295281 0.000590561 -0.000590561 0 -0.0218508 0.00295281 -0.00295281 0.000295281 -0.0014764 0.000295281 -0.00531505 0.000885842 -0.00118112 0 -0.00324809 0.000885842 -0.000590561 0 -0.00413393 0.000885842 -0.000295281 0 -0.00944898 0.00177168 -0.00118112 0 -0.00324809 0.000885842 -0.00118112 0 -0.00324809 0.000885842 -0.000295281 0 -0.00354337 0.000885842 -0.000590561 0 -0.00295281 0.000885842 -0.0014764 0.000295281 -0.00265753 0.000590561 -0.00118112 0.000295281 -0.00206696 0.000590561 -0.00236224 0.000590561 -0.00118112 0.000295281 -0.00324809 0.000590561 -0.000295281 0.000295281 -0.00354337 0.00118112 -0.000590561 0.000295281 -0.00265753 0.000590561 -0.000885842 0.000295281 -0.0076773 0.00236224 -0.00206696 0.000885842 -0.00236224 0.000885842 -0.000295281 0 -0.00324809 0.000885842 -0.00620089 0.00236224 -0.000885842 0.000590561 -0.0312997 0.014764 -0.0318903 0.0227366 -0.00413393 0.00354337c-0.0377959,0.0377959 -0.0614184,0.107482 -0.0685051,0.205811 -0.0165357,0.234453 0.0593514,0.560147 0.239768,0.967044l-0.00177168 0.000885842c0.344002,0.773635 0.982694,1.62729 1.73566,2.38026 0.753261,0.753261 1.60692,1.39195 2.38114,1.73566 0.404534,0.179531 0.730524,0.254827 0.967339,0.237701 0.0983284,-0.00679145 0.167719,-0.0307092 0.20522,-0.0682098 0.0375006,-0.0375006 0.0614184,-0.107187 0.0682098,-0.205515 0.00177168,-0.0236224 0.00177168,-0.0490166 0.00177168,-0.0744107l0 -0.00620089 0 -0.00118112 0 -0.00501977 0 -0.00590561 0 -0.000590561 -0.000295281 -0.00590561c-0.000885842,-0.0304139 -0.00324809,-0.0625995 -0.00679145,-0.0953756l-0.00265753 -0.022146 -0.000885842 -0.00501977 -0.000590561 -0.00649617 -0.00118112 -0.00708673 -0.000590561 -0.00442921 -0.00118112 -0.00885842 -0.00885842 -0.0552175 -0.00118112 -0.00620089 -0.00177168 -0.00856314 -0.000590561 -0.00354337 -0.00206696 -0.0106301 -0.000590561 -0.00177168 -0.00206696 -0.0118112 -0.000295281 -0.00118112 -0.00236224 -0.0112207 -0.00265753 -0.0124018 -0.00118112 -0.00561033 -0.0014764 -0.00679145 -0.00177168 -0.00797258 -0.000885842 -0.00442921 -0.00265753 -0.0106301 -0.00738201 -0.0304139 -0.00236224 -0.00974426 -0.0014764 -0.00531505 -0.00206696 -0.00797258 -0.00236224 -0.00797258 -0.00118112 -0.00501977 -0.00265753 -0.0100395 -0.000885842 -0.00324809 -0.00324809 -0.0126971 -0.000295281 0 -0.00413393 -0.0138782 -0.000295281 -0.00177168 -0.00324809 -0.0115159 -0.0014764 -0.00442921 -0.000295281 -0.000590561 -0.00620089 -0.0218508 -0.00324809 -0.0103348 -0.00118112 -0.00383865 -0.00383865 -0.0121065 -0.000590561 -0.00118112 -0.00442921 -0.0141735 -0.000295281 -0.0014764 -0.00354337 -0.0118112 -0.0014764 -0.00413393 -0.00590561 -0.016831 -0.00236224 -0.00738201 -0.00295281 -0.0091537 -0.00206696 -0.00501977 -0.00383865 -0.0118112 -0.000590561 -0.00236224 -0.00118112 -0.00354337 -0.0091537 -0.0253941 -0.000885842 -0.00324809 -0.00620089 -0.0171263 -0.00295281 -0.00826786 -0.000590561 -0.00177168 -0.0162404 -0.0425204 -0.000295281 -0.000590561 -0.00531505 -0.0144687 -0.00118112 -0.00265753 -0.00501977 -0.0124018 -0.00206696 -0.00531505 -0.00383865 -0.00974426 -0.0100395 -0.0253941 -0.000590561 -0.00118112 -0.00118112 -0.00324809 -0.00118112 -0.00295281 -0.0118112 -0.0280517 -0.000885842 -0.00236224zm11.4454 -3.7167c-0.141439,-0.0983284 -0.312112,-0.209649 -0.492823,-0.312702 -0.159156,-0.0909464 -0.292032,-0.136124 -0.392133,-0.158861l-2.72839 6.02579 3.61335 -5.55423zm-3.76483 7.69088l5.77244 -5.77244 -1.22217 -1.22217 -4.55027 6.99461z"/>
</svg>
