<?xml version="1.0" encoding="UTF-8"?>
<!DOCTYPE svg PUBLIC "-//W3C//DTD SVG 1.1//EN" "http://www.w3.org/Graphics/SVG/1.1/DTD/svg11.dtd">
<svg xmlns="http://www.w3.org/2000/svg" xml:space="preserve" style="shape-rendering:geometricPrecision; text-rendering:geometricPrecision; image-rendering:optimizeQuality; fill-rule:evenodd; clip-rule:evenodd"
viewBox="0 0 64.003 64.003" xmlns:xlink="http://www.w3.org/1999/xlink">
  <path d="M45.5575 12.8586c0.285248,-0.289972 0.670893,-0.444703 1.13981,-0.448837l0.00413402 0c0.344896,-0.00177172 0.742353,0.0862239 1.1717,0.276389 0.671484,0.296469 1.38844,0.825033 2.00028,1.43628l0.00413402 0c0.604749,0.604749 1.13154,1.32289 1.4351,2.00559l0.00413402 0c0.178944,0.403953 0.268712,0.782512 0.275208,1.11914 0.0094492,0.484271 -0.146463,0.887634 -0.447065,1.18883l0.0301193 0.0643727c0.274617,0.621875 0.412221,1.18646 0.42167,1.67251 0.0129926,0.665578 -0.198433,1.20418 -0.611245,1.58569l-28.2838 28.2826 -0.00177172 -0.00177172 -0.0248041 0.0271664c-0.32895,0.32895 -0.765976,0.520887 -1.29277,0.558093 -0.536242,0.0389779 -1.18587,-0.0933108 -1.91642,-0.416946l0.000590575 -0.00118115 -0.0614198 -0.0283476 -0.904761 0.903579 -0.00826805 0.0100398 -0.0490177 0.0531517c-0.262806,0.262806 -0.607701,0.416355 -1.01933,0.446475 -0.37029,0.0265759 -0.81204,-0.0614198 -1.29986,-0.278161 -0.676208,-0.300012 -1.39198,-0.827986 -2.00087,-1.43687l-0.0023623 0.0023623c-0.60593,-0.60593 -1.13331,-1.32171 -1.4351,-1.99969l-0.00413402 -0.00354345c-0.213788,-0.481909 -0.300603,-0.923659 -0.272846,-1.29986l0 -0.00413402 0.000590575 0c0.0307099,-0.409268 0.183669,-0.753573 0.446475,-1.01638 0.0442931,-0.0442931 0.0891768,-0.083271 0.137604,-0.121068l0.829758 -0.830348 -0.0253947 -0.0590575 -0.00413402 -0.00767747c-0.323635,-0.730541 -0.455924,-1.38135 -0.416946,-1.9176 0.0383874,-0.527974 0.229734,-0.964409 0.558684,-1.29336 0.05138,-0.05138 0.104532,-0.0980354 0.160636,-0.142919l28.1096 -28.106c0.364975,-0.430529 0.888224,-0.663215 1.55026,-0.66794 0.501398,-0.00413402 1.09256,0.131108 1.74869,0.420489l0.0118115 0.00826805 0.0413402 0.0206701zm-22.7088 34.0897l26.668 -26.6668c0.0047246,-0.0106303 0.00531517,-0.0218513 0.0047246,-0.0685067 -0.00413402,-0.207292 -0.0856333,-0.500807 -0.250404,-0.874051 -0.05138,-0.116934 -0.0921297,-0.203748 -0.120477,-0.259853 -0.0336628,-0.066735 -0.0803182,-0.150597 -0.139376,-0.253357l-0.0253947 -0.0413402 -0.0118115 -0.0200795c-0.407497,-0.702193 -0.989213,-1.43096 -1.6477,-2.09004l-0.00177172 0.0023623c-0.662034,-0.662034 -1.38844,-1.24257 -2.08296,-1.64593l-0.0118115 -0.00590575 -0.000590575 0.00118115 -0.0224418 -0.0147644c-0.0820899,-0.047246 -0.167723,-0.094492 -0.253357,-0.138195 -0.115162,-0.0590575 -0.210835,-0.107485 -0.286429,-0.141738l-0.00118115 0.0023623c-0.386826,-0.170676 -0.686838,-0.250404 -0.89354,-0.249223 -0.0112209,0 -0.0289382,0.00118115 -0.0289382,0.00118115l-0.0507894 0.0501989 -26.6255 26.6219 0.075003 0.0313005 0.00118115 -0.0023623c1.10378,0.489587 2.28375,1.36127 3.296,2.37352 1.01284,1.01284 1.88571,2.19339 2.37529,3.29718l-0.00354345 0.00177172 0.0377968 0.0891768zm-7.3751 -3.90488c0.110437,-0.0566952 0.230324,-0.100988 0.359069,-0.130517 -0.148234,-0.043112 -0.274617,-0.0673255 -0.381511,-0.0702784 0.00177172,0.0596481 0.00826805,0.127564 0.0224418,0.200795zm5.61696 5.12442c-0.0301193,0.127564 -0.0732313,0.247451 -0.130517,0.358479 0.0732313,0.0141738 0.141147,0.0242136 0.200205,0.0259853 -0.00295287,-0.106894 -0.0265759,-0.23623 -0.0696878,-0.384464zm-2.74854 0.135832l0.692744 -0.691563c-0.0171267,-0.0519706 -0.0425214,-0.116934 -0.0755936,-0.191346l0.00354345 -0.00177172c-0.190756,-0.428167 -0.56459,-0.921887 -1.01284,-1.37013l0.00177172 -0.0023623c-0.439978,-0.438797 -0.932518,-0.808497 -1.37072,-1.00161 -0.0744124,-0.0330722 -0.135832,-0.0566952 -0.188393,-0.0738218l-0.690382 0.690382c0.513209,0.304146 1.0276,0.711643 1.47585,1.15989l0 0.00177172c0.248041,0.248041 0.480137,0.513209 0.692154,0.787827l0.019489 0.0248041 0.0295287 0.0389779 0.0183078 0.0248041 0.0047246 0.0070869 0.0188984 0.0248041 0.00531517 0.0070869 0.0177172 0.0248041 0.00531517 0.0070869 0.0188984 0.0248041 0.00531517 0.0070869 0.0165361 0.0242136 0.00531517 0.0070869 0.0177172 0.0248041 0.00531517 0.0070869 0.0159455 0.0248041 0.00531517 0.0070869 0.0177172 0.0248041 0.00531517 0.0070869 0.0159455 0.0248041 0.00531517 0.0070869 0.0165361 0.0248041 0.00531517 0.0070869 0.0159455 0.0248041 0.00531517 0.0070869 0.0171267 0.0253947 0.0200795 0.031891 0.0047246 0.0070869 0.0165361 0.0248041 0.0047246 0.0070869 0.0147644 0.0248041 0.0047246 0.0070869 0.0165361 0.0259853 0.0242136 0.0383874 0.0153549 0.0253947 0.0360251 0.0608292zm-1.97783 0.764204l-0.00531517 -0.00767747 -0.0023623 -0.00295287 -0.00413402 -0.00649632 -0.0047246 -0.00590575 -0.00885862 -0.0124021 -0.0023623 -0.00295287 -0.00649632 -0.0094492 -0.0094492 -0.0118115 0 -0.000590575 -0.00885862 -0.0124021 -0.00590575 -0.00826805 -0.00295287 -0.00413402 -0.0147644 -0.0188984 -0.0047246 -0.00590575 -0.00885862 -0.0124021 -0.0023623 -0.00295287 -0.0259853 -0.0342533 -0.00767747 -0.0100398 -0.00118115 -0.0023623c-0.157093,-0.203748 -0.33899,-0.406906 -0.532698,-0.600615l0 -0.00177172c-0.124611,-0.124611 -0.252175,-0.243907 -0.380921,-0.354345l-0.00354345 -0.00354345 -0.00885862 -0.0070869 -0.122249 -0.101579 -0.0106303 -0.00885862 -0.00885862 -0.00767747 -0.0106303 -0.00885862 -0.00413402 -0.00295287 -0.00649632 -0.00590575 -0.0271664 -0.0218513 -0.00177172 -0.00177172 -0.0124021 -0.00885862 -0.0023623 -0.00118115 -0.0100398 -0.00826805 -0.0248041 -0.0188984 -0.00826805 -0.00649632 -0.0348439 -0.0253947 -0.0171267 -0.0129926 -0.0124021 -0.00885862 -0.00118115 -0.00118115 -0.0608292 -0.0425214c0.18485,0.259262 0.409859,0.522659 0.658491,0.771291l0 0.00413402c0.247451,0.248041 0.511438,0.473641 0.7707,0.6579z"/>
  <path d="M24.1752 38.3543l-0.711052 -0.711643 -2.27844 2.27844 2.8324 2.8324 0.937242 -0.937242 -0.921297 -0.921297 1.25615 -1.25615 -0.711052 -0.711643 -1.25615 1.25674 -0.488996 -0.488405 1.3412 -1.3412zm0.94551 -2.4249c-0.225009,0.227371 -0.396866,0.470098 -0.516162,0.72995 -0.118115,0.260443 -0.182488,0.52384 -0.193709,0.791961 -0.0100398,0.26694 0.0342533,0.527974 0.13406,0.780149 0.0980354,0.251585 0.253357,0.483681 0.463011,0.695697 0.213198,0.210835 0.446475,0.367338 0.700422,0.467735 0.253357,0.101579 0.515572,0.146463 0.784874,0.138195 0.269893,-0.00826805 0.535061,-0.0714596 0.796685,-0.188393 0.260443,-0.118706 0.504351,-0.289382 0.732313,-0.514391 0.225009,-0.227371 0.396276,-0.471869 0.513209,-0.732903 0.116934,-0.261034 0.179535,-0.526793 0.188393,-0.797276 0.00826805,-0.269893 -0.0377968,-0.531517 -0.138785,-0.784874 -0.100398,-0.253947 -0.256309,-0.487224 -0.465964,-0.699241 -0.210835,-0.209063 -0.442341,-0.362613 -0.695107,-0.461829 -0.250994,-0.098626 -0.510847,-0.14351 -0.779559,-0.132879 -0.268121,0.0106303 -0.532698,0.0744124 -0.791961,0.192527 -0.259853,0.118706 -0.504351,0.289972 -0.731722,0.515572zm0.791961 0.767747c0.0814993,-0.0814993 0.17422,-0.139966 0.27757,-0.177763 0.10276,-0.0377968 0.209654,-0.0531517 0.322454,-0.0466554 0.112209,0.00649632 0.224418,0.0354345 0.335446,0.0862239 0.111028,0.0519706 0.214969,0.125792 0.313005,0.223237 0.0974448,0.0980354 0.171857,0.202567 0.224418,0.314186 0.05138,0.111619 0.0814993,0.224418 0.0891768,0.337809 0.0070869,0.114572 -0.0070869,0.222647 -0.0442931,0.325407 -0.0366156,0.104532 -0.0956731,0.196661 -0.176582,0.278751 -0.0814993,0.0809087 -0.175401,0.141147 -0.281704,0.180125 -0.105713,0.0395685 -0.217332,0.0572858 -0.334265,0.0525612 -0.116343,-0.0047246 -0.232096,-0.031891 -0.346077,-0.0809087 -0.114572,-0.0501989 -0.220284,-0.12284 -0.31832,-0.220284 -0.0968543,-0.0980354 -0.170086,-0.203158 -0.219694,-0.316548 -0.0484271,-0.11339 -0.0755936,-0.227371 -0.0785464,-0.343124 -0.00413402,-0.115162 0.0141738,-0.225009 0.0543329,-0.330131 0.0401591,-0.105713 0.100988,-0.200795 0.183078,-0.282885zm2.44026 -3.99996c-0.225009,0.227371 -0.396866,0.470098 -0.516162,0.72995 -0.118115,0.260443 -0.182488,0.52384 -0.193709,0.791961 -0.0100398,0.26694 0.0342533,0.527974 0.13406,0.780149 0.0980354,0.251585 0.253357,0.483681 0.463011,0.695697 0.213198,0.210835 0.446475,0.367338 0.700422,0.467735 0.253357,0.101579 0.515572,0.146463 0.784874,0.138195 0.269893,-0.00826805 0.535061,-0.0714596 0.796685,-0.188393 0.260443,-0.118706 0.504351,-0.289382 0.732313,-0.514391 0.225009,-0.227371 0.396276,-0.471869 0.513209,-0.732903 0.116934,-0.261034 0.179535,-0.526793 0.188393,-0.797276 0.00826805,-0.269893 -0.0377968,-0.531517 -0.138785,-0.784874 -0.100398,-0.253947 -0.256309,-0.487224 -0.465964,-0.699241 -0.210835,-0.209063 -0.442341,-0.362613 -0.695107,-0.461829 -0.250994,-0.098626 -0.510847,-0.14351 -0.779559,-0.132879 -0.268121,0.0106303 -0.532698,0.0744124 -0.791961,0.192527 -0.259853,0.118706 -0.504351,0.289972 -0.731722,0.515572zm0.791961 0.767747c0.0814993,-0.0814993 0.17422,-0.139966 0.27757,-0.177763 0.10276,-0.0377968 0.209654,-0.0531517 0.322454,-0.0466554 0.112209,0.00649632 0.224418,0.0354345 0.335446,0.0862239 0.111028,0.0519706 0.214969,0.125792 0.313005,0.223237 0.0974448,0.0980354 0.171857,0.202567 0.224418,0.314186 0.05138,0.111619 0.0814993,0.224418 0.0891768,0.337809 0.0070869,0.114572 -0.0070869,0.222647 -0.0442931,0.325407 -0.0366156,0.104532 -0.0956731,0.196661 -0.176582,0.278751 -0.0814993,0.0809087 -0.175401,0.141147 -0.281704,0.180125 -0.105713,0.0395685 -0.217332,0.0572858 -0.334265,0.0525612 -0.116343,-0.0047246 -0.232096,-0.031891 -0.346077,-0.0809087 -0.114572,-0.0501989 -0.220284,-0.12284 -0.31832,-0.220284 -0.0968543,-0.0980354 -0.170086,-0.203158 -0.219694,-0.316548 -0.0484271,-0.11339 -0.0755936,-0.227371 -0.0785464,-0.343124 -0.00413402,-0.115162 0.0141738,-0.225009 0.0543329,-0.330131 0.0401591,-0.105713 0.100988,-0.200795 0.183078,-0.282885zm1.05477 -2.55778l2.8324 2.8324 1.22781 -1.2284c0.239773,-0.240955 0.422261,-0.490177 0.550416,-0.750621 0.126383,-0.259853 0.197252,-0.520296 0.209654,-0.782512 0.0147644,-0.261625 -0.0283476,-0.516753 -0.129336,-0.764204 -0.0998071,-0.247451 -0.258081,-0.480137 -0.47305,-0.696288 -0.216741,-0.21556 -0.447656,-0.373834 -0.692744,-0.474822 -0.24627,-0.101579 -0.498445,-0.146463 -0.755936,-0.135242 -0.258672,0.0106303 -0.516162,0.0779559 -0.7707,0.200205 -0.254538,0.12284 -0.499036,0.301193 -0.734084,0.535061l-1.26442 1.26442zm1.66424 -0.209654l0.307099 -0.307689c0.12284,-0.121068 0.257491,-0.197843 0.405134,-0.230915 0.145872,-0.0324816 0.296469,-0.0218513 0.450018,0.0324816 0.152959,0.0543329 0.300603,0.151187 0.44175,0.291744 0.138785,0.139966 0.23682,0.283476 0.292925,0.43171 0.0566952,0.146463 0.070869,0.290563 0.043112,0.428167 -0.0271664,0.139376 -0.0974448,0.265759 -0.210835,0.38033l-0.351392 0.351392 -1.37781 -1.37722zm5.23604 -5.26793l-0.711052 -0.711643 -2.27844 2.27844 2.8324 2.8324 0.937242 -0.937242 -0.921297 -0.921297 1.25615 -1.25615 -0.711052 -0.711643 -1.25615 1.25674 -0.488996 -0.488405 1.3412 -1.3412zm3.32907 0.912438l-2.83181 -2.83181 -0.937242 0.936652 2.8324 2.8324 0.936652 -0.937242zm0.562227 -2.12075l-2.05284 -2.05284 -0.937242 0.937242 2.8324 2.8324 2.11662 -2.11662 -0.779559 -0.780149 -1.17938 1.17997zm5.41793 -3.85882l-2.8324 -2.83181 -0.989803 0.989213 0.860467 2.09772 -2.09713 -0.861058 -0.989213 0.989803 2.83181 2.8324 0.816174 -0.816174 -1.55144 -1.55144 1.76109 0.791961 0.614788 -0.614198 -0.791961 -1.76168 1.55144 1.55144 0.816174 -0.816174z"/>
</svg>
