<?xml version="1.0" encoding="UTF-8"?>
<!DOCTYPE svg PUBLIC "-//W3C//DTD SVG 1.1//EN" "http://www.w3.org/Graphics/SVG/1.1/DTD/svg11.dtd">
<svg xmlns="http://www.w3.org/2000/svg" xml:space="preserve" style="shape-rendering:geometricPrecision; text-rendering:geometricPrecision; image-rendering:optimizeQuality; fill-rule:evenodd; clip-rule:evenodd"
viewBox="0 0 1.38719e+006 1.38719e+006"
 xmlns:xlink="http://www.w3.org/1999/xlink">
  <path d="M350835 917018l-588.8 -1241.6 -89.6 -166.4c-7014.4,-15833.6 -9881.6,-29939.2 -9036.8,-41561.6 832,-11443.2 4979.2,-20902.4 12108.8,-28032 998.4,-998.4 2073.6,-1881.6 3148.8,-2764.8l497037 -496973c7923.2,-9651.2 19481.6,-14835.2 34060.8,-14937.6 8243.2,-64 17574.4,1625.6 27827.2,5171.2 -4684.8,-12659.2 -6528,-24102.4 -5824,-33766.4 832,-11443.2 4979.2,-20902.4 12108.8,-28032 7142.4,-7142.4 16601.6,-11276.8 28032,-12096 11532.8,-819.2 25600,2073.6 41472,9126.4l25.6 -51.2c23923.2,10611.2 49497.6,29504 71436.8,51443.2 21952,21952 40870.4,47539.2 51481.6,71462.4l-76.8 38.4c7065.6,15936 9958.4,30003.2 9139.2,41497.6l-12.8 0c-832,11456 -4979.2,20928 -12070.4,28019.2 -7116.8,7116.8 -16588.8,11289.6 -28019.2,12096 -9100.8,665.6 -19776,-934.4 -31577.6,-5043.2 3840,10406.4 5836.8,19942.4 6003.2,28403.2 268.8,14208 -4185.6,25753.6 -12876.8,33996.8l-501312 501299 -38.4 -38.4 -537.6 588.8c-7116.8,7116.8 -16588.8,11289.6 -28019.2,12096 -11609.6,844.8 -25702.4,-2022.4 -41536,-9036.8l-1344 -627.2 -320 320 1548.8 3328c7219.2,16268.8 10176,30617.6 9331.2,42368 -806.4,11468.8 -5004.8,21030.4 -12249.6,28300.8l-64 64 -25.6 25.6c-7244.8,7232 -16793.6,11417.6 -28313.6,12249.6 -11827.2,857.6 -26188.8,-2073.6 -42368,-9241.6l0 -89.6c-24601.6,-10918.4 -50803.2,-30272 -73203.2,-52672 -22400,-22400 -41753.6,-48601.6 -52672,-73203.2 -7219.2,-16268.8 -10176,-30617.6 -9331.2,-42368 806.4,-11494.4 5017.6,-21056 12249.6,-28300.8l25.6 -25.6 64 -64c7270.4,-7244.8 16819.2,-11417.6 28313.6,-12249.6 11840,-857.6 26188.8,2073.6 42368,9241.6l3520 1651.2 204.8 -204.8zm611200 -586022c5017.6,934.4 10380.8,2572.8 15987.2,5056 14553.6,6425.6 30092.8,17881.6 43353.6,31129.6l89.6 0c13107.2,13107.2 24524.8,28672 31104,43468.8l89.6 0c2201.6,4966.4 3750.4,9792 4723.2,14348.8l2252.8 947.2c2700.8,1190.4 5209.6,2201.6 7513.6,2995.2 11520,3980.8 12569.6,2867.2 8652.8,-8665.6 -780.8,-2316.8 -1753.6,-4825.6 -2944,-7500.8l-89.6 0c-8268.8,-18649.6 -23782.4,-39360 -42137.6,-57715.2 -18329.6,-18329.6 -39027.2,-33830.4 -57689.6,-42099.2l-76.8 -89.6c-4019.2,-1779.2 -7628.8,-3097.6 -10790.4,-3968 -7897.6,-2188.8 -8640,-1907.2 -6412.8,6092.8 896,3225.6 2265.6,6950.4 4121.6,11136l-25.6 12.8c755.2,1664 1497.6,3302.4 2278.4,4851.2zm-575514 552230c2406.4,-1228.8 5030.4,-2176 7820.8,-2816 -3225.6,-934.4 -5990.4,-1459.2 -8307.2,-1523.2 38.4,1280 179.2,2752 486.4,4339.2zm121779 111117c-652.8,2739.2 -1587.2,5337.6 -2816,7731.2 1561.6,307.2 3020.8,512 4288,550.4 -64,-2304 -563.2,-5081.6 -1472,-8281.6zm-61209.6 4569.6l16640 -16614.4c-371.2,-1139.2 -896,-2560 -1612.8,-4185.6l76.8 -25.6c-4121.6,-9280 -12249.6,-20006.4 -21952,-29708.8l38.4 -38.4c-9536,-9510.4 -20211.2,-17536 -29708.8,-21721.6 -1600,-704 -2969.6,-1216 -4096,-1587.2l-16614.4 16614.4c10521.6,8038.4 20851.2,17075.2 30451.2,26675.2 9664,9664 18700.8,19955.2 26777.6,30592zm-25984 -156544l1625.6 678.4 25.6 -51.2c23923.2,10611.2 49497.6,29504 71436.8,51443.2 21952,21952 40870.4,47539.2 51481.6,71462.4l-76.8 38.4 819.2 1932.8 463731 -463718c1612.8,-1612.8 2380.8,-2419.2 2227.2,-4748.8 -332.8,-4416 -2073.6,-10419.2 -5363.2,-17868.8 -1113.6,-2534.4 -1996.8,-4416 -2611.2,-5632 -768,-1510.4 -1856,-3456 -3225.6,-5824l-345.6 -563.2 -256 -435.2c-8832,-15219.2 -21440,-31001.6 -35712,-45286.4l-38.4 38.4c-14348.8,-14348.8 -30092.8,-26931.2 -45145.6,-35673.6l-268.8 -102.4 -89.6 -64c-1932.8,-1113.6 -3891.2,-2214.4 -5888,-3251.2 -2483.2,-1267.2 -4595.2,-2291.2 -6220.8,-3046.4l-12.8 25.6c-4070.4,-1792 -16742.4,-7987.2 -21094.4,-4288l-464998 464934zm-32716.8 157875c-10419.2,-10419.2 -21593.6,-19980.8 -32716.8,-27865.6l921.6 2137.6 -25.6 12.8c4774.4,10726.4 13734.4,22656 24307.2,33228.8l0 51.2c10534.4,10547.2 22489.6,19494.4 33241.6,24268.8l2137.6 870.4c-7884.8,-11110.4 -17408,-22246.4 -27865.6,-32704zm-56256 -41958.4l-3200 -1446.4c-3673.6,-1625.6 -7001.6,-2892.8 -9984,-3788.8 -9804.8,-2956.8 -11328,-2713.6 -8435.2,7424 908.8,3161.6 2240,6732.8 3993.6,10688 8486.4,19123.2 24512,40460.8 43507.2,59456 18982.4,18982.4 40307.2,35008 59417.6,43494.4l38.4 -76.8c4403.2,1945.6 8332.8,3366.4 11699.2,4300.8 6912,1817.6 9088,2048 7283.2,-5606.4 -857.6,-3712 -2380.8,-8076.8 -4556.8,-13017.6l-1510.4 -3225.6c-780.8,115.2 -1548.8,256 -2368,320 -6220.8,448 -13900.8,-1139.2 -22630.4,-5017.6 -13299.2,-5913.6 -27571.2,-16473.6 -39820.8,-28723.2l-25.6 25.6c-12236.8,-12236.8 -22784,-26483.2 -28710.4,-39808l-51.2 -38.4c-3840,-8665.6 -5414.4,-16358.4 -4940.8,-22668.8l294.4 -2291.2zm53017.6 -80345.6c-230.4,230.4 -128,153.6 38.4,0 115.2,-128 166.4,-204.8 -38.4,0zm125581 125594c268.8,-268.8 89.6,-102.4 -128,102.4l128 -102.4z"/>
  <path d="M513702 808141c-3993.6,4006.4 -7129.6,8076.8 -9420.8,12236.8 -2316.8,4134.4 -3737.6,8230.4 -4300.8,12249.6 -563.2,4057.6 -230.4,7923.2 998.4,11596.8 1216,3686.4 3366.4,7065.6 6425.6,10163.2 2688,2649.6 5465.6,4480 8281.6,5529.6 2790.4,1024 5619.2,1433.6 8448,1267.2 2828.8,-204.8 5606.4,-806.4 8358.4,-1817.6 2752,-1011.2 5440,-2252.8 8025.6,-3648 2598.4,-1446.4 5043.2,-2867.2 7360,-4313.6 2342.4,-1433.6 4492.8,-2675.2 6489.6,-3712 1971.2,-1024 3737.6,-1689.6 5273.6,-1945.6 1548.8,-230.4 2816,140.8 3801.6,1100.8 1088,1113.6 1420.8,2355.2 1062.4,3712 -358.4,1395.2 -1305.6,2841.6 -2816,4339.2 -1574.4,1561.6 -3635.2,3110.4 -6144,4620.8 -2496,1548.8 -5260.8,2931.2 -8320,4249.6 -3020.8,1280 -6144,2380.8 -9305.6,3225.6 -3174.4,883.2 -6220.8,1459.2 -9152,1753.6l7705.6 22758.4c3609.6,-473.6 7232,-1331.2 10905.6,-2572.8 3648,-1228.8 7219.2,-2777.6 10764.8,-4608 3494.4,-1843.2 6860.8,-3916.8 10060.8,-6246.4 3200,-2316.8 6131.2,-4812.8 8819.2,-7500.8 2777.6,-2777.6 5184,-5696 7244.8,-8742.4 2073.6,-3033.6 3673.6,-6156.8 4825.6,-9331.2 1152,-3187.2 1740.8,-6348.8 1792,-9510.4 38.4,-3161.6 -550.4,-6272 -1804.8,-9292.8 -1228.8,-3020.8 -3225.6,-5926.4 -5939.2,-8652.8 -2790.4,-2764.8 -5632,-4672 -8512,-5785.6 -2892.8,-1113.6 -5785.6,-1600 -8678.4,-1484.8 -2892.8,115.2 -5747.2,665.6 -8550.4,1625.6 -2816,960 -5529.6,2124.8 -8179.2,3507.2 -2611.2,1408 -5120,2790.4 -7462.4,4211.2 -2355.2,1408 -4531.2,2624 -6515.2,3660.8 -1984,1024 -3737.6,1676.8 -5260.8,1920 -1536,243.2 -2790.4,-76.8 -3763.2,-998.4 -896,-934.4 -1203.2,-1920 -908.8,-2995.2 256,-1088 972.8,-2176 2137.6,-3302.4 1369.6,-1356.8 3148.8,-2713.6 5324.8,-4057.6 2176,-1344 4569.6,-2636.8 7219.2,-3891.2 2636.8,-1216 5299.2,-2368 8012.8,-3392 2713.6,-1024 5299.2,-1881.6 7731.2,-2598.4l-8051.2 -22771.2c-3801.6,857.6 -7680,2188.8 -11673.6,4006.4 -3980.8,1830.4 -7884.8,4019.2 -11699.2,6643.2 -3801.6,2598.4 -7321.6,5542.4 -10611.2,8793.6zm99737.6 -65932.8l-16025.6 -16025.6 -55244.8 55257.6 16012.8 16025.6 17433.6 -17433.6 45363.2 45363.2 20313.6 -20313.6 -45363.2 -45363.2 17510.4 -17510.4zm85478.4 5248l22937.6 -22950.4 -32051.2 -7872c1228.8,-5107.2 1036.8,-10112 -588.8,-15052.8 -1625.6,-4915.2 -4659.2,-9612.8 -9139.2,-14105.6 -4684.8,-4672 -9702.4,-7603.2 -15001.6,-8832 -5312,-1228.8 -10777.6,-755.2 -16384,1433.6 -5606.4,2188.8 -11200,6054.4 -16755.2,11596.8l-29696 29683.2 61388.8 61388.8 20313.6 -20313.6 -15948.8 -15936 7628.8 -7616 23296 8576zm-46336 -16371.2l-14617.6 -14617.6 9382.4 -9382.4c2201.6,-2188.8 4544,-3264 6988.8,-3225.6 2432,51.2 4787.2,1216 7104,3494.4 2355.2,2393.6 3584,4812.8 3673.6,7296 89.6,2470.4 -960,4851.2 -3148.8,7052.8l-9382.4 9382.4zm80486.4 -109722l-15411.2 -15411.2 -51929.6 51929.6 61388.8 61376 52710.4 -52710.4 -15411.2 -15411.2 -32409.6 32396.8 -7616 -7616 28723.2 -28723.2 -15398.4 -15411.2 -28736 28723.2 -7526.4 -7526.4 31616 -31616zm60416 -59200l-16025.6 -16025.6 -55257.6 55257.6 16025.6 16025.6 17433.6 -17433.6 45363.2 45363.2 20313.6 -20313.6 -45376 -45363.2 17523.2 -17510.4zm15769.6 -49049.6c-4825.6,4876.8 -8473.6,10099.2 -10995.2,15667.2 -2508.8,5568 -3865.6,11251.2 -4057.6,17024 -166.4,5772.8 806.4,11366.4 2969.6,16793.6 2124.8,5427.2 5465.6,10406.4 9971.2,14976 4633.6,4569.6 9651.2,7974.4 15104,10240 5452.8,2252.8 11072,3353.6 16793.6,3289.6 5747.2,-64 11379.2,-1292.8 16896,-3673.6 5516.8,-2406.4 10649.6,-5939.2 15411.2,-10649.6 2368,-2368 4480,-5056 6323.2,-8076.8 1856,-2995.2 3430.4,-6195.2 4659.2,-9600 1267.2,-3392 2188.8,-6912 2777.6,-10521.6 588.8,-3584 832,-7168 678.4,-10764.8l-24256 -793.6c76.8,2790.4 -153.6,5516.8 -704,8153.6 -524.8,2636.8 -1344,5056 -2406.4,7270.4 -1062.4,2176 -2316.8,4032 -3801.6,5504 -2508.8,2432 -5299.2,4019.2 -8422.4,4723.2 -3110.4,678.4 -6259.2,499.2 -9459.2,-537.6 -3225.6,-1036.8 -6220.8,-2905.6 -9011.2,-5670.4 -2726.4,-2752 -4569.6,-5721.6 -5580.8,-8921.6 -1024,-3174.4 -1177.6,-6310.4 -473.6,-9395.2 716.8,-3097.6 2291.2,-5913.6 4748.8,-8396.8 1587.2,-1587.2 3571.2,-2867.2 5913.6,-3865.6 2342.4,-1011.2 4902.4,-1664 7692.8,-1984 2777.6,-320 5632,-281.6 8550.4,166.4l-2201.6 -25664c-3289.6,-115.2 -6630.4,140.8 -10022.4,755.2 -3379.2,627.2 -6694.4,1612.8 -9958.4,2880 -3251.2,1305.6 -6323.2,2892.8 -9228.8,4736 -2918.4,1881.6 -5568,3993.6 -7910.4,6336zm151667 -27660.8l-61388.8 -61376 -20313.6 20300.8 23820.8 23820.8 -19008 19008 -23820.8 -23820.8 -20313.6 20313.6 61388.8 61388.8 20313.6 -20313.6 -22156.8 -22156.8 19008 -19008 22156.8 22156.8 20313.6 -20313.6z"/>
</svg>
