<?xml version="1.0" encoding="UTF-8"?>
<!DOCTYPE svg PUBLIC "-//W3C//DTD SVG 1.1//EN" "http://www.w3.org/Graphics/SVG/1.1/DTD/svg11.dtd">
<svg xmlns="http://www.w3.org/2000/svg" xml:space="preserve" style="shape-rendering:geometricPrecision; text-rendering:geometricPrecision; image-rendering:optimizeQuality; fill-rule:evenodd; clip-rule:evenodd"
viewBox="0 0 63.997 63.997" xmlns:xlink="http://www.w3.org/1999/xlink">
  <path d="M27.3222 23.2659c0.365532,-1.36469 1.74381,-2.18847 3.11027,-1.87963 -0.308842,-1.36646 0.514934,-2.74474 1.87963,-3.11027 1.36528,-0.366123 2.76777,0.416317 3.18349,1.75385 1.02869,-0.950738 2.63431,-0.926526 3.63347,0.072634 0.99916,0.99916 1.02337,2.60479 0.072634,3.63347 1.33753,0.415726 2.11997,1.81821 1.75385,3.18349 -0.365532,1.36469 -1.74381,2.18847 -3.11027,1.87963 0.308842,1.36587 -0.514934,2.74474 -1.87963,3.11027 -1.36528,0.366123 -2.76777,-0.416317 -3.18349,-1.75385 -1.02869,0.950738 -2.63431,0.926526 -3.63347,-0.072634 -0.99916,-0.99916 -1.02337,-2.60479 -0.072634,-3.63347 -1.33753,-0.415726 -2.11997,-1.81821 -1.75385,-3.18349zm19.4328 7.874l3.89035 4.03857 0.60174 0.625361 -0.512572 0.704491c-1.10782,1.52177 -2.34082,3.07543 -3.70788,4.65802 -1.37473,1.59086 -2.89237,3.22306 -4.56354,4.89541l-0.00413364 0.00413364c-1.64165,1.64047 -3.12385,3.24314 -4.45607,4.80388 -1.33812,1.56724 -2.5168,3.08015 -3.54785,4.53756l-0.711577 1.00507 -0.866884 -0.866884 -14.2634 -14.2581 0.00177156 -0.00177156c-0.188966,-0.180109 -0.377342,-0.360808 -0.562175,-0.54505 -2.35086,-2.34732 -4.36454,-5.05544 -5.4818,-7.56634 -0.691499,-1.55484 -0.976721,-2.89414 -0.901134,-3.96239 0.0649572,-0.911763 0.381476,-1.65346 0.925936,-2.19792l0.00236208 0.00177156c0.0938927,-0.0938927 0.195462,-0.179518 0.301165,-0.259829l0.0543279 -0.0596426 17.0843 -17.1434c0.531468,-0.715711 1.07061,-1.26667 2.17784,-1.38477 0.914716,-0.0980264 2.18315,0.18188 4.20687,1.07829 0.100388,0.044289 0.216721,0.100388 0.346045,0.165936 0.0236208,0.0118104 0.0454701,0.0265734 0.0673193,0.0395649l0.234437 0.121647 0.00118104 -0.00236208c2.44003,1.20525 5.02769,3.20062 7.26104,5.48771 2.21858,2.27055 4.10766,4.85231 5.1765,7.25454 0.0820823,0.184833 0.152945,0.350769 0.211997,0.497218 0.0690909,0.173022 0.131686,0.336006 0.183652,0.483046l0.00708624 0.0248019c0.524382,1.33635 0.710986,2.25579 0.672603,2.96087 -0.0454701,0.860388 -0.371437,1.39363 -0.830272,1.87136 -0.0944832,0.125781 -0.200186,0.247428 -0.320062,0.361989l0 0.00059052 -0.0124009 0.0112199 -0.00531468 0.00472416c-0.100979,0.0962548 -0.210816,0.185423 -0.324786,0.266325l-2.33669 2.34437zm-32.6215 0.354312c-0.0342502,-0.280497 -0.044289,-0.540917 -0.0271639,-0.78303 0.0454701,-0.644848 0.266325,-1.16569 0.643667,-1.54362 0.378524,-0.379114 0.900543,-0.60115 1.54539,-0.648391 0.23798,-0.0171251 0.496628,-0.0088578 0.770629,0.0230303 -0.849168,-0.299394 -1.5637,-0.422222 -2.12646,-0.381476 -0.395058,0.0289355 -0.688547,0.139363 -0.871017,0.321834l0 0.00413364c-0.184833,0.184833 -0.295851,0.478912 -0.323605,0.871608 -0.0401554,0.56749 0.0856254,1.28379 0.388562,2.13591zm9.3131 -1.60444c0.993255,0.779487 1.96289,1.64165 2.87997,2.55754 0.434032,0.433442 0.858026,0.877513 1.26549,1.33221 1.85187,1.99773 3.45927,4.15785 4.33147,6.11838 0.3862,0.869246 0.644848,1.67176 0.784801,2.39397l14.9526 -15.0033c0.0584615,-0.0631857 0.127552,-0.122238 0.203139,-0.17066 0.0484227,-0.0307071 0.0927117,-0.0661383 0.130505,-0.10216l0 0.00059052 0.00413364 -0.00413364c0.0336597,-0.0324786 0.0702719,-0.0761771 0.106294,-0.127552l0.00059052 0.00059052c0.0330691,-0.0472416 0.071453,-0.0927117 0.11338,-0.134639 0.161803,-0.162393 0.277545,-0.330101 0.290536,-0.577529 0.0224398,-0.423403 -0.1246,-1.06471 -0.527925,-2.0928l-0.0372028 -0.0944832c-0.0501942,-0.142315 -0.101569,-0.276954 -0.151764,-0.402735 -0.0620046,-0.153535 -0.122828,-0.297622 -0.178928,-0.423994 -0.966682,-2.17311 -2.70872,-4.54228 -4.77022,-6.65221 -2.07627,-2.12587 -4.46197,-3.97125 -6.6906,-5.07198l0.00059052 -0.00059052 -0.0372028 -0.0200777 -0.214359 -0.112789 -0.00413364 -0.00177156 -0.0248019 -0.0118104 -0.0395649 -0.0200777c-0.0732245,-0.0366123 -0.155307,-0.0761771 -0.2492,-0.117514 -1.65759,-0.734607 -2.59061,-0.974949 -3.14865,-0.915306 -0.30648,0.0324786 -0.519067,0.264553 -0.744056,0.568081 -0.0389743,0.0614141 -0.0850349,0.118104 -0.138182,0.171841l-14.9626 15.014c0.609417,0.180699 1.35229,0.462968 2.27823,0.872789 1.23891,0.549184 2.8717,1.63633 4.57181,3.02346l0.0059052 0.00472416zm8.49463 16.1135c-0.0501942,0.0584615 -0.103341,0.116333 -0.157669,0.17066l-0.00177156 -0.00236208c-0.546822,0.546231 -1.28674,0.864522 -2.19555,0.93066 -0.741103,0.0537373 -1.60976,-0.0649572 -2.59061,-0.372028l6.48687 6.48391c0.897,-1.2147 1.87726,-2.44771 2.94256,-3.69548 1.36292,-1.59736 2.88174,-3.23841 4.56531,-4.9214l0.00413364 -0.00413364c1.63869,-1.64047 3.12267,-3.23546 4.46138,-4.78499 1.13321,-1.31155 2.15776,-2.58353 3.08488,-3.82008l-3.25259 -3.376 -13.3263 13.3712 -0.0206682 0.0200777zm-4.62909 -1.35879c0.85094,0.300575 1.5637,0.423403 2.12764,0.382657 0.395058,-0.0289355 0.688547,-0.139363 0.871017,-0.321834l0 -0.00413364c0.184833,-0.184833 0.295851,-0.478912 0.323605,-0.871608 0.0401554,-0.565718 -0.0814918,-1.28084 -0.382657,-2.13001 0.0324786,0.276954 0.0383838,0.537964 0.0212587,0.777125 -0.0454701,0.644848 -0.266325,1.16569 -0.643667,1.54362 -0.378524,0.379114 -0.899953,0.60115 -1.54539,0.648391 -0.239161,0.0171251 -0.496037,0.00826728 -0.77181,-0.0242113zm9.52391 -35.1926c0.0791297,0.0472416 0.149402,0.104522 0.211406,0.168298m-14.267 22.9789c-1.28143,-1.05349 -2.61837,-1.92273 -3.87677,-2.48019 -1.03577,-0.458834 -1.89203,-0.650753 -2.53747,-0.604102 -0.398011,0.0289355 -0.704491,0.151173 -0.908811,0.355493 -0.204911,0.205501 -0.327148,0.513162 -0.355493,0.911763 -0.0460606,0.64662 0.145859,1.50169 0.605874,2.53451 0.561585,1.26312 1.44205,2.60242 2.5044,3.88799 -0.701538,-0.899953 -1.28615,-1.82707 -1.68003,-2.71285 -0.406278,-0.912944 -0.573986,-1.69716 -0.529697,-2.31838 0.0360217,-0.514343 0.214359,-0.931841 0.519067,-1.23714 0.305299,-0.30648 0.723978,-0.484817 1.23832,-0.52261 0.622999,-0.0448795 1.40662,0.120466 2.31779,0.524382 0.881056,0.390334 1.80581,0.966091 2.70281,1.66113zm-1.15033 8.00864c1.27316,1.04345 2.59652,1.90797 3.84547,2.46129 1.03577,0.458834 1.89203,0.650753 2.53747,0.604102 0.39742,-0.0289355 0.704491,-0.151173 0.908811,-0.355493 0.204911,-0.205501 0.327148,-0.513162 0.355493,-0.911763 0.0460606,-0.64662 -0.145859,-1.50169 -0.605874,-2.53451 -0.559223,-1.25722 -1.43083,-2.59297 -2.48727,-3.87322 0.695633,0.895229 1.27139,1.81821 1.66291,2.69809 0.406278,0.912944 0.573986,1.69716 0.529697,2.31838 -0.0372028,0.513753 -0.214359,0.931251 -0.519067,1.23714l0 0.00236208c-0.304118,0.304118 -0.722797,0.482455 -1.23891,0.520248 -0.622999,0.0448795 -1.40603,-0.120466 -2.3172,-0.524382 -0.871608,-0.3862 -1.78337,-0.956643 -2.67151,-1.64224zm0.986759 -6.86126c-0.971406,-0.80606 -1.98769,-1.47158 -2.94197,-1.89439 -0.758228,-0.336006 -1.38064,-0.47655 -1.84419,-0.44289 -0.266915,0.0194872 -0.471235,0.0986169 -0.60174,0.229712 -0.132277,0.132867 -0.211997,0.337778 -0.230893,0.605283 -0.0330691,0.464739 0.107475,1.08597 0.443481,1.84124 0.426356,0.958414 1.10132,1.97647 1.91506,2.95142 -0.452929,-0.59052 -0.832043,-1.1958 -1.0901,-1.77688 -0.282269,-0.6354 -0.398601,-1.18517 -0.367304,-1.62511 0.0271639,-0.384429 0.163574,-0.698586 0.393877,-0.930069l0 -0.00236208c0.230893,-0.230893 0.545641,-0.366713 0.931841,-0.394468 0.441119,-0.0318881 0.991484,0.0826728 1.62334,0.362579 0.576938,0.255695 1.18104,0.627723 1.76861,1.07593zm-0.853302 5.69143c0.971996,0.806651 1.98592,1.47512 2.94079,1.89793 0.758228,0.336006 1.38005,0.47655 1.8436,0.44289 0.265734,-0.0194872 0.469464,-0.0992074 0.602331,-0.232074l0.00118104 0.00118104c0.131686,-0.132867 0.210816,-0.337778 0.229712,-0.604102 0.0330691,-0.464739 -0.107475,-1.08597 -0.443481,-1.84124 -0.426946,-0.959595 -1.10073,-1.98238 -1.91624,-2.9591 0.454701,0.591701 0.832043,1.2023 1.09069,1.78455 0.282269,0.634809 0.399192,1.18458 0.367894,1.62511 -0.0277545,0.38561 -0.162393,0.700357 -0.393877,0.931841l-0.00118104 -0.00118104c-0.232665,0.233256 -0.546822,0.368485 -0.93066,0.396239 -0.441709,0.0318881 -0.992074,-0.0826728 -1.62393,-0.362579 -0.576938,-0.255695 -1.17868,-0.630085 -1.76684,-1.07947zm0.697404 -4.53697c-0.663745,-0.562175 -1.36292,-1.02751 -2.01545,-1.31627 -0.479502,-0.211997 -0.867474,-0.301756 -1.14974,-0.281088 -0.135229,0.00944832 -0.235618,0.0466511 -0.29526,0.106294l-0.00118104 -0.00118104c-0.0584615,0.0596426 -0.0950738,0.15944 -0.104522,0.29467l0 0.00236208c-0.0200777,0.28345 0.0690909,0.671422 0.281088,1.14797 0.289945,0.652525 0.759409,1.34816 1.32454,2.01249 -0.20432,-0.278726 -0.377933,-0.562766 -0.500171,-0.837358 -0.15885,-0.356084 -0.222626,-0.672603 -0.205501,-0.929479l0 -0.00236208c0.0183061,-0.254514 0.110427,-0.466511 0.269277,-0.625361 0.158259,-0.158259 0.368485,-0.250381 0.623589,-0.269277l0.00177156 0c0.258057,-0.0183061 0.571624,0.0460606 0.928888,0.203139l0.00118104 -0.00177156c0.274592,0.121647 0.561585,0.292308 0.841491,0.497218zm-0.532059 3.39018c0.661973,0.560404 1.35406,1.02396 2.00423,1.31214 0.479502,0.211997 0.867474,0.301756 1.15033,0.281088 0.13641,-0.00944832 0.236799,-0.0460606 0.29526,-0.104522l0 -0.00236208c0.059052,-0.059052 0.0962548,-0.15944 0.105703,-0.29526 0.0200777,-0.28345 -0.0696814,-0.671422 -0.281678,-1.14797 -0.291717,-0.656659 -0.761771,-1.36056 -1.33221,-2.02844 0.209635,0.28345 0.383838,0.573986 0.507847,0.853302 0.15885,0.356674 0.223807,0.673193 0.205501,0.931841 -0.0183061,0.254514 -0.109837,0.465921 -0.269277,0.625361 -0.157669,0.157669 -0.367894,0.250381 -0.623589,0.269277 -0.258057,0.0188966 -0.573986,-0.0454701 -0.931251,-0.203139l-0.00059052 0.00177156c-0.271639,-0.120466 -0.553318,-0.290536 -0.830272,-0.493084zm0.58993 -2.02548c-0.412183,-0.411593 -0.879875,-0.761181 -1.3021,-0.947785l0 -0.00236208c-0.18129,-0.0797202 -0.325967,-0.117514 -0.428127,-0.117514 0.00118104,0.10216 0.0407459,0.245066 0.121057,0.424584 0.187195,0.421041 0.537373,0.887552 0.950147,1.29974 0.412183,0.411593 0.879875,0.761181 1.3021,0.947785l0 0.00236208c0.180699,0.0797202 0.323605,0.119285 0.426356,0.119285 -0.00059052,-0.101569 -0.0389743,-0.245066 -0.119285,-0.426356 -0.187195,-0.421041 -0.537373,-0.887552 -0.950147,-1.29974zm9.82626 -12.9666c0.990303,-0.990303 2.59711,-0.990303 3.58741,0 0.990303,0.990303 0.990303,2.59711 0,3.58741 -0.990303,0.990303 -2.59711,0.990303 -3.58741,0 -0.990303,-0.990303 -0.990303,-2.59711 0,-3.58741z"/>
</svg>
