<?xml version="1.0" encoding="UTF-8"?>
<!DOCTYPE svg PUBLIC "-//W3C//DTD SVG 1.1//EN" "http://www.w3.org/Graphics/SVG/1.1/DTD/svg11.dtd">
<svg xmlns="http://www.w3.org/2000/svg" xml:space="preserve" style="shape-rendering:geometricPrecision; text-rendering:geometricPrecision; image-rendering:optimizeQuality; fill-rule:evenodd; clip-rule:evenodd"
viewBox="0 0 31.9991 31.9991" xmlns:xlink="http://www.w3.org/1999/xlink">
  <path d="M18.2117 4.62327c0.0501952,0.0221449 0.108362,0.0501952 0.173026,0.0829696 0.0118106,0.00590531 0.0227355,0.013287 0.0336603,0.0197828l0.11722 0.0608247 0.000590531 -0.00118106c1.22004,0.602637 2.51389,1.60034 3.63059,2.7439 1.10931,1.1353 2.05387,2.4262 2.5883,3.62734 0.0410419,0.0924181 0.0764738,0.175388 0.106,0.248614 0.0345461,0.0865128 0.0658442,0.168006 0.0918276,0.241527l0.00354319 0.0124012c0.262196,0.668186 0.3555,1.12791 0.336308,1.48046 -0.0227355,0.430202 -0.185722,0.696827 -0.415143,0.935697 -0.0472425,0.0628916 -0.100095,0.123716 -0.160034,0.180998l0 0.000295266 -0.00620058 0.00561005 -0.00265739 0.00236212c-0.0504904,0.0481283 -0.10541,0.0927134 -0.162396,0.133165l-1.16837 1.1722 1.94521 2.01932 0.300876 0.312686 -0.256291 0.352252c-0.553918,0.760899 -1.17043,1.53774 -1.85397,2.32906 -0.687378,0.795446 -1.44621,1.61156 -2.28181,2.44775l-0.00206686 0.00206686c-0.820838,0.820248 -1.56196,1.6216 -2.22807,2.40199 -0.669072,0.783635 -1.25842,1.54011 -1.77396,2.26882l-0.355795 0.502542 -0.43345 -0.43345 -7.13185 -7.12919 0.000885797 -0.000885797c-0.094485,-0.090056 -0.188675,-0.180407 -0.281093,-0.27253 -1.17545,-1.17368 -2.18231,-2.52777 -2.74095,-3.78324 -0.345756,-0.777434 -0.488369,-1.4471 -0.450575,-1.98123 0.0324792,-0.45589 0.190742,-0.826744 0.462976,-1.09898l0.00118106 0.000885797c0.047833,-0.047833 0.0995045,-0.0927134 0.152948,-0.13346l0.0248023 -0.0262786 8.54233 -8.57186c0.265739,-0.357862 0.535317,-0.633345 1.08894,-0.692398 0.457366,-0.0490141 1.0916,0.0909418 2.10347,0.539155zm-4.71362 18.7423l3.24349 3.24202c0.448508,-0.607361 0.938649,-1.22388 1.47131,-1.84777 0.681473,-0.798693 1.4409,-1.61924 2.2827,-2.46074l0.00206686 -0.00206686c0.819362,-0.820248 1.56136,-1.61776 2.23073,-2.39254 0.566615,-0.655785 1.0789,-1.29179 1.54247,-1.91007l-1.62632 -1.68803 -6.66326 6.6857 -0.0103343 0.010039c-0.0250976,0.0292313 -0.0516715,0.0581673 -0.0788359,0.0853318l-0.000885797 -0.00118106c-0.273416,0.273121 -0.643384,0.432269 -1.0978,0.465339 -0.370558,0.0268692 -0.804894,-0.0327745 -1.29533,-0.186017zm-1.78931 -8.43338c0.501656,0.392703 0.991797,0.829401 1.45477,1.29179 0.21702,0.216725 0.429021,0.438765 0.632754,0.666119 0.925953,0.998884 1.72967,2.07897 2.16577,3.05925 0.193104,0.434631 0.32243,0.835897 0.392408,1.19701l7.47642 -7.50181c0.0292313,-0.0315934 0.0637774,-0.06112 0.101571,-0.0853318 0.0242118,-0.0153538 0.0463567,-0.0330697 0.0652537,-0.0510809l0 0.000295266 0.00206686 -0.00206686c0.0168301,-0.0162396 0.0351366,-0.0380893 0.0531478,-0.0637774l0.000295266 0.000295266c0.0165349,-0.0236212 0.0357271,-0.0463567 0.056691,-0.0673206 0.0809028,-0.081198 0.138775,-0.165053 0.145271,-0.28877 0.0112201,-0.211705 -0.062301,-0.532364 -0.263967,-1.04642l-0.0186017 -0.0472425c-0.0250976,-0.071159 -0.0507857,-0.13848 -0.0758833,-0.201371 -0.0310029,-0.0767691 -0.0614152,-0.148814 -0.0894655,-0.212001 -0.48335,-1.08658 -1.35438,-2.27118 -2.38516,-3.32617 -1.03815,-1.06296 -2.23103,-1.98566 -3.34536,-2.53604l0.000295266 -0.000295266 -0.0186017 -0.010039 -0.107181 -0.0563957 -0.00206686 -0.000885797 -0.0124012 -0.00590531 -0.0197828 -0.010039c-0.0366129,-0.0183065 -0.0776549,-0.0380893 -0.124602,-0.0587579 -0.828811,-0.36731 -1.29533,-0.487484 -1.57436,-0.457662 -0.153243,0.0162396 -0.259538,0.132279 -0.372035,0.284046 -0.0194875,0.0307076 -0.0425182,0.0590531 -0.0690922,0.0859223l-7.48144 7.50713c0.304714,0.0903513 0.676158,0.231488 1.13913,0.436403 0.616515,0.273121 1.42849,0.812276 2.27414,1.50113zm3.41475 5.91417c0.0168301,0.139956 0.0218497,0.271644 0.013287,0.392408 -0.0227355,0.32243 -0.133165,0.582854 -0.32184,0.771824 -0.189265,0.189561 -0.449985,0.30058 -0.77271,0.324202 -0.119287,0.0085627 -0.249204,0.00383845 -0.386798,-0.0121059 0.425478,0.15029 0.783044,0.211705 1.06473,0.191332 0.197533,-0.014468 0.34428,-0.0696827 0.435517,-0.16092l0 -0.00206686c0.0924181,-0.0924181 0.147928,-0.23946 0.161806,-0.435812 0.0200781,-0.28375 -0.042223,-0.642793 -0.19399,-1.06886zm-8.05662 -5.09894c-0.0171254,-0.140251 -0.0221449,-0.270463 -0.0135822,-0.391522 0.0227355,-0.32243 0.133165,-0.582854 0.32184,-0.771824 0.189265,-0.189561 0.45028,-0.30058 0.77271,-0.324202 0.118106,-0.0085627 0.246842,-0.00620058 0.382664,0.0094485 -0.423411,-0.149109 -0.779796,-0.209048 -1.06059,-0.188675 -0.197533,0.014468 -0.34428,0.0696827 -0.435517,0.16092l0 0.00206686c-0.0924181,0.0924181 -0.147928,0.23946 -0.161806,0.435812 -0.0200781,0.28375 0.0428135,0.641907 0.194285,1.06798zm2.97214 -0.27814c0.439946,0.194875 0.89997,0.482169 1.34789,0.829106 -0.640136,-0.526163 -1.30626,-0.960204 -1.93488,-1.23864 -0.517896,-0.229421 -0.946031,-0.325383 -1.26876,-0.302057 -0.199009,0.014468 -0.352252,0.075588 -0.454414,0.17775 -0.102457,0.102752 -0.163577,0.256586 -0.17775,0.45589 -0.0230307,0.323316 0.0729306,0.75086 0.302943,1.26728 0.280798,0.631573 0.721039,1.30124 1.25222,1.94403 -0.350776,-0.449985 -0.643088,-0.913552 -0.840031,-1.35645 -0.203143,-0.456481 -0.286998,-0.848593 -0.264853,-1.15921 0.0180112,-0.257176 0.107181,-0.465929 0.259538,-0.618581 0.152652,-0.153243 0.361996,-0.242413 0.619172,-0.26131 0.311505,-0.0224402 0.703323,0.0602342 1.15892,0.262196zm3.04153 2.51743c0.352252,0.451756 0.645746,0.917685 0.843279,1.36176 0.203143,0.456481 0.286998,0.848593 0.264853,1.15921 -0.0186017,0.256881 -0.107181,0.465634 -0.259538,0.618581l0 0.00118106c-0.152062,0.152062 -0.361405,0.241232 -0.619467,0.260129 -0.311505,0.0224402 -0.703027,-0.0602342 -1.15862,-0.262196 -0.437584,-0.193694 -0.896722,-0.480692 -1.34257,-0.825267 0.638069,0.523506 1.3033,0.957546 1.92956,1.2348 0.517896,0.229421 0.946031,0.325383 1.26876,0.302057 0.198714,-0.014468 0.352252,-0.075588 0.454414,-0.17775 0.102457,-0.102752 0.163577,-0.256586 0.17775,-0.45589 0.0230307,-0.323316 -0.0729306,-0.75086 -0.302943,-1.26728 -0.281388,-0.632754 -0.722515,-1.30537 -1.25547,-1.94934zm-2.65621 -1.65113c0.28936,0.128145 0.591417,0.315048 0.886092,0.540336 -0.486598,-0.404219 -0.99475,-0.737573 -1.47278,-0.949574 -0.379121,-0.168006 -0.690331,-0.238279 -0.922114,-0.221449 -0.13346,0.00974376 -0.235622,0.0493094 -0.300876,0.114858 -0.0661395,0.0664348 -0.106,0.168892 -0.115449,0.302647 -0.0165349,0.232374 0.0537383,0.542993 0.221744,0.920638 0.213182,0.479216 0.55067,0.988254 0.957546,1.47574 -0.226469,-0.295266 -0.416029,-0.597913 -0.54506,-0.888454 -0.141137,-0.317706 -0.199304,-0.592598 -0.183655,-0.812571 0.0135822,-0.192218 0.0817886,-0.349299 0.196942,-0.465043l0 -0.00118106c0.115449,-0.115449 0.273121,-0.18336 0.465929,-0.197237 0.220563,-0.0159443 0.495751,0.0413372 0.811685,0.181293zm2.08723 1.73911c0.226469,0.295266 0.415734,0.599389 0.544765,0.889635 0.141137,0.317411 0.1996,0.592303 0.18395,0.812571 -0.0138775,0.192808 -0.081198,0.350185 -0.196942,0.465929l-0.000590531 -0.000590531c-0.116335,0.11663 -0.273416,0.184246 -0.465339,0.198123 -0.220859,0.0159443 -0.496046,-0.0413372 -0.81198,-0.181293 -0.287589,-0.127555 -0.589055,-0.314163 -0.882254,-0.537679 0.485417,0.402447 0.992683,0.735802 1.46924,0.946917 0.379121,0.168006 0.690036,0.238279 0.921819,0.221449 0.13287,-0.00974376 0.234736,-0.0496046 0.301171,-0.116039l0.000590531 0.000590531c0.0658442,-0.0664348 0.10541,-0.168892 0.114858,-0.302057 0.0165349,-0.232374 -0.0537383,-0.542993 -0.221744,-0.920638 -0.213182,-0.478921 -0.55067,-0.989435 -0.957546,-1.47692zm-1.70162 -0.87251c0.136117,0.0602342 0.277254,0.144385 0.416029,0.245956 -0.330993,-0.280207 -0.67793,-0.5114 -1.00302,-0.65549 -0.239756,-0.106 -0.433745,-0.150881 -0.574882,-0.140546 -0.0676158,0.00472425 -0.117811,0.023326 -0.147633,0.0531478l-0.000590531 -0.000590531c-0.0292313,0.0298218 -0.0475378,0.0797217 -0.052262,0.147338l0 0.00118106c-0.010039,0.141727 0.0345461,0.335717 0.140546,0.573996 0.144975,0.326268 0.379712,0.674091 0.662281,1.00627 -0.102162,-0.139365 -0.18897,-0.281388 -0.25009,-0.418687 -0.0794264,-0.178045 -0.111315,-0.336308 -0.102752,-0.464748l0 -0.00118106c0.00915323,-0.127259 0.0552147,-0.23326 0.134641,-0.312686 0.0791312,-0.0791312 0.184246,-0.125193 0.3118,-0.134641l0.000885797 0c0.129031,-0.00915323 0.285817,0.0230307 0.464453,0.101571l0.000590531 -0.000885797zm1.12585 0.952822c0.103933,0.141137 0.191923,0.285817 0.253633,0.424887 0.0794264,0.17834 0.111906,0.336603 0.102752,0.465929 -0.00915323,0.127259 -0.0549194,0.232965 -0.134641,0.312686 -0.0788359,0.0788359 -0.18395,0.125193 -0.3118,0.134641 -0.129031,0.0094485 -0.286998,-0.0227355 -0.465634,-0.101571l-0.000295266 0.000885797c-0.137299,-0.0608247 -0.280207,-0.147338 -0.420163,-0.249499 0.331583,0.281093 0.681178,0.514648 1.00715,0.659033 0.239756,0.106 0.433745,0.150881 0.575177,0.140546 0.0682064,-0.00472425 0.118402,-0.0230307 0.147633,-0.052262l0 -0.00118106c0.0295266,-0.0295266 0.0481283,-0.0797217 0.0528525,-0.147633 0.010039,-0.141727 -0.0348413,-0.335717 -0.140842,-0.573996 -0.145566,-0.327745 -0.381188,-0.679111 -0.665824,-1.01247zm-0.676158 -0.0218497c-0.206095,-0.2058 -0.439946,-0.380597 -0.651061,-0.473901l0 -0.00118106c-0.0906465,-0.0398609 -0.162987,-0.0587579 -0.214068,-0.0587579 0.000590531,0.0510809 0.0203733,0.122535 0.0605294,0.212296 0.0935992,0.210524 0.268692,0.443784 0.475082,0.64988 0.206095,0.2058 0.439946,0.380597 0.651061,0.473901l0 0.00118106c0.0903513,0.0398609 0.161806,0.0596437 0.213182,0.0596437 -0.000295266,-0.0507857 -0.0194875,-0.122535 -0.0596437,-0.213182 -0.0935992,-0.210524 -0.268692,-0.443784 -0.475082,-0.64988zm4.66431 -9.2554l0.579606 -0.582559 1.06975 1.06945 -1.16217 0 -0.487188 -0.486893zm2.11499 0.951641l0.000590531 0.000590531 1.56668 0 -0.450575 0.449394 2.15337 2.15514 -1.52534 1.52593 -1.19524 -1.19553 -1.11286 1.11669 1.19376 1.19258 -1.52741 1.52623 -2.1516 -2.15278 -0.451461 0.450871 -0.000295266 -5.06912 0.346642 0 1.99157 0 1.16217 0zm0.379416 -5.10337c0.0395656,0.0236212 0.0747022,0.052262 0.105705,0.0841507"/>
</svg>
