<?xml version="1.0" encoding="UTF-8"?>
<!DOCTYPE svg PUBLIC "-//W3C//DTD SVG 1.1//EN" "http://www.w3.org/Graphics/SVG/1.1/DTD/svg11.dtd">
<svg xmlns="http://www.w3.org/2000/svg" xml:space="preserve" style="shape-rendering:geometricPrecision; text-rendering:geometricPrecision; image-rendering:optimizeQuality; fill-rule:evenodd; clip-rule:evenodd"
viewBox="0 0 21.333 21.333" xmlns:xlink="http://www.w3.org/1999/xlink">
  <path d="M12.1413 3.08222c0.0334638,0.0147635 0.0722425,0.0334638 0.115352,0.0553138 0.00787385,0.00393692 0.0151572,0.00885808 0.0224405,0.0131887l0.0781479 0.0405503 0.000393692 -0.000787385c0.813368,0.401763 1.67595,1.06691 2.42042,1.82929 0.739551,0.756873 1.36926,1.61748 1.72555,2.41826 0.0273616,0.0616128 0.0509832,0.116927 0.0706678,0.165744 0.023031,0.0576759 0.0438967,0.112005 0.0612192,0.16102l0.00236215 0.00826754c0.174799,0.445463 0.237003,0.751952 0.224208,0.986987 -0.0151572,0.286805 -0.123816,0.464557 -0.276766,0.623805 -0.0314954,0.0419282 -0.0667308,0.0824785 -0.106691,0.120667l0 0.000196846 -0.00413377 0.00374008 -0.00177162 0.00157477c-0.0336607,0.0320859 -0.0702741,0.0618097 -0.108265,0.0887776l-0.77892 0.781479 1.29682 1.34623 0.200586 0.20846 -0.170862 0.234837c-0.369283,0.507273 -0.780298,1.02517 -1.236,1.55272 -0.458258,0.530304 -0.964152,1.07439 -1.52123,1.63185l-0.00137792 0.00137792c-0.547232,0.546839 -1.04132,1.08108 -1.4854,1.60134 -0.446053,0.52243 -0.838958,1.02675 -1.18265,1.51257l-0.2372 0.335032 -0.28897 -0.28897 -4.75462 -4.75285 0.000590538 -0.000590538c-0.0629908,-0.0600381 -0.125785,-0.120273 -0.187398,-0.181689 -0.783645,-0.782463 -1.45489,-1.6852 -1.82732,-2.52219 -0.230507,-0.518296 -0.325584,-0.964743 -0.300387,-1.32084 0.0216531,-0.30393 0.127163,-0.551169 0.308655,-0.732661l0.000787385 0.000590538c0.0318891,-0.0318891 0.0663372,-0.0618097 0.101966,-0.0889745l0.0165351 -0.0175193 5.69496 -5.71464c0.177162,-0.238578 0.356882,-0.422235 0.725969,-0.461604 0.304915,-0.0326765 0.72774,0.0606286 1.40233,0.359441zm-4.93454 8.38604c0.0915335,0.0405503 0.187201,0.0974388 0.280506,0.165744 -0.221255,-0.187398 -0.454321,-0.342512 -0.671836,-0.43877 -0.159839,-0.0706678 -0.289167,-0.100588 -0.383259,-0.0936988 -0.0450778,0.00314954 -0.0785416,0.0155508 -0.0984231,0.0354323l-0.000393692 -0.000393692c-0.0194878,0.0198815 -0.0316922,0.0531485 -0.0348418,0.0982262l0 0.000787385c-0.00669277,0.0944862 0.023031,0.223814 0.0936988,0.382669 0.0966515,0.217515 0.253144,0.4494 0.441526,0.670852 -0.0681088,-0.0929114 -0.125982,-0.187594 -0.166729,-0.279128 -0.0529516,-0.118698 -0.074211,-0.224208 -0.0685025,-0.309836l0 -0.000787385c0.00610223,-0.0848407 0.0368102,-0.155508 0.0897618,-0.20846 0.0527548,-0.0527548 0.122832,-0.0834628 0.20787,-0.0897618l0.000590538 0c0.0860218,-0.00610223 0.190547,0.015354 0.309639,0.0677151l0.000393692 -0.000590538zm0.750378 0.634041c0.0698804,0.0944862 0.12795,0.191334 0.169288,0.284443 0.0529516,0.118895 0.0746047,0.224405 0.0685025,0.310623 -0.00610223,0.0848407 -0.0366134,0.155312 -0.0897618,0.20846 -0.0525579,0.0525579 -0.122635,0.0834628 -0.20787,0.0897618 -0.0860218,0.00629908 -0.191334,-0.0151572 -0.310426,-0.0677151l-0.000196846 0.000590538c-0.0905492,-0.0401566 -0.184445,-0.0968483 -0.276766,-0.164367 0.220665,0.186807 0.451368,0.341331 0.668096,0.437392 0.159839,0.0706678 0.289167,0.100588 0.383456,0.0936988 0.0454715,-0.00314954 0.0789353,-0.015354 0.0984231,-0.0348418l0 -0.000787385c0.0196846,-0.0196846 0.0320859,-0.0531485 0.0352355,-0.0984231 0.00669277,-0.0944862 -0.0232278,-0.223814 -0.0938956,-0.382669 -0.097242,-0.218893 -0.253932,-0.453534 -0.444085,-0.676167zm-0.450581 -0.0133855c-0.137399,-0.137202 -0.293301,-0.253735 -0.434046,-0.315938l0 -0.000787385c-0.0604318,-0.0265742 -0.108659,-0.0391724 -0.142713,-0.0391724 0.000393692,0.0340544 0.0135824,0.0816912 0.0403535,0.141532 0.0624002,0.140351 0.17913,0.29586 0.316725,0.433258 0.137399,0.137202 0.293301,0.253735 0.434046,0.315938l0 0.000787385c0.0602349,0.0265742 0.107872,0.0397629 0.142123,0.0397629 -0.000196846,-0.0338575 -0.0129918,-0.0816912 -0.0397629,-0.142123 -0.0624002,-0.140351 -0.17913,-0.29586 -0.316725,-0.433258zm-0.556878 -1.1984c0.192319,0.0852344 0.393692,0.209247 0.589554,0.358654 -0.323812,-0.268695 -0.662584,-0.490541 -0.980688,-0.631482 -0.25275,-0.112005 -0.460226,-0.158855 -0.614751,-0.147635 -0.0889745,0.00649592 -0.157083,0.0328733 -0.200586,0.0765732 -0.0440935,0.0442904 -0.0706678,0.112596 -0.0769668,0.201767 -0.0110234,0.154918 0.035826,0.362 0.147831,0.613766 0.142123,0.319481 0.367118,0.658844 0.638372,0.983837 -0.150981,-0.196846 -0.277356,-0.398613 -0.363378,-0.59231 -0.0940925,-0.211806 -0.132871,-0.39507 -0.122438,-0.541721 0.00905492,-0.128147 0.0545264,-0.232869 0.131296,-0.310033l0 -0.000787385c0.0769668,-0.0769668 0.181886,-0.122241 0.310623,-0.131493 0.147044,-0.0106297 0.330505,0.0275585 0.54113,0.120864zm1.39111 1.15765c0.151572,0.19724 0.277356,0.400779 0.363575,0.594869 0.0940925,0.21161 0.133068,0.394873 0.122635,0.541721 -0.00925177,0.128541 -0.0541327,0.23346 -0.131296,0.310623l-0.000393692 -0.000393692c-0.0775574,0.0777542 -0.18228,0.122832 -0.31023,0.132084 -0.147241,0.0106297 -0.330702,-0.0275585 -0.541327,-0.120864 -0.192319,-0.0852344 -0.392905,-0.210035 -0.588964,-0.359835 0.324009,0.268892 0.661994,0.491722 0.980294,0.632664 0.25275,0.112005 0.460029,0.158855 0.614554,0.147635 0.0885808,-0.00649592 0.156493,-0.0330702 0.200783,-0.0773605l0.000393692 0.000393692c0.0438967,-0.0442904 0.0702741,-0.112596 0.0765732,-0.201374 0.0110234,-0.154918 -0.035826,-0.362 -0.147831,-0.613766 -0.14232,-0.319875 -0.366921,-0.660813 -0.638766,-0.986396zm-1.648 -1.7352c0.293694,0.130115 0.601956,0.32204 0.900965,0.553728 -0.427156,-0.351174 -0.872816,-0.640931 -1.2923,-0.826754 -0.345268,-0.152949 -0.630695,-0.216924 -0.845848,-0.201374 -0.132674,0.00964546 -0.234837,0.0503926 -0.302946,0.118501 -0.0683056,0.0685025 -0.109053,0.171059 -0.118501,0.30393 -0.015354,0.215547 0.048621,0.50058 0.201964,0.844864 0.187201,0.421054 0.480698,0.867501 0.834825,1.29604 -0.233853,-0.30019 -0.428731,-0.609042 -0.560027,-0.904311 -0.13543,-0.304324 -0.191334,-0.565736 -0.176571,-0.772818 0.0120076,-0.171453 0.0714552,-0.310623 0.173028,-0.412393 0.101769,-0.102163 0.241333,-0.161611 0.412786,-0.174209 0.207673,-0.0149603 0.468888,0.0401566 0.772621,0.174799zm2.03559 1.68677c0.231885,0.298419 0.42381,0.606089 0.554319,0.89939 0.13543,0.304324 0.191334,0.565736 0.176571,0.772818 -0.0124013,0.171256 -0.0714552,0.310426 -0.173028,0.412393l0 0.000787385c-0.101376,0.101376 -0.24094,0.160823 -0.412983,0.173421 -0.207673,0.0149603 -0.468691,-0.0401566 -0.772424,-0.174799 -0.290545,-0.128737 -0.594475,-0.318891 -0.890532,-0.547429 0.4244,0.347827 0.865533,0.63601 1.28186,0.820455 0.345268,0.152949 0.630695,0.216924 0.845848,0.201374 0.132477,-0.00964546 0.234837,-0.0503926 0.302946,-0.118501 0.0683056,-0.0685025 0.109053,-0.171059 0.118501,-0.30393 0.015354,-0.215547 -0.048621,-0.50058 -0.201964,-0.844864 -0.186413,-0.419085 -0.476958,-0.864351 -0.829116,-1.29111zm1.35568 1.89996c0.0110234,0.0925177 0.0129918,0.179721 0.00728331,0.25964 -0.0151572,0.214956 -0.0887776,0.388574 -0.214562,0.514556 -0.126178,0.126375 -0.299994,0.200389 -0.515146,0.216137 -0.0797227,0.00570854 -0.165351,0.00275585 -0.257278,-0.00807069 0.283655,0.100195 0.521249,0.141139 0.709237,0.127556 0.13169,-0.00964546 0.229523,-0.0464557 0.290348,-0.107281l0 -0.00137792c0.0616128,-0.0616128 0.0986199,-0.159642 0.107872,-0.290545 0.0133855,-0.188579 -0.0271648,-0.427353 -0.127753,-0.710615zm-5.37272 -3.4013c-0.0114171,-0.0935019 -0.0147635,-0.180311 -0.00905492,-0.261018 0.0151572,-0.214956 0.0887776,-0.388574 0.214562,-0.514556 0.126178,-0.126375 0.30019,-0.200389 0.515146,-0.216137 0.0787385,-0.00570854 0.164563,-0.00413377 0.255113,0.00629908 -0.282277,-0.0994073 -0.519871,-0.139367 -0.707071,-0.125785 -0.13169,0.00964546 -0.229523,0.0464557 -0.290348,0.107281l0 0.00137792c-0.0616128,0.0616128 -0.0986199,0.159642 -0.107872,0.290545 -0.0133855,0.189169 0.0285427,0.427944 0.129525,0.711993zm4.28751 5.07883l2.16236 2.16137c0.299009,-0.404913 0.625774,-0.815927 0.980884,-1.23186 0.454321,-0.532469 0.960609,-1.0795 1.52182,-1.64052l0.00137792 -0.00137792c0.546248,-0.546839 1.04092,-1.07852 1.48717,-1.59504 0.377748,-0.437195 0.719276,-0.861202 1.02832,-1.2734l-1.08423 -1.12537 -4.44223 4.45719 -0.00688962 0.00669277c-0.0167319,0.0194878 -0.0344481,0.0387787 -0.0525579,0.0568885l-0.000590538 -0.000787385c-0.18228,0.182083 -0.428928,0.288183 -0.731874,0.31023 -0.247042,0.017913 -0.536603,-0.0218499 -0.863564,-0.124013zm-1.19289 -5.62232c0.334442,0.261805 0.661206,0.552941 0.969861,0.861202 0.144682,0.144485 0.286017,0.292513 0.421841,0.444085 0.61731,0.665931 1.15312,1.38599 1.44387,2.03952 0.128737,0.289758 0.214956,0.557271 0.261609,0.798014l4.98434 -5.00127c0.0194878,-0.0210625 0.0425188,-0.0407472 0.0677151,-0.0568885 0.0161414,-0.010236 0.0309048,-0.0220468 0.043503,-0.0340544l0 0.000196846 0.00137792 -0.00137792c0.0112202,-0.0108265 0.0234247,-0.0253932 0.0354323,-0.0425188l0.000196846 0.000196846c0.0110234,-0.0157477 0.0238184,-0.0309048 0.0377945,-0.0448809 0.0539358,-0.0541327 0.0925177,-0.110037 0.0968483,-0.192516 0.00748015,-0.141139 -0.0415345,-0.354914 -0.17598,-0.697623l-0.0124013 -0.0314954c-0.0167319,-0.0474399 -0.0338575,-0.0923208 -0.0505895,-0.134249 -0.0206688,-0.05118 -0.040944,-0.0992105 -0.0596444,-0.141336 -0.322237,-0.724394 -0.902933,-1.51414 -1.59012,-2.21747 -0.692111,-0.708646 -1.48737,-1.32379 -2.23027,-1.69071l0.000196846 -0.000196846 -0.0124013 -0.00669277 -0.0714552 -0.0375976 -0.00137792 -0.000590538 -0.00826754 -0.00393692 -0.0131887 -0.00669277c-0.0244089,-0.0122045 -0.0517705,-0.0253932 -0.0830691,-0.0391724 -0.552547,-0.244877 -0.863564,-0.324993 -1.04958,-0.305112 -0.102163,0.0108265 -0.173028,0.0881871 -0.248026,0.189366 -0.0129918,0.020472 -0.0283458,0.0393692 -0.046062,0.0572822l-4.98769 5.00481c0.203145,0.0602349 0.450778,0.154327 0.759432,0.290939 0.411015,0.182083 0.952342,0.541524 1.51611,1.00077zm0.811794 -0.82262l2.06531 2.06531 0.683647 -0.683647 -0.536209 -0.536209 0.285821 -0.285624c0.178736,-0.179917 0.300584,-0.363378 0.364165,-0.551169 0.063975,-0.187398 0.0698804,-0.373023 0.0188972,-0.556878 -0.05118,-0.183461 -0.160036,-0.359441 -0.327158,-0.527154 -0.158067,-0.15728 -0.324993,-0.257475 -0.50117,-0.301175 -0.176571,-0.0436998 -0.356292,-0.0318891 -0.539358,0.0364165 -0.183067,0.0683056 -0.364953,0.191925 -0.544476,0.370661l-0.969467 0.969467zm1.20214 -0.165154l0.250388 -0.250388c0.0748015,-0.0736205 0.153343,-0.110037 0.235231,-0.108462 0.081888,0.00137792 0.161611,0.0407472 0.239168,0.11732 0.0795258,0.0805101 0.120864,0.162004 0.123619,0.245467 0.00314954,0.0834628 -0.0322828,0.163185 -0.105903,0.23779l-0.250388 0.250388 -0.492115 -0.492115zm3.08478 -3.08478l-0.518493 -0.518493 -1.74721 1.74721 2.06531 2.06531 1.77378 -1.77378 -0.518493 -0.518493 -1.09013 1.09013 -0.256491 -0.256294 0.966515 -0.966515 -0.518493 -0.518493 -0.966515 0.966515 -0.253341 -0.253538 1.06356 -1.06356zm-0.625577 -2.73163c0.0263774,0.0157477 0.0498021,0.0348418 0.0704709,0.0561012"/>
</svg>
