<?xml version="1.0" encoding="UTF-8"?>
<!DOCTYPE svg PUBLIC "-//W3C//DTD SVG 1.1//EN" "http://www.w3.org/Graphics/SVG/1.1/DTD/svg11.dtd">
<svg xmlns="http://www.w3.org/2000/svg" xml:space="preserve" style="shape-rendering:geometricPrecision; text-rendering:geometricPrecision; image-rendering:optimizeQuality; fill-rule:evenodd; clip-rule:evenodd"
viewBox="0 0 15.9998 15.9998" xmlns:xlink="http://www.w3.org/1999/xlink">
  <path d="M11.6892 7.78525l0.972621 1.00968 0.15044 0.156346 -0.128147 0.176129c-0.276964,0.380456 -0.585226,0.768884 -0.927001,1.16455 -0.343695,0.397729 -0.723117,0.805793 -1.14092,1.2239l-0.00103345 0.00103345c-0.410426,0.410131 -0.78099,0.810812 -1.11406,1.20101 -0.334541,0.391824 -0.629221,0.770065 -0.886992,1.13443l-0.1779 0.251275 -0.216728 -0.216728 -3.56598 -3.56465 0.000442906 -0.000442906c-0.0472433,-0.0450287 -0.0943389,-0.0902051 -0.140549,-0.136267 -0.587736,-0.58685 -1.09117,-1.2639 -1.3705,-1.89165 -0.172881,-0.388723 -0.244189,-0.72356 -0.225291,-0.990632 0.0162399,-0.227949 0.0953723,-0.413379 0.231492,-0.549498l0.000590541 0.000442906c0.023474,-0.023474 0.0488672,-0.0448811 0.0752939,-0.0649595l0.0135824 -0.0149112 4.27123 -4.286c0.132872,-0.178934 0.267663,-0.316677 0.544479,-0.346205 0.228687,-0.0245074 0.545807,0.0454716 1.05175,0.269582 0.025098,0.0110726 0.0541821,0.025098 0.0865142,0.0414855 0.00590541,0.0029527 0.0113679,0.00664358 0.0168304,0.00989156l0.0586112 0.0304128 0.00029527 -0.000590541c0.610029,0.301323 1.25697,0.800183 1.81532,1.37197 0.554665,0.567657 1.02695,1.21312 1.29417,1.8137 0.0205213,0.0462098 0.0382375,0.0876953 0.053001,0.124309 0.0172733,0.0432571 0.0329226,0.0840044 0.0459145,0.120766l0.00177162 0.00620068c0.1311,0.334098 0.177753,0.563966 0.168156,0.740243 -0.0113679,0.215104 -0.0928625,0.348419 -0.207575,0.467856 -0.0236216,0.0314463 -0.0500483,0.0618591 -0.0800183,0.0905004l0 0.000147635 -0.00310034 0.00280507 -0.00132872 0.00118108c-0.0252456,0.0240645 -0.0527058,0.0463574 -0.0811994,0.0665835l-0.584192 0.586112zm-5.22141 -0.940436l1.54899 1.54899 0.512737 -0.512589 -0.402158 -0.402158 0.214366 -0.214366c0.134053,-0.134939 0.225291,-0.272535 0.273125,-0.413231 0.0479814,-0.140696 0.0522629,-0.279916 0.014173,-0.417808 -0.0383851,-0.137596 -0.120175,-0.269434 -0.24537,-0.395367 -0.118551,-0.117961 -0.243746,-0.192959 -0.375879,-0.225734 -0.132429,-0.0329226 -0.26722,-0.0239169 -0.40452,0.0271649 -0.137301,0.0512294 -0.273716,0.143944 -0.408507,0.278145l-0.726956 0.726956zm0.901608 -0.123866l0.187792 -0.187792c0.0559537,-0.0552156 0.115008,-0.0823804 0.176424,-0.081347 0.0614162,0.00118108 0.121208,0.0305605 0.179229,0.0881382 0.0597922,0.0602352 0.090648,0.121504 0.0928625,0.183953 0.00236216,0.062745 -0.0242122,0.12239 -0.0795754,0.178343l-0.187792 0.187792 -0.36894 -0.369088zm0.61431 -1.39205l1.54899 1.54899 0.512737 -0.512589 -0.402158 -0.402158 0.214219 -0.214366c0.134053,-0.134791 0.225439,-0.272535 0.273273,-0.413231 0.0479814,-0.140696 0.0522629,-0.279916 0.0140253,-0.41766 -0.0382375,-0.137744 -0.120027,-0.269582 -0.245222,-0.395515 -0.118699,-0.117961 -0.243746,-0.192959 -0.376027,-0.225734 -0.132281,-0.032775 -0.267072,-0.0239169 -0.40452,0.0271649 -0.137153,0.0512294 -0.273568,0.143944 -0.408359,0.278145l-0.726956 0.726956zm0.90146 -0.123718l0.18794 -0.18794c0.0559537,-0.0552156 0.115008,-0.0823804 0.176424,-0.081347 0.0614162,0.00118108 0.121208,0.0305605 0.179229,0.0881382 0.0597922,0.0602352 0.090648,0.121504 0.0928625,0.183953 0.00236216,0.062745 -0.0242122,0.12239 -0.0795754,0.178343l-0.187792 0.187792 -0.369088 -0.36894zm-5.35163 2.66865c-0.00856284,-0.0701267 -0.0110726,-0.135234 -0.00679122,-0.195764 0.0113679,-0.161218 0.0665835,-0.291432 0.160922,-0.385918 0.0946342,-0.0947818 0.225144,-0.150293 0.386361,-0.162103 0.059497,-0.00428142 0.124161,-0.00221453 0.192664,0.00575777 -0.212299,-0.074851 -0.390938,-0.105559 -0.531634,-0.0953723 -0.0987679,0.00723412 -0.172143,0.0348419 -0.217762,0.0804612l0 0.00103345c-0.0462098,0.0462098 -0.0739652,0.119732 -0.0809041,0.21791 -0.0100392,0.141877 0.0214071,0.320959 0.097144,0.533996zm2.32835 -0.401125c0.248322,0.194878 0.490739,0.410426 0.720017,0.639408 0.108512,0.108364 0.214514,0.219386 0.316382,0.333065 0.462984,0.49945 0.864847,1.0395 1.0829,1.52965 0.0965534,0.217319 0.161218,0.417955 0.196207,0.598513l3.73827 -3.75097c0.0146159,-0.015797 0.0318892,-0.0305605 0.0507865,-0.0426666 0.0121061,-0.00767703 0.0231787,-0.0165351 0.0326274,-0.0255409l0 0.000147635 0.00103345 -0.00103345c0.00841521,-0.00811994 0.0175686,-0.0190449 0.0265743,-0.0318892l0.000147635 0.000147635c0.00826757,-0.0118108 0.0178639,-0.0231787 0.028346,-0.0336608 0.040452,-0.0405997 0.0693885,-0.0825281 0.0726365,-0.144387 0.00561014,-0.105854 -0.031151,-0.266186 -0.131986,-0.523219l-0.00930102 -0.0236216c-0.012549,-0.0355801 -0.0253933,-0.0692409 -0.0379422,-0.100687 -0.0155017,-0.0383851 -0.0307081,-0.0744081 -0.0447335,-0.106002 -0.241679,-0.543297 -0.677203,-1.13561 -1.1926,-1.66311 -0.519085,-0.531487 -1.11553,-0.992847 -1.67271,-1.26804l0.000147635 -0.000147635 -0.00930102 -0.0050196 -0.0535916 -0.0281983 -0.00103345 -0.000442906 -0.00620068 -0.0029527 -0.00989156 -0.0050196c-0.0183068,-0.00915338 -0.0388281,-0.0190449 -0.062302,-0.0293794 -0.414412,-0.183658 -0.647676,-0.243746 -0.787191,-0.228835 -0.0766227,0.00811994 -0.129771,0.0661406 -0.18602,0.142025 -0.00974392,0.0153541 -0.0212595,0.029527 -0.0345466,0.0429618l-3.74078 3.75362c0.15236,0.0451764 0.338085,0.115746 0.569577,0.218205 0.309739,0.137301 0.71795,0.409097 1.14299,0.755892l0.00147635 0.00118108zm2.12373 4.02852c-0.012549,0.0146159 -0.0258362,0.0290841 -0.0394186,0.0426666l-0.000442906 -0.000590541c-0.13671,0.136563 -0.321697,0.216138 -0.548908,0.232673 -0.185282,0.0134348 -0.402454,-0.0162399 -0.647676,-0.0930102l1.62177 1.62103c0.224258,-0.303686 0.469332,-0.611948 0.735666,-0.923901 0.340742,-0.399353 0.72046,-0.809631 1.14137,-1.23039l0.00103345 -0.00103345c0.409688,-0.410131 0.780695,-0.808893 1.11538,-1.19629 0.283312,-0.327898 0.539459,-0.645904 0.771246,-0.955052l-0.813175 -0.84403 -3.33168 3.3429 -0.00516723 0.0050196zm-1.15731 -0.339709c0.212742,0.0751463 0.390938,0.105854 0.53193,0.0956676 0.0987679,-0.00723412 0.172143,-0.0348419 0.217762,-0.0804612l0 -0.00103345c0.0462098,-0.0462098 0.0739652,-0.119732 0.0809041,-0.21791 0.0100392,-0.141435 -0.0203737,-0.320221 -0.0956676,-0.53252 0.00811994,0.0692409 0.00959629,0.134496 0.00531487,0.194288 -0.0113679,0.161218 -0.0665835,0.291432 -0.160922,0.385918 -0.0946342,0.0947818 -0.224996,0.150293 -0.386361,0.162103 -0.0597922,0.00428142 -0.124014,0.00206689 -0.192959,-0.00605304zm2.38106 -8.79847c0.0197831,0.0118108 0.0373517,0.0261314 0.0528534,0.042076m-3.56687 5.74493c-0.320368,-0.263381 -0.654614,-0.4807 -0.969225,-0.620068 -0.258952,-0.114713 -0.473023,-0.162694 -0.634388,-0.151031 -0.0995061,0.00723412 -0.176129,0.0377946 -0.227211,0.0888764 -0.0512294,0.051377 -0.0817899,0.128295 -0.0888764,0.227949 -0.0115155,0.161661 0.0364659,0.375436 0.151474,0.63365 0.140401,0.315792 0.360525,0.650628 0.626121,0.97203 -0.175391,-0.224996 -0.321549,-0.456783 -0.420022,-0.678236 -0.101573,-0.228244 -0.143501,-0.424304 -0.132429,-0.579616 0.00900575,-0.12859 0.0535916,-0.232968 0.129771,-0.309296 0.0763274,-0.0766227 0.181001,-0.121208 0.309591,-0.130657 0.155755,-0.0112203 0.351667,0.0301176 0.579468,0.1311 0.220272,0.0975869 0.451468,0.241531 0.675726,0.415298zm-0.287593 2.00223c0.318301,0.260871 0.649152,0.477009 0.9614,0.615343 0.258952,0.114713 0.473023,0.162694 0.634388,0.151031 0.0993585,-0.00723412 0.176129,-0.0377946 0.227211,-0.0888764 0.0512294,-0.051377 0.0817899,-0.128295 0.0888764,-0.227949 0.0115155,-0.161661 -0.0364659,-0.375436 -0.151474,-0.63365 -0.139811,-0.314315 -0.35772,-0.648266 -0.621839,-0.968339 0.173914,0.223815 0.317859,0.454569 0.415741,0.674545 0.101573,0.228244 0.143501,0.424304 0.132429,0.579616 -0.00930102,0.128443 -0.0535916,0.232821 -0.129771,0.309296l0 0.000590541c-0.0760321,0.0760321 -0.180705,0.120618 -0.309739,0.130067 -0.155755,0.0112203 -0.351519,-0.0301176 -0.57932,-0.1311 -0.21791,-0.0965534 -0.445858,-0.239169 -0.667902,-0.410573zm0.246698 -1.71537c-0.24286,-0.201522 -0.49694,-0.367907 -0.735518,-0.473614 -0.189564,-0.0840044 -0.345171,-0.119142 -0.461065,-0.110726 -0.0667311,0.00487196 -0.117813,0.0246551 -0.15044,0.0574301 -0.0330703,0.0332179 -0.053001,0.0844473 -0.0577254,0.151326 -0.00826757,0.116189 0.0268696,0.271501 0.110874,0.460327 0.106593,0.239612 0.27534,0.494135 0.478781,0.737881 -0.113236,-0.147635 -0.208018,-0.298961 -0.272535,-0.444234 -0.0705696,-0.158855 -0.0996537,-0.296304 -0.0918291,-0.406292 0.00679122,-0.0961105 0.0408949,-0.174652 0.0984727,-0.232525l0 -0.000590541c0.0577254,-0.0577254 0.136563,-0.0916814 0.232968,-0.0986203 0.110283,-0.0079723 0.247879,0.0206689 0.405849,0.090648 0.14424,0.063926 0.29527,0.156936 0.442167,0.268991zm-0.213333 1.42291c0.243008,0.20167 0.496497,0.368793 0.735223,0.474499 0.189564,0.0840044 0.345023,0.119142 0.460917,0.110726 0.0664358,-0.00487196 0.11737,-0.0248027 0.150588,-0.0580206l0.00029527 0.00029527c0.0329226,-0.0332179 0.0527058,-0.0844473 0.0574301,-0.151031 0.00826757,-0.116189 -0.0268696,-0.271501 -0.110874,-0.460327 -0.10674,-0.239907 -0.275192,-0.495611 -0.479076,-0.7398 0.113679,0.14793 0.208018,0.300585 0.272682,0.446154 0.0705696,0.158708 0.0998014,0.296156 0.0919767,0.406292 -0.00693885,0.0964058 -0.0405997,0.175095 -0.0984727,0.232968l-0.00029527 -0.00029527c-0.0581683,0.0583159 -0.13671,0.0921244 -0.232673,0.0990632 -0.110431,0.0079723 -0.248027,-0.0206689 -0.405997,-0.090648 -0.14424,-0.063926 -0.29468,-0.157527 -0.441724,-0.269877zm0.174357 -1.13428c-0.165942,-0.140549 -0.340742,-0.256885 -0.503879,-0.329079 -0.11988,-0.053001 -0.216876,-0.0754416 -0.287446,-0.0702743 -0.0338085,0.00236216 -0.0589064,0.0116632 -0.0738176,0.0265743l-0.00029527 -0.00029527c-0.0146159,0.0149112 -0.0237693,0.0398615 -0.0261314,0.07367l0 0.000590541c-0.0050196,0.0708649 0.0172733,0.167861 0.0702743,0.287003 0.0724889,0.163137 0.189859,0.337051 0.331146,0.503141 -0.0510818,-0.0696838 -0.0944865,-0.140696 -0.125047,-0.209347 -0.0397139,-0.089024 -0.0556585,-0.168156 -0.051377,-0.232378l0 -0.000590541c0.00457669,-0.0636308 0.0276078,-0.116632 0.0673216,-0.156346 0.0395662,-0.0395662 0.0921244,-0.0625973 0.155903,-0.0673216l0.000442906 0c0.0645166,-0.00457669 0.142911,0.0115155 0.23223,0.0507865l0.00029527 -0.000442906c0.0686504,0.0304128 0.140401,0.0730794 0.21038,0.124309zm-0.133019 0.847574c0.165499,0.140106 0.338527,0.255999 0.501074,0.328045 0.11988,0.053001 0.216876,0.0754416 0.287593,0.0702743 0.0341037,-0.00236216 0.0592017,-0.0115155 0.0738176,-0.0261314l0 -0.000590541c0.0147635,-0.0147635 0.0240645,-0.0398615 0.0264267,-0.0738176 0.0050196,-0.0708649 -0.017421,-0.167861 -0.070422,-0.287003 -0.0729318,-0.16417 -0.190449,-0.340151 -0.333065,-0.507127 0.0524105,0.0708649 0.0959629,0.143501 0.126966,0.213333 0.0397139,0.0891717 0.0559537,0.168304 0.051377,0.232968 -0.00457669,0.0636308 -0.0274601,0.116484 -0.0673216,0.156346 -0.0394186,0.0394186 -0.0919767,0.0625973 -0.155903,0.0673216 -0.0645166,0.00472433 -0.143501,-0.0113679 -0.232821,-0.0507865l-0.000147635 0.000442906c-0.0679122,-0.0301176 -0.138334,-0.0726365 -0.207575,-0.123275zm0.147488 -0.506389c-0.103049,-0.102902 -0.219976,-0.190302 -0.325536,-0.236954l0 -0.000590541c-0.045324,-0.0199307 -0.0814946,-0.0293794 -0.107036,-0.0293794 0.00029527,0.0255409 0.0101868,0.0612686 0.0302652,0.10615 0.0468004,0.105264 0.134348,0.221896 0.237545,0.324945 0.103049,0.102902 0.219976,0.190302 0.325536,0.236954l0 0.000590541c0.0451764,0.0199307 0.0809041,0.0298223 0.106593,0.0298223 -0.000147635,-0.0253933 -0.00974392,-0.0612686 -0.0298223,-0.106593 -0.0468004,-0.105264 -0.134348,-0.221896 -0.237545,-0.324945z"/>
</svg>
