<?xml version="1.0" encoding="UTF-8"?>
<!DOCTYPE svg PUBLIC "-//W3C//DTD SVG 1.1//EN" "http://www.w3.org/Graphics/SVG/1.1/DTD/svg11.dtd">
<svg xmlns="http://www.w3.org/2000/svg" xml:space="preserve" style="shape-rendering:geometricPrecision; text-rendering:geometricPrecision; image-rendering:optimizeQuality; fill-rule:evenodd; clip-rule:evenodd"
viewBox="0 0 50.986 50.986" xmlns:xlink="http://www.w3.org/1999/xlink">
  <path d="M37.2494 24.809l3.09941 3.2175 0.479873 0.498221 -0.408833 0.561263c-0.88259,1.21238 -1.86492,2.45017 -2.95404,3.71102 -1.09524,1.26743 -2.30433,2.56779 -3.63574,3.90014l-0.00329325 0.00329325c-1.30836,1.30695 -2.48875,2.58332 -3.55012,3.82722 -1.0529,1.23356 -1.99194,2.43935 -2.82325,3.61504l-0.567379 0.803082 -0.693463 -0.692993 -11.3636 -11.3593 0.00141139 -0.00141139c-0.150548,-0.143491 -0.300626,-0.287453 -0.447881,-0.434238 -1.87292,-1.87009 -3.4772,-4.02764 -4.36731,-6.02805 -0.550913,-1.23873 -0.778147,-2.30574 -0.717928,-3.15681 0.051751,-0.726396 0.30392,-1.3173 0.737687,-1.75107l0.00188185 0.00188185c0.0766856,-0.0766856 0.159487,-0.146314 0.245582,-0.211709l0.0310506 -0.0348143 -0.000940927 -0.000940927 13.6275 -13.6745c0.421065,-0.565968 0.848717,-1.00021 1.72613,-1.0943 0.728748,-0.078097 1.73836,0.144432 3.35158,0.859067l0.0498692 0.0244641 0.000470464 0 0.00658649 0.00376371c0.0790379,0.0362257 0.15196,0.0705696 0.218766,0.103972l0.241348 0.127025 0 -0.000470464c1.94396,0.960216 4.00553,2.54991 5.78482,4.37202 1.76753,1.80893 3.27255,3.8658 4.12408,5.77965 0.0653945,0.147255 0.12185,0.279455 0.168896,0.39613 0.0550443,0.137846 0.104913,0.267694 0.146314,0.384839l0.00705696 0.019289c0.417772,1.06466 0.564086,1.79764 0.534447,2.35938 -0.0366962,0.686407 -0.29451,1.11076 -0.661002,1.49231 -0.0757447,0.100209 -0.160428,0.197124 -0.255932,0.288394 -0.0870358,0.084213 -0.181129,0.16278 -0.280867,0.232409l-1.85316 1.85927zm-18.0484 -1.58734l4.93611 4.93611 2.61954 -2.61954c0.300156,-0.302979 0.541974,-0.607839 0.72028,-0.915522 0.178776,-0.309565 0.294981,-0.611132 0.347673,-0.905643 0.0526919,-0.294981 0.0414008,-0.573966 -0.0376371,-0.837896 -0.077156,-0.26346 -0.220177,-0.500103 -0.431415,-0.714164 -0.208886,-0.206063 -0.440354,-0.355671 -0.691582,-0.446941 -0.252169,-0.090329 -0.509042,-0.122321 -0.772031,-0.09127 -0.262989,0.0282278 -0.51751,0.118086 -0.761681,0.271458 0.117145,-0.22347 0.185363,-0.448822 0.206534,-0.676527 0.0197595,-0.226293 -0.00564556,-0.444588 -0.0790379,-0.653474 -0.0738628,-0.207945 -0.191008,-0.393308 -0.353318,-0.55797 -0.189597,-0.187245 -0.406951,-0.313329 -0.650651,-0.374019 -0.244171,-0.0611603 -0.50763,-0.0611603 -0.788027,0.00141139 -0.280396,0.0621012 -0.569261,0.183951 -0.867065,0.364609 -0.299215,0.182069 -0.599841,0.421535 -0.897645,0.719339l-2.50004 2.50004zm2.82372 -0.429533l0.78144 -0.78144c0.115264,-0.112911 0.236173,-0.17266 0.363668,-0.178306 0.127966,-0.00611603 0.246523,0.0442236 0.35473,0.150078 0.109148,0.111029 0.16184,0.232409 0.159487,0.363668 -0.00329325,0.130318 -0.0606898,0.253109 -0.173601,0.368373l-0.78144 0.78144 -0.704284 -0.703814zm1.7887 1.7887l0.78144 -0.78144c0.155253,-0.153371 0.308624,-0.240877 0.461525,-0.266753 0.153371,-0.0244641 0.286512,0.0164662 0.397542,0.125614 0.119968,0.12185 0.170308,0.26393 0.151489,0.423888 -0.0197595,0.158076 -0.104443,0.315211 -0.256873,0.470464l-0.78144 0.78144 -0.753683 -0.753212zm6.76103 -2.86042l-4.93611 -4.93611 -1.63345 1.63345 4.93611 4.93658 1.63345 -1.63392zm-2.11097 -7.85957c-0.393778,0.39566 -0.692523,0.819077 -0.899056,1.27213 -0.206534,0.453057 -0.319445,0.91317 -0.338263,1.38034 -0.0174072,0.465759 0.058808,0.919757 0.23288,1.3587 0.171249,0.438943 0.442236,0.843541 0.807316,1.21333 0.372137,0.367432 0.778147,0.639831 1.22038,0.814843 0.442236,0.177365 0.899056,0.255932 1.36811,0.241818 0.470934,-0.0150548 0.9334,-0.125614 1.38881,-0.330266 0.453997,-0.205122 0.878826,-0.502926 1.2759,-0.895292 0.391896,-0.39613 0.690641,-0.822371 0.895292,-1.27778 0.20277,-0.453997 0.311917,-0.917875 0.326972,-1.38834 0.0155253,-0.470934 -0.0653945,-0.927284 -0.241348,-1.36858 -0.175012,-0.442706 -0.446,-0.849657 -0.812491,-1.21803 -0.366962,-0.36508 -0.77062,-0.632774 -1.21097,-0.805434 -0.437531,-0.17219 -0.890588,-0.249816 -1.35917,-0.231939 -0.46717,0.0183481 -0.928225,0.130318 -1.37987,0.335441 -0.453057,0.206534 -0.879297,0.505748 -1.27449,0.899056zm1.37987 1.338c0.14208,-0.14208 0.302979,-0.244171 0.483637,-0.310036 0.178306,-0.0658649 0.36508,-0.0931518 0.561734,-0.0809198 0.196654,0.0108207 0.390955,0.0621012 0.584786,0.150078 0.193361,0.090329 0.374489,0.219707 0.545738,0.388603 0.168896,0.171249 0.299215,0.353318 0.390955,0.54809 0.0893881,0.194772 0.14208,0.390955 0.154783,0.589021 0.013173,0.198536 -0.0117616,0.387192 -0.0762151,0.566909 -0.0644535,0.182069 -0.166544,0.342968 -0.307683,0.485989 -0.143021,0.140669 -0.306272,0.245112 -0.491635,0.313329 -0.184422,0.0691582 -0.378723,0.0997383 -0.581964,0.09127 -0.20277,-0.00799788 -0.404599,-0.0545738 -0.603134,-0.140669 -0.199947,-0.0865653 -0.383898,-0.215002 -0.555147,-0.383428 -0.168896,-0.171719 -0.295922,-0.35473 -0.382957,-0.551854 -0.084213,-0.197595 -0.131259,-0.396601 -0.136905,-0.597489 -0.00705696,-0.201829 0.0244641,-0.393308 0.0950337,-0.576318 0.0691582,-0.184422 0.175953,-0.349555 0.318974,-0.492575zm-18.5833 9.89244c-0.0272869,-0.22347 -0.0352848,-0.430945 -0.0216413,-0.623835 0.0362257,-0.513746 0.212179,-0.928695 0.512805,-1.22979 0.301567,-0.302038 0.716987,-0.478932 1.2312,-0.516569 0.189597,-0.0136434 0.39566,-0.00705696 0.613955,0.0183481 -0.676527,-0.238525 -1.24579,-0.336382 -1.69414,-0.30392 -0.31474,0.0230527 -0.548561,0.111029 -0.693934,0.256403l0 0.00329325c-0.147255,0.147255 -0.235702,0.381546 -0.257814,0.694404 -0.0319915,0.452116 0.0682172,1.02279 0.309565,1.70167zm7.41968 -1.27825c0.79132,0.621012 1.56382,1.30789 2.29445,2.03758 0.345791,0.34532 0.683584,0.699109 1.0082,1.06137 1.47537,1.59158 2.75598,3.31253 3.45085,4.87447 0.307683,0.691582 0.515158,1.33 0.627128,1.90538l11.9333 -11.9738 0.000470464 0.000470464c0.0418713,-0.0414008 0.0875062,-0.0809198 0.138787,-0.113852 0.0390485,-0.0249346 0.0738628,-0.0526919 0.103972,-0.0813902l0.000470464 0.000470464 0.00282278 -0.00329325c0.0268164,-0.0258755 0.0559852,-0.0611603 0.0846835,-0.10162l0.00188185 0.00141139c0.026346,-0.0381076 0.0555147,-0.0743333 0.0889176,-0.108207 0.128907,-0.129378 0.221118,-0.262989 0.231468,-0.460114 0.0178776,-0.337793 -0.0978564,-0.849187 -0.420124,-1.66921l-0.0301097 -0.0733923c-0.0399894,-0.113382 -0.0809198,-0.220647 -0.120909,-0.320856 -0.0493987,-0.122321 -0.0978564,-0.237114 -0.142551,-0.337793 -0.770149,-1.73131 -2.15802,-3.61881 -3.80041,-5.29977 -1.65415,-1.69367 -3.55482,-3.16387 -5.33035,-4.04081l0.000470464 -0.000940927 -0.0296392 -0.0155253c-0.0541033,-0.0296392 -0.13173,-0.0696286 -0.225352,-0.116675l-0.150078 -0.0738628 -0.0127025 -0.00470464 -0.000470464 0 -0.0352848 -0.0150548c-1.32153,-0.585257 -2.06345,-0.776736 -2.50851,-0.729219 -0.246523,0.026346 -0.414949,0.214531 -0.596548,0.460114 -0.0301097,0.045635 -0.0663354,0.0889176 -0.106325,0.129378l-11.9206 11.9615c0.485519,0.143962 1.07642,0.368373 1.81505,0.695345 0.987033,0.437531 2.28786,1.30365 3.64233,2.40877l0.00470464 0.00376371zm6.76762 12.8375c-0.0399894,0.0465759 -0.0823311,0.0926813 -0.125614,0.135964l-0.00141139 -0.00141139c-0.435649,0.435179 -1.02561,0.688288 -1.74918,0.74098 -0.590432,0.0428122 -1.28248,-0.051751 -2.06392,-0.296392l5.16757 5.16569c0.708518,-0.958335 1.48808,-1.94066 2.34479,-2.94416 1.08536,-1.27213 2.29492,-2.57955 3.63715,-3.92084l0.00141139 -0.00141139 0.00188185 -0.00188185c1.30554,-1.30648 2.48781,-2.57767 3.55435,-3.81217 0.902349,-1.04396 1.72049,-2.05734 2.45911,-3.04202l-2.59273 -2.69105 -10.617 10.6527 -0.0164662 0.0159958zm-3.68796 -1.08254c0.677938,0.239466 1.24579,0.337322 1.69508,0.30486 0.31474,-0.0230527 0.548561,-0.111029 0.693934,-0.256403l0 -0.00329325c0.147255,-0.147255 0.235702,-0.381546 0.257814,-0.694404 0.0319915,-0.450704 -0.064924,-1.02044 -0.30486,-1.69696 0.0258755,0.220647 0.0305801,0.428592 0.0169367,0.61913 -0.0362257,0.513746 -0.212179,0.928695 -0.512805,1.22979 -0.301567,0.302038 -0.717457,0.478932 -1.2312,0.516569 -0.190538,0.0136434 -0.39519,0.00658649 -0.614896,-0.019289zm-3.61034 -9.59652c-1.02091,-0.839307 -2.08604,-1.53183 -3.08859,-1.97595 -0.825193,-0.36555 -1.50737,-0.518451 -2.02158,-0.481284 -0.316622,0.0230527 -0.561263,0.120439 -0.724044,0.283219 -0.163251,0.163721 -0.260637,0.408833 -0.283219,0.726396 -0.0366962,0.515158 0.116205,1.19639 0.482696,2.01923 0.447411,1.00632 1.14887,2.07333 1.99524,3.09753 -0.558911,-0.716987 -1.02467,-1.45561 -1.33847,-2.16131 -0.323679,-0.727337 -0.457291,-1.35211 -0.422006,-1.84704 0.0286983,-0.409774 0.170778,-0.742392 0.413538,-0.985621 0.24323,-0.244171 0.576318,-0.386251 0.986562,-0.41636 0.496339,-0.0357552 1.12064,0.0959746 1.84657,0.417772 0.701932,0.310977 1.43868,0.769679 2.15331,1.32341zm-0.916463 6.38043c1.01432,0.831309 2.06863,1.52007 3.06366,1.96089 0.825193,0.36555 1.50737,0.518451 2.02158,0.481284 0.317093,-0.0230527 0.561263,-0.120439 0.724044,-0.283219 0.163251,-0.163721 0.260637,-0.408833 0.283219,-0.726396 0.0366962,-0.515158 -0.116205,-1.19639 -0.482696,-2.01923 -0.445529,-1.00162 -1.13993,-2.06581 -1.98159,-3.08577 0.554206,0.713223 1.01291,1.44856 1.32483,2.14955 0.323679,0.727337 0.457291,1.35211 0.422006,1.84704 -0.0296392,0.409303 -0.170778,0.741921 -0.413538,0.985621l0 0.00188185c-0.242289,0.242289 -0.575848,0.384369 -0.987033,0.414479 -0.496339,0.0357552 -1.12017,-0.0959746 -1.8461,-0.417772 -0.694404,-0.307683 -1.4208,-0.762151 -2.12838,-1.30836zm0.786145 -5.46632c-0.773913,-0.642183 -1.58358,-1.1724 -2.34385,-1.50925 -0.604075,-0.267694 -1.09994,-0.379664 -1.46926,-0.352848 -0.21265,0.0155253 -0.37543,0.0785674 -0.479403,0.18301 -0.105384,0.105854 -0.168896,0.269105 -0.183951,0.482225 -0.026346,0.370255 0.0856244,0.865183 0.353318,1.46691 0.339675,0.763563 0.877415,1.57464 1.52571,2.35138 -0.360846,-0.470464 -0.662883,-0.952689 -0.868476,-1.41563 -0.224411,-0.505278 -0.317093,-0.942809 -0.292628,-1.29283l0 -0.00188185c0.0216413,-0.306272 0.130318,-0.556559 0.313799,-0.74098l0 -0.00188185c0.183951,-0.183951 0.434708,-0.292158 0.742392,-0.31427 0.351436,-0.025405 0.789909,0.0658649 1.2933,0.288865 0.459643,0.203711 0.940927,0.500103 1.40904,0.857185zm-0.67982 4.53433c0.774383,0.642653 1.58217,1.17522 2.34291,1.51207 0.604075,0.267694 1.09947,0.379664 1.46879,0.352848 0.211709,-0.0155253 0.374489,-0.0795084 0.479873,-0.184892l0.000940927 0.000940927c0.104913,-0.105854 0.167956,-0.268635 0.18301,-0.481284 0.026346,-0.370255 -0.0856244,-0.865183 -0.353318,-1.46691 -0.340145,-0.764504 -0.876944,-1.57935 -1.52665,-2.35749 0.362257,0.471405 0.662883,0.957864 0.868946,1.42174 0.224882,0.505748 0.318033,0.94375 0.293099,1.29472 -0.0221118,0.307213 -0.129378,0.55797 -0.313799,0.742392l-0.000940927 -0.000940927c-0.185363,0.185833 -0.435649,0.293569 -0.741451,0.315681 -0.351907,0.025405 -0.790379,-0.0658649 -1.29378,-0.288865 -0.459643,-0.203711 -0.939046,-0.501985 -1.40763,-0.860008zm0.555618 -3.61457c-0.528801,-0.447881 -1.08583,-0.818607 -1.60569,-1.04866 -0.382017,-0.168896 -0.691111,-0.240407 -0.915993,-0.223941 -0.107736,0.00752742 -0.187715,0.0371666 -0.235232,0.0846835l-0.000940927 -0.000940927c-0.0465759,0.0475168 -0.0757447,0.127025 -0.0832721,0.234761l0 0.00188185c-0.0159958,0.225823 0.0550443,0.534917 0.223941,0.914581 0.230998,0.519862 0.605016,1.07407 1.05525,1.60334 -0.16278,-0.222059 -0.301097,-0.448352 -0.398483,-0.667118 -0.126555,-0.28416 -0.177365,-0.535858 -0.163721,-0.74051l0 -0.00188185c0.0145844,-0.20277 0.0875062,-0.371196 0.214531,-0.498221 0.125614,-0.125614 0.293099,-0.199477 0.49681,-0.214531l0.00141139 0c0.205122,-0.0150548 0.45635,0.0366962 0.74051,0.16184l0.000470464 -0.00141139c0.218766,0.0969155 0.447411,0.23288 0.670411,0.39613zm-0.423888 2.70093c0.52739,0.44647 1.07877,0.815784 1.59675,1.04537 0.382017,0.168896 0.691582,0.240407 0.916463,0.223941 0.108677,-0.00752742 0.188656,-0.0366962 0.235232,-0.0832721l0 -0.00188185c0.0475168,-0.0475168 0.0766856,-0.127025 0.084213,-0.235232 0.0159958,-0.225823 -0.0555147,-0.534917 -0.224411,-0.914581 -0.232409,-0.523156 -0.606898,-1.08395 -1.06137,-1.61604 0.167015,0.225352 0.305801,0.457291 0.404599,0.67982 0.126555,0.28416 0.178306,0.536329 0.163721,0.742392 -0.0145844,0.20277 -0.0875062,0.371196 -0.214531,0.498221 -0.125614,0.125614 -0.293569,0.199477 -0.49681,0.214531 -0.205593,0.0150548 -0.45682,-0.0362257 -0.741921,-0.16184l-0.000470464 0.00141139c-0.216413,-0.0959746 -0.440824,-0.231468 -0.661472,-0.392837zm0.469993 -1.61369c-0.328384,-0.327913 -0.700991,-0.606428 -1.03737,-0.755094l0 -0.00188185c-0.143962,-0.0635126 -0.257814,-0.0936223 -0.339675,-0.0936223 0.000940927,0.0818607 0.0315211,0.194772 0.0950337,0.338263 0.149137,0.335441 0.428122,0.707107 0.756976,1.03549 0.328384,0.327913 0.700991,0.606428 1.03737,0.755094l0 0.00188185c0.144432,0.0635126 0.259696,0.0950337 0.341086,0.0950337 -0.000470464,-0.0809198 -0.032462,-0.195242 -0.0964451,-0.339675 -0.149137,-0.335441 -0.428122,-0.707107 -0.756976,-1.03549zm-1.3921 -0.865653c-0.00329325,0.00329325 -0.00188185,0.00282278 0.000940927,0.000940927 0.00188185,-0.00282278 0.00235232,-0.00423417 -0.000940927,-0.000940927z"/>
</svg>
