<?xml version="1.0" encoding="UTF-8"?>
<!DOCTYPE svg PUBLIC "-//W3C//DTD SVG 1.1//EN" "http://www.w3.org/Graphics/SVG/1.1/DTD/svg11.dtd">
<svg xmlns="http://www.w3.org/2000/svg" xml:space="preserve" style="shape-rendering:geometricPrecision; text-rendering:geometricPrecision; image-rendering:optimizeQuality; fill-rule:evenodd; clip-rule:evenodd"
viewBox="0 0 12.8001 12.8001" xmlns:xlink="http://www.w3.org/1999/xlink">
  <path d="M9.35151 6.22831l0.778111 0.807757 0.120473 0.125079 -0.102638 0.140906c-0.221575,0.30437 -0.46819,0.615119 -0.741615,0.931655 -0.274961,0.318189 -0.578505,0.644646 -0.912757,0.979135l-0.000826773 0.000826773c-0.328465,0.328111 -0.624804,0.648544 -0.891261,0.960828 -0.264331,0.309685 -0.500079,0.612402 -0.70878,0.90756l-0.142441 0.201614 -0.174095 -0.173977 -2.85284 -2.85178 0.000354331 -0.000354331c-0.0377953,-0.0360237 -0.0754725,-0.0721654 -0.112441,-0.109016 -0.470197,-0.469489 -0.872954,-1.01114 -1.09642,-1.51335 -0.138307,-0.310985 -0.195355,-0.578859 -0.180236,-0.792521 0.0129921,-0.182362 0.0762993,-0.330709 0.185197,-0.439607l0.000472442 0.000472442c0.019252,-0.019252 0.0400394,-0.0367323 0.0616536,-0.0531497l0.00779529 -0.00874017 -0.000236221 -0.000236221 3.42119 -3.433c0.105709,-0.142087 0.213071,-0.251103 0.433347,-0.274725 0.182953,-0.0196063 0.436418,0.0362599 0.841418,0.21567l0.0125197 0.00614174 0.00011811 0 0.00165355 0.000944883c0.0198425,0.0090945 0.0381497,0.0177166 0.0549213,0.0261024l0.0605906 0.0318898 0 -0.00011811c0.488032,0.241063 1.00559,0.640158 1.45229,1.0976 0.443741,0.454134 0.821576,0.970513 1.03536,1.45099 0.0164173,0.0369685 0.0305906,0.0701576 0.0424016,0.0994489 0.0138189,0.0346063 0.0263386,0.0672048 0.0367323,0.0966143l0.00177166 0.00484253c0.104882,0.267284 0.141614,0.4513 0.134173,0.592324 -0.00921261,0.172323 -0.0739371,0.278859 -0.165945,0.374646 -0.0190158,0.0251575 -0.0402756,0.0494882 -0.064252,0.0724017 -0.0218504,0.0211418 -0.0454725,0.0408662 -0.0705119,0.0583465l-0.465237 0.466772zm-3.85973 -2.51174l-0.00507875 0.0106299 -0.00708662 0.0121654 -0.00507875 0.00956694 -0.00744095 0.0134646 -0.00519686 0.0101575 -0.00283465 0.00767717 -0.00425197 0.0100394 -0.00543308 0.00956694 -0.00283465 0.00779529 -0.00200788 0.00744095 -0.00248032 0.0079134 -0.00259843 0.00720473 -0.0022441 0.0079134 -0.00248032 0.00767717 -0.00507875 0.00980316 0 0.0046063 -0.00318898 0.00744095 -0.00259843 0.00814962 0 0.00437008 0.000354331 0.00496064 -0.00236221 0.00755906 0 0.00555119 -0.00283465 0.00696851 0.000354331 0.00507875 -0.0022441 0.00779529 0 0.00484253 -0.00295276 0.0079134 0 0.00484253 0.000236221 0.0046063 0.00188977 0.00779529 0.000826773 0.00543308 0 0.00448819 0 0.00555119 -0.000826773 0.00448819 0.000826773 0.00555119 -0.000472442 0.0046063 0.000472442 0.00472442 -0.000472442 0.0056693 -0.000354331 0.00496064 0.00248032 0.00696851 0.000590552 0.00555119 0 0.00484253 0.0022441 0.00732284 0 0.00555119 0 0.00484253 0.0022441 0.00732284 0 0.0056693 0 0.00413386 0.000708662 0.00543308 0.00307087 0.00732284 -0.0011811 0.00519686 0.000354331 0.00578741 -0.000354331 0.00413386 0 0.00507875 0.00318898 0.0079134 0.000236221 0.00472442 -0.000472442 0.00507875 0.000236221 0.00519686 0 0.00484253 0.000236221 0.00472442 -0.000472442 0.0056693 0.000236221 0.00496064 0.00200788 0.00708662 0 0.00484253 0 0.0056693 0.00307087 0.00720473 -0.000472442 0.00484253 0.00248032 0.00779529 0.000472442 0.00472442 0.00507875 0.0102756 -0.000236221 0.00496064 0.00236221 0.00744095 0.00212599 0.00744095 0.00283465 0.00779529 0 0.00519686 0.00283465 0.00708662 0.00259843 0.00779529 -0.000590552 0.00531497 0.00307087 0.00696851 0.00200788 0.00826773 0 0.00484253 0.00259843 0.00696851 0.00248032 0.00803151 0.00236221 0.00720473 0.000354331 0.00555119 0.00236221 0.00732284 0.00271654 0.00744095 0 0.00507875 0.00496064 0.0100394 0 0.00531497 0.00283465 0.00720473 0 0.00507875 0.0022441 0.00803151 0.00212599 0.00649607 0.000944883 0.00507875 0.00200788 0.0079134 0.00248032 0.00767717 0.00259843 0.00744095 0.00200788 0.00696851 0.000236221 0.00543308 0.00248032 0.00732284 0.00248032 0.00755906 0.00248032 0.00720473 0.000354331 0.00614174 0.00248032 0.00744095 0.00200788 0.00732284 0.00248032 0.00767717 0 0.00496064 0.00295276 0.00696851 0.00259843 0.00744095 0 0.00555119 0.00283465 0.00708662 0.0022441 0.00779529 0.00200788 0.00767717 0.000708662 0.00507875 0.00283465 0.00744095 0.00177166 0.00720473 0.000590552 0.00531497 0.0046063 0.00968505 0 0.00555119 0.0022441 0.00732284 0.00248032 0.00744095 0.000236221 0.00507875 0.00248032 0.00755906 0.00259843 0.00696851 0 0.00543308 0.00259843 0.00767717 0.00259843 0.00744095 0.00200788 0.00779529 0 0.00496064 0.00307087 0.00720473 0.00188977 0.00744095 0.00295276 0.0079134 0 0.00484253 0.00248032 0.00755906 0.00259843 0.00803151 0 0.00472442 0.00248032 0.0079134 0.00248032 0.00673229 0.0022441 0.00755906 0 0.00555119 0.00519686 0.00956694 0.000236221 0.00531497 0.0022441 0.00755906 0.00283465 0.00755906 0 0.00484253 0.0022441 0.00744095 0.00236221 0.00767717 0.00295276 0.00708662 0 0.00578741 0.00295276 0.00696851 0.00188977 0.00732284 0 0.00590552 0.00236221 0.00696851 0.00271654 0.0079134 0 0.0046063 0.00283465 0.0079134 -0.000590552 0.00507875 0.00295276 0.00767717 0.00259843 0.00720473 0 0.00472442 0.00188977 0.00755906 0.00259843 0.00803151 0.0034252 0.00755906 0.00188977 0.00720473 -0.000236221 0.0046063 0.00248032 0.00767717 0.00307087 0.00767717 0.00236221 0.00767717 0 0.00519686 0.00295276 0.00744095 0.00212599 0.00779529 0 0.0046063 0.00188977 0.00779529 0.00377953 0.00720473 0.00200788 0.0079134 0 0.00472442 0.00200788 0.0079134 0.00307087 0.00673229 -0.000236221 0.00555119 0.00248032 0.00708662 0.00283465 0.00826773 0 0.00484253 0.00259843 0.00755906 0.00236221 0.00661418 0.00200788 0.00862206 0.000236221 0.00496064 0.00472442 0.0100394 0.000472442 0.00496064 0.00212599 0.00779529 0 0.0046063 0.00236221 0.00755906 0.00318898 0.00779529 0.00248032 0.00708662 0.00248032 0.00779529 0 0.00531497 0.00200788 0.00708662 0.00259843 0.00755906 0.00236221 0.00744095 0.000354331 0.00531497 0.00271654 0.00767717 0.00236221 0.00732284 0.00259843 0.00732284 0 0.00507875 0.00236221 0.0079134 0 0.00472442 0.00271654 0.00755906 0.00259843 0.00696851 0.00177166 0.0079134 0.000472442 0.00507875 0.00283465 0.00755906 0.00212599 0.00732284 0.00283465 0.00803151 -0.000236221 0.00507875 0.00295276 0.00732284 0.00200788 0.00720473 0 0.0046063 0.00484253 0.0108662 0 0.00496064 0 0.00519686 0.00295276 0.00732284 0.00283465 0.0079134 -0.000826773 0.00413386 0.00283465 0.00814962 0.00519686 0.0100394 0.00200788 0.00744095 0.000708662 0.00531497 0.0022441 0.00744095 0 0.00484253 0.00755906 0.00720473 0.00732284 -0.00259843 0.00720473 -0.0022441 0.00543308 0.000236221 0.00779529 -0.00259843 0.00732284 -0.00236221 0.00484253 0 0.0079134 -0.00295276 0.0079134 -0.0022441 0.00425197 0 0.00826773 -0.00259843 0.00708662 -0.00212599 0.00803151 -0.00283465 0.00496064 0 0.00980316 -0.00507875 0.00507875 0 0.00755906 -0.0022441 0.00661418 -0.00283465 0.00531497 0 0.00767717 -0.00307087 0.00803151 -0.00212599 0.00755906 -0.00200788 0.00496064 0.000354331 0.00744095 -0.00295276 0.00744095 -0.00259843 0.00755906 -0.00236221 0.00484253 0 0.0103937 -0.00519686 0.00507875 0 0.00732284 -0.00212599 0.00696851 -0.00283465 0.00767717 -0.00248032 0.00590552 0 0.00755906 -0.00259843 0.00720473 -0.00212599 0.00732284 -0.00283465 0.00484253 0 0.00779529 -0.00295276 0.00744095 -0.00200788 0.00496064 -0.000236221 0.0100394 -0.00496064 0.00543308 0 0.00744095 -0.00236221 0.00519686 -0.000236221 0.00744095 -0.00259843 0.00484253 0.000354331 0.0079134 -0.00307087 0.00720473 -0.00720473 0 -0.00496064 -0.000236221 -0.00507875 -0.00259843 -0.00720473 -0.0022441 -0.00779529 0 -0.00484253 -0.00271654 -0.00814962 -0.0022441 -0.00720473 -0.00259843 -0.00696851 0 -0.00507875 -0.00307087 -0.0079134 0.000826773 -0.00519686 -0.00318898 -0.00732284 -0.00188977 -0.00744095 -0.00330709 -0.00732284 0.000944883 -0.00531497 -0.00318898 -0.00732284 -0.00271654 -0.00767717 -0.00212599 -0.00779529 -0.000236221 -0.00496064 -0.00200788 -0.00755906 -0.00271654 -0.00708662 0 -0.00531497 -0.00507875 -0.0101575 0 -0.00472442 -0.00212599 -0.00744095 -0.00330709 -0.0079134 0.000472442 -0.00519686 -0.00200788 -0.00720473 -0.00295276 -0.0079134 -0.00318898 -0.00708662 0.000354331 -0.00496064 -0.00236221 -0.00755906 -0.00236221 -0.00767717 -0.00259843 -0.00779529 0 -0.00425197 -0.00236221 -0.00814962 -0.00283465 -0.00755906 -0.0022441 -0.00779529 -0.000708662 -0.00448819 -0.00200788 -0.00767717 -0.00283465 -0.00720473 0 -0.00507875 -0.0022441 -0.00779529 -0.00259843 -0.00732284 -0.0022441 -0.00814962 -0.00283465 -0.00744095 0.000472442 -0.00472442 -0.00259843 -0.00708662 -0.00236221 -0.00814962 -0.00283465 -0.00767717 0 -0.00507875 -0.00271654 -0.00744095 -0.00271654 -0.00720473 0.000236221 -0.00531497 -0.0022441 -0.00767717 -0.00259843 -0.00720473 0 -0.00496064 -0.00271654 -0.00732284 -0.0022441 -0.00767717 -0.000472442 -0.00531497 -0.00236221 -0.00744095 -0.00248032 -0.00720473 -0.00248032 -0.00767717 0.000236221 -0.00484253 -0.00248032 -0.00708662 -0.00248032 -0.00826773 0 -0.0056693 -0.00330709 -0.00696851 -0.00188977 -0.00744095 -0.00236221 -0.00755906 -0.000354331 -0.00519686 -0.00259843 -0.00720473 -0.0022441 -0.00744095 -0.00295276 -0.00755906 0 -0.0056693 -0.00165355 -0.00696851 -0.00283465 -0.00779529 -0.00283465 -0.00708662 -0.00259843 -0.00755906 -0.00212599 -0.00803151 -0.000236221 -0.00472442 -0.00200788 -0.00767717 -0.00295276 -0.00732284 0 -0.00531497 -0.00283465 -0.00720473 -0.00200788 -0.00803151 0 -0.00472442 -0.00295276 -0.00755906 -0.00177166 -0.00744095 -0.00283465 -0.00814962 0 -0.00472442 -0.00283465 -0.00767717 -0.00248032 -0.00708662 0 -0.00519686 -0.00271654 -0.00720473 -0.00165355 -0.00814962 0 -0.00484253 -0.00283465 -0.00744095 -0.00248032 -0.0068504 -0.00271654 -0.00838584 0 -0.00472442 -0.00283465 -0.00803151 -0.00212599 -0.00744095 -0.00011811 -0.00531497 -0.00200788 -0.00696851 -0.00318898 -0.00732284 0 -0.00519686 -0.0022441 -0.00696851 -0.00248032 -0.00826773 -0.000354331 -0.00519686 -0.0022441 -0.00696851 -0.00259843 -0.00779529 -0.00283465 -0.00732284 0.000826773 -0.00555119 -0.00330709 -0.00696851 -0.00236221 -0.00755906 -0.00212599 -0.00779529 0 -0.00543308 -0.00295276 -0.00696851 -0.00212599 -0.00744095 0 -0.00555119 -0.00283465 -0.00708662 -0.00200788 -0.00779529 -0.000236221 -0.00496064 -0.00271654 -0.00744095 -0.00283465 -0.00744095 -0.00248032 -0.00803151 -0.00248032 -0.00732284 -0.00236221 -0.00720473 0.000236221 -0.00543308 -0.0022441 -0.00720473 -0.00330709 -0.00755906 -0.00200788 -0.00755906 0 -0.00519686 -0.00283465 -0.00744095 -0.00188977 -0.00720473 -0.000826773 -0.00484253 -0.00165355 -0.00826773 -0.0022441 -0.00696851 -0.00295276 -0.00755906 -0.000354331 -0.00555119 -0.0022441 -0.00708662 -0.00307087 -0.00720473 0.000472442 -0.00590552 -0.00496064 -0.00968505 -0.000236221 -0.00543308 -0.0022441 -0.00708662 -0.00271654 -0.00779529 -0.00271654 -0.00732284 0.00011811 -0.00519686 -0.00212599 -0.00803151 -0.00259843 -0.00696851 0.000354331 -0.00555119 -0.000354331 -0.00484253 -0.00271654 -0.00720473 -0.00283465 -0.00767717 -0.00200788 -0.00732284 -0.00259843 -0.00720473 -0.0022441 -0.00803151 -0.000472442 -0.00437008 -0.00248032 -0.0079134 -0.00295276 -0.0068504 0 -0.00578741 -0.00248032 -0.00755906 0.000826773 -0.00472442 -0.00318898 -0.00803151 0.000472442 -0.0046063 -0.000236221 -0.00507875 0.000236221 -0.00507875 -0.000236221 -0.00484253 -0.000236221 -0.00484253 0.000236221 -0.00555119 0.000236221 -0.00507875 -0.000472442 -0.00472442 0.00318898 -0.00744095 0.00259843 -0.0079134 0.00200788 -0.00803151 0.00519686 -0.00956694 0.00543308 -0.0105118 0.0248032 -0.0244488 0.0121654 -0.00744095 0.00755906 -0.0022441 0.00744095 -0.00259843 0.00850395 -0.00330709 0.0046063 0.000590552 0.0046063 -0.000590552 0.00720473 -0.00200788 0.0056693 0 0.00484253 0 0.00779529 0.00200788 0.00496064 0 0.00519686 0 0.00720473 0.00283465 0.00531497 -0.000236221 0.00425197 0.000236221 0.00531497 0 0.00519686 0 0.00755906 0.00307087 0.00484253 0 0.00980316 0.00448819 0.00531497 0.000354331 0.00732284 0.00212599 0.00720473 0.00271654 0.00578741 0 0.00755906 0.00248032 0.00720473 0.00318898 0.00744095 0.00129921 0.00531497 0.000826773 0.00755906 0.0022441 0.00696851 0.00236221 0.00543308 0 0.00767717 0.00318898 0.00744095 0.00153543 0.00496064 0.000708662 0.00767717 0.00200788 0.00708662 0.00318898 0.0079134 0.00212599 0.0046063 0 0.0079134 0.00271654 0.00755906 0.00248032 0.00484253 0 0.00744095 0.00200788 0.00838584 0.00295276 0.00673229 0.00259843 0.00519686 -0.000708662 0.00720473 0.00259843 0.00755906 0.00271654 0.00519686 0 0.00744095 0.00271654 0.00732284 0.00200788 0.00779529 0.0034252 0.00472442 -0.00106299 0.00779529 0.00295276 0.00767717 0.00236221 0.00519686 0 0.00980316 0.00555119 0.00472442 0 0.00826773 0.00200788 0.00755906 0.00283465 0.00696851 0.00248032 0.00519686 0 0.00767717 0.00259843 0.00744095 0.00283465 0.00484253 -0.000590552 0.00744095 0.00259843 0.0079134 0.00248032 0.00767717 0.00259843 0.00437008 0.00011811 0.00779529 0.00283465 0.00779529 0.00236221 0.00767717 0.00283465 0.00425197 -0.000354331 0.00838584 0.0022441 0.00744095 0.00307087 0.00708662 0.00165355 0.00779529 0.00271654 0.0046063 0.000236221 0.00732284 0.00283465 0.00779529 0.0022441 0.00578741 0 0.00744095 0.00283465 0.00755906 0.00248032 0.00744095 0.00165355 0.00448819 0.000590552 0.00779529 0.00236221 0.00803151 0.00248032 0.00448819 0 0.0068504 0.00271654 0.00814962 0.0022441 0.00779529 0.00236221 0.00472442 0.000354331 0.00779529 0.00283465 0.00779529 0.0022441 0.00708662 0.00283465 0.00507875 -0.000590552 0.00744095 0.00236221 0.0079134 0.00330709 0.00472442 -0.000236221 0.00720473 0.00212599 0.00814962 0.00283465 0.00744095 0.00236221 0.00472442 0 0.00838584 0.00283465 0.00649607 0.00248032 0.00507875 0 0.0106299 0.00496064 0.00437008 0 0.00732284 0.00212599 0.00862206 0.00259843 0.0068504 0.00271654 0.00519686 -0.000236221 0.00755906 0.0022441 0.00708662 0.00295276 0.0056693 0 0.00767717 0.00259843 0.00732284 0.00307087 0.00767717 0.00165355 0.00484253 0 0.00673229 0.00248032 0.0079134 0.00283465 0.00519686 0.000354331 0.0101575 0.00496064 0.00484253 0.000236221 0.00779529 0.00200788 0.00767717 0.0022441 0.00732284 0.00259843 0.00507875 0 0.00720473 0.00259843 0.00803151 0.00248032 0.00448819 -0.000826773 0.00767717 0.00354331 0.00779529 0.0022441 0.00732284 0.00271654 0.00543308 0.00011811 0.00755906 0.00212599 0.00720473 0.00283465 0.0046063 0.000354331 0.00755906 0.00212599 0.00803151 0.0022441 0.0046063 0 0.00803151 0.00283465 0.00720473 0.00295276 0.00744095 0.00200788 0.00543308 0 0.00720473 0.00259843 0.00779529 0.00295276 0.00507875 -0.000236221 0.00779529 0.0022441 0.00708662 0.00248032 0.00507875 0 0.0079134 0.00271654 0.00720473 0.00200788 0.0079134 0.00271654 0.00696851 0.00236221 -0.00507875 0.00555119 0.000236221 0.0046063 -0.00248032 0.00755906 -0.00248032 0.00779529 -0.00283465 0.00744095 -0.0022441 0.00767717 0 0.00507875 -0.00519686 0.0103937 0 0.00472442 -0.00200788 0.00744095 -0.00259843 0.00696851 -0.00259843 0.00862206 -0.000826773 0.00437008 -0.00188977 0.00720473 -0.00259843 0.00744095 0 0.00519686 -0.00295276 0.00803151 -0.00212599 0.00720473 -0.00248032 0.00767717 0 0.00507875 -0.00200788 0.00767717 -0.000472442 0.00472442 -0.0022441 0.00732284 0 0.00531497 -0.00259843 0.00779529 -0.00295276 0.0068504 -0.00212599 0.00838584 -0.00248032 0.00755906 0 0.00472442 -0.00259843 0.00732284 -0.00236221 0.00744095 -0.000354331 0.00496064 -0.00248032 0.00755906 -0.0022441 0.00767717 -0.00248032 0.00696851 -0.000236221 0.00543308 -0.0022441 0.00826773 -0.00295276 0.00720473 -0.00188977 0.00744095 -0.000590552 0.00531497 -0.00236221 0.0068504 -0.00271654 0.00767717 -0.00236221 0.00803151 -0.00248032 0.00767717 -0.00248032 0.00673229 -0.000236221 0.00531497 -0.00200788 0.00755906 -0.00236221 0.00803151 -0.00259843 0.00732284 0.000236221 0.00496064 -0.000236221 0.00472442 0.00496064 0.00531497 0.0774804 -0.0733465 0.0604725 -0.0549213 0.137717 -0.13311 0.0980316 -0.0927166 0.0604725 -0.0603544 -0.000236221 -0.00484253 0.000236221 -0.00519686 -0.00248032 -0.0079134 -0.00248032 -0.00744095 -0.00283465 -0.0068504 0.000354331 -0.00496064 -0.00248032 -0.0079134 -0.00295276 -0.00755906 -0.00248032 -0.00755906 0 -0.00496064 -0.00484253 -0.0102756 -0.00236221 -0.00755906 0 -0.00496064 -0.00543308 -0.0102756 0 -0.0046063 -0.00200788 -0.00744095 -0.00295276 -0.00814962 -0.00200788 -0.00673229 -0.00271654 -0.0079134 -0.0022441 -0.00720473 -0.00318898 -0.00779529 -0.0022441 -0.00779529 -0.00212599 -0.00744095 -0.00283465 -0.00779529 -0.0022441 -0.00779529 -0.00248032 -0.00661418 -0.00307087 -0.00755906 -0.00236221 -0.00803151 -0.00318898 -0.00720473 0.000826773 -0.00531497 -0.00484253 -0.00980316 0 -0.00531497 -0.00307087 -0.0068504 -0.00236221 -0.00838584 -0.00188977 -0.00696851 -0.000354331 -0.00519686 -0.00271654 -0.00779529 -0.00248032 -0.00755906 -0.00259843 -0.00696851 0 -0.00531497 -0.0046063 -0.00980316 -0.00307087 -0.00814962 0 -0.00472442 -0.00177166 -0.00779529 -0.00271654 -0.00673229 -0.00259843 -0.00862206 -0.00307087 -0.00673229 -0.00177166 -0.00767717 -0.000472442 -0.00496064 -0.00259843 -0.00767717 -0.00295276 -0.0079134 -0.00212599 -0.00708662 -0.00271654 -0.0079134 -0.00248032 -0.00744095 -0.00165355 -0.00744095 -0.00283465 -0.00779529 -0.00307087 -0.00696851 -0.00259843 -0.00755906 0.000472442 -0.00507875 -0.00295276 -0.00720473 -0.00165355 -0.00803151 -0.0034252 -0.00779529 -0.00283465 -0.00744095 -0.00212599 -0.00732284 0.000590552 -0.00531497 -0.00271654 -0.00673229 -0.0022441 -0.00826773 -0.00307087 -0.00637796 -0.000236221 -0.00578741 -0.00248032 -0.00779529 -0.00283465 -0.00708662 -0.0011811 -0.00767717 -0.00318898 -0.00767717 -0.00236221 -0.00779529 -0.00271654 -0.00720473 0 -0.00531497 -0.00188977 -0.00732284 -0.00295276 -0.00708662 0 -0.00543308 -0.00271654 -0.00755906 -0.00496064 -0.00507875 -0.00472442 -0.000236221 -0.00307087 0.00248032 -0.00259843 0.00767717 0 0.00472442 -0.0022441 0.00803151 0 0.00472442 -0.00259843 0.00779529 -0.00248032 0.00779529 -0.00271654 0.00708662 0.000708662 0.00531497 -0.00330709 0.00708662 -0.0022441 0.00755906 0 0.00543308 -0.00236221 0.00732284 -0.00236221 0.00779529 0 0.00389764 0 0.00614174 -0.00283465 0.00755906 -0.00212599 0.00708662 -0.00248032 0.00755906 -0.0022441 0.00720473 -0.00259843 0.00755906 -0.000590552 0.00578741 -0.00200788 0.00661418 -0.00307087 0.00838584 -0.00200788 0.00755906 -0.000236221 0.00484253 -0.00236221 0.00755906 -0.00236221 0.00732284 -0.00259843 0.00803151 -0.00283465 0.00755906 0 0.00448819 -0.00011811 0.00543308 -0.00200788 0.00755906 -0.00307087 0.00720473 0.000472442 0.00519686 -0.00271654 0.00720473 -0.00248032 0.00744095 0 0.00507875 -0.00259843 0.00803151 -0.0022441 0.00732284 -0.00248032 0.00755906 0 0.00496064 -0.00271654 0.00767717 -0.00248032 0.00720473 0.00011811 0.00507875 -0.00259843 0.0079134 -0.00555119 -0.00531497 -0.00472442 0.000236221 -0.00980316 -0.00531497 -0.00472442 0.000472442 -0.00767717 -0.00307087 -0.00755906 -0.00259843 -0.00708662 -0.00200788 -0.0056693 -0.000236221 -0.00755906 -0.0022441 -0.00767717 -0.00271654 -0.00448819 0 -0.00732284 -0.0022441 -0.00803151 -0.00330709 -0.00803151 -0.00248032 -0.00437008 0 -0.00755906 -0.00177166 -0.00755906 -0.00307087 -0.00755906 -0.00212599 -0.00472442 -0.000590552 -0.00779529 -0.00248032 -0.00555119 0.000236221 -0.00755906 -0.00236221 -0.00708662 -0.00271654 -0.00767717 -0.00259843 -0.00543308 0.000236221 -0.00744095 -0.00248032 -0.00779529 -0.00259843 -0.00448819 0 -0.00732284 -0.00200788 -0.00779529 -0.00295276 -0.0056693 0 -0.00625985 -0.00295276 -0.00803151 -0.00177166 -0.00755906 -0.00295276 -0.00543308 0.00011811 -0.00696851 -0.00259843 -0.00767717 -0.00236221 -0.00531497 0 -0.00732284 -0.0022441 -0.00744095 -0.00307087 -0.00732284 -0.00188977 -0.00543308 -0.000708662 -0.00708662 -0.00212599 -0.00779529 -0.00200788 -0.00472442 -0.000590552 -0.00803151 -0.00259843 -0.00732284 -0.00283465 -0.00507875 0.000236221 -0.0106299 -0.00507875 -0.00472442 0 -0.00779529 -0.00271654 -0.00661418 -0.00200788 -0.00803151 -0.00259843 -0.00496064 -0.000236221 -0.00744095 -0.00200788 -0.00767717 -0.00259843 -0.00531497 -0.00011811 -0.00779529 -0.00212599 -0.0068504 -0.00307087 -0.00767717 -0.00248032 -0.00496064 0.000354331 -0.0101575 -0.0056693 -0.00507875 0.000354331 -0.00744095 -0.00248032 -0.00507875 -0.000354331 -0.00744095 -0.00248032 -0.00744095 -0.00212599 -0.00755906 -0.00259843 -0.00755906 -0.00295276 -0.00484253 0.000708662 -0.00803151 -0.00295276 -0.00708662 -0.00307087 -0.00838584 -0.00236221 -0.00413386 0 -0.00803151 -0.00188977 -0.00732284 -0.00283465 -0.0046063 0.000354331 -0.00732284 -0.00307087 -0.00862206 -0.00188977 -0.00413386 -0.000708662 -0.00744095 -0.0022441 -0.00838584 -0.00188977 -0.00696851 -0.00236221 -0.00555119 -0.000944883 -0.00732284 -0.0022441 -0.0068504 -0.00188977 -0.00767717 -0.00295276 -0.00555119 -0.000236221 -0.00732284 -0.0022441 -0.00732284 -0.00283465 -0.00543308 0 -0.0101575 -0.00496064 -0.00507875 0 -0.00720473 -0.0022441 -0.00767717 -0.00259843 -0.0079134 -0.00248032 -0.00401575 0 -0.00803151 -0.00248032 -0.00744095 -0.00248032 -0.00519686 0 -0.00732284 -0.0022441 -0.00767717 -0.00307087 -0.00708662 -0.00259843 -0.00543308 0 -0.00803151 -0.00200788 -0.00708662 -0.00271654 -0.00507875 0 -0.00744095 -0.00295276 -0.00779529 -0.00200788 -0.00755906 -0.00307087 -0.00531497 -0.000236221 -0.00696851 -0.00188977 -0.00720473 -0.00259843 -0.00519686 0 -0.0103937 -0.00484253 -0.00472442 -0.000236221 -0.00744095 -0.0022441 -0.00732284 -0.00259843 -0.00578741 0 -0.00696851 -0.00271654 -0.00519686 -0.00011811 -0.0101575 -0.00472442 -0.0056693 -0.000236221 -0.00425197 0.000236221 -0.00779529 -0.0022441 -0.00732284 -0.00318898 -0.00720473 -0.00283465 -0.00814962 -0.00188977 -0.0046063 0 -0.00803151 -0.00271654 -0.00484253 0.000236221 -0.00708662 -0.00318898 -0.0079134 -0.00177166 -0.00496064 -0.000236221 -0.00696851 -0.00259843 -0.00779529 -0.0022441 -0.00519686 0 -0.0101575 -0.00531497 -0.00519686 0.000236221 -0.00720473 -0.00259843 -0.00519686 0 -0.00980316 -0.00531497 -0.00519686 0.000236221 -0.00767717 -0.00236221 -0.00744095 -0.00318898 -0.00767717 -0.00200788 -0.00484253 0 -0.00744095 -0.00248032 -0.00779529 -0.00259843 -0.00744095 -0.00200788 -0.00779529 -0.00330709 -0.00413386 0.000236221 -0.00578741 0 -0.00507875 0.000236221 -0.00720473 -0.00295276 -0.00543308 0.000590552 -0.00425197 0.000236221 -0.0079134 -0.00271654 -0.00555119 -0.000354331 -0.00496064 0.000708662 -0.00755906 -0.00318898 -0.00472442 0 -0.00496064 0 -0.00484253 0.000354331 -0.00507875 -0.000354331 -0.00496064 0 -0.0079134 -0.0022441 -0.00507875 -0.000354331 -0.00484253 0.000354331 -0.00531497 0 -0.00448819 -0.000236221 -0.0079134 0.00248032 -0.0046063 0 -0.00555119 0 -0.00437008 0 -0.00543308 0 -0.00507875 0 -0.00720473 0.00283465 -0.00507875 0 -0.00543308 0 -0.00484253 0 -0.00732284 0.00248032 -0.00531497 0 -0.00484253 0.000236221 -0.00767717 0.00212599 -0.00437008 -0.000236221 -0.00779529 0.00259843 -0.00472442 0.000472442 -0.00862206 0.00283465 -0.00437008 -0.000826773 -0.00755906 0.00200788 -0.00744095 0.00307087 -0.00767717 0.00271654 -0.00980316 0.0046063 -0.0103937 0.00531497 -0.00755906 0.00200788 -0.0124016 0.00767717 -0.020315 0.0152362 -0.0146457 0.0090945 -0.020315 0.016063 -0.0679135 0.0679135 -0.00732284 0.0120473 0 0zm0.337087 1.78843l-0.0876379 0.093071 -0.072756 0.0775985 -0.100748 0.105354 -0.0148819 0.020315 0.00248032 0.00259843 0.00484253 0 0.00507875 -0.000590552 0.00779529 -0.00200788 0.00779529 -0.00271654 0.00472442 0 0.00779529 -0.0022441 0.00767717 -0.00259843 0.00755906 -0.00283465 0.0046063 -0.00011811 0.00720473 -0.00212599 0.0079134 -0.00212599 0.00767717 -0.00236221 0.00755906 -0.00318898 0.00472442 0 0.0079134 -0.00200788 0.00720473 -0.00307087 0.00507875 0 0.00732284 -0.00248032 0.00519686 -0.000236221 0.00755906 -0.00259843 0.00779529 -0.00200788 0.00437008 -0.000236221 0.00744095 -0.00283465 0.00803151 -0.0022441 0.00755906 -0.00248032 0.00720473 -0.00236221 0.00555119 -0.000236221 0.0068504 -0.00236221 0.00779529 -0.0022441 0.00732284 -0.00295276 0.00531497 0.000472442 0.00779529 -0.00248032 0.00732284 -0.0022441 0.00484253 0 0.00755906 -0.00271654 0.00767717 -0.00295276 0.00755906 -0.00200788 0.00555119 0 0.00744095 -0.00283465 0.00732284 -0.00236221 0.00708662 -0.00271654 0.00507875 0 0.00732284 -0.00271654 0.00767717 -0.00248032 0.00283465 0.00259843 0.00200788 0.00767717 0.000826773 0.00531497 0.00200788 0.00744095 0.00259843 0.00720473 0.00259843 0.00767717 0.00271654 0.00744095 0.00200788 0.00696851 0 0.00602363 0.00283465 0.0068504 0.00236221 0.00779529 -0.000708662 0.00472442 0.00295276 0.00767717 0.00283465 0.00755906 0.00271654 0.0079134 0.00011811 0.00448819 0.00188977 0.00755906 0.00283465 0.00838584 0.00212599 0.00696851 0 0.00519686 0.00295276 0.00720473 0.00248032 0.00755906 0.00283465 0.0079134 0.00259843 0.00708662 0 0.00496064 0.00177166 0.00755906 0.00236221 0.00708662 0.00295276 0.00755906 0 0.00519686 0.00248032 0.00826773 0.00318898 0.00744095 -0.000236221 0.00531497 0.00200788 0.00708662 0.00236221 0.00720473 0 0.0056693 0.00259843 0.00708662 0.00283465 0.00744095 0.00283465 0.00755906 -0.000590552 0.0056693 0.00259843 0.00708662 0.00307087 0.00732284 -0.000472442 0.00507875 0 0.00472442 0.00519686 0.0102756 0 0.00507875 0.00259843 0.00814962 0 0.0046063 0.00212599 0.00720473 0.000354331 0.00472442 0.00248032 0.00755906 0.00200788 0.00779529 0.00248032 0.00744095 0.000236221 0.00531497 0.00496064 0.00992127 0 0.00531497 0.00259843 0.00732284 0.0022441 0.00708662 0.000236221 0.0056693 0.00271654 0.00803151 0.00212599 0.00708662 0.00271654 0.00732284 0.000826773 0.00519686 0.00165355 0.00720473 0.00271654 0.00755906 0.00283465 0.00767717 0.00248032 0.00696851 0.00248032 0.00803151 0.00236221 0.00744095 0 0.00543308 0.00248032 0.00732284 0.00236221 0.00755906 0.0022441 0.00720473 0 0.00578741 0.00283465 0.00696851 0.00200788 0.00814962 0.00295276 0.00720473 0.00271654 0.00732284 0 0.00507875 0.0022441 0.00708662 0.00307087 0.00803151 0.00212599 0.00720473 0 0.00555119 0.00295276 0.00708662 0.0022441 0.00767717 0 0.00472442 0.0022441 0.0079134 0.00271654 0.00732284 0 0.00543308 0.00248032 0.00732284 0.00283465 0.00744095 0.00165355 0.00755906 0.000472442 0.00484253 0.00236221 0.00803151 0.00295276 0.00744095 0.0022441 0.00744095 -0.000236221 0.00507875 0.00271654 0.00696851 0.00271654 0.0079134 0.00283465 0.00744095 0.00165355 0.00744095 0.000708662 0.00555119 0.00188977 0.00744095 0 0.00437008 0.0056693 0.0102756 -0.000236221 0.0056693 0 0.00425197 0.00259843 0.00803151 0.00295276 0.00767717 -0.000708662 0.00484253 0.00519686 0.00992127 0 0.00496064 0.000354331 0.0056693 0.0022441 0.00708662 0.00248032 0.00708662 0.000236221 0.00543308 0.0022441 0.00720473 0.00271654 0.0079134 0.00307087 0.00720473 -0.000236221 0.00531497 0.0022441 0.00720473 0.0022441 0.00803151 0 0.00425197 0.00271654 0.00803151 0.00248032 0.00708662 0.00259843 0.00732284 0 0.00555119 0.00236221 0.00732284 0.0022441 0.0079134 0.00307087 0.00767717 0.00248032 0.00767717 0.00236221 0.00744095 -0.000236221 0.00472442 0.00236221 0.00732284 0.00271654 0.0079134 0 0.00484253 0.00283465 0.00732284 0.0022441 0.00767717 0 0.00555119 0.00271654 0.00732284 0.00212599 0.00755906 0.00271654 0.00744095 0 0.00519686 0.00271654 0.00755906 0.00177166 0.00720473 0.00259843 0.00755906 0.00295276 0.00744095 -0.00011811 0.00472442 0.00259843 0.00779529 0.00248032 0.00779529 0.00318898 0.00779529 0.00200788 0.00732284 0.000472442 0.00507875 0.00437008 0.00992127 0.00248032 0.00767717 0.00271654 0.00744095 0.00496064 0.0100394 0.00259843 0.00744095 0.00259843 0.00720473 0.00236221 0.00755906 0.0079134 0.0127559 0.00200788 0.00755906 0.0056693 0.0106299 0.0140551 0.0197244 0.0105118 0.0147638 0.0126378 0.0177166 0.0679135 0.0675591 0.0126378 0.00767717 0.00980316 0.00543308 0.0127559 0.00696851 0.00755906 0.00330709 0.0105118 0.00437008 0.00944883 0.00531497 0.0100394 0.00484253 0.00732284 0.00259843 0.00803151 0.00259843 0.00696851 0.0022441 0.00744095 0.00236221 0.00814962 0.00307087 0.00708662 0.0011811 0.00779529 0.00366142 0.00732284 0.00295276 0.00744095 0.0022441 0.00767717 0.00165355 0.00496064 0.000944883 0.00767717 0.00188977 0.00448819 0 0.00578741 0 0.00425197 0 0.0079134 0.00271654 0.00507875 -0.00011811 0.00472442 0 0.00555119 0 0.0046063 0 0.00614174 0.00011811 0.00425197 -0.00011811 0.00496064 0 0.00496064 0 0.00531497 0.00011811 0.00472442 0 0.00519686 0 0.00484253 0.000236221 0.00484253 -0.000708662 0.00779529 -0.0022441 0.00507875 0 0.00531497 0 0.00696851 -0.00236221 0.00543308 0.000472442 0.00425197 0 0.00543308 -0.000944883 0.00531497 0.000590552 0.00744095 -0.00295276 0.00507875 0 0.00531497 0.000472442 0.00673229 -0.00236221 0.00543308 -0.000354331 0.00732284 -0.00248032 0.00543308 0.000236221 0.00708662 -0.00283465 0.00779529 -0.00200788 0.00543308 -0.000472442 0.0068504 -0.00259843 0.0102756 -0.00484253 0.00767717 -0.00283465 0.00708662 -0.00212599 0.00744095 -0.00200788 0.00543308 -0.000826773 0.0122835 -0.00732284 0.0079134 -0.00236221 0.0175984 -0.0122835 0.0146457 -0.0105118 0.0153543 -0.0102756 0.0178347 -0.0122835 0.0146457 -0.00968505 0.0124016 -0.0079134 0.020315 -0.0155906 0.0154725 -0.00956694 0.0119291 -0.00767717 0.0180709 -0.0119291 0.835631 -0.835513 -0.240945 -0.241536 -0.823347 0.818269 -0.0199607 0.0147638 -0.0127559 0.00732284 -0.00980316 0.00507875 -0.00956694 0.00531497 -0.00862206 0.00283465 -0.00425197 0 -0.00531497 -0.000236221 -0.00496064 0 -0.00496064 0 -0.00507875 0.00484253 -0.00507875 -0.00484253 -0.00507875 0.000236221 -0.00519686 -0.000236221 -0.00519686 0.000236221 -0.00708662 -0.00283465 -0.0102756 -0.00496064 -0.00732284 -0.00271654 -0.0400394 -0.0400394 -0.00283465 -0.00696851 -0.00496064 -0.0106299 -0.00507875 -0.00944883 -0.00188977 -0.00803151 -0.00602363 -0.0106299 0.000472442 -0.00437008 -0.00496064 -0.0105118 -0.00011811 -0.00448819 -0.00271654 -0.00803151 -0.0022441 -0.00720473 -0.00248032 -0.00767717 -0.00011811 -0.00484253 -0.0022441 -0.0079134 -0.00283465 -0.00720473 0 -0.00543308 -0.00259843 -0.00708662 -0.0022441 -0.00767717 0 -0.00496064 -0.00259843 -0.00696851 -0.00236221 -0.00803151 -0.000236221 -0.0046063 -0.00259843 -0.00814962 -0.0022441 -0.00720473 0 -0.00484253 -0.00248032 -0.00803151 -0.00295276 -0.0079134 -0.00200788 -0.00708662 -0.000472442 -0.00472442 -0.00259843 -0.00779529 -0.00259843 -0.00744095 0 -0.00519686 -0.00200788 -0.00708662 -0.00259843 -0.00779529 -0.00259843 -0.00767717 0 -0.00555119 -0.00484253 -0.00956694 -0.000354331 -0.00578741 -0.0022441 -0.00614174 0 -0.00496064 -0.00318898 -0.00779529 -0.00200788 -0.00767717 -0.00236221 -0.00826773 -0.00236221 -0.00696851 -0.000236221 -0.00519686 -0.00259843 -0.00779529 -0.00248032 -0.0068504 -0.000236221 -0.00507875 -0.00200788 -0.00803151 -0.00271654 -0.00732284 -0.00259843 -0.00779529 0 -0.00496064 -0.0022441 -0.00696851 -0.00248032 -0.00755906 -0.00283465 -0.0079134 0 -0.00484253 -0.00248032 -0.00744095 -0.00259843 -0.00767717 0 -0.00507875 -0.00259843 -0.00720473 -0.00212599 -0.00767717 -0.00307087 -0.00755906 0.000354331 -0.00484253 -0.00248032 -0.00755906 -0.00271654 -0.0079134 -0.00200788 -0.00767717 -0.00307087 -0.00696851 0.000236221 -0.00578741 -0.00318898 -0.00720473 -0.0022441 -0.00732284 -0.00248032 -0.00779529 0.000354331 -0.00496064 -0.00236221 -0.00744095 -0.00295276 -0.00767717 0.000354331 -0.00496064 -0.00318898 -0.00732284 -0.00141732 -0.00779529 -0.00283465 -0.00720473 0.000236221 -0.0056693 -0.00519686 -0.00992127 -0.000826773 -0.0046063 -0.00200788 -0.0079134 -0.000236221 -0.00437008 -0.00472442 -0.0103937 0 -0.00496064 -0.00283465 -0.00755906 -0.00236221 -0.00779529 -0.00236221 -0.00696851 -0.000354331 -0.00531497 -0.00248032 -0.00744095 -0.0022441 -0.00779529 0 -0.00437008 -0.00295276 -0.00755906 -0.00259843 -0.00826773 -0.00177166 -0.00708662 -0.000472442 -0.0056693 -0.00259843 -0.0068504 -0.00259843 -0.00767717 -0.00177166 -0.00779529 -0.00307087 -0.00720473 0 -0.00507875 -0.00283465 -0.00708662 -0.00212599 -0.00814962 -0.00295276 -0.0068504 0.000472442 -0.00555119 -0.00236221 -0.00744095 -0.00295276 -0.00744095 0.000236221 -0.00531497 -0.0022441 -0.00720473 -0.00307087 -0.00779529 -0.00177166 -0.00744095 0 -0.00543308 -0.00259843 -0.00708662 -0.00295276 -0.00779529 0.000590552 -0.00496064 -0.00295276 -0.00732284 -0.00259843 -0.00767717 -0.00236221 -0.00779529 0 -0.00543308 -0.0046063 -0.00968505 -0.000826773 -0.00484253 -0.0022441 -0.00779529 -0.00283465 -0.0068504 0.000472442 -0.00555119 -0.00307087 -0.00720473 -0.00200788 -0.00767717 0 -0.00519686 -0.00271654 -0.00744095 -0.00236221 -0.00767717 0 -0.00496064 -0.00236221 -0.00708662 -0.00259843 -0.00732284 0 -0.0056693 -0.00259843 -0.00720473 -0.000354331 -0.00531497 -0.0022441 -0.00720473 -0.00259843 -0.00732284 0 -0.00543308 -0.00236221 -0.00755906 -0.00259843 -0.00803151 -0.0022441 -0.00661418 -0.00259843 -0.00779529 0.00259843 -0.0022441 0.00720473 -0.00271654 0.00779529 -0.00295276 0.00496064 0.000354331 0.00708662 -0.0022441 0.0079134 -0.00271654 0.00755906 -0.00248032 0.00708662 -0.00259843 0.0079134 -0.00259843 0.00767717 -0.00248032 0.00744095 -0.00259843 0.00484253 -0.00011811 0.00744095 -0.00212599 0.00755906 -0.00307087 0.00543308 0 0.0101575 -0.00472442 0.00496064 0 0.00484253 0 0.00767717 -0.0022441 0.0068504 -0.00248032 0.00779529 -0.00307087 0.00531497 0 0.00779529 -0.00200788 0.00744095 -0.00271654 0.00448819 0 0.010748 -0.00531497 0.00437008 0 0.00779529 -0.00271654 0.00448819 0.000472442 0.00803151 -0.00271654 0.0079134 -0.00212599 0.0046063 0.000354331 0.00708662 -0.00271654 0.00779529 -0.00307087 0.00507875 0 0.00767717 -0.00248032 0.00779529 -0.00248032 0.0079134 -0.00236221 0.00708662 -0.00271654 0.0046063 0 0.0079134 -0.00283465 0.00484253 0.000472442 0.0100394 -0.00484253 0.00484253 0 0.0079134 -0.00283465 0.00956694 -0.0046063 0.00507875 -0.000354331 0.00732284 -0.0022441 0.00779529 -0.00259843 0.00531497 -0.00011811 0.00507875 0.00011811 0.00519686 -0.00519686 -0.00803151 -0.00720473 -0.00992127 -0.00543308 -0.00484253 0 -0.0079134 -0.00248032 -0.00708662 -0.00283465 -0.00555119 0 -0.00720473 -0.00165355 -0.00779529 -0.00295276 -0.00708662 -0.00236221 -0.00755906 -0.0022441 -0.0056693 -0.000590552 -0.00968505 -0.00519686 -0.00425197 0.000354331 -0.0079134 -0.00200788 -0.00803151 -0.00318898 -0.00744095 -0.0022441 -0.00472442 0 -0.00814962 -0.00236221 -0.00744095 -0.00259843 -0.00708662 -0.00271654 -0.00543308 0 -0.00708662 -0.0022441 -0.00767717 -0.00307087 -0.00696851 -0.00212599 -0.00732284 -0.00236221 -0.00602363 -0.000236221 -0.00708662 -0.0022441 -0.00803151 -0.0034252 -0.00720473 -0.0022441 -0.00755906 -0.0022441 -0.00519686 0 -0.00720473 -0.00259843 -0.00767717 -0.00259843 -0.00744095 -0.00248032 -0.00755906 -0.00248032 -0.00779529 -0.0022441 -0.00496064 0 -0.00755906 -0.00295276 -0.00732284 -0.00307087 -0.00507875 0.0011811 -0.0100394 -0.0046063 -0.00708662 -0.0034252 -0.00838584 -0.00236221 -0.00413386 0.000472442 -0.00826773 -0.00295276 -0.0079134 -0.00295276 -0.00413386 0.000472442 -0.0103937 -0.00484253 -0.00720473 -0.00307087 -0.00531497 0 -0.00732284 -0.00248032 -0.00814962 -0.00212599 -0.00696851 -0.00259843 -0.00814962 -0.00271654 -0.00661418 -0.00188977 -0.00814962 -0.00248032 -0.00448819 -0.000472442 -0.00992127 -0.00507875 -0.00755906 -0.0022441 -0.00543308 0 -0.00779529 -0.00283465 -0.00708662 -0.00271654 -0.0079134 -0.0022441 -0.00531497 0.000472442 -0.0100394 -0.00578741 -0.00448819 0.000590552 -0.00755906 -0.0034252 -0.00803151 -0.00153543 -0.00720473 -0.00259843 -0.00496064 -0.000236221 -0.00755906 -0.00259843 -0.00708662 -0.00307087 -0.00803151 -0.00141732 -0.00696851 -0.00271654 -0.00755906 -0.0022441 -0.00779529 -0.00271654 -0.00578741 0 -0.00708662 -0.00283465 -0.00696851 -0.00271654 -0.00519686 0 -0.0079134 -0.0022441 -0.0275197 0.0269292 -0.108189 0.113504 0 0.000590552zm1.56378 -1.52811l-0.0022441 0.00744095 0 0.00507875 -0.00200788 0.00673229 -0.00283465 0.00814962 -0.000590552 0.00484253 -0.00200788 0.00720473 -0.00307087 0.00779529 -0.0022441 0.00744095 -0.00200788 0.00803151 -0.000354331 0.0046063 -0.00259843 0.00803151 -0.00259843 0.00708662 -0.0022441 0.00767717 0 0.0046063 -0.00283465 0.0079134 -0.00177166 0.00708662 -0.0034252 0.00732284 0 0.00507875 -0.0022441 0.00826773 -0.00259843 0.00673229 0 0.00496064 -0.00259843 0.00767717 -0.00212599 0.00803151 -0.00259843 0.00732284 0 0.00496064 -0.00248032 0.00803151 -0.00271654 0.00732284 0 0.00472442 -0.00200788 0.00744095 -0.00259843 0.0079134 0.000236221 0.00484253 -0.00271654 0.00803151 -0.00259843 0.00708662 -0.00259843 0.00767717 0 0.00413386 -0.0022441 0.00838584 -0.00283465 0.00779529 0 0.00496064 -0.00283465 0.00720473 -0.00236221 0.00755906 -0.00236221 0.00720473 -0.00318898 0.00779529 0.000590552 0.0046063 -0.00259843 0.0079134 -0.000472442 0.00484253 -0.00259843 0.00826773 0.000944883 0.0046063 0.00413386 0.0046063 0.00496064 0.000236221 0.0079134 0.00236221 0.00531497 0.000236221 0.0079134 0.00271654 0.00720473 0.00236221 0.00755906 0.00248032 0.00755906 0.00236221 0.00472442 0 0.00779529 0.00283465 0.0046063 0 0.00767717 0.00283465 0.0079134 0.00200788 0.00696851 0.00271654 0.00531497 0 0.00744095 0.0022441 0.00484253 0.000472442 0.0105118 0.00484253 0.00496064 0 0.00755906 0.00259843 0.00744095 0.00200788 0.00507875 0 0.00732284 0.00283465 0.00767717 0.00271654 0.00732284 0.00236221 0.00507875 0 0.00767717 0.00259843 0.00732284 0.00200788 0.00519686 0.000472442 0.00755906 0.00248032 0.0079134 0.0022441 0.00708662 0.00259843 0.00519686 0.000236221 0.00744095 0.00259843 0.00755906 0.00295276 0.00803151 0.0022441 0.00708662 0.00212599 0.00472442 -0.000472442 0.00779529 0.00295276 0.0079134 0.00212599 0.00744095 0.00295276 0.00425197 0 0.00826773 0.00259843 0.0068504 0.00259843 0.00732284 0.00212599 0.0056693 0 0.00814962 0.00330709 0.00625985 0.00236221 0.00555119 -0.000826773 0.00744095 0.00295276 0.00755906 0.00259843 0.00767717 0.00259843 0.0056693 0 0.00661418 0.00248032 0.00779529 0.00283465 0.00531497 -0.000472442 0.0068504 0.00212599 0.00779529 0.00283465 0.00590552 0 0.00637796 0.00283465 0.00850395 0.00200788 0.00732284 0.00295276 0.00484253 -0.000354331 0.00744095 0.00295276 0.00720473 0.00200788 0.0056693 0 0.0068504 0.00283465 0.00803151 0.00259843 0.00437008 0.000236221 0.00838584 0.00177166 0.00720473 0.00259843 0.0068504 0.00307087 0.00578741 0 0.0068504 0.00236221 0.00779529 0.00259843 0.00803151 0.00283465 0.00755906 0.00248032 0.00720473 0.00236221 0.00448819 0 0.00803151 0.00212599 0.00767717 0.00295276 0.00708662 0.0022441 0.00531497 0.000236221 0.00744095 0.00259843 0.00755906 0.00212599 0.00484253 0 0.00814962 0.00248032 0.00755906 0.00283465 0.00732284 0.00200788 0.00720473 0.00330709 0.00543308 -0.000472442 0.00720473 0.00212599 0.00531497 0.000472442 0.00992127 0.00484253 0.00472442 0.000236221 0.00779529 0.00236221 0.00744095 0.0022441 0.00814962 0.00283465 0.00437008 0 0.00814962 0.0022441 0.00744095 0.00259843 0.00496064 0 0.00755906 0.00212599 0.00696851 0.0034252 0.00543308 0 0.00720473 0.00200788 0.00803151 0.00259843 0.00484253 0 0.00755906 0.00283465 0.00744095 0.00200788 0.00732284 0.00248032 0.00507875 0.000826773 0.00744095 0.00165355 0.00732284 0.00318898 0.00555119 -0.000354331 0.00744095 0.00271654 0.00744095 0.00236221 0.00519686 0 0.00732284 0.00283465 0.00767717 0.00283465 0.00720473 0.00177166 0.00555119 -0.000236221 0.00720473 0.00248032 0.00767717 0.00295276 0.00696851 0.00236221 0.00496064 0 0.00779529 0.00248032 0.0079134 0.00283465 0.00720473 0.00236221 0.00720473 0.0022441 0.00578741 0.000472442 0.00696851 0.00200788 0.00767717 0.00283465 0.00814962 0.00248032 0.00437008 0.000354331 0.00744095 0.00200788 0.0079134 0.00259843 0.00720473 0.00283465 0.00507875 0 0.00803151 0.00271654 0.0068504 0.00165355 0.00555119 0.000354331 0.0079134 0.0022441 0.00661418 0.00330709 0.00732284 0.0022441 0.00602363 0 0.00708662 0.00248032 0.00814962 0.00283465 0.00708662 0.0022441 0.00779529 0.00271654 0.00425197 0 0.0056693 0 0.00968505 0.00496064 0.00543308 -0.000472442 0.0046063 0 0.00755906 0.00318898 0.0079134 0.00259843 0.00696851 0.0022441 0.00826773 0.00188977 0.00732284 0.00318898 0.00543308 0 0.00413386 0 0.0108662 0.00484253 0.00496064 0.000236221 0.00744095 0.00236221 0.0145276 0.0102756 0.0127559 0.00744095 0.0200788 0.0151181 0.00496064 0.00484253 0.0125197 0.0175984 0.00519686 0.0102756 0.00259843 0.00708662 0.00507875 0.0100394 0 0.00543308 -0.000236221 0.00437008 0.000236221 0.00496064 -0.000236221 0.00543308 0.000236221 0.00437008 -0.000236221 0.00590552 -0.00259843 0.00720473 0 0.00531497 -0.00484253 0.0105118 -0.000354331 0.00437008 -0.00744095 0.0127559 -0.0121654 0.0175984 -0.0132284 0.0174803 -0.689765 0.694961 -0.258898 -0.258071 -0.00543308 0.00484253 0.000472442 0.00413386 0.00283465 0.0079134 0.00212599 0.00779529 0 0.00496064 0.00283465 0.00755906 -0.000236221 0.00484253 0.00236221 0.00767717 -0.00011811 0.00543308 0.00271654 0.00720473 0.00295276 0.0068504 0.0022441 0.0079134 0.0022441 0.00826773 0.000354331 0.00484253 0.00212599 0.00708662 0.00295276 0.0079134 0.00271654 0.00755906 0 0.00519686 0.0022441 0.00720473 0 0.00519686 0.00259843 0.0079134 0.00212599 0.00720473 0.00283465 0.00720473 0 0.00507875 0.00236221 0.00767717 0 0.00531497 0.00248032 0.00720473 0 0.00496064 0.00318898 0.00779529 0 0.00448819 0.00200788 0.00803151 0.00283465 0.00744095 0.00271654 0.00744095 -0.000708662 0.00543308 0.00283465 0.00779529 0.00248032 0.00614174 0.00212599 0.00779529 0.000236221 0.0056693 0.00271654 0.0079134 -0.000236221 0.00484253 0.00248032 0.00732284 0 0.00448819 0.00283465 0.00803151 0.0022441 0.00755906 0.000590552 0.00496064 -0.000826773 0.00519686 0.00307087 0.00708662 0 0.00519686 0.00484253 0.0106299 0 0.00425197 0.00283465 0.00767717 -0.000590552 0.00531497 0.00271654 0.00755906 0.00295276 0.00755906 -0.000354331 0.00496064 0.00271654 0.0079134 0.00248032 0.00720473 -0.000472442 0.00484253 0.00295276 0.00767717 0.00248032 0.00732284 0.00011811 0.00531497 0.00236221 0.00696851 0.0022441 0.00779529 0.000708662 0.00484253 0.0022441 0.0079134 0.00283465 0.00673229 -0.000590552 0.00543308 0.00318898 0.00779529 0.00200788 0.00767717 0.000236221 0.00507875 0.00200788 0.00755906 0.00295276 0.00744095 0 0.00543308 0.0022441 0.00720473 0.000354331 0.00437008 0.00200788 0.00803151 0.00295276 0.00838584 0.000236221 0.00425197 0.00165355 0.00767717 0.00271654 0.00696851 0 0.00555119 0.0022441 0.00744095 0.00295276 0.00720473 0 0.00543308 0.00248032 0.00744095 0.00236221 0.00767717 0.00259843 0.00708662 0.000354331 0.00519686 0.0046063 0.00519686 0.00814962 0.00236221 0.00425197 0 0.00814962 0.00259843 0.0068504 0.00259843 0.00519686 0 0.00484253 0 0.00779529 0.00259843 0.00755906 0.00259843 0.00531497 0 0.00980316 0.00496064 0.00472442 0 0.00803151 0.00188977 0.00744095 0.00248032 0.00732284 0.00283465 0.0046063 -0.000236221 0.00826773 0.00295276 0.00720473 0.00248032 0.00484253 0 0.0079134 0.00212599 0.00803151 0.00248032 0.00496064 0.000590552 0.00779529 0.00188977 0.00696851 0.00259843 0.00496064 0.000354331 0.00519686 0 0.00755906 0.0022441 0.00755906 0.00283465 0.0046063 -0.000236221 0.00543308 0.000236221 0.00968505 0.00519686 0.00496064 -0.000236221 0.00744095 0.00259843 0.00755906 0.00259843 0.00555119 0 0.00732284 0.00236221 0.00720473 0.00248032 0.0079134 0.00259843 0.00484253 0 0.00484253 0 0.0079134 0.00295276 0.0079134 0.00200788 0.00437008 0 0.00779529 0.0022441 0.00507875 0 0.0046063 0.000590552 0.00767717 0.00248032 0.00803151 0.00248032 0.00437008 0 0.00803151 0.00212599 0.00744095 0.00283465 0.00531497 0 0.00732284 0.00212599 0.00732284 0.00307087 0.00448819 0 0.00838584 0.00165355 0.00696851 0.00307087 0.00507875 0 0.00767717 0.00212599 0.0079134 0.00283465 0.00472442 0 0.00767717 0.00283465 0.00484253 0 0.00767717 0.00236221 0.00779529 0.00236221 0.00448819 -0.000472442 0.0079134 0.00354331 0.00484253 0 0.00779529 0.00188977 0.00507875 0.000236221 0.00720473 0.00236221 0.0079134 0.00248032 0.00484253 0 0.00720473 0.00271654 0.00507875 -0.000236221 0.00720473 0.00307087 0.00803151 0.00200788 0.00732284 0.00248032 0.00519686 0 0.00732284 0.00295276 0.00767717 0.00259843 0.00484253 0 0.0079134 0.0022441 0.00814962 0.00283465 0.00413386 0 0.0056693 0 0.00755906 0.00259843 0.00673229 0.00248032 0.00531497 -0.00507875 -0.220748 -0.221103 0.76819 -0.768426 0.0196063 -0.0255118 0.0131103 -0.017126 0.00673229 -0.012874 0.0131103 -0.0173622 0.0046063 -0.00968505 0.00295276 -0.00779529 0.00708662 -0.0127559 0.00519686 -0.0101575 0.00307087 -0.00696851 0.00448819 -0.0102756 0.00484253 -0.0100394 0 -0.00531497 0.00248032 -0.00744095 0.00307087 -0.00708662 0.00177166 -0.00767717 0.000236221 -0.00531497 0.00283465 -0.00708662 0.00248032 -0.0079134 0 -0.00472442 0.00472442 -0.0106299 0.000590552 -0.00425197 0.00188977 -0.00755906 0.00248032 -0.0079134 -0.000236221 -0.00519686 0.000708662 -0.00472442 -0.00295276 -0.00767717 0 -0.00507875 0 -0.00507875 0 -0.00496064 0 -0.00472442 -0.00248032 -0.00708662 -0.000354331 -0.00578741 0 -0.00401575 0 -0.00637796 0 -0.00425197 0.000944883 -0.00555119 -0.0034252 -0.00720473 0 -0.00519686 0.000590552 -0.00496064 0 -0.00519686 -0.00248032 -0.00767717 -0.000236221 -0.00425197 0 -0.00578741 -0.0022441 -0.00720473 0 -0.00507875 -0.00283465 -0.00744095 -0.00200788 -0.00767717 -0.00307087 -0.00708662 -0.00200788 -0.00755906 0 -0.00519686 -0.00271654 -0.00732284 -0.00011811 -0.0056693 -0.00496064 -0.00992127 -0.00507875 -0.00980316 -0.00519686 -0.00992127 -0.0100394 -0.0152362 -0.0046063 -0.0101575 -0.00779529 -0.0121654 -0.00980316 -0.016063 -0.0103937 -0.0141732 -0.0120473 -0.0178347 -0.0755906 -0.0754725 -0.0282284 -0.0223229 -0.00708662 -0.00283465 -0.00956694 -0.0046063 -0.0108662 -0.00531497 -0.00732284 -0.00188977 -0.0125197 -0.0079134 -0.00779529 -0.00248032 -0.00968505 -0.00543308 -0.00803151 -0.00259843 -0.00944883 -0.00484253 -0.00779529 -0.0022441 -0.00980316 -0.00531497 -0.0100394 -0.00448819 -0.00744095 -0.00236221 -0.00744095 -0.00307087 -0.0102756 -0.00496064 -0.0100394 -0.00543308 -0.00968505 -0.00472442 -0.010748 -0.00507875 -0.00732284 -0.00236221 -0.00944883 -0.00507875 -0.00531497 0 -0.00779529 -0.00271654 -0.00755906 -0.00212599 -0.00519686 -0.000590552 -0.00968505 -0.00389764 -0.00779529 -0.00318898 -0.00472442 0.000236221 -0.00767717 -0.00271654 -0.00755906 -0.0022441 -0.00531497 -0.000590552 -0.00744095 -0.00259843 -0.00732284 -0.00259843 -0.00755906 -0.00248032 -0.00496064 -0.000236221 -0.00803151 -0.00200788 -0.00696851 -0.00212599 -0.00543308 -0.000236221 -0.00732284 -0.00283465 -0.00767717 -0.00212599 -0.00708662 -0.00248032 -0.00496064 0 -0.00767717 -0.00283465 -0.00767717 -0.00271654 -0.00507875 0.000472442 -0.0102756 -0.00496064 -0.00507875 0 -0.00696851 -0.00248032 -0.0079134 -0.00283465 -0.00484253 0 -0.0079134 -0.0022441 -0.00673229 -0.00188977 -0.00484253 -0.000944883 -0.0079134 -0.00248032 -0.00779529 -0.00283465 -0.00767717 -0.00212599 -0.00507875 0 -0.00732284 -0.00248032 -0.00826773 -0.00295276 -0.00425197 0 -0.00803151 -0.00212599 -0.00696851 -0.00271654 -0.00543308 -0.000354331 -0.00696851 -0.00212599 -0.00496064 0.000236221 -0.0103937 -0.00496064 -0.00507875 0 -0.0079134 -0.00283465 -0.00661418 -0.0022441 -0.00779529 -0.00271654 -0.00543308 0 -0.00696851 -0.00283465 -0.00755906 -0.00212599 -0.00803151 -0.00307087 -0.00448819 0 -0.00803151 -0.00212599 -0.0068504 -0.00248032 -0.00555119 0.000708662 -0.0100394 -0.00590552 -0.00531497 0.000708662 -0.0068504 -0.00295276 -0.00838584 -0.00259843 -0.0046063 0 -0.00744095 -0.0022441 -0.00779529 -0.00259843 -0.00732284 -0.00248032 -0.00484253 0 -0.00744095 -0.00248032 -0.00744095 -0.00283465 -0.00531497 0 -0.00779529 -0.00259843 -0.00744095 -0.00236221 -0.00696851 -0.0022441 -0.00543308 0 -0.00755906 -0.00271654 -0.00744095 -0.00283465 -0.00531497 0.000354331 -0.00720473 -0.00318898 -0.00779529 -0.00165355 -0.00744095 -0.00330709 -0.00507875 0.000944883 -0.00767717 -0.00295276 -0.00779529 -0.00271654 -0.00437008 0 -0.00779529 -0.00271654 -0.00720473 -0.00236221 -0.00484253 0 -0.0079134 -0.00259843 -0.00767717 -0.00283465 -0.00732284 -0.00177166 -0.00496064 0 -0.00779529 -0.00318898 -0.00767717 -0.0022441 -0.00720473 -0.0022441 -0.0079134 -0.00259843 -0.00496064 0.000354331 -0.00779529 -0.00259843 -0.0068504 -0.00318898 -0.00755906 -0.00283465 -0.00519686 0.000826773 -0.00755906 -0.00248032 -0.00779529 -0.00248032 -0.00720473 -0.00283465 -0.00555119 0 -0.00708662 -0.00212599 -0.00744095 -0.00295276 -0.00531497 0.000354331 -0.00744095 -0.00259843 -0.00744095 -0.00283465 -0.00720473 -0.00259843 -0.00507875 0.000472442 -0.00803151 -0.00307087 -0.00708662 -0.0022441 -0.00779529 -0.00236221 -0.00744095 -0.00318898 -0.00519686 0.000708662 -0.00696851 -0.0022441 -0.00814962 -0.00318898 -0.00755906 -0.0022441 -0.00496064 -0.00011811 -0.00720473 -0.00259843 -0.00814962 -0.00236221 -0.00708662 -0.00248032 -0.00531497 -0.000236221 -0.00708662 -0.0022441 -0.00755906 -0.00283465 -0.00496064 -0.000236221 -0.00767717 -0.00248032 -0.00755906 -0.00165355 -0.00519686 -0.000354331 -0.00720473 -0.00259843 -0.00744095 -0.0022441 -0.00755906 -0.00248032 -0.00496064 0 -0.00803151 -0.00248032 -0.00472442 -0.000826773 -0.00744095 -0.00200788 -0.00779529 -0.00271654 -0.00696851 -0.00248032 -0.00555119 0 -0.00767717 -0.00236221 -0.0068504 -0.0022441 -0.00803151 -0.00248032 -0.00484253 -0.000590552 -0.00744095 -0.00200788 -0.00732284 -0.00283465 -0.00814962 -0.0022441 -0.00732284 -0.00307087 -0.00519686 0 -0.00720473 -0.0022441 -0.00755906 -0.00283465 -0.00838584 -0.00200788 -0.00425197 0 -0.0079134 -0.00236221 -0.00448819 0 -0.00744095 -0.00271654 -0.0046063 0 -0.0102756 -0.00484253 -0.00531497 0 -0.00767717 -0.00283465 -0.00992127 -0.00437008 -0.00507875 -0.000590552 -0.00472442 0.000590552 -0.0079134 -0.00295276 -0.00519686 0.000472442 -0.00448819 0.00437008 -0.000472442 0.00531497 -0.000590552 -0.000236221zm-4.56579 2.32229c-0.0068504,-0.0561024 -0.00885828,-0.108189 -0.00543308,-0.156614 0.0090945,-0.128977 0.0532678,-0.23315 0.12874,-0.308741 0.0757088,-0.0758269 0.18,-0.120236 0.309095,-0.129685 0.0475985,-0.0034252 0.0993308,-0.00177166 0.154134,0.0046063 -0.169843,-0.059882 -0.312756,-0.0844489 -0.425315,-0.0762993 -0.0790158,0.00578741 -0.137717,0.0278741 -0.174213,0.0643702l0 0.000826773c-0.0369685,0.0369685 -0.0591733,0.0957875 -0.0647245,0.174331 -0.00803151,0.113504 0.017126,0.256772 0.0777166,0.427205zm1.86272 -0.320906c0.198662,0.155906 0.392599,0.328347 0.576024,0.511536 0.0868111,0.086693 0.171614,0.175512 0.253111,0.266457 0.370394,0.399567 0.691891,0.831615 0.86634,1.22374 0.0772442,0.173622 0.129331,0.333898 0.157441,0.478347l2.99587 -3.00603 0.00011811 0.00011811c0.0105118,-0.0103937 0.0219685,-0.020315 0.0348426,-0.0285827 0.00980316,-0.00625985 0.0185433,-0.0132284 0.0261024,-0.0204331l0.00011811 0.00011811 0.000708662 -0.000826773c0.00673229,-0.00649607 0.0140551,-0.0153543 0.0212599,-0.0255118l0.000472442 0.000354331c0.00661418,-0.00956694 0.013937,-0.0186614 0.0223229,-0.0271654 0.0323622,-0.0324804 0.0555119,-0.0660237 0.0581103,-0.115512 0.00448819,-0.0848033 -0.024567,-0.213189 -0.105473,-0.419056l-0.00755906 -0.0184252c-0.0100394,-0.0284646 -0.020315,-0.0553938 -0.0303544,-0.0805513 -0.0124016,-0.0307087 -0.024567,-0.0595276 -0.0357874,-0.0848033 -0.193347,-0.434646 -0.541772,-0.908505 -0.954096,-1.33051 -0.415276,-0.425197 -0.892442,-0.794292 -1.33819,-1.01445l0.00011811 -0.000236221 -0.00744095 -0.00389764c-0.0135827,-0.00744095 -0.0330709,-0.0174803 -0.0565749,-0.0292914l-0.0376772 -0.0185433 -0.00318898 -0.0011811 -0.00011811 0 -0.00885828 -0.00377953c-0.331772,-0.146929 -0.518032,-0.195 -0.629765,-0.183071 -0.0618898,0.00661418 -0.104173,0.0538583 -0.149764,0.115512 -0.00755906,0.0114567 -0.0166536,0.0223229 -0.0266929,0.0324804l-2.99268 3.00296c0.12189,0.0361418 0.270237,0.0924804 0.45567,0.174567 0.247796,0.109843 0.574371,0.327284 0.914411,0.604725l0.0011811 0.000944883zm1.69902 3.22288c-0.0100394,0.0116929 -0.0206693,0.0232677 -0.0315355,0.0341339l-0.000354331 -0.000354331c-0.10937,0.109252 -0.257481,0.172795 -0.439134,0.186024 -0.148229,0.010748 -0.321969,-0.0129921 -0.51815,-0.0744095l1.29732 1.29685c0.177874,-0.240591 0.373583,-0.487205 0.588662,-0.739135 0.272481,-0.31937 0.576142,-0.647599 0.913111,-0.984332l0.000354331 -0.000354331 0.000472442 -0.000472442c0.327756,-0.327993 0.624568,-0.647127 0.892324,-0.957048 0.226536,-0.262087 0.43193,-0.516497 0.617363,-0.763702l-0.650906 -0.675591 -2.6654 2.67437 -0.00413386 0.00401575zm-0.925867 -0.271772c0.170197,0.0601182 0.312756,0.0846851 0.425552,0.0765355 0.0790158,-0.00578741 0.137717,-0.0278741 0.174213,-0.0643702l0 -0.000826773c0.0369685,-0.0369685 0.0591733,-0.0957875 0.0647245,-0.174331 0.00803151,-0.11315 -0.0162992,-0.256181 -0.0765355,-0.426024 0.00649607,0.0553938 0.00767717,0.107599 0.00425197,0.155433 -0.0090945,0.128977 -0.0532678,0.23315 -0.12874,0.308741 -0.0757088,0.0758269 -0.180118,0.120236 -0.309095,0.129685 -0.0478347,0.0034252 -0.0992127,0.00165355 -0.15437,-0.00484253zm-0.906379 -2.40922c-0.2563,-0.210709 -0.523701,-0.384567 -0.775395,-0.496064 -0.207166,-0.0917718 -0.378426,-0.130158 -0.50752,-0.120827 -0.0794883,0.00578741 -0.140906,0.0302363 -0.181772,0.0711024 -0.0409843,0.0411024 -0.0654332,0.102638 -0.0711024,0.182362 -0.00921261,0.129331 0.0291733,0.300355 0.121181,0.50693 0.112323,0.252638 0.288426,0.520512 0.500906,0.777639 -0.140315,-0.18 -0.257244,-0.365434 -0.336024,-0.542599 -0.0812599,-0.182599 -0.114803,-0.339449 -0.105945,-0.463701 0.00720473,-0.102874 0.0428741,-0.186378 0.103819,-0.247441 0.0610631,-0.0612993 0.144685,-0.0969686 0.247677,-0.104528 0.124606,-0.00897639 0.281339,0.0240945 0.463583,0.104882 0.176221,0.078071 0.361182,0.193229 0.540591,0.332245zm-0.230079 1.60181c0.254646,0.208701 0.519331,0.381615 0.769135,0.492284 0.207166,0.0917718 0.378426,0.130158 0.50752,0.120827 0.0796064,-0.00578741 0.140906,-0.0302363 0.181772,-0.0711024 0.0409843,-0.0411024 0.0654332,-0.102638 0.0711024,-0.182362 0.00921261,-0.129331 -0.0291733,-0.300355 -0.121181,-0.50693 -0.111851,-0.251457 -0.286181,-0.518623 -0.497481,-0.774686 0.139134,0.179055 0.254292,0.363662 0.332599,0.539646 0.0812599,0.182599 0.114803,0.339449 0.105945,0.463701 -0.00744095,0.102756 -0.0428741,0.18626 -0.103819,0.247441l0 0.000472442c-0.0608268,0.0608268 -0.144567,0.0964962 -0.247796,0.104055 -0.124606,0.00897639 -0.281221,-0.0240945 -0.463465,-0.104882 -0.174331,-0.0772442 -0.356693,-0.191339 -0.534331,-0.328465zm0.197362 -1.37232c-0.194292,-0.161221 -0.39756,-0.294331 -0.588426,-0.378898 -0.151654,-0.0672048 -0.276142,-0.0953151 -0.368859,-0.0885828 -0.0533859,0.00389764 -0.0942521,0.0197244 -0.120354,0.0459449 -0.0264567,0.0265748 -0.0424016,0.0675591 -0.0461812,0.121063 -0.00661418,0.0929529 0.0214961,0.217205 0.0887009,0.368268 0.0852757,0.191693 0.220276,0.395315 0.383032,0.590316 -0.0905907,-0.11811 -0.166418,-0.239174 -0.218032,-0.355394 -0.0563387,-0.126851 -0.0796064,-0.236693 -0.0734647,-0.324567l0 -0.000472442c0.00543308,-0.0768899 0.0327166,-0.139725 0.0787796,-0.186024l0 -0.000472442c0.0461812,-0.0461812 0.109134,-0.0733465 0.186378,-0.0788977 0.0882285,-0.00637796 0.198307,0.0165355 0.324685,0.0725198 0.115394,0.0511418 0.236221,0.125551 0.353741,0.215197zm-0.17067 1.13835c0.19441,0.161339 0.397205,0.29504 0.58819,0.379607 0.151654,0.0672048 0.276024,0.0953151 0.368741,0.0885828 0.0531497,-0.00389764 0.0940159,-0.0199607 0.120473,-0.0464174l0.000236221 0.000236221c0.0263386,-0.0265748 0.0421654,-0.067441 0.0459449,-0.120827 0.00661418,-0.0929529 -0.0214961,-0.217205 -0.0887009,-0.368268 -0.0853938,-0.191929 -0.220158,-0.396497 -0.383268,-0.591851 0.090945,0.118347 0.166418,0.240473 0.21815,0.35693 0.0564568,0.126969 0.0798426,0.236929 0.0735828,0.32504 -0.00555119,0.0771261 -0.0324804,0.140079 -0.0787796,0.186378l-0.000236221 -0.000236221c-0.0465355,0.0466536 -0.10937,0.0737009 -0.186142,0.0792521 -0.0883466,0.00637796 -0.198425,-0.0165355 -0.324804,-0.0725198 -0.115394,-0.0511418 -0.235748,-0.126024 -0.353386,-0.215906zm0.139488 -0.907442c-0.132756,-0.112441 -0.272599,-0.205512 -0.403111,-0.263268 -0.0959056,-0.0424016 -0.173504,-0.0603544 -0.229961,-0.0562205 -0.0270473,0.00188977 -0.047126,0.00933072 -0.0590552,0.0212599l-0.000236221 -0.000236221c-0.0116929,0.0119291 -0.0190158,0.0318898 -0.0209055,0.0589371l0 0.000472442c-0.00401575,0.056693 0.0138189,0.134292 0.0562205,0.229607 0.0579922,0.130512 0.15189,0.269646 0.264922,0.40252 -0.0408662,-0.0557481 -0.0755906,-0.112559 -0.100039,-0.167481 -0.0317717,-0.0713387 -0.0445276,-0.134528 -0.0411024,-0.185906l0 -0.000472442c0.00366142,-0.0509056 0.0219685,-0.0931891 0.0538583,-0.125079 0.0315355,-0.0315355 0.0735828,-0.0500788 0.124725,-0.0538583l0.000354331 0c0.0514961,-0.00377953 0.114567,0.00921261 0.185906,0.04063l0.00011811 -0.000354331c0.0549213,0.0243307 0.112323,0.0584646 0.168307,0.0994489zm-0.106417 0.678072c0.132402,0.112087 0.270827,0.204803 0.400867,0.262441 0.0959056,0.0424016 0.173622,0.0603544 0.230079,0.0562205 0.0272835,-0.00188977 0.0473623,-0.00921261 0.0590552,-0.0209055l0 -0.000472442c0.0119291,-0.0119291 0.019252,-0.0318898 0.0211418,-0.0590552 0.00401575,-0.056693 -0.013937,-0.134292 -0.0563387,-0.229607 -0.0583465,-0.131339 -0.152362,-0.272126 -0.266457,-0.405709 0.0419292,0.0565749 0.0767717,0.114803 0.101575,0.17067 0.0317717,0.0713387 0.0447638,0.134646 0.0411024,0.186378 -0.00366142,0.0509056 -0.0219685,0.0931891 -0.0538583,0.125079 -0.0315355,0.0315355 -0.0737009,0.0500788 -0.124725,0.0538583 -0.0516142,0.00377953 -0.114685,-0.0090945 -0.18626,-0.04063l-0.00011811 0.000354331c-0.0543308,-0.0240945 -0.110669,-0.0581103 -0.166063,-0.0986222zm0.117992 -0.405119c-0.082441,-0.0823229 -0.175984,-0.152244 -0.260433,-0.189567l0 -0.000472442c-0.0361418,-0.0159449 -0.0647245,-0.023504 -0.0852757,-0.023504 0.000236221,0.0205512 0.0079134,0.0488977 0.0238583,0.0849214 0.037441,0.0842127 0.10748,0.17752 0.19004,0.259961 0.082441,0.0823229 0.175984,0.152244 0.260433,0.189567l0 0.000472442c0.0362599,0.0159449 0.0651969,0.0238583 0.08563,0.0238583 -0.00011811,-0.020315 -0.00814962,-0.0490158 -0.0242126,-0.0852757 -0.037441,-0.0842127 -0.10748,-0.17752 -0.19004,-0.259961zm-0.349489 -0.217323c-0.000826773,0.000826773 -0.000472442,0.000708662 0.000236221,0.000236221 0.000472442,-0.000708662 0.000590552,-0.00106299 -0.000236221,-0.000236221z"/>
</svg>
