<?xml version="1.0" encoding="UTF-8"?>
<!DOCTYPE svg PUBLIC "-//W3C//DTD SVG 1.1//EN" "http://www.w3.org/Graphics/SVG/1.1/DTD/svg11.dtd">
<svg xmlns="http://www.w3.org/2000/svg" xml:space="preserve" style="shape-rendering:geometricPrecision; text-rendering:geometricPrecision; image-rendering:optimizeQuality; fill-rule:evenodd; clip-rule:evenodd"
viewBox="0 0 15.9998 15.9998" xmlns:xlink="http://www.w3.org/1999/xlink">
  <path d="M5.36787 12.3634l5.26438 0 0 -0.694181 -0.127557 -0.127557 -0.297337 0.297337 -0.0884335 0.0885811 -0.0884335 -0.0885811 -0.297042 -0.297042 -0.297042 0.297042 -0.0884335 0.0885811 -0.0884335 -0.0885811 -0.297042 -0.297042 -0.297042 0.297042 -0.0884335 0.0885811 -0.0884335 -0.0885811 -0.297337 -0.297337 -0.297485 0.297337 -0.0882858 0.0881382 -0.0879906 -0.0881382 -0.297042 -0.297042 -0.297042 0.297042 -0.0884335 0.0885811 -0.0884335 -0.0885811 -0.297042 -0.297042 -0.297042 0.297042 -0.0884335 0.0885811 -0.0884335 -0.0885811 -0.297337 -0.297337 -0.297485 0.297337 -0.0882858 0.0881382 -0.0879906 -0.0881382 -0.0366135 -0.0366135 0 0.561014zm0 -2.13185l5.26438 0 0 -6.59516 -5.26438 0 0 6.59516zm5.26438 1.08512l0 -0.564262 -5.26438 0 0 0.696248 0.125342 0.125342 0.297485 -0.297337 0.0881382 -0.0879906 0.0881382 0.0879906 0.297042 0.297042 0.297042 -0.297042 0.0884335 -0.0882858 0.0884335 0.0882858 0.297042 0.297042 0.297042 -0.297042 0.0884335 -0.0882858 0.0884335 0.0882858 0.297337 0.297337 0.297485 -0.297337 0.0881382 -0.0879906 0.0881382 0.0879906 0.297042 0.297042 0.297042 -0.297042 0.0884335 -0.0882858 0.0884335 0.0882858 0.297042 0.297042 0.297042 -0.297042 0.0884335 -0.0882858 0.0884335 0.0882858 0.297042 0.297042 0.297042 -0.297042 0.0879906 -0.0879906 0.0882858 0.0879906 0.0400091 0.0400091zm0.260428 1.56759l-5.78523 0 -0.260428 0 0 -0.260428 0 -1.87128 -0.000147635 0 0.000147635 -0.260576 0 -0.260428 0 -6.85559 -0.000147635 -0.260281 0.260576 -0.000147635 5.78523 0 0.260281 0.000147635 0.000147635 0.260281 0 6.85559 0 0.260428 0 2.13185 0 0.260428 -0.260428 0z"/>
</svg>
