<?xml version="1.0" encoding="UTF-8"?>
<!DOCTYPE svg PUBLIC "-//W3C//DTD SVG 1.1//EN" "http://www.w3.org/Graphics/SVG/1.1/DTD/svg11.dtd">
<svg xmlns="http://www.w3.org/2000/svg" xml:space="preserve" style="shape-rendering:geometricPrecision; text-rendering:geometricPrecision; image-rendering:optimizeQuality; fill-rule:evenodd; clip-rule:evenodd"
viewBox="0 0 21.3336 21.3336" xmlns:xlink="http://www.w3.org/1999/xlink">
  <path d="M14.605 15.0999l0 -2.21379 0 -8.72249 -7.87643 0 0 8.72249 0 2.21379 0.740753 -0.740949 0.245671 -0.245474 0.101575 -0.101772 0.000196852 0 0.143702 0 5.41263 0 0.143702 0 0.000196852 0 0.101575 0.101772 0.245474 0.245474 0.740949 0.740949zm-2.81104 0.347246l0.740949 -0.740949 -1.4819 0 0.740949 0.740949zm-2.99529 -0.740949l0.740949 0.740949 0.740949 -0.740949 -1.4819 0zm0.250002 1.2319l-1.0882 -1.0882 -1.0882 1.0882 1.0882 1.0882 1.0882 -1.0882zm4.32444 -1.0882l-1.0882 1.0882 1.0882 1.0882 1.0882 -1.0882 -1.0882 -1.0882zm-7.13548 1.43544l-0.101772 -0.101772 -0.101772 -0.101772 0 -0.143702 0 -0.143505 0 -11.9782 0.000196852 -0.347049 0.347049 -0.000196852 8.57092 0 0.347443 0.000196852 -0.000196852 0.347049 0 11.978 0 0.143702 0 0.143899 -0.101772 0.101575 -0.101575 0.101772 -0.000196852 0 -1.2319 1.2319 0.000196852 0.000196852 -0.245671 0.245277 -0.101575 0.101772 -0.000196852 0 -0.143702 0 -5.41263 0 -0.143702 0 -0.101772 -0.101772 -0.245474 -0.245474 -1.2319 -1.2319zm6.29728 0.884651l-1.2319 -1.2319 -0.636224 -0.636224 -0.636224 0.636224 -1.2319 1.2319 3.73624 0z"/>
</svg>
