<?xml version="1.0" encoding="UTF-8"?>
<!DOCTYPE svg PUBLIC "-//W3C//DTD SVG 1.1//EN" "http://www.w3.org/Graphics/SVG/1.1/DTD/svg11.dtd">
<svg xmlns="http://www.w3.org/2000/svg" xml:space="preserve" style="shape-rendering:geometricPrecision; text-rendering:geometricPrecision; image-rendering:optimizeQuality; fill-rule:evenodd; clip-rule:evenodd"
viewBox="0 0 32.0006 32.0006" xmlns:xlink="http://www.w3.org/1999/xlink">
  <path d="M13.3862 24.3859l5.22821 0 0 -17.0491 -5.22821 0 0 17.0491zm0 -19.0284l1.66095 -0.117816 0.0230318 -0.0014764 0.0259846 0.00324807 2.12335 0.274019 1.3949 -0.0879932 0 -1.29037 0 -0.520873 0.520873 0 2.95634 0 0.520873 0 0 0.520873 0 20.2488 0 0.520873 0 0.520873 0 2.43546 0 0.520873 -0.520873 0 -12.1829 0 -0.520873 0 0 -0.520873 0 -2.95634 0 -0.520873 0.000295279 0 0 -20.2488 0 -0.520873 0.520873 0 2.95634 0 0.520873 0 0 0.520873 0 1.22039zm5.22821 0.569889l-1.38604 0.0874027 -0.0221459 0.0014764 -0.0248035 -0.00324807 -2.12158 -0.274019 -1.67364 0.118702 0 0.437309 5.22821 0 0 -0.367623zm2.95634 -1.26941l-1.91459 0 0 1.63703 0 0.520873 0 17.57 1.91459 0 0 -19.7279zm-9.22629 0l-1.91459 0 0 19.7279 1.91459 0 0 -17.57 0 -0.520873 0 -1.63703zm-1.91489 20.7696l0 1.91459 11.1412 0 0 -1.91459 -1.91459 0 0 0.000295279 -0.520873 -0.000295279 -0.520873 0 -5.22821 0 -0.520873 0 -0.520873 0.000295279 0 -0.000295279 -1.91489 0z"/>
</svg>
