<?xml version="1.0" encoding="UTF-8"?>
<!DOCTYPE svg PUBLIC "-//W3C//DTD SVG 1.1//EN" "http://www.w3.org/Graphics/SVG/1.1/DTD/svg11.dtd">
<svg xmlns="http://www.w3.org/2000/svg" xml:space="preserve" style="shape-rendering:geometricPrecision; text-rendering:geometricPrecision; image-rendering:optimizeQuality; fill-rule:evenodd; clip-rule:evenodd"
viewBox="0 0 64.0024 64.0024" xmlns:xlink="http://www.w3.org/1999/xlink">
  <path d="M27.3292 31.4059l-2.83237 -2.83178 -0.937234 0.936643 1.09905 1.09905 -0.876995 0.876995 -1.09905 -1.09905 -0.936643 0.937234 2.83178 2.83237 0.937234 -0.937234 -1.02228 -1.02228 0.876995 -0.876995 1.02228 1.02228 0.937234 -0.937234zm-18.8303 1.99671l1.42268 -1.42268c-0.656123,-0.786048 -1.33173,-1.59454 -2.03333,-2.42665l-0.566356 -0.671477 0.566356 -0.671477c4.39974,-5.20882 8.58333,-9.78514 12.6713,-13.3475 4.15052,-3.61783 8.2101,-6.1933 12.3022,-7.33192l0.585845 -0.162407 0.426982 0.426982 22.183 22.183 0.73644 0.73644 -0.73644 0.73644 -24.7543 24.7543 -0.799631 0.800221 -0.683879 -0.810261 -21.3207 -21.3201 -0.73644 -0.735849 0.73644 -0.737031zm11.1641 7.17365l0.0395681 0.0496078 0.112799 0.138193 0.00944911 0.012402 0.122248 0.151186 0.0188982 0.0224416 0.455329 0.56045c3.15128,3.88595 6.30492,7.77425 10.2098,12.4214l23.2171 -23.2171 -21.0095 -21.0095c-3.57708,1.12681 -7.18782,3.47373 -10.9125,6.72009 -3.81449,3.32372 -7.74532,7.59295 -11.8834,12.4598 3.62196,4.30761 6.64331,8.0217 9.62037,11.6909zm-4.82259 -2.63866c-1.14511,-1.40142 -2.32743,-2.84182 -3.58003,-4.35072l-0.552182 0.552182 5.59919 5.5986 -0.0171265 -0.0212605 -0.0596475 -0.07264 -0.0761834 -0.0939005 -0.0248039 -0.030119 -0.0513795 -0.0637815 -0.0761834 -0.09331 -0.0318907 -0.0389776 -0.0448833 -0.0549229 -0.0761834 -0.0939005 -0.0395681 -0.0484267 -0.0366153 -0.0454738 -0.0761834 -0.09331 -0.230322 -0.282883 -0.0761834 -0.0939005 -0.0626004 -0.076774 -0.0153548 -0.0183076 -0.0761834 -0.0939005 -0.0708683 -0.0862231 -0.00590569 -0.0076774 -0.0761834 -0.0939005 -0.0779552 -0.0956722 -0.00118114 -0.000590569 -0.0761834 -0.09331 -0.0779552 -0.0956722 -0.00944911 -0.0112208zm14.4199 -9.26308l0.540962 0.258669 0.998062 -0.998062 -3.98339 -1.68076 -0.961447 0.962037 1.63588 4.02768 0.962037 -0.961447 -0.255126 -0.545096 1.06302 -1.06302zm-0.901209 -0.439974l-0.589388 0.589388 -0.52915 -1.12681 1.11854 0.537418zm5.81829 -3.67688l-2.83237 -2.83178 -0.989794 0.989794 0.86046 2.09711 -2.09711 -0.86105 -0.989794 0.989794 2.83237 2.83237 0.816167 -0.816167 -1.55143 -1.55143 1.76108 0.791953 0.614783 -0.614192 -0.791953 -1.76167 1.55143 1.55143 0.816167 -0.816167zm-12.1061 14.6839l2.83237 2.83237 1.503 -1.503c0.171856,-0.173627 0.310639,-0.348436 0.413399,-0.525607 0.102168,-0.177171 0.168312,-0.350208 0.199022,-0.519701 0.030119,-0.168903 0.0236228,-0.328947 -0.0212605,-0.480723 -0.0448833,-0.150595 -0.126382,-0.287017 -0.248039,-0.409265 -0.119295,-0.118704 -0.252764,-0.203746 -0.396272,-0.256898 -0.14528,-0.0513795 -0.292922,-0.0696872 -0.442927,-0.0519701 -0.151186,0.0159454 -0.297647,0.0679155 -0.437612,0.15591 0.0673249,-0.128154 0.106893,-0.258079 0.118704,-0.388595 0.0112208,-0.129925 -0.00354342,-0.255126 -0.0448833,-0.375012 -0.042521,-0.119295 -0.110436,-0.225597 -0.203156,-0.319498 -0.108665,-0.107484 -0.233275,-0.180124 -0.37324,-0.214967 -0.140556,-0.0348436 -0.291741,-0.0348436 -0.452376,0.000590569 -0.160635,0.0354342 -0.326585,0.105712 -0.49785,0.209652 -0.171265,0.104531 -0.343711,0.241543 -0.514976,0.412808l-1.4339 1.4339zm1.62052 -0.246267l0.448242 -0.448242c0.0655532,-0.0649626 0.13524,-0.0992157 0.208471,-0.102759 0.0732306,-0.00295285 0.141737,0.0259851 0.203156,0.0868137 0.0626004,0.0631909 0.09331,0.132878 0.0915382,0.208471 -0.00177171,0.0744117 -0.0348436,0.14528 -0.0992157,0.210833l-0.448242 0.448833 -0.403949 -0.403949zm1.02582 1.02582l0.448833 -0.448242c0.0885854,-0.0874043 0.17658,-0.137603 0.263984,-0.152367 0.0885854,-0.0141737 0.164769,0.00885854 0.22855,0.0714589 0.0690966,0.0702778 0.0974439,0.151776 0.0868137,0.243905 -0.0112208,0.0903571 -0.0596475,0.180714 -0.147642,0.2693l-0.448242 0.448242 -0.432297 -0.432297zm2.95757 -6.38287l-0.937234 0.936643 1.63233 1.63233c0.0939005,0.0956722 0.157682,0.195478 0.190163,0.299419 0.0330719,0.104531 0.0377964,0.206109 0.0135831,0.304734 -0.0242133,0.0986251 -0.0744117,0.18662 -0.151186,0.264575 -0.0797269,0.0779552 -0.171265,0.132288 -0.275205,0.160044 -0.102759,0.0277568 -0.209652,0.0265756 -0.317726,-0.00177171 -0.108665,-0.0295285 -0.209062,-0.0903571 -0.304143,-0.182486l-1.63233 -1.63233 -0.937234 0.937824 1.63233 1.63233c0.188982,0.18721 0.392729,0.324813 0.608877,0.412217 0.216148,0.0868137 0.439384,0.125201 0.668525,0.113389 0.229141,-0.0112208 0.457101,-0.0720495 0.682698,-0.181895 0.225597,-0.109846 0.442336,-0.267528 0.649626,-0.473637 0.205518,-0.206699 0.360838,-0.421667 0.468912,-0.644311 0.107484,-0.223826 0.16595,-0.449423 0.174809,-0.676202 0.00944911,-0.226779 -0.0307096,-0.448242 -0.119295,-0.662619 -0.0885854,-0.214967 -0.227369,-0.417533 -0.41517,-0.605924l-1.63233 -1.63233zm4.82377 0.83979l1.05889 -1.0583 -1.47938 -0.3632c0.0566947,-0.235637 0.0484267,-0.46655 -0.0271662,-0.69451 -0.0744117,-0.226779 -0.214967,-0.444108 -0.421076,-0.651398 -0.216148,-0.215558 -0.447652,-0.350798 -0.692738,-0.407493 -0.245086,-0.0561041 -0.497259,-0.034253 -0.755338,0.0661438 -0.258669,0.101578 -0.516748,0.279339 -0.773646,0.535056l-1.36953 1.37012 2.83178 2.83178 0.937234 -0.936643 -0.735259 -0.735849 0.351389 -0.351389 1.07484 0.395681zm-2.13727 -0.755338l-0.67443 -0.67443 0.432297 -0.432297c0.102168,-0.100987 0.210243,-0.151186 0.322451,-0.148823 0.112208,0.00177171 0.221464,0.0561041 0.327766,0.160635 0.109255,0.111027 0.165359,0.222054 0.169493,0.336625 0.00413399,0.11457 -0.0442927,0.223826 -0.14528,0.325994l-0.432297 0.432297zm3.77787 -3.86646l0.658485 0.658485c-0.0407493,0.0986251 -0.0862231,0.187801 -0.132878,0.2693 -0.0484267,0.080908 -0.0974439,0.146461 -0.146461,0.195478 -0.125201,0.122248 -0.262803,0.202565 -0.415761,0.240952 -0.153548,0.0377964 -0.308277,0.0336625 -0.464778,-0.0118114 -0.15532,-0.046655 -0.298828,-0.13465 -0.432297,-0.265166 -0.0956722,-0.0968534 -0.169493,-0.201384 -0.218511,-0.313592 -0.0501984,-0.112799 -0.0761834,-0.226779 -0.0797269,-0.343711 -0.00354342,-0.115161 0.0159454,-0.22796 0.0602381,-0.337806 0.0437021,-0.109846 0.111027,-0.209652 0.201384,-0.302372 0.0791363,-0.0785457 0.173627,-0.147052 0.28052,-0.205518 0.107484,-0.0596475 0.222645,-0.106302 0.346074,-0.139374 0.122838,-0.0330719 0.246858,-0.0519701 0.371468,-0.0549229l-0.112799 -1.1711c-0.142918,0.00885854 -0.289379,0.034253 -0.437612,0.076774 -0.148823,0.0407493 -0.295875,0.0956722 -0.441155,0.164178 -0.14528,0.0696872 -0.283473,0.151186 -0.416942,0.242133 -0.132878,0.0921288 -0.254535,0.193707 -0.364972,0.304143 -0.231503,0.233275 -0.408674,0.483086 -0.530922,0.748251 -0.122838,0.265756 -0.190754,0.534465 -0.204337,0.805537 -0.012402,0.273434 0.0289379,0.536237 0.125791,0.790182 0.0974439,0.254535 0.250992,0.48722 0.460054,0.698644 0.212014,0.209062 0.444108,0.365562 0.696872,0.46655 0.251583,0.100987 0.511433,0.148233 0.779552,0.141737 0.267528,-0.0076774 0.530922,-0.0690966 0.789591,-0.183076 0.257488,-0.115752 0.499031,-0.283473 0.724038,-0.506118 0.101578,-0.101578 0.199022,-0.218511 0.292332,-0.347255 0.0939005,-0.129335 0.178943,-0.266347 0.258079,-0.409265 0.0785457,-0.142918 0.145871,-0.287017 0.201384,-0.431706 0.0561041,-0.14528 0.0980345,-0.284064 0.12461,-0.415761l-1.16756 -1.16756 -0.803765 0.803765zm2.91682 -4.1771l-0.711045 -0.711045 -2.39594 2.39535 2.83237 2.83237 2.43196 -2.43196 -0.711045 -0.711045 -1.49532 1.49473 -0.351389 -0.351389 1.32524 -1.32583 -0.710455 -0.710455 -1.32583 1.32524 -0.347255 -0.347255 1.45871 -1.45871zm4.14107 0.100397l1.05889 -1.0583 -1.47938 -0.3632c0.0566947,-0.235637 0.0484267,-0.46655 -0.0271662,-0.69451 -0.0744117,-0.226779 -0.214967,-0.444108 -0.421076,-0.651398 -0.216148,-0.215558 -0.447652,-0.350798 -0.692147,-0.407493 -0.245677,-0.0561041 -0.49785,-0.0348436 -0.755929,0.0661438 -0.258669,0.101578 -0.516748,0.279339 -0.773646,0.535056l-1.36953 1.37012 2.83178 2.83178 0.937234 -0.936643 -0.735259 -0.735849 0.351389 -0.351389 1.07484 0.395681zm-2.13727 -0.755338l-0.67443 -0.67443 0.432297 -0.432297c0.102168,-0.101578 0.210243,-0.151186 0.322451,-0.148823 0.112208,0.00177171 0.221464,0.0561041 0.327766,0.160635 0.109255,0.110436 0.165359,0.222054 0.169493,0.336625 0.00413399,0.11457 -0.0442927,0.223826 -0.14528,0.325994l-0.432297 0.432297z"/>
</svg>
