<?xml version="1.0" encoding="UTF-8"?>
<!DOCTYPE svg PUBLIC "-//W3C//DTD SVG 1.1//EN" "http://www.w3.org/Graphics/SVG/1.1/DTD/svg11.dtd">
<svg xmlns="http://www.w3.org/2000/svg" xml:space="preserve" style="shape-rendering:geometricPrecision; text-rendering:geometricPrecision; image-rendering:optimizeQuality; fill-rule:evenodd; clip-rule:evenodd"
viewBox="0 0 1.73398e+006 1.73398e+006" xmlns:xlink="http://www.w3.org/1999/xlink">
  <path d="M685024 1.04949e+006l-76720 -76736 -25392 25392 29760 29760 -23760 23760 -29760 -29760 -25392 25376 76736 76736 25392 -25392 -27696 -27696 23744 -23760 27696 27696 25392 -25376zm-348688 104112l38672 -38672 -60928 -99232 -10608 -17264 13152 -15584c144256,-170768 281328,-320720 415200,-437408 135600,-118160 268048,-202240 401408,-239344l15856 -4400 11584 11568 255152 255184 19936 19968 -19936 19936 -812368 812368 -25248 25248 -16800 -27392 -225072 -225072 -19952 -19952 19952 -19952zm98336 -49056l154112 251040 767184 -767184 -223424 -223456c-119408,36816 -239648,114736 -363696,222832 -127120,110800 -258144,253328 -396080,415904l61904 100864zm-29312 59840l-9168 9168 38304 38304 -29136 -47472zm251424 -241664c-6112,6160 -10752,12736 -13984,19776 -3200,7056 -4944,14192 -5248,21456 -272,7232 912,14304 3616,21136 2672,6816 6880,13104 12560,18864 5776,5712 12096,9936 18960,12656 6880,2752 13984,3968 21280,3760 7312,-240 14496,-1952 21584,-5120 7056,-3216 13664,-7824 19840,-13936 6096,-6160 10736,-12784 13904,-19856 3168,-7072 4864,-14272 5088,-21584 240,-7328 -1008,-14416 -3744,-21280 -2720,-6880 -6944,-13200 -12624,-18928 -5728,-5680 -11984,-9840 -18832,-12528 -6800,-2672 -13856,-3888 -21120,-3600 -7264,288 -14432,2016 -21472,5216 -7024,3216 -13648,7856 -19808,13968zm21456 20800c2208,-2208 4720,-3792 7520,-4816 2768,-1024 5664,-1424 8736,-1264 3040,176 6080,960 9088,2336 3008,1408 5824,3408 8480,6048 2640,2656 4656,5488 6080,8528 1392,3008 2208,6064 2416,9152 192,3088 -192,6016 -1200,8800 -992,2832 -2592,5328 -4784,7552 -2208,2192 -4752,3824 -7632,4880 -2864,1072 -5904,1552 -9056,1424 -3152,-128 -6288,-864 -9376,-2192 -3104,-1344 -5968,-3328 -8624,-5968 -2640,-2656 -4608,-5504 -5952,-8576 -1328,-3072 -2048,-6160 -2128,-9280 -112,-3136 384,-6112 1472,-8960 1072,-2864 2736,-5440 4960,-7664zm109456 -110112l-20016 -20032 -69072 69072 20016 20016 21792 -21776 56704 56704 25392 -25392 -56704 -56704 21888 -21888zm67232 -6144l-15328 -15328 -30656 30656 15328 15328 30656 -30656zm-39616 -61520l76720 76736 33280 -33280c6496,-6544 11440,-13296 14912,-20336 3408,-7040 5328,-14096 5680,-21200 384,-7104 -784,-14000 -3520,-20704 -2704,-6720 -6992,-13024 -12816,-18864 -5872,-5856 -12128,-10144 -18768,-12864 -6656,-2752 -13488,-3968 -20480,-3664 -7008,288 -13984,2096 -20880,5424 -6896,3312 -13520,8160 -19872,14496l-34256 34256zm45072 -5696l8336 -8320c3328,-3280 6960,-5360 10960,-6256 3952,-880 8048,-608 12192,880 4160,1456 8144,4096 11968,7904 3776,3792 6416,7680 7952,11696 1520,3968 1904,7856 1168,11600 -752,3776 -2640,7200 -5728,10304l-9520 9520 -37328 -37328zm75536 -116464c-6112,6160 -10752,12736 -13984,19776 -3200,7056 -4960,14192 -5248,21456 -272,7248 912,14320 3616,21136 2656,6816 6864,13120 12544,18864 5792,5712 12096,9936 18976,12656 6880,2768 13968,3968 21280,3760 7312,-240 14496,-1952 21584,-5120 7056,-3216 13664,-7824 19824,-13920 6096,-6176 10736,-12800 13920,-19872 3152,-7072 4848,-14272 5088,-21584 240,-7328 -1008,-14416 -3760,-21264 -2704,-6880 -6928,-13216 -12624,-18944 -5712,-5664 -11984,-9840 -18816,-12512 -6800,-2688 -13856,-3888 -21120,-3616 -7264,304 -14448,2016 -21472,5216 -7040,3216 -13648,7872 -19808,13968zm21456 20800c2208,-2208 4720,-3792 7520,-4800 2768,-1040 5664,-1440 8736,-1280 3040,176 6064,960 9088,2352 3008,1392 5824,3408 8480,6032 2640,2672 4656,5488 6080,8528 1392,3024 2208,6080 2400,9152 192,3088 -176,6016 -1184,8816 -992,2816 -2592,5328 -4784,7536 -2224,2208 -4752,3824 -7632,4880 -2864,1072 -5904,1552 -9056,1424 -3152,-128 -6288,-864 -9376,-2176 -3104,-1360 -5968,-3344 -8624,-5984 -2640,-2656 -4608,-5504 -5952,-8576 -1328,-3056 -2048,-6160 -2144,-9280 -96,-3136 384,-6112 1488,-8944 1072,-2864 2720,-5456 4960,-7680zm114496 -82528l17840 17840c-1104,2672 -2320,5088 -3584,7280 -1312,2192 -2640,3968 -3984,5312 -3376,3312 -7104,5488 -11248,6528 -4160,1024 -8368,912 -12592,-336 -4224,-1248 -8112,-3632 -11712,-7184 -2608,-2624 -4592,-5440 -5936,-8480 -1344,-3056 -2064,-6144 -2160,-9312 -96,-3136 448,-6192 1632,-9168 1184,-2976 3008,-5680 5472,-8176 2128,-2144 4688,-4000 7584,-5584 2928,-1600 6048,-2864 9376,-3760 3328,-912 6688,-1408 10080,-1488l-3072 -31744c-3872,256 -7840,944 -11856,2080 -4032,1120 -8016,2608 -11952,4464 -3920,1888 -7680,4080 -11280,6560 -3600,2496 -6912,5248 -9888,8240 -6288,6320 -11088,13088 -14400,20272 -3328,7200 -5168,14464 -5536,21824 -336,7392 784,14512 3424,21408 2640,6880 6800,13200 12448,18928 5744,5664 12032,9904 18896,12640 6800,2736 13856,4016 21120,3824 7232,-192 14384,-1856 21376,-4944 6976,-3136 13520,-7680 19616,-13712 2752,-2752 5408,-5920 7920,-9424 2544,-3488 4864,-7200 6992,-11088 2128,-3856 3952,-7760 5456,-11696 1536,-3920 2656,-7680 3392,-11248l-31648 -31632 -21776 21776z"/>
</svg>
