<?xml version="1.0" encoding="UTF-8"?>
<!DOCTYPE svg PUBLIC "-//W3C//DTD SVG 1.1//EN" "http://www.w3.org/Graphics/SVG/1.1/DTD/svg11.dtd">
<svg xmlns="http://www.w3.org/2000/svg" xml:space="preserve" style="shape-rendering:geometricPrecision; text-rendering:geometricPrecision; image-rendering:optimizeQuality; fill-rule:evenodd; clip-rule:evenodd"
viewBox="0 0 63.997 63.997" xmlns:xlink="http://www.w3.org/1999/xlink">
  <path d="M33.1489 33.6254c5.26567,-3.73209 0.302937,-8.76627 -2.30008,-9.07571 1.86841,1.32158 2.05383,4.37103 0,5.82194 -5.26567,3.73209 -0.303527,8.76627 2.30008,9.07571 -1.869,-1.32158 -2.05383,-4.37103 0,-5.82194zm6.73075 0c5.26567,-3.73209 0.302937,-8.76627 -2.30067,-9.07571 1.869,1.32158 2.05383,4.37103 0,5.82194 -5.26567,3.73209 -0.302937,8.76627 2.30067,9.07571 -1.869,-1.32158 -2.05383,-4.37103 0,-5.82194zm-13.4615 0c5.26567,-3.73209 0.302937,-8.76627 -2.30008,-9.07571 1.86841,1.32158 2.05383,4.37103 0,5.82194 -5.26567,3.73209 -0.303527,8.76627 2.30008,9.07571 -1.869,-1.32158 -2.05383,-4.37103 0,-5.82194zm-6.20164 17.8302l23.5635 0 0 -3.1522 -0.678508 -0.678508 -1.35524 1.35524 -0.353722 0.353722 -0.353722 -0.353722 -1.35524 -1.35524 -1.35524 1.35524 -0.353722 0.353722 -0.353722 -0.353722 -1.35524 -1.35524 -1.35524 1.35524 -0.353722 0.353722 -0.353722 -0.353722 -1.35524 -1.35524 -1.35524 1.35524 -0.353722 0.353722 -0.353722 -0.353722 -1.35524 -1.35524 -1.35524 1.35524 -0.353722 0.353722 -0.353722 -0.353722 -1.35524 -1.35524 -1.35524 1.35524 -0.353722 0.353722 -0.353722 -0.353722 -1.35524 -1.35524 -1.35524 1.35524 -0.353722 0.353722 -0.353722 -0.353722 -0.314747 -0.314747 0 2.79021zm23.5635 -4.56708l0 -2.80025 -23.5635 0 0 3.16224 0.668469 0.668469 1.35524 -1.35524 0.353722 -0.353722 0.353722 0.353722 1.35524 1.35524 1.35524 -1.35524 0.353722 -0.353722 0.353722 0.353722 1.35524 1.35524 1.35524 -1.35524 0.353722 -0.353722 0.353722 0.353722 1.35524 1.35524 1.35524 -1.35524 0.353722 -0.353722 0.353722 0.353722 1.35524 1.35524 1.35524 -1.35524 0.353722 -0.353722 0.353722 0.353722 1.35524 1.35524 1.35524 -1.35524 0.353722 -0.353722 0.353722 0.353722 1.35524 1.35524 1.35524 -1.35524 0.353131 -0.353722 0.354312 0.353722 0.324786 0.324786zm0 -4.8836l0 -29.4634 -23.5635 0 0 29.4634 23.5635 0zm-25.6469 -30.5051l0 -1.04168 1.04168 0 25.6469 0 1.04168 0 0 1.04168c0,13.6658 0,27.3316 0,40.9975l0 1.04168 -1.04168 0 -25.6469 0 -1.04168 0 0 -1.04168c0,-13.6652 0,-27.3322 0,-40.9975z"/>
</svg>
