<?xml version="1.0" encoding="UTF-8"?>
<!DOCTYPE svg PUBLIC "-//W3C//DTD SVG 1.1//EN" "http://www.w3.org/Graphics/SVG/1.1/DTD/svg11.dtd">
<svg xmlns="http://www.w3.org/2000/svg" xml:space="preserve" style="shape-rendering:geometricPrecision; text-rendering:geometricPrecision; image-rendering:optimizeQuality; fill-rule:evenodd; clip-rule:evenodd"
viewBox="0 0 31.9993 31.9993" xmlns:xlink="http://www.w3.org/1999/xlink">
  <path d="M19.6745 7.19802c0.288771,0 0.522623,0.233851 0.522623,0.522327 0,0.288771 -0.233851,0.522623 -0.522623,0.522623 -0.288476,0 -0.522327,-0.233851 -0.522327,-0.522623 0,-0.288476 0.233851,-0.522327 0.522327,-0.522327zm-10.6958 -1.00568l0 -0.00413374 -0.0286409 -0.478037 0.0286409 -0.00206687 0.484238 -0.0345462 4.53589 -0.321546 0.0445853 -0.00295267 0.0569865 0.00708641 4.37527 0.56455 3.92026 -0.247138 0.55333 -0.0348415 0 0.553626 0 0.201963 0.0593487 5.91449 0 0.0345462 -0.309145 5.09276 0.319184 4.29141 0.000885801 0.0138775 -0.000885801 0.0369084 -0.0720451 2.60839 0.0017716 0 0 1.31217 0 0.460026 -0.457664 0.0566913 -3.46496 0.429613 -0.0631871 0.00797221 -0.0631871 -0.00797221 -6.02138 -0.743777 -3.32973 0.314164 -0.56957 0.0537386 0 -0.570456 0 -1.31217 0.00206687 -0.0366131 0.284047 -3.88601 -0.212592 -4.74907 -0.00118107 -0.0224403 0.00118107 -0.0224403 0.212887 -4.68441 -0.0947807 -1.58883 -0.191628 -3.20453zm12.9631 3.21132l-3.44517 0.217021 -0.0439948 0.00295267 -0.0534433 -0.00708641 -4.37202 -0.56396 -3.81987 0.27076 0.0968476 1.62426 0.00118107 0.0230308 -0.00118107 0.029822 -0.213478 4.69238 0.213478 4.76295 0.00147633 0.0369084 -0.00147633 0.022145 -0.283752 3.8801 0 0.733443 2.82364 -0.266331 0.0631871 -0.00590534 0.048719 0.00590534 6.00662 0.742006 2.94411 -0.365245 0 -0.85214 0.00206687 -0.0141728 0.0714546 -2.58565 -0.32066 -4.30765 -0.00236214 -0.0301172 0.00236214 -0.0369084 0.311211 -5.12465 -0.0289362 -2.88387zm-11.8928 -2.72886l0.096257 1.61009 3.85353 -0.273122 0.0445853 -0.00295267 0.0569865 0.00708641 4.37527 0.56455 3.43189 -0.216431 0 -1.61806 -3.41092 0.214954 -0.0439948 0.00295267 -0.0534433 -0.00708641 -4.37202 -0.56396 -3.97813 0.28198zm1.94227 0.120174c0.288771,0 0.522623,0.233851 0.522623,0.522327 0,0.288771 -0.233851,0.522623 -0.522623,0.522623 -0.288476,0 -0.522327,-0.233851 -0.522327,-0.522623 0,-0.288476 0.233851,-0.522327 0.522327,-0.522327z"/>
</svg>
