<?xml version="1.0" encoding="UTF-8"?>
<!DOCTYPE svg PUBLIC "-//W3C//DTD SVG 1.1//EN" "http://www.w3.org/Graphics/SVG/1.1/DTD/svg11.dtd">
<svg xmlns="http://www.w3.org/2000/svg" xml:space="preserve" style="shape-rendering:geometricPrecision; text-rendering:geometricPrecision; image-rendering:optimizeQuality; fill-rule:evenodd; clip-rule:evenodd"
viewBox="0 0 21.333 21.333" xmlns:xlink="http://www.w3.org/1999/xlink">
  <path d="M7.41224 15.4152l3.79657 -3.79893c0.241137,-0.241333 0.780495,-0.407275 1.45646,-0.479517 0.652742,-0.0698804 1.44544,-0.0578728 2.2218,0.0525579 0.716323,0.101966 1.30076,0.271845 1.68343,0.468691l0.0364165 0.0196846 0.156099 -0.156296 0.2122 -0.2122 0 -0.00137792c0.0141729,-0.0141729 0.0218499,-0.0232278 0.023031,-0.0263774 0.00433062,-0.0118108 -0.0116139,0.0108265 -0.0212594,-0.00118108 -0.0561012,-0.0710615 -0.166532,-0.149406 -0.323221,-0.230113 -0.383259,-0.19724 -0.985806,-0.369677 -1.73855,-0.476958 -0.836793,-0.119092 -1.68756,-0.132477 -2.38617,-0.0576759 -0.600774,0.0643687 -1.06907,0.184445 -1.28147,0.347433 -0.0143698,0.0165351 -0.0287395,0.0326765 -0.043503,0.0474399l-4.30699 4.3003 0 0.00118108c-0.0139761,0.0139761 -0.0216531,0.023031 -0.0228342,0.0263774 -0.00413377,0.0116139 0.0118108,-0.0106297 0.0212594,0.00137792 0.056298,0.0712583 0.166532,0.149406 0.323418,0.230113 0.0340544,0.0175193 0.0702741,0.0344481 0.107675,0.0515737 0.023031,-0.0368102 0.05118,-0.0724394 0.0852344,-0.106494l0.000393692 0.000393692zm-2.34011 -7.08823l3.8013 -3.795 0.00551169 -0.00531485 0.0206688 -0.0196846 0.00807069 -0.00826754c0.152753,-0.136021 0.321253,-0.190941 0.499005,-0.170862 0.0661403,0.00728331 0.129525,0.02559 0.191334,0.0533453l0.227357 -0.226964 -0.000590538 -0.000590538c0.0854312,-0.0854312 0.179524,-0.146454 0.278734,-0.182673 0.232278,-0.0850375 0.458061,-0.0366134 0.668293,0.129525 0.15039,0.118895 0.291726,0.306096 0.417117,0.549988 0.230507,0.448809 0.428731,1.12891 0.546445,1.95842 0.126769,0.892894 0.139958,1.80469 0.0590538,2.55585 -0.0312985,0.290348 -0.0785416,0.559437 -0.139761,0.799983 0.240349,-0.0608255 0.510816,-0.107084 0.801164,-0.138186 0.752149,-0.0805101 1.66394,-0.0667308 2.55703,0.0604318 0.82951,0.118108 1.50961,0.316529 1.95823,0.547429 0.242514,0.124997 0.429125,0.266333 0.548413,0.417511 0.166335,0.210232 0.214365,0.436014 0.129525,0.668096 -0.0368102,0.0994073 -0.0974388,0.193303 -0.18287,0.278734l-0.000590538 -0.000590538 -0.224405 0.224601c0.0309048,0.0641718 0.0515737,0.130115 0.0604318,0.199208l0.000196846 0c0.023031,0.176571 -0.0279522,0.344874 -0.159839,0.498021l-0.00688962 0.00826754 -0.02559 0.0277553 -0.00944862 0.00944862 -3.79697 3.79933c-0.271254,0.271648 -0.849785,0.455305 -1.56493,0.531878 -0.666521,0.0714552 -1.47497,0.0594475 -2.26609,-0.0533453 -0.527548,-0.0751952 -0.98738,-0.187201 -1.35096,-0.319875 -0.35826,-0.130706 -0.635026,-0.28897 -0.808644,-0.460423 -0.152556,-0.056298 -0.290151,-0.115549 -0.410818,-0.177555 -0.242711,-0.1248 -0.429125,-0.266136 -0.54861,-0.417511 -0.0669277,-0.0846438 -0.114171,-0.172044 -0.141926,-0.261215 -0.0889745,-0.0277553 -0.176571,-0.0751952 -0.261018,-0.141926 -0.150587,-0.118895 -0.291923,-0.306293 -0.417314,-0.550185 -0.0625971,-0.121848 -0.122045,-0.260231 -0.178736,-0.414361 -0.166926,-0.176768 -0.321843,-0.454911 -0.449793,-0.811597 -0.129722,-0.362 -0.238971,-0.814549 -0.312198,-1.33068 -0.112399,-0.790928 -0.124013,-1.59957 -0.0523611,-2.2659 0.07677,-0.715339 0.260821,-1.29387 0.532469,-1.56512zm0.899784 5.64693l0.00570854 0.0161414 0.00669277 -0.00708646 3.8013 -3.79519c0.185429,-0.185232 0.318891,-0.651758 0.38385,-1.25568 0.0673214,-0.626758 0.0561012,-1.39013 -0.0503926,-2.13952 -0.0931082,-0.655301 -0.242514,-1.18698 -0.414558,-1.53914l-3.69874 3.69244c-0.183854,0.183657 -0.319481,0.678135 -0.389362,1.32812 -0.0751952,0.698607 -0.0624002,1.54957 0.0561012,2.38617l0.000196846 0 0.00196846 0.0124013 0.00177162 0.0122045 0.000196846 0.000196846 0.00157477 0.0122045 0.00177162 0.0118108 0.000196846 0.000393692 0.00157477 0.0120076 0.00177162 0.0118108 0.000196846 0.000393692 0.00157477 0.0118108 0.00177162 0.0118108 0.000196846 0.000590538 0.00216531 0.0118108 0.00177162 0.0118108 0.000196846 0.000590538 0.00157477 0.0112202 0.00177162 0.0118108 0.000196846 0.000984231 0.00177162 0.0108265 0.00177162 0.0118108 0.00354323 0.0234247 0.000393692 0.00137792 0.00196846 0.0104328 0.00177162 0.0118108 0.000393692 0.00157477 0.00177162 0.010236 0.00177162 0.0114171 0.000393692 0.00196846 0.00374008 0.0212594 0.000393692 0.00236215 0.00137792 0.00944862 0.00177162 0.0112202 0.000393692 0.00236215 0.00374008 0.0206688 0.000393692 0.002559 0.00374008 0.0202752 0.000393692 0.00275585 0.00374008 0.0200783 0.000393692 0.00295269 0.00157477 0.00826754 0.00177162 0.0112202 0.000590538 0.00314954 0.00177162 0.00826754 0.00216531 0.0112202 0.000787385 0.00354323 0.00157477 0.007677 0.00177162 0.0112202 0.000787385 0.00374008 0.00157477 0.00748015 0.00196846 0.0112202 0.000787385 0.00374008 0.00157477 0.00748015 0.00177162 0.0108265 0.000787385 0.00393692 0.00157477 0.00728331 0.00236215 0.0110234 0.000787385 0.00413377 0.00334638 0.0177162 0.000787385 0.00433062 0.00157477 0.00688962 0.00196846 0.0106297 0.000984231 0.00433062 0.00137792 0.00649592 0.00177162 0.0106297 0.000984231 0.00472431 0.00137792 0.00649592 0.00236215 0.0106297 0.000984231 0.00472431 0.00137792 0.00590538 0.00216531 0.0106297 0.00118108 0.00531485 0.00118108 0.00531485 0.00236215 0.0106297 0.00118108 0.00570854 0.00118108 0.00492115 0.00177162 0.0104328 0.00137792 0.00590538 0.000984231 0.00472431 0.00236215 0.0106297 0.00137792 0.00590538 0.000984231 0.00472431 0.00236215 0.010236 0.00137792 0.00629908 0.000984231 0.00433062 0.00236215 0.0100392 0.00137792 0.00669277 0.000984231 0.00374008 0.00196846 0.0100392 0.000393692 0.00118108 0.00492115 0.0202752 0.00157477 0.00649592 0.000984231 0.00413377 0.00236215 0.0106297 0.000196846 0.000590538 0.005118 0.020472 0.00118108 0.00551169 0.00118108 0.005118 0.00236215 0.0100392 0.00531485 0.0206688 0.00118108 0.005118 0.00137792 0.00551169 0.00236215 0.0100392 0.00610223 0.0246058 0.00157477 0.00590538 0.00236215 0.0100392 0.0106297 0.0403535 0.000787385 0.00314954 0.00393692 0.0145666 0.000590538 0.00236215 0.000787385 0.002559 0.00196846 0.00748015 0.00236215 0.00964546 0.000590538 0.00216531 0.00433062 0.0155508 0.000393692 0.00196846 0.000590538 0.00196846 0.00236215 0.00807069 0.00236215 0.00944862 0.000590538 0.00157477 0.00236215 0.00826754 0.000196846 0.00118108 0.00393692 0.0139761 0.00118108 0.00374008 0.00236215 0.00944862 0.000196846 0.000984231 0.00275585 0.00885808 0.00295269 0.00944862 0.000196846 0.000590538 0.000196846 0.000393692 0.00433062 0.015354 0.000590538 0.002559 0.000196846 0.000393692 0.00275585 0.00905492 0.002559 0.00944862 0.000196846 0 0.005118 0.0183067 0.000196846 0.000196846 0.00295269 0.00944862 0.00275585 0.00866123 0.000196846 0.000393692 0.005118 0.0177162 0.000196846 0.000590538 0.00295269 0.00944862 0.00236215 0.00787385 0.000393692 0.000984231 0.00492115 0.0167319 0.000393692 0.00118108 0.00295269 0.00925177 0.002559 0.00728331 0.000393692 0.00157477 0.00295269 0.00885808 0.00216531 0.00708646 0.000787385 0.00177162 0.00295269 0.00885808 0.00216531 0.00688962 0.000787385 0.00196846 0.00452746 0.0151572 0.000787385 0.00216531 0.00295269 0.00885808 0.00216531 0.00610223 0.000787385 0.00236215 0.00295269 0.00885808 0.00590538 0.0169288 0.00177162 0.00551169zm1.67733 1.67418l0.0324796 0.0114171 0.000590538 0 0.00885808 0.00295269 0.0616128 0.0200783 0.00925177 0.00295269c0.0596444,0.0188972 0.121257,0.0372039 0.185429,0.0549201l0.00157477 0.000393692 0.0360228 0.0100392 0.00314954 0.000787385 0.0348418 0.00925177 0.00492115 0.00137792 0.000590538 0.000196846 0.033267 0.00866123 0.00669277 0.00177162 0.0722425 0.017913 0.00984231 0.002559 0.0417314 0.0100392 0.00885808 0.00216531 0.0543295 0.0124013 0.00708646 0.00157477 0.00295269 0.000787385 0.0106297 0.00236215 0.00708646 0.00157477 0.00314954 0.000787385 0.0106297 0.00236215 0.00688962 0.00157477 0.00374008 0.000787385 0.0106297 0.00236215 0.0275585 0.00570854 0.00413377 0.000787385 0.0106297 0.00236215 0.0214562 0.00452746 0.00629908 0.00137792 0.00433062 0.000984231 0.0112202 0.00236215 0.0322828 0.00629908 0.0112202 0.00236215 0.0218499 0.00413377 0.00551169 0.00118108 0.00551169 0.00118108 0.0112202 0.00236215 0.0669277 0.0125982 0.00452746 0.000984231 0.00669277 0.00137792 0.0114171 0.00236215 0.00433062 0.000787385 0.00688962 0.000984231 0.0112202 0.00196846 0.00413377 0.000787385 0.0187004 0.00334638 0.00374008 0.000787385 0.0190941 0.00334638 0.00334638 0.000590538 0.0192909 0.00354323 0.000393692 0 0.00334638 0.000590538 0.00787385 0.00118108 0.0118108 0.00177162 0.00314954 0.000590538 0.0200783 0.00354323 0.00295269 0.000590538 0.00846438 0.00118108 0.0118108 0.00216531 0.00275585 0.000393692 0.000787385 0.000196846 0.0188972 0.00334638 0.00118108 0.000196846 0.00236215 0.000393692 0.00925177 0.00137792 0.0118108 0.00177162 0.00196846 0.000393692 0.00984231 0.00137792 0.0118108 0.00216531 0.00177162 0.000196846 0.0100392 0.00157477 0.0118108 0.00177162 0.00177162 0.000196846 0.0100392 0.00157477 0.0124013 0.00236215 0.00118108 0 0.0106297 0.00177162 0.0122045 0.00177162 0.000787385 0 0.0110234 0.00177162 0.0124013 0.00177162 0.000590538 0 0.0112202 0.00177162 0.0124013 0.00177162 0.000196846 0 0.0118108 0.00177162 0.0124013 0.00196846c0.836793,0.119092 1.68756,0.132477 2.38617,0.0576759 0.650183,-0.0696835 1.14466,-0.205114 1.32832,-0.388771l3.68791 -3.69027c-0.351961,-0.1685 -0.875965,-0.314757 -1.51926,-0.40629 -0.749787,-0.106691 -1.51296,-0.118501 -2.13991,-0.0513768 -0.603727,0.0645655 -1.07045,0.197634 -1.25568,0.383063l-3.79539 3.79756zm2.6651 -11.0035l-0.199011 0.198618 -0.164367 0.163973 0.0299206 0.0549201 0 0.000590538c0.196649,0.383259 0.366134,0.967302 0.467706,1.68303 0.110234,0.776164 0.121651,1.56886 0.0515737,2.22141 -0.0726362,0.676167 -0.238971,1.21533 -0.480305,1.45646l-3.8013 3.79519c-0.0366134,0.0366134 -0.074211,0.0673214 -0.113777,0.0909429 0.0145666,0.0314954 0.0287395,0.061416 0.0436998,0.0903524 0.0799195,0.155508 0.158067,0.265545 0.229916,0.322237 0.0120076,0.00964546 -0.010236,0.02559 0.00137792,0.0214562 0.00334638,-0.00118108 0.0124013,-0.00885808 0.0263774,-0.0228342l0.00118108 0 4.30247 -4.30483c0.0147635,-0.0147635 0.0299206,-0.0295269 0.0462588,-0.0438967 0.163382,-0.212003 0.28464,-0.67971 0.349402,-1.28068 0.0751952,-0.699001 0.0624002,-1.55056 -0.056298,-2.38774 -0.106887,-0.752937 -0.279128,-1.35548 -0.475974,-1.73874 -0.0799195,-0.155508 -0.157871,-0.265152 -0.229719,-0.32204 -0.0120076,-0.00944862 0.0104328,-0.02559 -0.00137792,-0.0212594 -0.00354323,0.00118108 -0.0125982,0.00905492 -0.0263774,0.0228342l-0.00137792 0z"/>
</svg>
