<?xml version="1.0" encoding="UTF-8"?>
<!DOCTYPE svg PUBLIC "-//W3C//DTD SVG 1.1//EN" "http://www.w3.org/Graphics/SVG/1.1/DTD/svg11.dtd">
<svg xmlns="http://www.w3.org/2000/svg" xml:space="preserve" style="shape-rendering:geometricPrecision; text-rendering:geometricPrecision; image-rendering:optimizeQuality; fill-rule:evenodd; clip-rule:evenodd"
viewBox="0 0 15.9998 15.9998" xmlns:xlink="http://www.w3.org/1999/xlink">
  <path d="M11.471 5.2189l2.36954 2.366 0.184101 0.183953 -0.183068 0.183215 -6.418 6.42302 -0.184101 0.184249 -0.183068 -0.183215 -3.85328 -3.85092 0.00029527 -0.00029527c-0.0296747,-0.028346 -0.0592017,-0.0565443 -0.0882858,-0.0854808 -0.37706,-0.376617 -0.700824,-0.812584 -0.881087,-1.21755 -0.115303,-0.259543 -0.162842,-0.485572 -0.14985,-0.668492 0.0119584,-0.167418 0.0713078,-0.304719 0.173471,-0.406883l0.000590541 0.000590541c0.0159446,-0.0159446 0.0329226,-0.0310034 0.0506389,-0.0448811l0.00605304 -0.00620068 4.23063 -4.23713 0.548169 -0.549055 1.53629 -1.53851c0.113679,-0.143797 0.284936,-0.221453 0.504174,-0.223224l0.00103345 0c0.172143,-0.00118108 0.378241,0.0466527 0.610324,0.149407 0.404963,0.179524 0.841373,0.502698 1.21873,0.879315 0.37706,0.376617 0.700824,0.812584 0.880939,1.21755 0.0989156,0.222486 0.14793,0.420613 0.151178,0.58744 0.00413379,0.210675 -0.0609733,0.379865 -0.18794,0.499007l-0.337494 0.338085zm-3.37642 7.75011l-0.0565443 -0.0565443 -0.855251 0.855841 0.0565443 0.0565443 0.855251 -0.855841zm5.13918 -5.2564l-5.01901 5.02284 0.0565443 0.0565443 5.01901 -5.02284 -0.0565443 -0.0565443zm-7.14525 2.8966l1.94997 1.94997 5.01886 -5.0227 -1.95336 -1.95011 -0.424156 0.424746 -4.11607 4.12227 -0.475238 0.475828zm0.917996 2.98297l0.855251 -0.855989 -1.94997 -1.94997 -0.475533 0.476271 -0.00620068 0.00605304 -0.02185 0.0233264c-0.102606,0.102902 -0.239907,0.162694 -0.406735,0.1748 -0.0380899,0.00280507 -0.0786896,0.0025098 -0.120323,0l-0.00310034 -0.00162399 2.12846 2.12713zm-3.21328 -4.57462c-0.223667,-0.178196 -0.453978,-0.324797 -0.670707,-0.420908 -0.178491,-0.0789848 -0.320368,-0.112498 -0.421498,-0.105116 -0.0380899,0.00265743 -0.0634831,0.0103345 -0.0751463,0.0221453l0 0.00103345c-0.0124014,0.0124014 -0.020226,0.0377946 -0.0228835,0.0752939 -0.00723412,0.101721 0.0262791,0.243303 0.104969,0.420465 0.153983,0.346057 0.438329,0.726217 0.773313,1.06076 0.334541,0.333951 0.715292,0.617853 1.06209,0.771394 0.178639,0.0791325 0.320516,0.112498 0.421498,0.105264 0.0379422,-0.00265743 0.0634831,-0.0103345 0.0751463,-0.0221453 0.0121061,-0.0121061 0.020226,-0.0380899 0.0228835,-0.0763274 0.00723412,-0.101721 -0.0262791,-0.243303 -0.104969,-0.420465 -0.124899,-0.280802 -0.335427,-0.584488 -0.589507,-0.867504l-0.00103345 -0.00118108 -0.00280507 -0.0029527c-0.0491625,-0.0527058 -0.0998014,-0.104526 -0.151031,-0.155607 -0.137005,-0.13671 -0.277997,-0.265891 -0.415593,-0.380308l-0.00324797 -0.00280507 -0.00147635 -0.00103345zm0.78601 -0.763126c0.396548,0 0.718245,0.321697 0.718245,0.718245 0,0.22662 -0.104969,0.428142 -0.268991,0.559685 0.177753,0.224258 0.325978,0.452649 0.421351,0.666868 0.0352848,0.0792801 0.0636308,0.155607 0.0865142,0.228096l0.829267 -0.830596c-0.00974392,-0.108807 -0.0478338,-0.240645 -0.115746,-0.3933 -0.160775,-0.361411 -0.455455,-0.75604 -0.801069,-1.10136 -0.345614,-0.345023 -0.741129,-0.63926 -1.10298,-0.799592 -0.151621,-0.067174 -0.281983,-0.105116 -0.389609,-0.115303l-0.824247 0.825428c0.0654024,0.0246551 0.138039,0.0543297 0.218352,0.0899098 0.182625,0.0807564 0.417512,0.232525 0.664211,0.426813 0.131395,-0.167418 0.335132,-0.274897 0.564705,-0.274897zm1.96635 -3.66061l-2.37678 2.38032c0.0865142,0.0227358 0.179081,0.0561014 0.277702,0.0998014 0.389905,0.172733 0.811698,0.485572 1.17798,0.851264 0.365988,0.365545 0.679417,0.786896 0.852741,1.17665 0.0447335,0.100392 0.0779514,0.194288 0.100982,0.281983l4.86207 -4.86916 0.000147635 0.000147635 0.0121061 -0.0113679c0.017421,-0.0153541 0.0262791,-0.0532963 0.025098,-0.111612 -0.00191926,-0.0989156 -0.0363183,-0.228687 -0.106297,-0.386066 -0.153836,-0.346057 -0.438329,-0.726365 -0.773165,-1.06076 -0.334541,-0.333951 -0.71544,-0.617853 -1.06224,-0.771541 -0.164761,-0.0729318 -0.298371,-0.107183 -0.397877,-0.106593 -0.0541821,0.000442906 -0.089024,0.0106297 -0.102311,0.0289365 -0.00767703,0.0103345 -0.0159446,0.0200784 -0.0253933,0.029527l-1.9166 1.91941 -0.548169 0.549055z"/>
</svg>
