<?xml version="1.0" encoding="UTF-8"?>
<!DOCTYPE svg PUBLIC "-//W3C//DTD SVG 1.1//EN" "http://www.w3.org/Graphics/SVG/1.1/DTD/svg11.dtd">
<svg xmlns="http://www.w3.org/2000/svg" xml:space="preserve" style="shape-rendering:geometricPrecision; text-rendering:geometricPrecision; image-rendering:optimizeQuality; fill-rule:evenodd; clip-rule:evenodd"
viewBox="0 0 12.8001 12.8001" xmlns:xlink="http://www.w3.org/1999/xlink">
  <path d="M5.158 2.13366c0.111142,0 0.215906,0.0308268 0.30567,0.0838584 0.0265748,-0.0458268 0.0585827,-0.0883466 0.0956694,-0.125433 0.109252,-0.109252 0.260197,-0.176811 0.426733,-0.176811 0.165591,0 0.316654,0.0677954 0.426142,0.177166l0.000472442 -0.000354331c0.0817324,0.0817324 0.140433,0.187441 0.164646,0.305315 0.0728741,-0.0312993 0.152835,-0.0488977 0.236811,-0.0488977 0.165591,0 0.316181,0.0675591 0.425788,0.176811l0.000826773 0.000826773c0.0818505,0.0818505 0.140433,0.187087 0.164646,0.30437 0.0728741,-0.0314174 0.152835,-0.0488977 0.236811,-0.0488977 0.165591,0 0.316181,0.0675591 0.425788,0.176811l0.000826773 0.000826773c0.109252,0.10937 0.176811,0.260079 0.176811,0.425788l0 0.00129921 0 2.18599 -0.000826773 0 0 5.10414 0 0.20752 -0.20752 0 -0.790277 0 0 0.000826773 -0.0377953 0 0 -0.000826773 -0.790277 0 0 0.000826773 -0.0377953 0 0 -0.000826773 -0.790277 0 0 0.000826773 -0.0377953 0 0 -0.000826773 -0.790277 0 -0.208347 0 0 -0.20752 0 -2.593 0 -0.012874 0.000826773 0c-0.00165355,-0.102992 -0.0236221,-0.202559 -0.0617717,-0.293622 -0.0394489,-0.0938978 -0.0963781,-0.178819 -0.16689,-0.249803l-0.000354331 0.000472442 -0.000236221 -0.000236221 -0.00437008 -0.00519686c-0.0718111,-0.0703938 -0.157559,-0.127677 -0.251693,-0.166418 -0.0916537,-0.0376772 -0.193583,-0.0585827 -0.301772,-0.0585827 -0.17941,0 -0.342048,-0.0728741 -0.459686,-0.190512 -0.117638,-0.117638 -0.190512,-0.280394 -0.190512,-0.459686 0,-0.17941 0.0728741,-0.342048 0.190512,-0.459686 0.117638,-0.117638 0.280276,-0.190512 0.459686,-0.190512 0.198662,0 0.391654,0.0282284 0.574725,0.0806694 0.0718111,0.0205512 0.142559,0.0454725 0.211536,0.073819l0 -3.41422c0,-0.165591 0.0676772,-0.316418 0.176811,-0.425788l0.000472442 -0.000354331 0.000354331 -0.000472442c0.10937,-0.109134 0.260315,-0.176811 0.425906,-0.176811zm0.132047 0.470552c-0.033189,-0.033189 -0.0799607,-0.0538583 -0.132047,-0.0538583 -0.0520867,0 -0.0989765,0.0206693 -0.132166,0.0538583l-0.000826773 0.000826773c-0.033189,0.033189 -0.0538583,0.0799607 -0.0538583,0.132047l0 3.523 0 0.230551 0 0.375237 -0.318189 -0.199488c-0.128622,-0.0806694 -0.2713,-0.144685 -0.423898,-0.188504 -0.146103,-0.0418111 -0.300827,-0.0643702 -0.460867,-0.0643702 -0.0644883,0 -0.122953,0.0262205 -0.165118,0.0683859 -0.0421654,0.0421654 -0.0683859,0.10063 -0.0683859,0.165118 0,0.0643702 0.0262205,0.122953 0.0683859,0.165118 0.0421654,0.0421654 0.10063,0.0683859 0.165118,0.0683859 0.161457,0 0.31689,0.0324804 0.459567,0.0911812 0.145748,0.0600001 0.277441,0.147756 0.387166,0.2563l0.00472442 0.00413386 0.000826773 0.000826773 0.00011811 -0.00011811 0.000236221 0.000236221 0 0.000354331 0.00295276 0.0034252c0.107244,0.108543 0.193937,0.237756 0.253819,0.38067 0.057756,0.137717 0.0908269,0.290079 0.0927166,0.450591l0.000826773 0.00248032 0 0.012874 0 2.38548 0.58193 0 0 -0.000826773 0.0377953 0 0 0.000826773 0.790277 0 0 -0.000826773 0.0377953 0 0 0.000826773 0.790277 0 0 -0.000826773 0.0377953 0 0 0.000826773 0.582757 0 0 -4.89662 -0.000826773 0 0 -2.18599 0 -0.00129921c0,-0.0520867 -0.0206693,-0.0988584 -0.0538583,-0.132047l-0.000826773 -0.000826773c-0.033189,-0.033189 -0.0799607,-0.0538583 -0.132047,-0.0538583 -0.0520867,0 -0.0989765,0.0206693 -0.132166,0.0538583l-0.000826773 0.000826773c-0.033189,0.033189 -0.0538583,0.0799607 -0.0538583,0.132047l0 2.18729c0,0.0625985 -0.02563,0.119646 -0.0666143,0.16063 -0.0409843,0.0409843 -0.0980316,0.0666143 -0.16063,0.0666143 -0.0625985,0 -0.119646,-0.02563 -0.16063,-0.0666143 -0.0409843,-0.0409843 -0.0666143,-0.0980316 -0.0666143,-0.16063l0 -0.000944883 0 -2.18504 0.000826773 0 0 -0.43441 -0.000826773 0c0,-0.0520867 -0.0206693,-0.0988584 -0.0538583,-0.132047l-0.000826773 -0.000826773c-0.033189,-0.033189 -0.0799607,-0.0538583 -0.132047,-0.0538583 -0.0520867,0 -0.0989765,0.0206693 -0.132166,0.0538583l-0.000826773 0.000826773c-0.033189,0.033189 -0.0538583,0.0799607 -0.0538583,0.132047l0 2.6204c0,0.0625985 -0.02563,0.119646 -0.0666143,0.16063 -0.0409843,0.0409843 -0.0980316,0.0666143 -0.16063,0.0666143 -0.0625985,0 -0.119646,-0.02563 -0.16063,-0.0666143 -0.0409843,-0.0409843 -0.0666143,-0.0980316 -0.0666143,-0.16063l0 -0.000944883 0 -2.61815 0 -0.434528c0,-0.0514961 -0.0210236,-0.0983859 -0.0546851,-0.132047l0 -0.000826773c-0.033189,-0.033189 -0.0799607,-0.0538583 -0.132047,-0.0538583 -0.0516142,0 -0.0985041,0.0210236 -0.132166,0.0546851 -0.0336615,0.0336615 -0.0546851,0.0805513 -0.0546851,0.132047l0 3.05363c0,0.0611812 -0.0248032,0.116929 -0.0640158,0.157441l-0.00578741 0.00578741c-0.0405119,0.0392126 -0.09626,0.0640158 -0.157441,0.0640158 -0.062008,0 -0.117284,-0.0252756 -0.157441,-0.0640158l-0.00330709 -0.00248032c-0.0418111,-0.0418111 -0.0664961,-0.0983859 -0.0664961,-0.160748l0 -0.00106299 0 -2.83418 0 -0.00708662c-0.00188977,-0.0491339 -0.0222048,-0.0933072 -0.0538583,-0.124961l-0.000826773 -0.000826773z"/>
</svg>
