<?xml version="1.0" encoding="UTF-8"?>
<!DOCTYPE svg PUBLIC "-//W3C//DTD SVG 1.1//EN" "http://www.w3.org/Graphics/SVG/1.1/DTD/svg11.dtd">
<svg xmlns="http://www.w3.org/2000/svg" xml:space="preserve" style="shape-rendering:geometricPrecision; text-rendering:geometricPrecision; image-rendering:optimizeQuality; fill-rule:evenodd; clip-rule:evenodd"
viewBox="0 0 16.0001 16.0001" xmlns:xlink="http://www.w3.org/1999/xlink">
  <path d="M5.53688 13.4834c0.0153544,-0.0385336 0.0383859,-0.0748526 0.0695376,-0.106152l0.000590553 -0.000590553c0.0614175,-0.0611222 0.142028,-0.0919786 0.222048,-0.0919786 0.0803152,0 0.161073,0.0307088 0.222343,0.0919786l0.000442915 0.000442915 -0.000295276 0.000295276c0.0124016,0.0121063 0.0292324,0.0183071 0.0456202,0.0183071 0.0163878,0 0.0329233,-0.00634844 0.0451773,-0.0186024l0.000442915 -0.000442915 0.000147638 -0.000147638c0.0124016,-0.0124016 0.0187501,-0.0289371 0.0187501,-0.0453249 0,-0.0168308 -0.00634844,-0.0332186 -0.0184548,-0.0457679l-0.000295276 0.000295276 -0.000147638 -0.000147638c-0.0611222,-0.0611222 -0.0921263,-0.14188 -0.0921263,-0.222491 0,-0.0804628 0.0307088,-0.161221 0.0921263,-0.222638 0.0612699,-0.0612699 0.142028,-0.0919786 0.222491,-0.0919786 0.0800199,0 0.160483,0.0308564 0.2219,0.0919786l0.000590553 0 0.000147638 0.000147638 -0.000295276 0.000295276c0.0125493,0.0121063 0.0292324,0.0186024 0.0457679,0.0186024 0.0168308,0 0.0332186,-0.00649608 0.0457679,-0.0186024l-0.000295276 -0.000295276 0.000147638 -0.000147638 0.000442915 -0.000442915 0.000295276 0.000295276c0.0121063,-0.012254 0.0183071,-0.0290847 0.0183071,-0.0454726l0.000590553 0c0,-0.0157973 -0.00649608,-0.0324804 -0.019193,-0.0451773l-0.000442915 -0.000442915c-0.0611222,-0.0611222 -0.0921263,-0.141733 -0.0921263,-0.222343 0,-0.0804628 0.0307088,-0.161221 0.0921263,-0.222638l0.000590553 0c0.0612699,-0.0611222 0.14188,-0.0921263 0.222048,-0.0921263 0.0798723,0 0.160483,0.0308564 0.222048,0.0924215l0.000295276 -0.000295276 0.000442915 0.000442915 -0.000295276 0.000295276c0.0124016,0.0119587 0.0287895,0.0183071 0.0454726,0.0183071l0 0.000590553c0.0157973,0 0.0324804,-0.00649608 0.0451773,-0.019193l0.000442915 -0.000442915 0.000147638 -0.000147638c0.0124016,-0.0124016 0.0188977,-0.0290847 0.0188977,-0.0454726 0,-0.0165355 -0.00649608,-0.0332186 -0.0186024,-0.0457679l-0.000295276 0.000295276 -0.000147638 -0.000147638 0 -0.000590553c-0.0611222,-0.0614175 -0.0919786,-0.14188 -0.0919786,-0.2219 0,-0.0804628 0.0307088,-0.161221 0.0919786,-0.222491 0.0612699,-0.0612699 0.142176,-0.0922739 0.222491,-0.0922739 0.0806105,0 0.161369,0.031004 0.222638,0.0922739 0.0124016,0.0124016 0.0292324,0.0188977 0.0456202,0.0188977 0.0166831,0 0.0333662,-0.00634844 0.0459155,-0.0186024l-0.000295276 -0.000295276c0.0124016,-0.0124016 0.0188977,-0.0292324 0.0188977,-0.0457679 0,-0.0163878 -0.00649608,-0.0332186 -0.0188977,-0.0456202 -0.0614175,-0.0614175 -0.0921263,-0.14188 -0.0921263,-0.222491 0,-0.0803152 0.0307088,-0.161073 0.0921263,-0.222491 0.0614175,-0.0614175 0.142176,-0.0921263 0.222491,-0.0921263 0.0804628,0 0.161221,0.0307088 0.222638,0.0921263l0.000442915 0.000442915 -0.000295276 0.000295276c0.0124016,0.0121063 0.0290847,0.0183071 0.0454726,0.0183071l0 0.000590553c0.0157973,0 0.0324804,-0.00649608 0.0451773,-0.019193l0.000442915 -0.000442915 0.000295276 0.000295276c0.0121063,-0.0124016 0.0184548,-0.0290847 0.0184548,-0.0459155 0,-0.0163878 -0.00634844,-0.033071 -0.0187501,-0.0454726l0 -0.000590553c-0.0614175,-0.0617128 -0.0921263,-0.142028 -0.0921263,-0.222048 0,-0.0806105 0.0307088,-0.161073 0.0921263,-0.222491 0.0611222,-0.0611222 0.141733,-0.0921263 0.222343,-0.0921263 0.0804628,0 0.161221,0.0307088 0.222638,0.0921263l0.000147638 0.000147638c0.0124016,0.0124016 0.0290847,0.0188977 0.0454726,0.0188977 0.0165355,0 0.0332186,-0.00634844 0.0457679,-0.0183071l-0.000147638 -0.000147638 0.000147638 -0.000147638 -0.000295276 -0.000295276 0.000147638 -0.000147638 0.000295276 0.000295276 0.000147638 -0.000147638 0.000147638 0.000147638c0.0121063,-0.012254 0.0183071,-0.02938 0.0183071,-0.0459155 0,-0.0163878 -0.00649608,-0.0332186 -0.0188977,-0.0456202 -0.0612699,-0.0612699 -0.0922739,-0.142176 -0.0922739,-0.222491 0,-0.0806105 0.031004,-0.161369 0.0922739,-0.222638l0.000295276 0.000295276c0.0615652,-0.0615652 0.142176,-0.0924215 0.222196,-0.0924215 0.0806105,0 0.161073,0.0307088 0.222491,0.0921263l0.000442915 0.000442915c0.0124016,0.0124016 0.0289371,0.0186024 0.0451773,0.0186024 0.0165355,0 0.0333662,-0.00620081 0.0456202,-0.0183071l-0.000295276 -0.000295276 0.000442915 -0.000442915 0.000295276 0.000295276c0.0118111,-0.0121063 0.0184548,-0.0289371 0.0184548,-0.0459155 0,-0.0163878 -0.00634844,-0.033071 -0.0187501,-0.0454726l-0.000295276 -0.000295276 0 -0.000590553c-0.0612699,-0.0615652 -0.091831,-0.14188 -0.091831,-0.221753 0,-0.0803152 0.0305611,-0.160778 0.091831,-0.222048l0.000295276 -0.000295276 0.000295276 -0.000295276c0.0612699,-0.0612699 0.141733,-0.091831 0.222048,-0.091831 0.0798723,0 0.160188,0.0305611 0.221753,0.091831l0.000590553 0 0.000295276 0.000295276c0.0124016,0.0124016 0.0290847,0.0187501 0.0454726,0.0187501 0.0168308,0 0.0335139,-0.00634844 0.0459155,-0.0184548l-0.000295276 -0.000295276 0.000442915 -0.000442915 0.000295276 0.000295276c0.0118111,-0.0121063 0.0183071,-0.0289371 0.0183071,-0.0456202 0,-0.0163878 -0.00634844,-0.0329233 -0.0186024,-0.0451773l-0.000442915 -0.000442915c-0.0614175,-0.0614175 -0.0921263,-0.14188 -0.0921263,-0.222491 0,-0.0800199 0.0308564,-0.16063 0.0924215,-0.222196l-0.000295276 -0.000295276c0.0612699,-0.0612699 0.142028,-0.0922739 0.222638,-0.0922739 0.0803152,0 0.161221,0.031004 0.222491,0.0922739 0.0124016,0.0124016 0.0292324,0.0188977 0.0456202,0.0188977 0.0168308,0 0.0333662,-0.00634844 0.0459155,-0.0183071l-0.000147638 -0.000147638 0.000147638 -0.000147638 -0.000295276 -0.000295276 0.000147638 -0.000147638 0.000295276 0.000295276 0.000147638 -0.000147638 0.000147638 0.000147638c0.0121063,-0.012254 0.0183071,-0.0295276 0.0183071,-0.0457679 0,-0.0166831 -0.00649608,-0.0332186 -0.0186024,-0.0457679l-0.000295276 0.000295276 -0.000147638 -0.000147638 0 -0.000590553c-0.0611222,-0.0614175 -0.0921263,-0.142028 -0.0921263,-0.222048 0,-0.0798723 0.0308564,-0.160483 0.0924215,-0.222048l-0.000295276 -0.000295276c0.0614175,-0.0614175 0.14188,-0.0921263 0.222491,-0.0921263 0.0800199,0 0.160335,0.0307088 0.222048,0.0921263l0.000590553 0c0.0124016,0.0124016 0.0290847,0.0187501 0.0454726,0.0187501 0.0168308,0 0.0335139,-0.00634844 0.0459155,-0.0184548l-0.000295276 -0.000295276 0.000442915 -0.000442915 0.000295276 0.000295276c0.0118111,-0.0119587 0.0183071,-0.0287895 0.0183071,-0.0454726l0.000590553 0c0,-0.0157973 -0.00649608,-0.0324804 -0.019193,-0.0451773l-0.000442915 -0.000442915c-0.0614175,-0.0614175 -0.0921263,-0.142176 -0.0921263,-0.222638 0,-0.0803152 0.0307088,-0.161073 0.0921263,-0.222491 0.0614175,-0.0614175 0.142176,-0.0921263 0.222491,-0.0921263 0.0806105,0 0.161073,0.0307088 0.222491,0.0921263l0.000295276 0.000295276 -0.000295276 0.000295276c0.0124016,0.0121063 0.0292324,0.0183071 0.0457679,0.0183071 0.0163878,0 0.0329233,-0.00620081 0.0453249,-0.0186024l0.000295276 -0.000295276 0.000295276 0.000295276c0.012254,-0.0125493 0.0186024,-0.0292324 0.0186024,-0.0459155 0,-0.0163878 -0.00649608,-0.0332186 -0.0188977,-0.0456202l0 -0.000590553c-0.0611222,-0.0614175 -0.0919786,-0.142028 -0.0919786,-0.222048 0,-0.0798723 0.0308564,-0.160483 0.0919786,-0.2219l0 -0.000590553c0.0612699,-0.0612699 0.142028,-0.0919786 0.222491,-0.0919786 0.0800199,0 0.160483,0.0308564 0.2219,0.0919786l0.000590553 0 0.000147638 0.000147638 -0.000295276 0.000295276c0.0125493,0.0121063 0.0292324,0.0186024 0.0457679,0.0186024 0.0168308,0 0.0332186,-0.00649608 0.0457679,-0.0186024l-0.000295276 -0.000295276 0.000147638 -0.000147638 0.000442915 -0.000442915 0.000295276 0.000295276c0.0121063,-0.012254 0.0183071,-0.0290847 0.0183071,-0.0454726l0.000590553 0c0,-0.0157973 -0.00649608,-0.0324804 -0.019193,-0.0451773l-0.000442915 -0.000442915c-0.0611222,-0.0611222 -0.0921263,-0.141733 -0.0921263,-0.222343 0,-0.0804628 0.0307088,-0.161221 0.0921263,-0.222638l0.000590553 0c0.0612699,-0.0611222 0.14188,-0.0921263 0.222048,-0.0921263 0.0798723,0 0.160483,0.0308564 0.222048,0.0924215l0.000295276 -0.000295276 0.000442915 0.000442915 -0.000295276 0.000295276c0.0124016,0.0119587 0.0287895,0.0183071 0.0454726,0.0183071l0 0.000590553c0.0157973,0 0.0324804,-0.00649608 0.0451773,-0.019193l0.000442915 -0.000442915 0.000147638 -0.000147638c0.0124016,-0.0124016 0.0188977,-0.0290847 0.0188977,-0.0454726 0,-0.0165355 -0.00649608,-0.0332186 -0.0186024,-0.0457679l-0.000295276 0.000295276 -0.000147638 -0.000147638 0 -0.000590553c-0.0611222,-0.0614175 -0.0919786,-0.14188 -0.0919786,-0.2219 0,-0.0804628 0.0307088,-0.161221 0.0919786,-0.222491l0.000590553 0c0.0612699,-0.0611222 0.14188,-0.0921263 0.222048,-0.0921263 0.0801676,0 0.16063,0.031004 0.222196,0.0924215l0.000295276 -0.000295276 0.000147638 0.000147638c0.0124016,0.0124016 0.0290847,0.0187501 0.0454726,0.0187501 0.0163878,0 0.0329233,-0.00634844 0.0453249,-0.0187501l0.000147638 -0.000147638 0.000442915 -0.000442915c0.0124016,-0.0124016 0.0186024,-0.0289371 0.0186024,-0.0451773 0,-0.0163878 -0.00620081,-0.0332186 -0.0183071,-0.0456202l-0.000295276 0.000295276 -0.000442915 -0.000442915c-0.0612699,-0.0612699 -0.0919786,-0.142028 -0.0919786,-0.222343 0,-0.0800199 0.0308564,-0.16063 0.0919786,-0.222048l0.000590553 -0.000590553c0.0298229,-0.0296753 0.0642226,-0.0519687 0.100837,-0.067323l-1.71231 -1.71068 -7.6797 7.6797 0.112796 0.112796 0.184105 0.184105 1.41629 1.416zm6.25824 -10.2583l0 0.107924 0 0.315208 2.12702 2.12496c0,0 -0.0259843,0.221014 -0.095079,0.272983 -0.0605317,0.0605317 -0.141437,0.0910928 -0.222048,0.0912404l0 0.000590553c-0.0797247,0 -0.160188,-0.0308564 -0.221457,-0.091831l-0.000590553 0 -0.000442915 -0.000442915 0.000295276 -0.000295276c-0.012254,-0.0119587 -0.0290847,-0.0184548 -0.0459155,-0.0184548 -0.0168308,0 -0.0335139,0.00620081 -0.0460631,0.0184548 -0.012254,0.0125493 -0.0184548,0.0292324 -0.0184548,0.0460631 0,0.0163878 0.00634844,0.033071 0.0187501,0.0454726l0.000442915 0.000442915 0 0.000590553c0.0609746,0.0612699 0.091831,0.141585 0.091831,0.221605 0,0.0801676 -0.0305611,0.160778 -0.091831,0.222048l-0.000442915 0.000442915 -0.000147638 0.000147638c-0.0612699,0.0612699 -0.14188,0.0919786 -0.222196,0.0919786 -0.0803152,0 -0.161073,-0.0307088 -0.222343,-0.0919786l-0.000147638 -0.000147638 0 -0.000590553c-0.0119587,-0.0121063 -0.0287895,-0.0183071 -0.0456202,-0.0183071 -0.0166831,0 -0.0335139,0.00634844 -0.0460631,0.0186024l0.000295276 0.000295276c-0.0124016,0.0124016 -0.0187501,0.0290847 -0.0187501,0.0456202 0,0.0166831 0.00649608,0.0335139 0.0184548,0.0459155l0.000295276 -0.000295276 0.000147638 0.000147638 0 0.000590553c0.0611222,0.0612699 0.0921263,0.141733 0.0921263,0.221753 0,0.0806105 -0.031004,0.161221 -0.0921263,0.222343l-0.000147638 0.000147638 -0.000442915 0.000442915c-0.0605317,0.0605317 -0.141437,0.0910928 -0.222048,0.0912404l0 0.000590553c-0.0797247,0 -0.160188,-0.0308564 -0.221457,-0.091831l-0.000590553 0 -0.000442915 -0.000442915 0 -0.000590553c-0.0119587,-0.0121063 -0.0289371,-0.0183071 -0.0454726,-0.0183071 -0.0166831,0 -0.0335139,0.00634844 -0.0460631,0.0186024l0.000295276 0.000295276c-0.0124016,0.0124016 -0.0188977,0.0292324 -0.0188977,0.0457679 0,0.0163878 0.00649608,0.033071 0.0188977,0.0454726l0.000442915 0.000442915c0.0605317,0.0605317 0.0910928,0.141437 0.0912404,0.222048l0.000590553 0c0,0.0800199 -0.0308564,0.160188 -0.091831,0.221457l0 0.000590553 -0.000442915 0.000442915 -0.000147638 0.000147638 -0.000590553 0c-0.0614175,0.0611222 -0.141585,0.0921263 -0.221753,0.0921263 -0.0800199,0 -0.160483,-0.031004 -0.221753,-0.0921263l-0.000590553 0 -0.000147638 -0.000147638 0.000295276 -0.000295276c-0.0124016,-0.0119587 -0.0292324,-0.0184548 -0.0459155,-0.0184548 -0.0165355,0 -0.0332186,0.00634844 -0.0456202,0.0187501l-0.000295276 -0.000295276c-0.012254,0.0125493 -0.0184548,0.02938 -0.0184548,0.0459155 0,0.0168308 0.00649608,0.0338092 0.0184548,0.0460631l0.000295276 -0.000295276c0.0611222,0.0611222 0.0921263,0.14188 0.0921263,0.222491 0,0.0801676 -0.031004,0.160483 -0.0921263,0.2219l0 0.000590553 -0.000295276 0.000295276c-0.0612699,0.0612699 -0.14188,0.091831 -0.222196,0.091831 -0.0798723,0 -0.160188,-0.0305611 -0.221753,-0.091831l-0.000590553 0 -0.000295276 -0.000295276c-0.0124016,-0.0124016 -0.0292324,-0.0188977 -0.0456202,-0.0188977 -0.0163878,0 -0.0332186,0.00649608 -0.0456202,0.0188977 -0.0124016,0.0124016 -0.0188977,0.0292324 -0.0188977,0.0456202 0,0.0165355 0.00649608,0.0333662 0.0188977,0.0457679l0.000442915 0.000442915c0.0605317,0.0605317 0.0910928,0.141437 0.0912404,0.222048l0.000590553 0c0,0.0797247 -0.0308564,0.160188 -0.091831,0.221457l0 0.000590553 -0.000442915 0.000442915 -0.000590553 0c-0.0614175,0.0611222 -0.14188,0.0919786 -0.2219,0.0919786 -0.0803152,0 -0.161073,-0.0307088 -0.222343,-0.0919786l0.000295276 -0.000295276c-0.0124016,-0.0121063 -0.0292324,-0.0186024 -0.0460631,-0.0186024 -0.0163878,0 -0.0332186,0.00649608 -0.0456202,0.0188977l-0.000590553 0c-0.0121063,0.0119587 -0.0183071,0.0289371 -0.0183071,0.0454726 0,0.0166831 0.00649608,0.0335139 0.0186024,0.0460631l0.000295276 -0.000295276 0.000147638 0.000147638 0 0.000590553c0.0611222,0.0612699 0.0921263,0.141437 0.0921263,0.221753 0,0.0800199 -0.031004,0.160335 -0.0921263,0.221753l0 0.000590553 -0.000147638 0.000147638 -0.000590553 0c-0.0614175,0.0611222 -0.141733,0.0921263 -0.2219,0.0921263 -0.0806105,0 -0.161369,-0.031004 -0.222491,-0.0921263 -0.0125493,-0.0125493 -0.0292324,-0.0190453 -0.0456202,-0.0190453 -0.0163878,0 -0.0332186,0.00649608 -0.0457679,0.0190453l-0.000590553 0c-0.0121063,0.0119587 -0.0183071,0.0287895 -0.0183071,0.0456202 0,0.0163878 0.00649608,0.0332186 0.0188977,0.0456202l0.000442915 0.000442915c0.0609746,0.0609746 0.091831,0.141733 0.091831,0.222048 0,0.0798723 -0.0305611,0.16004 -0.091831,0.221605l0 0.000590553 -0.000442915 0.000442915 -0.000590553 0c-0.0614175,0.0611222 -0.14188,0.0919786 -0.2219,0.0919786 -0.0806105,0 -0.161073,-0.0307088 -0.222343,-0.0919786l-0.000295276 -0.000295276 0.000295276 -0.000295276c-0.012254,-0.0119587 -0.0292324,-0.0183071 -0.0457679,-0.0183071 -0.0163878,0 -0.0327757,0.00620081 -0.0451773,0.0186024l-0.000295276 0.000295276 -0.000295276 0.000295276c-0.0124016,0.0124016 -0.0186024,0.0287895 -0.0186024,0.0451773 0,0.0165355 0.00634844,0.0335139 0.0183071,0.0457679l0.000295276 -0.000295276 0.000295276 0.000295276c0.0612699,0.0612699 0.0919786,0.141733 0.0919786,0.222343 0,0.0800199 -0.0308564,0.160483 -0.0919786,0.2219l0 0.000590553 -0.000442915 0.000442915 -0.000590553 0c-0.0612699,0.0609746 -0.141733,0.091831 -0.221605,0.091831 -0.0801676,0 -0.160778,-0.0305611 -0.222048,-0.091831l-0.000442915 -0.000442915c-0.0124016,-0.0124016 -0.0292324,-0.0188977 -0.0456202,-0.0188977 -0.0168308,0 -0.0336615,0.00620081 -0.0456202,0.0183071l0 0.000590553c-0.0125493,0.0125493 -0.0190453,0.02938 -0.0190453,0.0457679 0,0.0163878 0.00649608,0.033071 0.0190453,0.0456202 0.0611222,0.0611222 0.0921263,0.14188 0.0921263,0.222491 0,0.0801676 -0.031004,0.160483 -0.0921263,0.2219l0 0.000590553 -0.000147638 0.000147638 -0.000590553 0c-0.0614175,0.0611222 -0.141733,0.0921263 -0.221753,0.0921263 -0.0806105,0 -0.161221,-0.031004 -0.222343,-0.0921263l-0.000147638 -0.000147638c-0.0124016,-0.0124016 -0.0292324,-0.0188977 -0.0457679,-0.0188977 -0.0163878,0 -0.033071,0.00649608 -0.0454726,0.0188977 -0.0124016,0.0124016 -0.0188977,0.0292324 -0.0188977,0.0456202 0,0.0168308 0.00649608,0.0336615 0.0186024,0.0460631l0.000295276 -0.000295276c0.0612699,0.0612699 0.0919786,0.142028 0.0919786,0.222343 0,0.0800199 -0.0308564,0.160483 -0.0919786,0.2219l0 0.000590553 -0.000442915 0.000442915c-0.0605317,0.0605317 -0.141437,0.0910928 -0.222048,0.0912404l0 0.000590553c-0.0800199,0 -0.160188,-0.0308564 -0.221457,-0.091831l-0.000590553 0 -0.000442915 -0.000442915c-0.0124016,-0.0124016 -0.0292324,-0.0188977 -0.0457679,-0.0188977 -0.0163878,0 -0.0332186,0.00649608 -0.0456202,0.0188977 -0.0124016,0.0124016 -0.0188977,0.0292324 -0.0188977,0.0456202 0,0.0163878 0.00649608,0.0332186 0.0188977,0.0456202 0.0614175,0.0614175 0.0921263,0.142176 0.0921263,0.222491 0,0.0804628 -0.0307088,0.161221 -0.0921263,0.222638l-0.000590553 0c-0.0614175,0.0611222 -0.141733,0.0921263 -0.2219,0.0921263 -0.0806105,0 -0.161369,-0.031004 -0.222491,-0.0921263 -0.0125493,-0.0125493 -0.02938,-0.0190453 -0.0457679,-0.0190453 -0.0163878,0 -0.033071,0.00649608 -0.0456202,0.0190453 -0.0124016,0.0124016 -0.0187501,0.0290847 -0.0187501,0.0456202 0,0.0166831 0.00649608,0.0335139 0.0184548,0.0459155l0.000295276 -0.000295276 0.000147638 0.000147638 0 0.000590553c0.0611222,0.0612699 0.0921263,0.141733 0.0921263,0.221753 0,0.0806105 -0.031004,0.161221 -0.0921263,0.222343l-0.000147638 0.000147638 -0.000442915 0.000442915c-0.0605317,0.0605317 -0.141437,0.0910928 -0.222048,0.0912404l0 0.000590553c-0.0797247,0 -0.160188,-0.0308564 -0.221457,-0.091831l-0.000590553 0 -0.000442915 -0.000442915 0 -0.000590553c-0.0119587,-0.0121063 -0.0289371,-0.0183071 -0.0454726,-0.0183071 -0.0166831,0 -0.0335139,0.00634844 -0.0460631,0.0186024l0.000295276 0.000295276c-0.0124016,0.0124016 -0.0188977,0.0292324 -0.0188977,0.0457679 0,0.0163878 0.00649608,0.033071 0.0188977,0.0454726l0.000442915 0.000442915c0.0605317,0.0605317 0.0910928,0.141437 0.0912404,0.222048l0.000590553 0c0,0.0800199 -0.0308564,0.160188 -0.091831,0.221457l0 0.000590553 -0.000442915 0.000442915 -0.000147638 0.000147638 -0.000590553 0c-0.0614175,0.0611222 -0.141585,0.0921263 -0.221753,0.0921263 -0.0800199,0 -0.160483,-0.031004 -0.221753,-0.0921263l-0.000590553 0 -0.000147638 -0.000147638 0.000295276 -0.000295276c-0.0124016,-0.0119587 -0.0292324,-0.0184548 -0.0459155,-0.0184548 -0.0165355,0 -0.0332186,0.00634844 -0.0456202,0.0187501 -0.0124016,0.0124016 -0.0188977,0.0292324 -0.0188977,0.0457679 0,0.0163878 0.00649608,0.0332186 0.0188977,0.0456202l0.000147638 0.000147638 0 0.000590553c0.0611222,0.0614175 0.0919786,0.141585 0.0919786,0.221753 0,0.0803152 -0.0307088,0.160926 -0.0919786,0.222196l-0.000147638 0.000147638 -0.000442915 0.000442915c-0.0609746,0.0609746 -0.141733,0.091831 -0.222048,0.091831 -0.0800199,0 -0.16004,-0.0305611 -0.221605,-0.091831l-0.000590553 0 -0.000442915 -0.000442915c-0.0124016,-0.0124016 -0.0290847,-0.0187501 -0.0454726,-0.0187501 -0.0168308,0 -0.0335139,0.00620081 -0.0460631,0.0184548 -0.012254,0.0125493 -0.0184548,0.0292324 -0.0184548,0.0460631 0,0.0168308 0.00649608,0.0336615 0.0184548,0.0459155l0.000295276 -0.000295276 0.000442915 0.000442915c0.0625986,0.0625986 0.0905022,0.144981 0.0871066,0.22692 -0.00295276,0.0754431 -0.0336615,0.150148 -0.0879924,0.208465l-0.00177166 0.00221457 -0.00177166 0.00177166 -0.000885829 0.00103347 -0.00265749 0.0031004 0 0.000590553 -0.000442915 0.000442915 -0.000295276 -0.000295276c-0.0826774,0.0845967 -0.263977,0.0958172 -0.272097,0.0958172l-0.000147638 0.000147638 -1.7504 -1.74996 -0.00442915 0.00442915 -0.260434 0.260434 -0.259696 -0.259696 -1.15084 -1.15069 -0.0761813 -0.0761813 -0.000147638 -0.107924 0 -0.952267 0 -0.215552 0.260434 -0.260434 7.86321 -7.86307 0.184253 -0.183957 0.183957 0.183957 1.22628 1.22628 0.076329 0.076329 0 0.107776zm-0.520868 0.741144l0 -0.1125 -7.5263 7.52616 0 0.112648 7.5263 -7.5263zm-8.04717 7.41395l0 -0.000147638 -0.705563 -0.705416 0 0.323623 0.705563 0.705416 0 -0.323475zm7.08132 -9.01317l-7.67911 7.67896 0.858074 0.858074 7.67911 -7.67896 -0.858074 -0.858074z"/>
</svg>
