<?xml version="1.0" encoding="UTF-8"?>
<!DOCTYPE svg PUBLIC "-//W3C//DTD SVG 1.1//EN" "http://www.w3.org/Graphics/SVG/1.1/DTD/svg11.dtd">
<svg xmlns="http://www.w3.org/2000/svg" xml:space="preserve" style="shape-rendering:geometricPrecision; text-rendering:geometricPrecision; image-rendering:optimizeQuality; fill-rule:evenodd; clip-rule:evenodd"
viewBox="0 0 21.3337 21.3337" xmlns:xlink="http://www.w3.org/1999/xlink">
  <path d="M12.9999 11.92c0.63977,-0.652368 0.939576,-2.08211 1.11773,-3.17168l0.00393704 -0.0236223c1.32777,0.949221 1.25552,2.19746 0.495674,3.32424 -0.576777,0.855717 -1.56222,1.63801 -2.61813,2.14707 -1.06418,0.5128 -2.20848,0.751188 -3.09215,0.514375 -3.07877,-0.825204 -1.51497,-6.33825 1.73151,-6.93373l0.0350397 -0.175198c-0.0318901,-0.0944891 -0.101379,-0.182876 -0.165946,-0.264963l-0.00767724 -0.0104332c-0.125789,-0.159844 -0.238782,-0.310042 -0.193899,-0.535635l0.000196852 -0.000590557 -0.000196852 0c0.029331,-0.147442 0.116537,-0.269294 0.232482,-0.346854l-0.000196852 -0.000393704c0.11634,-0.0775598 0.262207,-0.110631 0.409846,-0.0813l0.0110237 0.00275593c0.139568,0.0307089 0.255317,0.11319 0.331302,0.222246 0.114371,-0.0734259 0.257089,-0.104725 0.401185,-0.0757881l0.000196852 -0.000590557c0.147245,0.029331 0.269294,0.116143 0.346854,0.232286 0.0777566,0.11634 0.111221,0.262404 0.0818905,0.409846l-0.00177167 0.00944891c-0.0488193,0.225593 -0.214963,0.317916 -0.394886,0.418114 -0.0813,0.045276 -0.16634,0.0938985 -0.230514,0.157482 0.198624,0.0169293 0.400988,0.0511816 0.608273,0.106694 0.146458,0.0393704 0.290357,0.0816937 0.430713,0.126576l0.00196852 0.000787409 0.266932 0.0879929c-0.273821,0.462209 -0.59784,0.553548 -0.9693,0.657683 -0.392326,0.110237 -0.830716,0.233467 -1.31989,0.72107 -0.637211,0.636817 -0.635045,1.84726 -0.00118111,2.4829 0.342523,0.342523 0.794102,0.516146 1.24371,0.516146 0.449414,0 0.899418,-0.171655 1.24529,-0.516934zm-6.79711 3.09688l-0.674219 -0.635439 -1.1569 -0.394295 -0.482878 -0.0303152 -0.529729 0.069292 0.0190947 0.125789 0.210041 0.564769 0.0161419 0.0431106 0.00433075 0.0354334 0.0450792 0.359649 0.566738 0.931898 0.216931 0.204333 0.615951 0.276381 0.0318901 0.0143702 0.0210632 0.0141734 0.30079 0.203151 0.0269688 0.0181104 0.0259845 0.026575 0.349019 0.354728 0.438784 0.138978 0.248821 -0.796267 -0.0694888 -0.802173 -0.202955 -0.616344 -0.00492131 -0.0149608 -0.00590557 -0.0324806 -0.01063 -0.0584651zm-0.0814968 -1.36852l0.757684 0.71418 0.227561 0.0716542 0.051969 0.0163387 0.0468508 0.0338586 2.139 1.54175 6.01482 -3.04156 0.97993 -2.96735 -0.365948 -1.41793 -0.325594 -1.07304 -0.00669298 -0.0230317 -0.101773 -0.441343 -0.500989 -0.647447 -1.16162 -1.24273 -0.0124017 0.0041339 -0.00885835 -0.0269688 -0.352365 -0.376972 -0.177561 -0.117521 -0.960836 0.968513 -0.0978355 0.0988198 -0.140946 0.00295278 -2.69786 0.0568903 -1.34037 1.8201 -0.00807094 0.00944891 -0.888 1.12521 -0.510241 2.77916 -0.00826779 0.0458666 -0.0188978 0.0395673 -0.398429 0.841543 -0.300003 0.828354 0.16575 0.377563zm-0.380909 0.475792l0.737212 0.694691 0.188584 -0.200002 -0.737212 -0.694691 -0.188584 0.200002zm8.03137 -10.0048l0.206892 -0.662605 0.104135 -0.33268 0.331105 0.104922 0.527761 0.167324 0.0811031 0.0257876 0.0614179 0.0624022 0.228349 0.232089 0.138387 0.0933079 0.384452 0.172443 0.0551186 0.0248034 0.041339 0.0389767 0.181301 0.171065 0.0342523 0.0322838 0.024016 0.0395673 0.390948 0.642722 0.0397641 0.0653549 0.0090552 0.0728353 0.0291341 0.232876 0.123426 0.331302 0.0145671 0.0389767 0.0045276 0.0301184 0.0476382 0.312995 0.0531501 0.348822 -0.351578 0.0458666 -0.563982 0.0738196 0.165553 0.213978 0.046654 0.0602368 0.0169293 0.0740164 0.117914 0.511422 0.321657 1.06025 0.0041339 0.0149608 0.393901 1.5262 0.0257876 0.0996072 -0.0312995 0.0942922 -1.05572 3.19747 -0.0446855 0.135828 -0.128938 0.0649612 -6.33077 3.20141 -0.18701 0.0946859 -0.170868 -0.123229 -2.14195 -1.54391 0.129922 0.394689 0.0129922 0.0393704 0.00334649 0.0391736 0.078544 0.908079 0.00590557 0.0667329 -0.0208663 0.0663392 -0.373429 1.19548 -0.103938 0.332877 -0.331302 -0.105119 -0.851189 -0.269884 -0.0809063 -0.0255908 -0.0616147 -0.062599 -0.384256 -0.390555 -0.252955 -0.170868 -0.638982 -0.286617 -0.0549218 -0.0246065 -0.0415358 -0.0391736 -0.292522 -0.27579 -0.0340554 -0.0320869 -0.0242128 -0.0397641 -0.630518 -1.03662 -0.0395673 -0.0651581 -0.00925205 -0.0730322 -0.0498036 -0.397248 -0.208663 -0.560635 -0.0143702 -0.0389767 -0.00472445 -0.0301184 -0.0767724 -0.504532 -0.0529532 -0.348625 0.351381 -0.0460634 0.917134 -0.12008 0.0358271 -0.0045276 0.0305121 0.00177167 0.559454 0.0352365 0.0462603 0.00295278 0.0433075 0.0147639 0.786228 0.267916 -0.0712605 -0.162403 -0.0551186 -0.125789 0.0470477 -0.130513 0.353547 -0.976387 0.00649612 -0.0175198 0.00570871 -0.0124017 0.385633 -0.814181 0.517131 -2.81696 0.0155513 -0.0836622 0.0535438 -0.0681109 0.934064 -1.18367 -0.000393704 -0.000196852 1.44175 -1.9577 0.101379 -0.137403 0.171261 -0.00374019 2.72837 -0.0574808 1.06261 -1.07107 0.200002 -0.20138 0.236616 0.156694 0.300987 0.199214zm1.50297 1.53368l0.364767 0.124411 0.270278 0.0169293 0.167521 -0.0218506 -0.100985 -0.271262 -0.015945 -0.0429138 -0.0045276 -0.0356303 -0.0246065 -0.195474 -0.327168 -0.537997 -0.105513 -0.0996072 -0.361224 -0.162009 -0.0316932 -0.0141734 -0.02126 -0.0143702 -0.186419 -0.125789 -0.026575 -0.0179136 -0.0263782 -0.0267719 -0.193112 -0.196065 -0.115355 -0.0366145 -0.106891 0.341932 0.0391736 0.453154 0.805913 0.862016zm-1.41438 2.60061l0.0202758 -0.205907 0.0488193 -0.245081c0.0653549,-0.0751975 0.162403,-0.130119 0.254136,-0.181301 0.182482,-0.101576 0.350791,-0.195868 0.397051,-0.427957 0.029331,-0.147049 -0.00472445,-0.293113 -0.0824811,-0.409453 -0.0775598,-0.116143 -0.200002,-0.202955 -0.347247,-0.232089 -0.143505,-0.0285436 -0.285633,0.00295278 -0.400397,0.0765755 -0.0775598,-0.112403 -0.197836,-0.196852 -0.342917,-0.225396 -0.147049,-0.0289373 -0.292522,0.00433075 -0.408862,0.0816937l0.000196852 0.000196852 -0.000984261 0.000393704c-0.115749,0.0773629 -0.202758,0.198821 -0.232089,0.346066 -0.0464571,0.232286 0.0724416,0.383271 0.20138,0.546855l0.000393704 -0.000393704 0.000393704 0.000393704c0.0645675,0.0818905 0.13386,0.16949 0.16575,0.26575l-0.0511816 0.25453 -0.000590557 0.00177167 -0.000393704 0.00374019 -0.000393704 0.00157482c-0.0149608,0.0736227 0.0210632,0.146852 0.0850402,0.180317l-0.00216537 0.00433075c-0.348232,0.696463 -0.762802,0.812212 -1.24233,0.946662 -0.352759,0.0990167 -0.747054,0.209844 -1.17422,0.636029l0.000393704 0.000393704 -0.000984261 0.000984261c-0.228742,0.228742 -0.366342,0.593116 -0.377956,0.971072 -0.0116143,0.377366 0.102757,0.765165 0.377366,1.04076l0.000393704 -0.000393704 0.00118111 0.00118111c0.277365,0.277365 0.642329,0.416539 1.0067,0.416539 0.36457,0 0.729534,-0.138781 1.00749,-0.415752 0.663392,-0.665164 0.932292,-2.35967 1.09824,-3.43409zm-0.383665 -1.43643c-0.0297247,-0.0435043 -0.0765755,-0.0763787 -0.132875,-0.0874024 -0.0580714,-0.0114174 -0.115552,0.00177167 -0.161222,0.0318901 -0.0446855,0.0299215 -0.078544,0.0773629 -0.0899615,0.134647 -0.0163387,0.0820874 0.0568903,0.175395 0.136419,0.276381l-0.000393704 0.000393704c0.0948828,0.119883 0.195671,0.248821 0.237797,0.425791l-0.000196852 0c0.00551186,0.022638 0.00590557,0.0464571 0.000984261,0.0708668l-0.0287404 0.143112 0.142521 0.033268 0.0295278 -0.147836 0.00118111 0.000196852c0.0045276,-0.022638 0.0131891,-0.0448823 0.0275593,-0.0647644 0.107678,-0.149017 0.249805,-0.228349 0.382878,-0.302562 0.112009,-0.0624022 0.215159,-0.12008 0.231695,-0.202758 0.0114174,-0.0574808 -0.00177167,-0.114568 -0.0316932,-0.15945 -0.0301184,-0.0450792 -0.0779535,-0.0791346 -0.135041,-0.0903552 -0.0570871,-0.0112206 -0.113584,0.000984261 -0.158269,0.0299215 -0.0437012,0.0283467 -0.0767724,0.0734259 -0.0903552,0.126576 -0.0171261,0.0887803 -0.10256,0.147639 -0.192128,0.132088 -0.090552,-0.0157482 -0.151182,-0.101969 -0.135434,-0.192521 0.00984261,-0.0566934 -0.00393704,-0.112993 -0.0342523,-0.157482zm-2.45967 -0.0417327c-0.0295278,-0.0429138 -0.0757881,-0.0753944 -0.131497,-0.0868118l-0.00236223 -0.000590557c-0.0574808,-0.0114174 -0.114568,0.00157482 -0.159844,0.0316932l-0.000196852 -0.000393704 -0.000590557 0.000393704c-0.0446855,0.0297247 -0.0783472,0.0773629 -0.0897646,0.135041 -0.0153545,0.0801188 0.051969,0.16949 0.127757,0.265947l0.00885835 0.0102363c0.0927174,0.117718 0.191931,0.2439 0.235435,0.418114 0.00728353,0.0248034 0.00846465,0.0515753 0.00314964,0.0787409l-0.0190947 0.0954733 0.0324806 -0.00177167c0.038583,-0.00137797 0.0777566,-0.00157482 0.116537,-0.00196852l0.0125985 -0.0629927 0.000984261 0.000196852c0.0045276,-0.0228349 0.0131891,-0.045276 0.0277562,-0.0653549 0.107481,-0.14823 0.250199,-0.227758 0.383271,-0.301971 0.110237,-0.0614179 0.212207,-0.117914 0.230711,-0.19764l0.000590557 -0.00472445c0.0114174,-0.0580714 -0.00118111,-0.115159 -0.0311026,-0.159844 -0.0301184,-0.0450792 -0.0779535,-0.0791346 -0.135828,-0.090552l0.000196852 -0.000590557 -0.000196852 0c-0.0564966,-0.0112206 -0.112796,0.000984261 -0.157482,0.0299215 -0.043898,0.0283467 -0.0769692,0.0734259 -0.090552,0.126576 -0.0171261,0.0887803 -0.10256,0.147639 -0.192128,0.132088 -0.090552,-0.0157482 -0.151182,-0.101969 -0.135434,-0.192521 0.00964576,-0.0553155 -0.00275593,-0.109844 -0.0311026,-0.152757l-0.00314964 -0.00393704z"/>
</svg>
