<?xml version="1.0" encoding="UTF-8"?>
<!DOCTYPE svg PUBLIC "-//W3C//DTD SVG 1.1//EN" "http://www.w3.org/Graphics/SVG/1.1/DTD/svg11.dtd">
<svg xmlns="http://www.w3.org/2000/svg" xml:space="preserve" style="shape-rendering:geometricPrecision; text-rendering:geometricPrecision; image-rendering:optimizeQuality; fill-rule:evenodd; clip-rule:evenodd"
viewBox="0 0 32.0006 32.0006" xmlns:xlink="http://www.w3.org/1999/xlink">
  <path d="M13.5498 15.4608l0.270771 0.129332 0.499022 -0.499022 -1.99166 -0.840365 -0.48101 0.480715 0.818219 2.0141 0.480715 -0.480715 -0.127265 -0.272838 0.531207 -0.531207zm2.88901 9.00218l-1.06507 -1.06507 -1.61016 -0.804931 -1.62049 0.809065 -1.06094 1.06094 5.35666 0zm-11.5038 -5.64869l14.0547 -14.0529c0.182483,-0.215259 0.4441,-0.331599 0.775108,-0.333961 0.250692,-0.00206695 0.546267,0.065552 0.874322,0.210239l0.00590558 0.00413391 0.0206695 0.0103348c0.142325,-0.144392 0.334847,-0.222345 0.569594,-0.224117l0.00118112 0 0.000885838 0c0.173919,-0.000885838 0.372052,0.0437013 0.586129,0.138191 0.338685,0.149411 0.69745,0.413686 1.00188,0.718119l-0.00118112 0.00118112c0.304433,0.304433 0.568708,0.662311 0.719005,1.00129l0.00206695 0c0.0894696,0.202562 0.134352,0.392426 0.1376,0.559849l0 0.00177168c0.00413391,0.241243 -0.0735245,0.443214 -0.223526,0.593807l0.0150592 0.030709c0.137305,0.310929 0.206105,0.593216 0.210829,0.836231 0.00649614,0.33278 -0.0992138,0.602074 -0.305614,0.792825l-0.200199 0.200199 5.09918 5.09918 0.368213 0.368213 -0.368213 0.368213 -9.84609 9.84609 -0.520873 0.520873 -0.215554 0 -7.87126 0 -0.215259 0 -0.520873 -0.520873 -0.236519 -0.236519 -1.34943 -1.34943 -0.382977 0.382387 -0.00531503 0.00561031 -0.00649614 0.00767726c-0.13258,0.132876 -0.304728,0.209353 -0.508766,0.224412 -0.187798,0.0135828 -0.408371,-0.0298232 -0.650205,-0.13701l-0.00177168 -0.00206695c-0.336618,-0.149707 -0.693611,-0.413391 -0.997748,-0.717233l-0.00206695 0c-0.302366,-0.302366 -0.565755,-0.66054 -0.717233,-1.00159l-0.00206695 0c-0.106891,-0.241538 -0.150297,-0.462112 -0.136714,-0.649614 0.0150592,-0.20581 0.0915366,-0.378253 0.223526,-0.510242 0.0215554,-0.0215554 0.0448824,-0.0422249 0.0688001,-0.0605322l0.416048 -0.416048 -0.0138781 -0.0289374 -0.00206695 -0.00383863c-0.161813,-0.36526 -0.227956,-0.690658 -0.208467,-0.958476 0.0191931,-0.26398 0.114864,-0.482191 0.279334,-0.646662 0.0256893,-0.0256893 0.0522644,-0.0490164 0.0803159,-0.0714576zm11.1202 3.79227l1.64087 1.64087 9.47787 -9.47787 -4.73096 -4.73096 -13.2049 13.2043 -0.000885838 -0.000885838 -0.012697 0.0138781c-0.0667331,0.0667331 -0.142325,0.121064 -0.226184,0.164766l0.826782 0.826782 1.64057 -1.64087 0.0593511 -0.0590558 0.0770679 -0.0386816 1.92788 -0.96261 0.230023 -0.114568 0.233566 0.116635 1.92522 0.96261 0.0814971 0.0407485 0.0549219 0.0549219zm-7.58927 -0.125494l0 -0.00265751 -0.000885838 -0.00738198 0 -0.00265751 0 -0.000590558 -0.000295279 -0.00206695 -0.000590558 -0.00442919 -0.000295279 -0.00590558 -0.00236223 -0.0162404 -0.000295279 -0.000590558 0 -0.00265751 0 -0.000295279 -0.000590558 -0.00236223 0 -0.00177168 -0.000295279 -0.00206695 -0.000590558 -0.00236223 -0.000295279 -0.00265751 -0.00265751 -0.0153545 -0.000885838 -0.00501975 -0.00177168 -0.0085631 0 -0.000885838 -0.00236223 -0.0106301 0 -0.000295279 -0.000295279 -0.000885838 0 -0.000590558c-0.00501975,-0.0236223 -0.0112206,-0.0484258 -0.0194884,-0.0744104 -0.0150592,0.063485 -0.0375005,0.122246 -0.0661425,0.177758 0.0372052,0.00738198 0.0717529,0.0124017 0.101576,0.0132876l-0.0014764 -0.0177168zm-2.84236 -2.73871c0.0537408,-0.0277562 0.112797,-0.0487211 0.175101,-0.063485 -0.0625992,-0.018012 -0.117816,-0.0280515 -0.166833,-0.0318902l-0.0191931 -0.00236223c0.000885838,0.0292326 0.00383863,0.0617134 0.0109253,0.0977374zm0.83505 -0.926291l0.000295279 -0.000295279c0.543314,0.240948 1.12295,0.66674 1.62345,1.16281l0.0014764 0.0014764 0.0230318 0.0224412 0.0230318 0.0236223 0.000885838 0.000885838c0.496069,0.500498 0.922748,1.08102 1.1637,1.62404l-0.0014764 0.000590558 0.000295279 0.000590558 0.00206695 0 0.018012 0.0425202 13.3384 -13.3378 0.0224412 -0.0203743c0.0165356,-0.014764 -0.0262799,0.012697 -0.0265751,-0.00738198 -0.00206695,-0.103643 -0.0428155,-0.250397 -0.125198,-0.437013 -0.0256893,-0.0584653 -0.0460636,-0.101871 -0.060237,-0.129923 -0.0168309,-0.0333666 -0.040158,-0.0752962 -0.0696859,-0.126675l-0.012697 -0.0206695 -0.00590558 -0.0100395c-0.203743,-0.351087 -0.494593,-0.715462 -0.823829,-1.04499l-0.000885838 0.00118112c-0.331008,-0.331008 -0.694201,-0.621267 -1.04145,-0.822943l-0.00590558 -0.00295279 -0.000295279 0.000590558 -0.0112206 -0.00738198c-0.0410438,-0.0236223 -0.0838593,-0.0472447 -0.126675,-0.0690953 -0.0575794,-0.0295279 -0.105415,-0.0537408 -0.14321,-0.070867l-0.000590558 0.00118112c-0.193408,-0.0853357 -0.34341,-0.125198 -0.446757,-0.124608 -0.00177168,0 -0.00118112,-0.00206695 0,-0.00531503l-0.000295279 -0.0138781 -0.0141734 0.0197837 -0.025394 0.0250987 -13.3118 13.3103 0.0372052 0.0150592zm0.600007 3.55782l0.346067 -0.345477c-0.0085631,-0.0259846 -0.0212601,-0.0584653 -0.0377957,-0.0956705l0.00177168 -0.000885838c-0.0953752,-0.214077 -0.282287,-0.460931 -0.506404,-0.685048l0.000885838 -0.00118112c-0.219983,-0.219392 -0.466246,-0.404237 -0.685343,-0.500794 -0.0372052,-0.0165356 -0.0679142,-0.0283468 -0.0941941,-0.0369099l-0.345181 0.345181c0.255417,0.151774 0.512014,0.355811 0.737903,0.582291 0.227365,0.22766 0.431403,0.483667 0.582291,0.738493zm-1.31872 -0.00620086c-0.124608,-0.124903 -0.256598,-0.2377 -0.387702,-0.330417 0.0924224,0.130218 0.206105,0.262503 0.331599,0.387997l-0.00118112 0.000885838c0.123722,0.123427 0.256007,0.237109 0.386225,0.329236 -0.0924224,-0.130809 -0.205514,-0.26398 -0.328941,-0.387702zm14.0461 -16.9402l-0.0132876 0.0183073 0.000295279 0.0138781c0.00442919,-0.0144687 0.0271657,-0.0519691 0.0129923,-0.0321854zm-6.68689 9.81301l-0.294689 0.294984 -0.26457 -0.563688 0.559259 0.268704zm1.37984 -1.0884l-1.0261 -1.02639 -0.468608 0.468608 1.41586 1.41586 1.05858 -1.05828 -0.389769 -0.389769 -0.589968 0.589968zm1.02403 -3.07681l-0.468313 0.468608 0.816152 0.816152c0.0469494,0.0478352 0.0785443,0.0974421 0.0947846,0.149707 0.0168309,0.0522644 0.0191931,0.103052 0.0070867,0.152364 -0.0121064,0.0490164 -0.0375005,0.0933082 -0.0758868,0.13199 -0.0395674,0.0392721 -0.0853357,0.0661425 -0.137305,0.0803159 -0.0516739,0.0138781 -0.104824,0.0132876 -0.15886,-0.00118112 -0.0543314,-0.0144687 -0.104824,-0.0448824 -0.152069,-0.090946l-0.816152 -0.816152 -0.468903 0.468608 0.816152 0.816152c0.0947846,0.0938988 0.196361,0.162404 0.304433,0.2064 0.108367,0.043406 0.219688,0.0625992 0.334256,0.0566936 0.114864,-0.00561031 0.228546,-0.0360241 0.341638,-0.090946 0.112501,-0.0552172 0.220869,-0.133761 0.324807,-0.236814 0.102462,-0.103348 0.180416,-0.210829 0.234156,-0.322445 0.0540361,-0.111911 0.0832687,-0.224412 0.0874027,-0.337799 0.00501975,-0.113387 -0.0150592,-0.224117 -0.0596464,-0.331303 -0.0442919,-0.107777 -0.113387,-0.208762 -0.207581,-0.303252l-0.816152 -0.816152z"/>
</svg>
