<?xml version="1.0" encoding="UTF-8"?>
<!DOCTYPE svg PUBLIC "-//W3C//DTD SVG 1.1//EN" "http://www.w3.org/Graphics/SVG/1.1/DTD/svg11.dtd">
<svg xmlns="http://www.w3.org/2000/svg" xml:space="preserve" style="shape-rendering:geometricPrecision; text-rendering:geometricPrecision; image-rendering:optimizeQuality; fill-rule:evenodd; clip-rule:evenodd"
viewBox="0 0 64.0024 64.0024" xmlns:xlink="http://www.w3.org/1999/xlink">
  <path d="M13.1957 41.5342c0.154729,0.0791363 0.308868,0.167131 0.464188,0.262213l0.00944911 0.00531512 0.0271662 0.0171265 0.0135831 0.00826797 0.201975 0.130516 0 0.000590569 0.0354342 0.0230322 0.00531512 0.00354342 0.102759 0.0708683 0.0183076 0.012402 0.0171265 0.012402 0.0236228 0.0159454 0.0118114 0.00885854 0.188392 0.137012 0.0259851 0.0194888 0.104531 0.0797269 0.0283473 0.0212605 0.00708683 0.00590569 0.0336625 0.0259851 0 0.000590569 0.106302 0.085042 0.0106302 0.00826797 0.117523 0.0968534 0.0100397 0.00826797 0.0289379 0.0242133 0.00472455 0.00413399 0.034253 0.0295285 0.000590569 0.000590569 0.0336625 0.0295285 0.00295285 0.00177171 0.0324813 0.0283473 0.00649626 0.00531512 0.0271662 0.0236228 0.0106302 0.0100397 0.0230322 0.0200794 0.0159454 0.0135831 0.0177171 0.0165359 0.0194888 0.0171265 0.0141737 0.0129925 0.0236228 0.0218511 0.00885854 0.00826797 0.0283473 0.0253945 0.00531512 0.00531512 0.0336625 0.030119 0.0655532 0.0620098 0.00826797 0.00708683 0.0909477 0.0874043 0.0188982 0.0183076 0.0129925 0.0129925 0.0974439 0.0950817 0 0.000590569c0.511433,0.511433 0.975621,1.08251 1.34236,1.66068l0.0076774 0.0118114c0.0501984,0.0797269 0.0992157,0.158273 0.14528,0.237999l0.00354342 0.00531512 0.0773646 0.138193 0.0135831 0.0248039 0.00708683 0.012402 0.0153548 0.0283473 0.00354342 0.00708683 0.0177171 0.0336625 0.00177171 0.00236228 0.0188982 0.0354342 0.00177171 0.00295285 0.0177171 0.034253 6.48977 -6.48977 0.38328 -0.38328 0.00177171 0.00177171 0.0395681 -0.0437021 7.15947 -7.15888 0.00177171 0.00177171 0.755338 -0.755338 0.0413399 -0.0454738 6.25472 -6.25472 0.00236228 0.00236228 0.00177171 -0.00236228 1.24551 -1.24492 0.0413399 -0.0454738 0.0129925 -0.0129925 0.00118114 0.00118114 0.0242133 -0.0271662 5.92046 -5.91928 0.0183076 -0.0194888 0.0194888 -0.0200794 0.0177171 -0.0165359 0.00118114 -0.00118114 0.0194888 -0.0188982 0.931918 -0.932509c-0.0159454,-0.117523 -0.0679155,-0.276386 -0.154729,-0.472455l0.00118114 -0.000590569 -0.00118114 -0.00295285c-0.262213,-0.589979 -0.752385,-1.24846 -1.33705,-1.8414l-0.0519701 -0.0484267c-0.586435,-0.586435 -1.23547,-1.08251 -1.81895,-1.35595l-0.0708683 -0.0289379c-0.199022,-0.0879948 -0.355523,-0.137603 -0.470684,-0.154729l-6.88604 6.88545 -0.050789 0.0460644 -0.0667343 0.0720495 -0.00118114 0.00118114 -0.00177171 -0.00177171 -0.00236228 0.00177171 -1.14216 1.14157c-0.0188982,0.0230322 -0.0407493,0.0448833 -0.0626004,0.0667343l-6.25649 6.25649 -0.00177171 -0.00177171 -0.038387 0.0354342c-0.0236228,0.0295285 -0.0501984,0.0572852 -0.0773646,0.0844514l-0.00118114 0.00118114 -0.677974 0.677974 -7.16538 7.16479 -0.000590569 -0.000590569 -0.0484267 0.0448833 -0.0661438 0.0714589 -0.302372 0.302372 -0.00118114 0.00118114 -6.53288 6.53288zm3.91134 6.84411l-0.00708683 0.00708683 -0.0188982 0.0212605c-0.102759,0.102759 -0.219101,0.187801 -0.343711,0.25926l4.21844 4.21903 29.4718 -29.4724 -4.1771 -4.17769 -5.2224 5.22181 -0.0253945 0.0259851 -0.0129925 0.0129925 -0.0667343 0.0626004 -1.22602 1.22602 0.00177171 0.00177171 -6.25472 6.25472 -0.0608286 0.0578758 -0.012402 0.0118114 -0.725219 0.725219 -0.00177171 0.00236228 0.00177171 0.00177171 -7.15947 7.15888 -0.0419304 0.0413399 0.000590569 0.000590569 -0.38328 0.38328 -7.95438 7.95438zm-5.12555 -1.53312l-0.0980345 -0.0939005 -0.00413399 0c-0.76715,-0.76715 -1.43272,-1.67072 -1.81187,-2.52468l-0.00413399 0c-0.258079,-0.582301 -0.3632,-1.10673 -0.331309,-1.54729 0.0324813,-0.457691 0.200794,-0.839199 0.491354,-1.12976 0.0372059,-0.0372059 0.0761834,-0.0720495 0.116342,-0.105121l7.91599 -7.91599 0.00118114 -0.00118114 0.297647 -0.297647 0.00472455 -0.00472455 0.0525607 -0.0608286c0.0212605,-0.0212605 0.0442927,-0.0401587 0.0667343,-0.0590569l7.16124 -7.16065 0.677974 -0.677974 0.00118114 -0.00118114 0.00531512 -0.00472455c0.0360247,-0.0389776 0.0744117,-0.0755929 0.11398,-0.111618l-0.00177171 -0.00177171 6.25649 -6.25649 0.0454738 -0.0413399 1.13507 -1.13448c0.0313002,-0.038387 0.0578758,-0.0708683 0.0838608,-0.0968534l0.0785457 -0.0702778 6.9197 -6.91911 0.00118114 -0.00118114c0.320089,-0.360838 0.768331,-0.555726 1.3276,-0.56045l0.00413399 0 0.00944911 0.000590569 0.0141737 0.000590569c0.403359,0.00177171 0.868728,0.107484 1.37662,0.333081 0.0313002,0.0135831 0.0614192,0.0295285 0.0903571,0.0454738 0.826797,0.384461 1.69316,1.02995 2.43374,1.77053l0.0566947 0.0614192c0.745299,0.75711 1.38607,1.63233 1.75399,2.45972l0.00118114 -0.000590569c0.220873,0.49785 0.330719,0.953179 0.338396,1.34532 0.0106302,0.561041 -0.170084,1.02228 -0.520882,1.35772l0.00118114 0.00118114 -0.320089 0.320089 4.91354 4.91413 0.73644 0.737031 -0.73644 0.735849 -30.9429 30.9435 -0.734078 0.734668 -0.738802 -0.738802 -8.22663 -8.2284 -0.0129925 -0.0147642zm3.4253 -0.110436l0 -0.00118114 -0.0696872 -0.165359 0.00295285 -0.00118114 -0.0135831 -0.0283473 0 -0.00118114 -0.012402 -0.0271662 0 -0.00118114 -0.0141737 -0.0271662 0 -0.00118114 -0.0129925 -0.0271662 0 -0.00118114c-0.0460644,-0.0956722 -0.100397,-0.192526 -0.156501,-0.29056l-0.000590569 -0.000590569 -0.0171265 -0.0295285 -0.000590569 -0.000590569 -0.0159454 -0.0277568 -0.000590569 -0.000590569 -0.0188982 -0.0295285 -0.000590569 -0.000590569 -0.0171265 -0.0295285 -0.000590569 -0.000590569 -0.0188982 -0.0295285 -0.000590569 -0.000590569 -0.0171265 -0.0289379 -0.000590569 -0.000590569 -0.0188982 -0.0295285 -0.000590569 -0.000590569 -0.0188982 -0.0295285 -0.000590569 -0.000590569 -0.0188982 -0.0295285 -0.000590569 -0.000590569 -0.0188982 -0.0277568 -0.000590569 -0.00118114 -0.0206699 -0.0289379 -0.000590569 -0.00118114 -0.0200794 -0.0289379 -0.000590569 -0.00118114 -0.0206699 -0.0289379 -0.000590569 -0.00118114 -0.0194888 -0.0289379 -0.000590569 -0.00118114 -0.0212605 -0.0289379 -0.000590569 -0.00118114 -0.0206699 -0.0289379 -0.000590569 -0.00118114 -0.0212605 -0.0289379 -0.000590569 -0.00118114 -0.0206699 -0.0277568c-0.23859,-0.320089 -0.51911,-0.643721 -0.822073,-0.946683l0 -0.000590569 -0.030119 -0.0289379 0 -0.000590569 -0.0283473 -0.0277568 0 -0.000590569 -0.0295285 -0.0277568 0 -0.000590569 -0.0283473 -0.0277568 0 -0.000590569 -0.030119 -0.0277568 0 -0.000590569 -0.0283473 -0.0265756 0 -0.000590569 -0.0295285 -0.0277568 0 -0.000590569 -0.0283473 -0.0259851 0 -0.000590569 -0.030119 -0.0277568 0 -0.000590569 -0.0295285 -0.0259851 0 -0.000590569 -0.030119 -0.0259851 0 -0.000590569 -0.0283473 -0.0259851 0 -0.000590569 -0.030119 -0.0259851 0 -0.000590569 -0.0295285 -0.0259851 0 -0.000590569 -0.030119 -0.0259851 0 -0.000590569 -0.0283473 -0.0242133 0 -0.000590569 -0.030119 -0.0259851 0 -0.000590569 -0.030119 -0.0248039 0 -0.000590569 -0.030119 -0.0253945 0 -0.000590569 -0.030119 -0.0242133 0 -0.000590569 -0.030119 -0.0242133 0 -0.000590569 -0.030119 -0.0242133 0 -0.000590569 -0.030119 -0.0242133 0 -0.000590569 -0.0289379 -0.0230322 0 -0.000590569 -0.030119 -0.0242133 0 -0.000590569 -0.030119 -0.0230322 0 -0.000590569 -0.030119 -0.0230322 0 -0.000590569 -0.030119 -0.0224416 0 -0.000590569 -0.030119 -0.0224416 0 -0.000590569 -0.030119 -0.0224416 0 -0.000590569 -0.030119 -0.0224416 0 -0.000590569c-0.271071,-0.202565 -0.53919,-0.375012 -0.797269,-0.506118l-0.000590569 0 -0.0277568 -0.0141737 -0.000590569 0 -0.0295285 -0.0135831 -0.000590569 0 -0.0277568 -0.0141737 -0.000590569 0 -0.0277568 -0.0129925 -0.000590569 0 -0.0277568 -0.012402 -0.000590569 0 -0.0289379 -0.012402 -0.000590569 0 -0.00295285 0 -0.000590569 -0.000590569 0 0.000590569 -0.00885854 -0.00531512 -0.0183076 -0.00885854 -0.00295285 -0.00118114 -0.00531512 -0.00177171 -0.00236228 -0.000590569 -0.000590569 -0.000590569 -0.00413399 -0.00177171 -0.00413399 -0.00295285 -0.00295285 -0.00118114 -0.00531512 -0.00177171 -0.00177171 -0.000590569 -0.00354342 -0.00118114 -0.00472455 -0.00177171 -0.000590569 -0.000590569 -0.00472455 -0.00118114 -0.00531512 -0.00177171 -0.000590569 -0.000590569 -0.0814986 -0.0307096 0.0667343 0.162997 -0.00354342 0.00177171c0.266937,0.600609 0.778961,1.27917 1.38843,1.88864l-0.00177171 0.00177171 0.0968534 0.0956722 0.0159454 0.0153548 0.00413399 0.00413399c0.572852,0.552182 1.20476,1.0146 1.77525,1.26736l0.00354342 0.00413399c0.0566947,0.0253945 0.111027,0.0490173 0.160635,0.0679155z"/>
</svg>
