<?xml version="1.0" encoding="UTF-8"?>
<!DOCTYPE svg PUBLIC "-//W3C//DTD SVG 1.1//EN" "http://www.w3.org/Graphics/SVG/1.1/DTD/svg11.dtd">
<svg xmlns="http://www.w3.org/2000/svg" xml:space="preserve" style="shape-rendering:geometricPrecision; text-rendering:geometricPrecision; image-rendering:optimizeQuality; fill-rule:evenodd; clip-rule:evenodd"
viewBox="0 0 1.73398e+006 1.73398e+006" xmlns:xlink="http://www.w3.org/1999/xlink">
  <path d="M1.26109e+006 787872l-5648 8400 8368 12208c-464,-6880 -1328,-13760 -2720,-20608zm22480 159280l816 480 -15440 24432c-11568,18288 -25104,37120 -40720,56752l-544 672 -416 528 -3712 4592 -272 336 -1008 1248 -1008 1248 -1024 1248 -880 1072 -128 160 -1040 1248 -2064 2496 -1040 1248 -48 48 -1008 1200 -1056 1248 -1072 1296 -1008 1200 -224 256 -832 992 -1056 1248 -1056 1248 -1056 1248 -464 528 -624 720 -1072 1248 -1104 1264 -6640 7584 -1120 1264c-18528,21008 -39280,42912 -62256,65888 -24368,24368 -47488,46176 -69632,65552l-1248 1104 -1264 1104 -448 400 -800 704 -1296 1104 -1248 1056 -1248 1104 -720 608 -528 448 -48 48 -3712 3168 -960 800 -288 256 -1248 1056 -1248 1024 -1248 1056 -1216 1024 -32 16 -1248 1056 -1232 1008 -1248 1056 -1248 1008 -144 128 -208 176c-23536,19360 -46000,35856 -67552,49504l-24448 15456 -496 -816c-42672,23376 -82176,35296 -120704,36688 -90064,3248 -169120,-49680 -266096,-146640 -96960,-96960 -149888,-176032 -146624,-266080 3184,-88368 61536,-181632 186880,-306976 125344,-125344 218640,-183680 306976,-186896 90064,-3264 169136,49664 266096,146624 96976,96960 149888,176048 146640,266096 -1408,38560 -13344,78048 -36736,120736zm-474736 316640l-12704 -8592 -8400 5712c7040,1440 14064,2416 21104,2880zm-54432 -13168l17936 -12000c-15408,-10848 -32288,-23040 -50224,-36288 -11216,3632 -22320,6896 -33376,9872 22640,16768 44320,29664 65664,38416zm-92432 -59616c11024,-2528 22112,-5408 33344,-8672 -37856,-28688 -78944,-61520 -119632,-96896 -6512,896 -12800,1680 -18960,2416 13136,14752 27648,30016 43520,45888 21616,21616 42080,40768 61728,57264zm-126384 -128000l13232 -1360c-15104,-13648 -29968,-27664 -44512,-41872 8832,14064 19280,28416 31280,43232zm-64672 -130112c25712,-7552 50736,-14336 75120,-20464 -20896,-28272 -39632,-55792 -55168,-81472 -13152,27904 -20032,53824 -20928,78592 -288,7824 48,15568 976,23344zm43392 -143744c41008,-10496 80720,-17984 119152,-22912 -8224,-33696 -14048,-67616 -16848,-101344 -44608,46368 -78448,87200 -102304,124256zm150592 -172544c33728,2784 67648,8608 101344,16800 4928,-38400 12464,-78128 22944,-119104 -37072,23888 -77920,57712 -124288,102304zm166208 -125776c25648,15520 53056,34240 81312,55088 6112,-24384 12976,-49360 20512,-75024 -7760,-912 -15568,-1264 -23376,-976 -24752,896 -50560,7760 -78448,20912zm188960 13584c14112,14432 27968,29216 41536,44208 512,-4496 1008,-8848 1424,-13136 -14704,-11904 -28992,-22304 -42960,-31072zm67792 52208c-736,6128 -1552,12384 -2432,18864 35408,40672 68240,81808 96944,119664 3248,-11216 6192,-22256 8672,-33248 -16528,-19616 -35680,-40080 -57280,-61680 -15904,-15904 -31152,-30464 -45904,-43600zm124368 131984c-2928,11008 -6256,22096 -9856,33264 13360,18064 25568,35040 36496,50544 4576,-6880 8528,-13008 11840,-18192 -8768,-21328 -21680,-42992 -38480,-65616zm-191040 472736c22640,-19584 46592,-42144 72304,-67856 23104,-23104 43760,-44912 61968,-65536l464 -544 592 -656 1072 -1248 1056 -1200 1056 -1200 400 -464 640 -736 1056 -1216 1040 -1200 1360 -1584 704 -816 1024 -1200 1008 -1200 2000 -2368 624 -720 576 -672 48 -64c4448,-5312 8784,-10528 12896,-15680l304 -368 224 -304c6800,-8512 13104,-16816 19024,-24976 -13904,-3264 -27792,-2544 -42608,2640 -29152,10192 -63344,36272 -107456,80384 -44128,44128 -70192,78336 -80384,107472 -5184,14816 -5968,28800 -2704,42704l3280 -2368 0 -16 3920 -2912 416 -304 208 -176c7840,-5888 15840,-12176 24016,-18864l720 -576 672 -576 2064 -1680 16 -16 672 -576 2048 -1680 16 -16 672 -576 464 -368 240 -208 672 -576 720 -592 672 -576 688 -576 672 -576 960 -800 1456 -1248 1200 -1024 1200 -1008 864 -752 352 -304 1200 -1040 1200 -1056 432 -352zm217808 -341376l-4240 5968c7952,7664 15136,14720 21520,20960l496 -400c-4992,-7536 -10928,-16496 -17776,-26528zm-20320 27984l-5456 7312c6144,4432 11888,8688 17232,12640l4768 -3824 -16544 -16128zm-38256 49536l-3440 4272 7280 2464 3344 -2560 -7184 -4176zm-698864 60432c31856,34256 66880,67648 102576,99104 21456,-3136 44592,-7040 68960,-11552 -30912,-36000 -61536,-73232 -89408,-109616 -26544,6512 -53920,13840 -82128,22064zm129344 122240c39936,33904 79824,65120 116032,92128 9888,-3392 19840,-7024 29808,-10896 -26160,-28224 -54592,-59568 -83296,-92384 -21776,4176 -42736,7952 -62544,11152zm142208 111408c15376,11184 29760,21488 42944,30704l10768 -7600c-9504,-9952 -19648,-20720 -30336,-32112 -7792,3136 -15616,6144 -23376,9008zm-239088 -374384c16704,27648 37392,57552 60480,88336 33728,-7936 66160,-14576 97280,-20032 -11968,-30368 -22624,-61472 -31424,-92912 -40576,5072 -82752,13120 -126336,24608zm78416 111824c28592,36832 59904,74464 91264,110592 17952,-3536 36400,-7328 55200,-11360 -19952,-36800 -39392,-76224 -56736,-117264 -28752,4960 -58624,10928 -89728,18032zm111712 133968c27536,31200 54624,60880 79456,87520 7440,-3152 14864,-6384 22320,-9744 -17200,-26496 -35344,-56064 -53376,-87920 -16400,3536 -32576,6944 -48400,10144zm99040 108400c9040,9584 17632,18720 25744,27200l10608 -7856c-5968,-8544 -12176,-17696 -18608,-27264 -5904,2688 -11824,5344 -17744,7920zm-161056 -529232c1728,40112 8240,80720 18224,121040 33888,-3376 66656,-4768 98256,-4544 -224,-31632 1184,-64400 4560,-98320 -40304,-9968 -80928,-16448 -121040,-18176zm25264 147488c8800,30928 19472,61504 31408,91360 23328,-3680 45920,-6736 67728,-9168 -3680,-27552 -6208,-56320 -7312,-86208 -29552,-224 -60192,1008 -91824,4016zm41968 116880c17408,40576 36928,79520 56880,115776l31472 -7056c-10880,-35712 -20352,-74784 -27248,-116896 -19712,2208 -40080,4928 -61104,8176zm70640 140288c17136,29840 34320,57584 50592,82480l8592 -4176c-11408,-25088 -22768,-53200 -33216,-84144l-25968 5840zm65584 105072c5296,7856 10432,15376 15408,22496l1712 -1328c-3968,-7456 -7984,-15360 -12048,-23632l-5072 2464zm-28416 -637952c-11504,43600 -19536,85760 -24592,126368 31424,8768 62544,19440 92896,31376 5456,-31120 12096,-63552 20016,-97296 -30784,-23056 -60672,-43760 -88320,-60448zm-27552 153424c-3008,31696 -4272,62304 -4032,91904 29888,1104 58656,3648 86208,7312 2432,-21872 5472,-44432 9168,-67840 -29840,-11920 -60432,-22592 -91344,-31376zm-3424 118880c1104,28736 3552,56384 7104,82864 24736,-2288 48448,-3760 71120,-4608 848,-22688 2384,-46432 4656,-71184 -26480,-3536 -54144,-5984 -82880,-7072zm11056 109392c6768,40976 16064,78928 26688,113584 14432,-3360 28896,-6784 43360,-10256 -2784,-32704 -4192,-68576 -3600,-107728 -21216,848 -43360,2272 -66448,4400zm34992 139296c9776,28656 20336,54752 30944,78128 6368,-3280 12720,-6608 19056,-9984 -4784,-23040 -9024,-48736 -12256,-77088l-37744 8944zm42416 102448c3200,6512 6352,12768 9488,18736l9088 -7312c-1648,-5936 -3216,-12144 -4800,-18576l-13776 7152zm83264 -655936c-8224,28224 -15568,55568 -22080,82112 36416,27856 73616,58496 109632,89392 4496,-24384 8400,-47536 11520,-68992 -31456,-35648 -64832,-70704 -99072,-102512zm-28896 110880c-7104,31104 -13136,60992 -18096,89744 41056,17312 80528,36672 117328,56624 4016,-18800 7840,-37232 11376,-55168 -36144,-31312 -73760,-62640 -110608,-91200zm-22528 116992c-3264,21072 -5968,41456 -8176,61216 42096,6896 81136,16336 116848,27216l7136 -31728c-36256,-19920 -75232,-39312 -115808,-56704zm-10912 87984c-2128,23088 -3584,45264 -4416,66480 39152,-592 75040,800 107728,3568 3472,-14480 6912,-28960 10272,-43424 -34640,-10608 -72608,-19856 -113584,-26624zm-5184 93168c-624,37072 592,71104 3088,102128 26800,-6544 53408,-13200 79296,-19792 6592,-25904 13216,-52480 19760,-79280 -31024,-2496 -65072,-3680 -102144,-3056zm5632 129216c2816,25632 6512,48960 10688,70064 14096,-7840 28080,-15920 41872,-24112 5360,-20224 10928,-41328 16544,-63088 -22672,5728 -45824,11472 -69104,17136zm16624 97472c1056,4432 2080,8768 3168,12944l12896 -10976c2672,-5264 5616,-10544 8928,-15984 -8288,4752 -16624,9424 -24992,14016zm167488 -506448c-3200,19856 -6928,40832 -11104,62656 32816,28672 64176,57088 92400,83232 3872,-10016 7520,-19952 10912,-29888 -27040,-36192 -58256,-76080 -92208,-116000zm-17184 93232c-3200,15824 -6592,31968 -10128,48368 31888,18032 61472,36208 87984,53424 3360,-7456 6640,-14896 9776,-22336 -26688,-24832 -56384,-51920 -87632,-79456zm-16160 75856l-5888 26208c30944,10448 59088,21760 84176,33168l4272 -8768c-24928,-16288 -52672,-33472 -82560,-50608zm-11936 52432l-8912 37776c28368,3232 54064,7488 77104,12272 3392,-6352 6736,-12720 10016,-19104 -23376,-10608 -49520,-21168 -78208,-30944zm-15216 63872c-5664,23280 -11408,46400 -17152,69072 21744,-5616 42880,-11152 63088,-16512 8208,-13824 16272,-27792 24128,-41904 -21088,-4176 -44432,-7840 -70064,-10656zm-24736 98848c-4384,17104 -8752,33872 -13024,50144 9280,-10400 19536,-21184 30768,-32416 11248,-11248 22000,-21440 32384,-30720 -16288,4272 -33040,8608 -50128,12992zm196736 -242112c-2880,7808 -5888,15632 -9040,23472 11536,10816 22384,21136 32432,30752l7584 -10752c-9280,-13312 -19648,-27936 -30976,-43472zm-20192 50080c-2576,5936 -5200,11872 -7904,17808 9760,6544 19008,12880 27680,18944l7824 -10544c-8608,-8224 -17840,-17008 -27600,-26208zm-19520 42496l-2560 5264c8400,4144 16416,8224 23984,12272l1440 -1856c-7232,-5056 -14880,-10272 -22864,-15680zm-14576 29264l-7184 13744c6560,1616 12864,3264 18896,4944l7328 -9024c-6064,-3184 -12432,-6400 -19040,-9664zm-20240 38032c-4592,8368 -9312,16704 -14048,24976 5584,-3408 11120,-6496 16544,-9232l10656 -12480 -13152 -3264zm-270560 343984l368 -448 -21200 -21824 -5968 4240c10176,6960 19184,12976 26800,18032zm17648 -21584l3824 -4720 -12848 -17568 -7376 5472 16400 16816zm37408 -47408l2576 -3360 -2544 -7584 -4336 3456 4304 7488z"/>
</svg>
