<?xml version="1.0" encoding="UTF-8"?>
<!DOCTYPE svg PUBLIC "-//W3C//DTD SVG 1.1//EN" "http://www.w3.org/Graphics/SVG/1.1/DTD/svg11.dtd">
<svg xmlns="http://www.w3.org/2000/svg" xml:space="preserve" style="shape-rendering:geometricPrecision; text-rendering:geometricPrecision; image-rendering:optimizeQuality; fill-rule:evenodd; clip-rule:evenodd"
viewBox="0 0 63.997 63.997" xmlns:xlink="http://www.w3.org/1999/xlink">
  <path d="M48.389 29.5307l-0.00413364 0.00354312m-11.5405 -17.4251l0.188966 0.0956643 0.207273 0.106294 0.00059052 -0.00059052 0.0112199 0.0059052 0.00118104 0.00059052 0.0259829 0.0129914 0.00236208 0.00118104 0.00118104 0.00118104c2.1926,1.09187 4.5163,2.88528 6.52171,4.93793 2.00423,2.05147 3.71201,4.38579 4.67869,6.5595 0.0749961,0.167117 0.139363,0.3177 0.19251,0.450567 0.0584615,0.145268 0.109246,0.28345 0.153535,0.40805l0 0.00059052 0.013582 0.0301165 0.00826728 0.028345c0.475959,1.21411 0.644258,2.05147 0.609417,2.69927 -0.043108,0.811965 -0.350769,1.31036 -0.784211,1.75857 -0.086216,0.114561 -0.178928,0.220264 -0.279316,0.317109l0 0.00059052 -0.0124009 0.0112199 -0.0029526 0.0029526c-0.0968453,0.0944832 -0.201367,0.180699 -0.309433,0.256286l-2.01722 2.02371 3.43092 3.56143 0.708034 0.735788 -0.720435 0.720435 -15.8389 15.8395 -0.734607 0.734607 -0.734017 -0.734607 -11.6569 -11.6521 0.00177156 -0.00177156c-0.17007,-0.161803 -0.34014,-0.324196 -0.506076,-0.490132 -2.12469,-2.12174 -3.94527,-4.57122 -4.95506,-6.84118 -0.630085,-1.41607 -0.889324,-2.63904 -0.820233,-3.61635 0.0596426,-0.843854 0.355493,-1.53122 0.863341,-2.04025 0.0927117,-0.0927117 0.191919,-0.180699 0.296441,-0.259238l0.0194872 -0.0200777 -0.00177156 -0.00177156 15.3653 -15.4191c0.495447,-0.66906 0.995027,-1.18281 2.04143,-1.29501 0.841491,-0.0903496 1.99891,0.163574 3.83897,0.979083l0.191329 0.0927117zm-13.0511 22.7026c0.380886,0.168889 0.781258,0.461787 1.11785,0.797793l0.00413364 0c0.330101,0.330101 0.622999,0.730474 0.795431,1.11785l0 0.00354312c0.141134,0.317109 0.198415,0.615322 0.179518,0.876923l0 0.00413364 -0.00059052 0c-0.0248019,0.320653 -0.14704,0.598788 -0.366123,0.820823l0.00059052 0 -0.00649572 0.00649572 -0.0059052 0.0059052 0 -0.00059052c-0.219674,0.217902 -0.49899,0.343092 -0.824957,0.367304 -0.263372,0.0183061 -0.562175,-0.0354312 -0.876923,-0.174794 -0.380295,-0.168298 -0.781258,-0.461787 -1.11785,-0.797793l-0.00413364 0c-0.32951,-0.32951 -0.621227,-0.729883 -0.795431,-1.12199 -0.141725,-0.318881 -0.199005,-0.619456 -0.179518,-0.881056 0.0248019,-0.328329 0.150583,-0.609417 0.370256,-0.829091l0.00236208 0.00236208c0.223217,-0.222626 0.504895,-0.348998 0.830272,-0.373209l0.00413364 0c0.263963,-0.0183061 0.560404,0.0372028 0.87338,0.175385zm2.34082 -0.42045c-1.95462,-1.95108 -4.18384,-3.61103 -6.22231,-4.51394 -1.09187,-0.483636 -1.97706,-0.686775 -2.62841,-0.639533 -0.32951,0.0236208 -0.571624,0.11338 -0.717482,0.259238 -0.14763,0.148221 -0.23798,0.392105 -0.26101,0.722206 -0.0460606,0.653115 0.157078,1.53771 0.640715,2.62427 0.904677,2.03434 2.56876,4.26179 4.52398,6.21405 1.95462,1.95167 4.18384,3.61103 6.22172,4.51394 1.09187,0.483046 1.97706,0.686185 2.62782,0.638943 0.32951,-0.0236208 0.571624,-0.112789 0.717482,-0.258648 0.14763,-0.148221 0.237389,-0.392105 0.26101,-0.722797 0.0466511,-0.653115 -0.157078,-1.53653 -0.640124,-2.62368 -0.905268,-2.03493 -2.56876,-4.26179 -4.52339,-6.21405zm9.90007 -20.3682l-0.178928 -0.0850349 -0.0029526 -0.00118104 -0.00826728 -0.0029526 -0.0059052 -0.0029526 -0.00708624 -0.0029526 -0.0165346 -0.00767676c-1.47394,-0.653115 -2.29594,-0.868065 -2.78076,-0.816099 -0.247428,0.0265734 -0.427537,0.240342 -0.630085,0.517886 -0.0307071,0.0413364 -0.0637762,0.0803108 -0.101569,0.118104l-13.3446 13.3906c0.520839,0.164755 1.14325,0.405097 1.89734,0.739331 1.79636,0.796021 4.50272,2.83863 6.91027,5.24264 2.07036,2.06741 3.95176,4.43067 4.89128,6.54296 0.3177,0.71453 0.540326,1.38005 0.674374,1.9871l13.3186 -13.3641c0.0584615,-0.0631857 0.127552,-0.122238 0.203139,-0.17066 0.0383838,-0.0248019 0.071453,-0.0501942 0.0968453,-0.0744056l0 0.00059052 0.00826728 -0.00826728c0.0218493,-0.0212587 0.0419269,-0.043108 0.0602331,-0.0667288 0.0389743,-0.0596426 0.0844444,-0.115742 0.13641,-0.167708 0.128733,-0.129324 0.221445,-0.2616 0.231484,-0.451158 0.0194872,-0.367304 -0.110427,-0.928888 -0.466511,-1.83593 -0.0141725,-0.029526 -0.0253924,-0.0614141 -0.0366123,-0.0933022 -0.0448795,-0.126962 -0.0903496,-0.246247 -0.135229,-0.358446 -0.0549184,-0.13641 -0.108656,-0.263372 -0.15944,-0.377342 -0.865112,-1.94458 -2.42527,-4.06632 -4.27241,-5.95717 -1.84656,-1.89085 -3.96652,-3.53308 -5.9489,-4.52102 -0.0289355,-0.0124009 -0.0566899,-0.028345 -0.0850349,-0.0436985l-0.190738 -0.10216 -0.0566899 -0.028345zm8.55487 19.2657l-11.9191 11.9592 -0.0389743 0.0372028c-0.0383838,0.0436985 -0.0797202,0.0891686 -0.121647,0.131096 -0.51021,0.5108 -1.19935,0.808422 -2.04379,0.869246 -0.57871,0.0425175 -1.24305,-0.0324786 -1.98001,-0.22735l4.4106 4.40942 14.3839 -14.3845 -2.691 -2.79434z"/>
</svg>
