<?xml version="1.0" encoding="UTF-8"?>
<!DOCTYPE svg PUBLIC "-//W3C//DTD SVG 1.1//EN" "http://www.w3.org/Graphics/SVG/1.1/DTD/svg11.dtd">
<svg xmlns="http://www.w3.org/2000/svg" xml:space="preserve" style="shape-rendering:geometricPrecision; text-rendering:geometricPrecision; image-rendering:optimizeQuality; fill-rule:evenodd; clip-rule:evenodd"
viewBox="0 0 31.9993 31.9993" xmlns:xlink="http://www.w3.org/1999/xlink">
  <path d="M13.5392 19.0359l-1.02605 -1.02605 -0.468589 0.468589 1.4161 1.41581 1.05824 -1.05824 -0.389752 -0.389752 -0.589943 0.589648zm-0.00206687 -10.5336l0.520851 0 7.27095 0c0.401858,0 0.767399,0.164464 1.03137,0.428432 0.263969,0.263969 0.428432,0.629509 0.428432,1.03137l0 12.0752c0,0.401858 -0.164464,0.767399 -0.428432,1.03137 -0.263969,0.263969 -0.629509,0.428432 -1.03137,0.428432l-10.6583 0c-0.401858,0 -0.767399,-0.164464 -1.03137,-0.428432 -0.263969,-0.263969 -0.428432,-0.629509 -0.428432,-1.03137l0 -8.68823 0 -0.520556 0 -0.215545 0.152653 -0.152653 0.000295267 -0.000295267 3.80511 -3.80511 0.152653 -0.152653 0.215545 0zm0.520851 1.0417l0 2.34531c0,0.400087 -0.164759,0.765332 -0.429613,1.03019l0.00118107 0.00118107c-0.263969,0.263969 -0.629509,0.428432 -1.03137,0.428432l-2.3456 0 0 8.68823c0,0.114564 0.047538,0.219383 0.123126,0.294972 0.0755883,0.0755883 0.180408,0.123126 0.294972,0.123126l10.6583 0c0.114564,0 0.219383,-0.047538 0.294972,-0.123126 0.0755883,-0.0755883 0.123126,-0.180408 0.123126,-0.294972l0 -12.0752c0,-0.114564 -0.047538,-0.219383 -0.123126,-0.294972 -0.0755883,-0.0755883 -0.180408,-0.123126 -0.294972,-0.123126l-7.27095 0zm-1.0417 2.34531l0 -1.60891 -2.02701 2.02701 1.60891 0c0.114564,0 0.219383,-0.047538 0.294972,-0.123126l0.00206687 0c0.0744073,-0.0744073 0.121059,-0.179227 0.121059,-0.294972zm2.38753 5.66174l0.270465 0.129622 0.499001 -0.499001 -1.99158 -0.84033 -0.48099 0.480695 0.818185 2.01402 0.480695 -0.48099 -0.12726 -0.272531 0.531481 -0.531481zm-0.450577 -0.219974l-0.294972 0.294972 -0.264559 -0.563665 0.559531 0.268693zm-0.115154 -1.64611l1.4161 1.41581 0.751159 -0.751454c0.086218,-0.0868085 0.155606,-0.174208 0.206982,-0.262492 0.0510812,-0.0888754 0.0841511,-0.175389 0.099505,-0.26013 0.0150586,-0.0841511 0.0115154,-0.164464 -0.0106296,-0.240052 -0.0224403,-0.0755883 -0.0631871,-0.1435 -0.124012,-0.20462 -0.0596439,-0.0593487 -0.126374,-0.102162 -0.198124,-0.128441 -0.0726357,-0.0256882 -0.146452,-0.0348415 -0.221745,-0.0262788 -0.0755883,0.00797221 -0.148519,0.0339557 -0.218498,0.0779505 0.0336604,-0.0640729 0.0531481,-0.128736 0.0593487,-0.194286 0.00561007,-0.0646635 -0.0017716,-0.127555 -0.0224403,-0.187495 -0.0215545,-0.0596439 -0.0552149,-0.112497 -0.101572,-0.159739 -0.0546244,-0.0537386 -0.11663,-0.0900564 -0.186609,-0.107477 -0.0702735,-0.0174208 -0.145862,-0.0174208 -0.226174,0.000295267 -0.0803126,0.017716 -0.163283,0.0531481 -0.24891,0.10482 -0.0856274,0.0522623 -0.171845,0.120764 -0.257473,0.206392l-0.716908 0.717203zm0.810213 -0.123422l0.224108 -0.224108c0.0327746,-0.0324794 0.0673209,-0.0496048 0.104229,-0.0510812 0.0366131,-0.0017716 0.0708641,0.0126965 0.101572,0.043109 0.0312983,0.0318888 0.0466522,0.0667303 0.0457664,0.104229 -0.000885801,0.0374989 -0.0174208,0.0726357 -0.0496048,0.105706l-0.224403 0.224108 -0.201667 -0.201963zm0.512879 0.513174l0.224108 -0.224403c0.0445853,-0.0434042 0.0885801,-0.0687972 0.13228,-0.0761789 0.04429,-0.00708641 0.0823795,0.00472427 0.114268,0.0357273 0.034251,0.035432 0.048719,0.0761789 0.0434042,0.121945 -0.00561007,0.0454711 -0.029822,0.0903517 -0.0738167,0.134642l-0.224108 0.224403 -0.216135 -0.216135zm1.69277 -2.69461l-0.355501 -0.355501 -1.1979 1.1976 1.4161 1.4161 1.21591 -1.21591 -0.355501 -0.355501 -0.747616 0.747321 -0.175684 -0.175684 0.662579 -0.662874 -0.355206 -0.355206 -0.662579 0.662579 -0.173912 -0.173617 0.729309 -0.729309zm1.3352 0.00590534l-1.02605 -1.02605 -0.468589 0.468589 1.4161 1.41581 1.05824 -1.05824 -0.389752 -0.389752 -0.589943 0.589648z"/>
</svg>
