<?xml version="1.0" encoding="UTF-8"?>
<!DOCTYPE svg PUBLIC "-//W3C//DTD SVG 1.1//EN" "http://www.w3.org/Graphics/SVG/1.1/DTD/svg11.dtd">
<svg xmlns="http://www.w3.org/2000/svg" xml:space="preserve" style="shape-rendering:geometricPrecision; text-rendering:geometricPrecision; image-rendering:optimizeQuality; fill-rule:evenodd; clip-rule:evenodd"
viewBox="0 0 21.333 21.333" xmlns:xlink="http://www.w3.org/1999/xlink">
  <path d="M15.3522 10.6061l1.14368 1.18718 0.236019 0.24527 -0.240152 0.240152 -5.27981 5.28 -0.244877 0.244877 -0.24468 -0.244877 -3.88574 -3.88417 0.000590538 -0.000590538c-0.0566917,-0.0539358 -0.113383,-0.108069 -0.168697,-0.163382 -0.708252,-0.707268 -1.31513,-1.52379 -1.65174,-2.28046 -0.210035,-0.472037 -0.29645,-0.879705 -0.273419,-1.20549 0.0198815,-0.281293 0.118501,-0.510422 0.34015,-0.726953l3.22926 -3.23694 0.330702 -0.331489 0.117911 -0.118305 1.49642 -1.49997c0.165154,-0.223027 0.331686,-0.394283 0.680497,-0.431684 0.280506,-0.0301175 0.666324,0.0545264 1.2797,0.326371l0.0637782 0.0309048 0.0629908 0.0318891 0.069093 0.0354323 0.000196846 -0.000196846 0.00374008 0.00196846 0.000393692 0.000196846 0.00866123 0.00433062 0.000787385 0.000393692 0.000393692 0.000393692c0.73089,0.363969 1.50548,0.96179 2.17397,1.64603 0.668096,0.683844 1.23737,1.46198 1.55961,2.18657 0.0249995,0.0557075 0.0464557,0.105903 0.0641718,0.150194 0.0194878,0.0484242 0.0364165,0.0944862 0.05118,0.136021l0 0.000196846 0.00452746 0.0100392 0.00275585 0.00944862c0.158658,0.404716 0.214759,0.683844 0.203145,0.899784 -0.0143698,0.270663 -0.116927,0.436802 -0.261412,0.586208 -0.0287395,0.0381882 -0.0596444,0.0734236 -0.0931082,0.105706l0 0.000196846 -0.00413377 0.00374008 -0.000984231 0.000984231c-0.0322828,0.0314954 -0.0671245,0.0602349 -0.103147,0.0854312l-0.672426 0.674592zm-7.69334 0.386015c0.296253,0.131296 0.613373,0.365346 0.885611,0.637388 0.272041,0.271451 0.506682,0.588373 0.638569,0.88502 0.0905492,0.203539 0.127753,0.385622 0.117123,0.536996l0 0.00137792 -0.000196846 0c-0.0112202,0.156099 -0.0686993,0.285624 -0.167319,0.384834l0 0.00137792c-0.0988168,0.0988168 -0.229129,0.156493 -0.386212,0.16791 -0.151965,0.0110234 -0.334638,-0.02559 -0.537193,-0.115352 -0.296253,-0.131296 -0.613373,-0.365346 -0.885611,-0.637388 -0.272041,-0.271451 -0.506682,-0.588373 -0.638569,-0.88502 -0.0907461,-0.204129 -0.12795,-0.386803 -0.117123,-0.538374 0.0110234,-0.156296 0.069093,-0.286017 0.167516,-0.384834l0 -0.00137792c0.0988168,-0.0988168 0.229326,-0.156493 0.386212,-0.16791 0.152162,-0.0110234 0.334638,0.02559 0.537193,0.115352zm0.397432 1.12832c-0.215153,-0.214956 -0.458258,-0.396842 -0.676954,-0.49369 -0.0377945,-0.0167319 -0.071652,-0.0291332 -0.101376,-0.0385818 0.00925177,0.0293301 0.0226373,0.0622034 0.0389755,0.0992105 0.0968483,0.217909 0.279325,0.460817 0.494871,0.67597 0.215153,0.214956 0.458258,0.396842 0.676954,0.49369 0.0377945,0.0167319 0.0706678,0.0301175 0.100392,0.0395661 -0.00925177,-0.0293301 -0.0214562,-0.0629908 -0.0379913,-0.100195 -0.0968483,-0.217909 -0.279325,-0.460817 -0.494871,-0.67597zm4.78415 0.0251963l0.117911 -0.118305 2.59187 -2.60073c0.0194878,-0.0210625 0.0425188,-0.0407472 0.0677151,-0.0568885 0.012795,-0.00826754 0.0238184,-0.0167319 0.0322828,-0.0248026l0 0.000196846 0.00275585 -0.00275585c0.00728331,-0.00708646 0.0139761,-0.0143698 0.0200783,-0.0222436 0.0129918,-0.0198815 0.028149,-0.0385818 0.0454715,-0.0559043 0.0429125,-0.0431093 0.0738173,-0.0872028 0.0771637,-0.15039 0.00649592,-0.122438 -0.0368102,-0.309639 -0.155508,-0.611995 -0.00472431,-0.00984231 -0.00846438,-0.020472 -0.0122045,-0.0311017 -0.0149603,-0.0423219 -0.0301175,-0.0820848 -0.0450778,-0.119486 -0.0183067,-0.0454715 -0.0362197,-0.0877934 -0.0531485,-0.125785 -0.28838,-0.648214 -0.808447,-1.35548 -1.42418,-1.98578 -0.615538,-0.630301 -1.32222,-1.17773 -1.98303,-1.50705 -0.00964546,-0.00413377 -0.0188972,-0.00944862 -0.0283458,-0.0145666l-0.0635813 -0.0340544 -0.0188972 -0.00944862 -0.0596444 -0.0283458 -0.000984231 -0.000393692 -0.00275585 -0.000984231 -0.00196846 -0.000984231 -0.00236215 -0.000984231 -0.00551169 -0.002559c-0.491328,-0.217712 -0.765338,-0.289364 -0.926949,-0.272041 -0.0824785,0.00885808 -0.142517,0.0801164 -0.210035,0.172634 -0.010236,0.0137792 -0.0212594,0.0267711 -0.0338575,0.0393692l-2.00626 2.01315 -0.117911 0.118305 -0.330702 0.331883 -1.99346 2.00035c0.166532,0.0527548 0.364559,0.128147 0.684828,0.271254 0.0730299,0.0366134 0.148225,0.0773605 0.224798,0.120864l0.164957 0.0974388c0.591129,0.361803 1.2543,0.898406 1.86138,1.5045 0.690143,0.689158 1.31729,1.47694 1.63048,2.18106 0.105903,0.238184 0.180114,0.460029 0.224798,0.662387l1.72988 -1.73579zm0.117911 0.861989l-0.117911 0.118305 -1.95901 1.96512c-0.015354,0.015354 -0.0293301,0.0328733 -0.0446841,0.0482273 -0.170075,0.170272 -0.399795,0.269482 -0.681285,0.289758 -0.192909,0.0141729 -0.414361,-0.0108265 -0.660025,-0.0757858l1.47024 1.46985 4.79478 -4.79498 -0.897225 -0.931476 -1.90488 1.91098zm-5.7294 -2.76136c-0.0753921,-0.0507863 -0.150587,-0.0992105 -0.224798,-0.145076 -0.170862,-0.0990136 -0.254719,-0.141926 -0.331883,-0.176177 -0.806872,-0.357669 -0.895059,-0.292907 -1.04092,-0.185232l-0.00157477 0.00118108 0.000196846 0.000196846 -0.0482273 0.0389755c-0.0173225,0.010236 -0.0466525,0.0395661 -0.0596444,0.0525579 -0.0492115,0.0494084 -0.079329,0.130706 -0.087006,0.240743 -0.015354,0.217712 0.0523611,0.512587 0.213578,0.874784 0.301568,0.678135 0.856281,1.42064 1.50804,2.07141 0.651561,0.650577 1.39466,1.20371 2.07397,1.50469 0.363969,0.16102 0.659041,0.228735 0.875965,0.212988 0.10984,-0.00787385 0.190547,-0.0375976 0.264168,-0.112399 0.0797227,-0.0936988 0.105313,-0.206688 0.0976357,-0.359638 -0.0104328,-0.205311 -0.0801164,-0.461998 -0.214562,-0.764354 -0.275978,-0.620656 -0.849785,-1.33599 -1.48678,-1.972 -0.444675,-0.444085 -0.914744,-0.844864 -1.3732,-1.16907l-0.164957 -0.11358z"/>
</svg>
