<?xml version="1.0" encoding="UTF-8"?>
<!DOCTYPE svg PUBLIC "-//W3C//DTD SVG 1.1//EN" "http://www.w3.org/Graphics/SVG/1.1/DTD/svg11.dtd">
<svg xmlns="http://www.w3.org/2000/svg" xml:space="preserve" style="shape-rendering:geometricPrecision; text-rendering:geometricPrecision; image-rendering:optimizeQuality; fill-rule:evenodd; clip-rule:evenodd"
viewBox="0 0 15.9998 15.9998" xmlns:xlink="http://www.w3.org/1999/xlink">
  <path d="M5.80767 4.92747c0.0528534,0.00856284 0.109102,0.0177162 0.168156,0.0264267 0.516428,0.0767703 1.23202,0.124456 2.02378,0.124456 0.791767,0 1.50736,-0.0476862 2.02378,-0.124456 0.0587588,-0.00871048 0.114417,-0.0177162 0.167271,-0.0264267 -0.564852,0.06555 -1.33949,0.106445 -2.19105,0.106445 -0.851855,0 -1.62709,-0.0407473 -2.19194,-0.106445zm2.19194 -1.12911c0.853331,0 1.62974,0.0408949 2.19489,0.10674 0.696543,0.0811994 1.12764,0.258214 1.12764,0.510965 0,0.127704 -0.110726,0.235921 -0.310034,0.322583l0 0.0346943c0,0.0597922 -0.0363183,0.115303 -0.103788,0.166385 -0.232083,2.22737 -0.469332,4.45297 -0.70732,6.68138l-0.00118108 0.0104821 -0.00324797 0.0115155 -0.00280507 0.00959629c-0.0265743,0.146011 -0.293056,0.257328 -0.710716,0.320368 -0.380604,0.0574301 -0.905594,0.0930102 -1.48344,0.0930102 -0.577549,0 -1.10283,-0.0355801 -1.48344,-0.0930102 -0.421203,-0.0636308 -0.689161,-0.176129 -0.711749,-0.324059l-0.00177162 -0.00590541 -0.00339561 -0.0115155 -0.00103345 -0.0104821c-0.234592,-2.22708 -0.474942,-4.45386 -0.707173,-6.68123 -0.0676169,-0.0512294 -0.103935,-0.10674 -0.103935,-0.166532l0 -0.0346943c-0.199307,-0.0866619 -0.310034,-0.194878 -0.310034,-0.322583 0,-0.252751 0.431095,-0.429766 1.12764,-0.510965 0.565147,-0.0658453 1.34156,-0.10674 2.19489,-0.10674zm2.27019 2.78056c-0.113384,0.0246551 -0.243598,0.0457669 -0.388871,0.062745 -0.48321,0.056249 -1.1486,0.0912385 -1.88132,0.0912385 -0.732566,0 -1.39811,-0.0349895 -1.88117,-0.0912385 -0.145273,-0.016978 -0.275192,-0.0382375 -0.388576,-0.062745l0.0134348 0.127114c0.107774,0.0143206 0.248322,0.0321845 0.415888,0.0516723 0.46697,0.0544774 1.11494,0.0882858 1.83245,0.0882858 0.717655,0 1.36548,-0.0338085 1.8326,-0.0882858 0.176129,-0.0205213 0.322583,-0.0389757 0.432276,-0.0537392l0.0132872 -0.125047zm-4.56562 -0.240645c0.111612,0.0152064 0.261757,0.0342514 0.44261,0.0553632 0.472137,0.0549203 1.12749,0.0891717 1.85282,0.0891717 0.725479,0 1.38068,-0.0342514 1.85297,-0.0891717 0.181001,-0.0211118 0.331146,-0.0401568 0.44261,-0.0553632l0.0134348 -0.126523c-0.116337,0.0252456 -0.250094,0.0473909 -0.399648,0.0649595 -0.490296,0.0571348 -1.16573,0.0925673 -1.90937,0.0925673 -0.743638,0 -1.41892,-0.0354324 -1.90937,-0.0925673 -0.149702,-0.0175686 -0.283312,-0.0397139 -0.399501,-0.0651071l0.0134348 0.126671zm-0.126523 -1.20603l0.00561014 0.0547727 0.0770656 0.735076 0.00516723 0.0494578c0.113827,0.015797 0.267367,0.0354324 0.453092,0.0571348 0.479519,0.0558061 1.14462,0.0905004 1.88102,0.0905004 0.736404,0 1.40165,-0.0346943 1.88102,-0.0905004 0.185725,-0.0217024 0.339266,-0.0413379 0.453092,-0.0571348l0.0187497 -0.178639 0.0634831 -0.605895 0.00561014 -0.0549203c-0.108217,0.0258362 -0.229425,0.0491625 -0.362149,0.0689456 -0.528682,0.0786896 -1.25726,0.127409 -2.05981,0.127409 -0.802397,0 -1.53112,-0.0487196 -2.05981,-0.127409 -0.132576,-0.0197831 -0.25408,-0.0429618 -0.362149,-0.068798zm4.65346 1.81281c-0.110726,0.0236216 -0.237397,0.0441429 -0.378537,0.0606781 -0.478043,0.0558061 -1.13635,0.0903527 -1.86094,0.0903527 -0.724446,0 -1.3829,-0.0345466 -1.86079,-0.0903527 -0.134053,-0.0156493 -0.255114,-0.0346943 -0.361854,-0.0569872l0.0122537 0.115008c0.0995061,0.0230311 0.230016,0.0476862 0.389757,0.0662882 0.459293,0.0535916 1.12291,0.0757368 1.82861,0.0757368 0.982955,0 1.82994,-0.0618591 2.21792,-0.132576l0.0135824 -0.128147zm-0.0310034 0.292613c-0.487639,0.108955 -1.29136,0.180558 -2.2005,0.180558 -0.712635,0 -1.36016,-0.0339561 -1.83038,-0.0888764 -0.135972,-0.015797 -0.258509,-0.0354324 -0.365988,-0.0581683l0.0150588 0.141435c0.599104,0.125638 0.994028,0.162251 2.18131,0.162251 0.664063,0 1.48861,-0.0315939 2.1822,-0.163727l0.0183068 -0.173471zm-0.0425189 0.403339c-0.104969,0.0219976 -0.22411,0.0410426 -0.356244,0.0563966 -0.462836,0.0540345 -1.10018,0.0875477 -1.80174,0.0875477 -0.891126,0 -1.67935,-0.0701267 -2.16049,-0.177015l0.0132872 0.127704c0.102606,0.0129919 0.23725,0.0296747 0.398024,0.0484243 0.445711,0.0518199 1.0643,0.0841521 1.74918,0.0841521 0.68488,0 1.30347,-0.0323321 1.74918,-0.0841521 0.161218,-0.0187497 0.296009,-0.0354324 0.398763,-0.048572l0.0100392 -0.0944865zm-0.0355801 0.336608c-0.101868,0.0212595 -0.217319,0.0395662 -0.344876,0.0544774 -0.456636,0.0531487 -1.08541,0.0862189 -1.77753,0.0862189 -0.692114,0 -1.32089,-0.0330703 -1.77753,-0.0862189 -0.127262,-0.0149112 -0.242565,-0.0332179 -0.344285,-0.0544774l0.0106297 0.102606c0.10054,0.012549 0.232083,0.0287889 0.389019,0.0470956 0.438919,0.0512294 1.04777,0.082971 1.72216,0.082971 0.674545,0 1.28339,-0.0317416 1.72216,-0.082971 0.157084,-0.0183068 0.288774,-0.034399 0.389314,-0.0470956l0.010925 -0.102606zm-0.0364659 0.344876c-0.0993585,0.0205213 -0.211561,0.0383851 -0.335427,0.0528534 -0.449697,0.0525581 -1.06903,0.0850379 -1.75051,0.0850379 -0.681336,0 -1.30067,-0.0324797 -1.75051,-0.0850379 -0.123718,-0.0144682 -0.235921,-0.0323321 -0.335132,-0.0528534l0.00826757 0.0806088c0.0981774,0.0122537 0.225882,0.0277554 0.377651,0.0454716 0.433014,0.0503436 1.03418,0.0817899 1.69972,0.0817899 0.665687,0 1.26671,-0.0312987 1.69972,-0.0817899 0.151769,-0.0177162 0.279326,-0.0335132 0.377651,-0.0456193l0.00856284 -0.0804612zm-4.13113 0.386804l0.368497 0.0441429c0.427109,0.0497531 1.02016,0.0807564 1.67669,0.0807564 0.656534,0 1.24958,-0.0310034 1.67684,-0.0807564 0.147488,-0.0171257 0.271796,-0.0323321 0.368202,-0.0441429l0.00664358 -0.0634831c-0.0962581,0.0196355 -0.204475,0.0369088 -0.323616,0.0507865 -0.443939,0.0518199 -1.05544,0.0838568 -1.72807,0.0838568 -0.672774,0 -1.28413,-0.0321845 -1.72807,-0.0838568 -0.119289,-0.0138777 -0.227358,-0.031151 -0.323764,-0.0509341l0.00664358 0.0636308zm0.0321845 0.301176l0.360377 0.0429618c0.421056,0.0490149 1.00554,0.0795754 1.65263,0.0795754 0.647085,0 1.23157,-0.0305605 1.65263,-0.0795754l0.36023 -0.0429618 0.00620068 -0.0580206c-0.0937483,0.0190449 -0.198569,0.0355801 -0.313872,0.0490149 -0.438181,0.0510818 -1.04142,0.0828233 -1.70519,0.0828233 -0.663768,0 -1.26701,-0.0317416 -1.70504,-0.0828233 -0.115451,-0.0134348 -0.220567,-0.0302652 -0.314168,-0.0493102l0.00620068 0.0583159zm0.0345466 0.323469c0.357572,0.0487196 1.10889,0.0828233 1.97846,0.0828233 0.63867,0 1.21533,-0.0301176 1.63063,-0.0785419l0.351667 -0.0414855 0.00472433 -0.0432571c-0.0915338,0.0184544 -0.193845,0.0348419 -0.306048,0.0479814 -0.431981,0.0503436 -1.02666,0.0816423 -1.68097,0.0816423 -0.654319,0 -1.24899,-0.0312987 -1.68097,-0.0816423 -0.112498,-0.0131395 -0.214662,-0.0293794 -0.306048,-0.0478338l0.00856284 0.0803135zm0.0307081 0.290398c0.354324,0.0472433 1.09324,0.0804612 1.94775,0.0804612 0.630255,0 1.19909,-0.0296747 1.60922,-0.0775085l0.342218 -0.0398615 0.0050196 -0.0472433c-0.0893193,0.0178639 -0.188678,0.0333656 -0.297485,0.0460622 -0.426223,0.0497531 -1.01307,0.0806088 -1.65898,0.0806088 -0.801659,0 -1.51282,-0.0628926 -1.96,-0.159298l0.0122537 0.116779zm0.0290841 0.273273c0.351076,0.0459145 1.07818,0.0782466 1.91867,0.0782466 0.839897,0 1.5667,-0.0321845 1.91822,-0.078099l0.00723412 -0.0670264c-0.0866619,0.0172733 -0.182772,0.0323321 -0.287889,0.0445858 -0.420908,0.0491625 -1.00023,0.0795754 -1.63757,0.0795754 -0.787929,0 -1.48742,-0.0620068 -1.9293,-0.156936l0.0106297 0.0996537zm0.0240645 0.225291c0.0865142,0.00944865 0.195617,0.0221453 0.323912,0.0370564 0.399944,0.0466527 0.955347,0.0755892 1.57069,0.0755892 0.615343,0 1.17075,-0.0289365 1.57084,-0.0755892l0.323469 -0.0369088 0.00531487 -0.0506389c-0.437591,0.0930102 -1.12557,0.153541 -1.89962,0.153541 -0.774642,0 -1.46262,-0.0605304 -1.90006,-0.153688l0.0054625 0.0506389zm0.0277554 0.260871c0.0850379,0.00915338 0.192221,0.0214071 0.317859,0.0361706 0.394481,0.0460622 0.942355,0.074851 1.54899,0.074851 0.606633,0 1.15451,-0.0287889 1.54899,-0.074851 0.125342,-0.0147635 0.232378,-0.0270172 0.317416,-0.036023l0.00177162 -0.0168304c-0.0814946,0.015797 -0.171404,0.029527 -0.268991,0.0408949 -0.411016,0.0479814 -0.976754,0.0776561 -1.59918,0.0776561 -0.622282,0 -1.18802,-0.0296747 -1.59904,-0.0776561 -0.0980298,-0.0115155 -0.188087,-0.0253933 -0.269582,-0.0411902l0.00177162 0.016978zm0.0540345 0.505651c0.102311,0.0143206 0.236069,0.0280507 0.395219,0.0391233 -0.0496054,-0.0054625 -0.0977345,-0.0107774 -0.143501,-0.0168304 -0.0921244,-0.0119584 -0.176572,-0.0264267 -0.253785,-0.0426666l0.00206689 0.0203737zm0.0200784 0.189121l0.167418 0.0228835c-0.0597922,-0.0104821 -0.115746,-0.0219976 -0.168599,-0.0333656l0.00118108 0.0104821zm2.50699 -0.347976c-0.224405,0.00900575 -0.464903,0.0143206 -0.714259,0.0143206 -0.230163,0 -0.452354,-0.00442906 -0.661849,-0.0121061 0.208461,0.00871048 0.430504,0.0140253 0.661849,0.0140253 0.250537,0 0.491182,-0.00605304 0.714259,-0.0162399zm1.37109 -6.31421c-0.539016,-0.0599399 -1.27335,-0.097144 -2.08535,-0.097144 -0.811994,0 -1.54677,0.0372041 -2.08579,0.097144 0.539016,0.0599399 1.2738,0.096701 2.08579,0.096701 0.811994,0 1.54633,-0.0367612 2.08535,-0.096701z"/>
</svg>
