<?xml version="1.0" encoding="UTF-8"?>
<!DOCTYPE svg PUBLIC "-//W3C//DTD SVG 1.1//EN" "http://www.w3.org/Graphics/SVG/1.1/DTD/svg11.dtd">
<svg xmlns="http://www.w3.org/2000/svg" xml:space="preserve" style="shape-rendering:geometricPrecision; text-rendering:geometricPrecision; image-rendering:optimizeQuality; fill-rule:evenodd; clip-rule:evenodd"
viewBox="0 0 12.8001 12.8001" xmlns:xlink="http://www.w3.org/1999/xlink">
  <path d="M10.6794 4.99194l-0.419882 0.0980316 -2.98748 2.99422 0.415512 -0.0964962c0.0140551,-0.0122835 0.0271654,-0.0244488 0.0396851,-0.0369685l2.95217 -2.95878zm-9.02883 3.43548l0.712324 -0.0703938 -0.611103 -0.178819 -0.0630709 0.0631891c-0.0478347,0.0479528 -0.0764174,0.0895277 -0.086693,0.123662l-0.00011811 0c-0.00283465,0.00980316 -0.00318898,0.0170079 -0.00106299,0.0205512 0.00779529,0.0134646 0.0248032,0.0272835 0.0497245,0.0418111zm0.261496 -0.409843l0.249213 0.0729922 3.1115 -3.11859 -0.259252 -0.0629528 -3.10146 3.10855zm0.467245 0.136772l0.248622 0.072756 3.13004 -3.13713 -0.258426 -0.0628347 -3.12024 3.12721zm0.457205 0.146103l0.0257481 0.037441 3.78426 0 3.35422 -3.36178 -3.84733 0 -3.31689 3.32433zm2.35855 -3.55241l0.72756 0.176929 0.0647245 -0.0648426 -0.229134 -0.389646c-0.221457,0.078071 -0.418111,0.173622 -0.56315,0.277559zm1.17992 0.0279922l0.338741 -0.497599c-0.24874,0.0119291 -0.512717,0.0587009 -0.760867,0.13004l0.216142 0.36756 0.205985 0zm0.581812 -0.499961l-0.0479528 0.0703938 3.25725 0 0.0479528 -0.0703938 -3.25725 0zm-0.183544 0.269528l-0.156851 0.230433 3.25725 0 0.156851 -0.230433 -3.25725 0zm3.7715 0.272835l0.401339 -0.0936615 0.167599 -0.168071c0.0402756,-0.04063 0.0662599,-0.0762993 0.0790158,-0.106536l-0.647954 0.368268zm-5.76887 -0.25937c0.198544,-0.198898 0.529489,-0.375945 0.903426,-0.500906 0.364843,-0.12189 0.778111,-0.197481 1.15276,-0.197953l0 -0.000826773 3.79052 0 0 0.000826773c0.283701,0.000354331 0.512481,0.0445276 0.672993,0.120236 0.118819,0.0559843 0.20752,0.132166 0.261614,0.224055 0.0625985,0.106299 0.0772442,0.224764 0.0396851,0.350079 -0.0290552,0.0972048 -0.0912993,0.196772 -0.188622,0.29504l-3.38646 3.39402 -0.000826773 0.000826773c-0.199016,0.198071 -0.530552,0.37441 -0.905198,0.499134 -0.366497,0.12189 -0.779174,0.197481 -1.15087,0.197481l-3.78426 0c-0.284292,0 -0.514489,-0.0446457 -0.676772,-0.121299 -0.118937,-0.0563387 -0.207402,-0.132402 -0.261142,-0.224174 -0.0623623,-0.106536 -0.0768899,-0.224764 -0.0394489,-0.350197l0 -0.000826773c0.0292914,-0.0970867 0.0922442,-0.197244 0.190866,-0.296103l3.38174 -3.38941zm5.33918 0.216969l0.10063 0 0.801969 -0.455788c-0.102047,-0.0284646 -0.234567,-0.0448819 -0.395079,-0.0450001l0 0.000826773 -0.167126 0 -0.340394 0.499961z"/>
</svg>
