<?xml version="1.0" encoding="UTF-8"?>
<!DOCTYPE svg PUBLIC "-//W3C//DTD SVG 1.1//EN" "http://www.w3.org/Graphics/SVG/1.1/DTD/svg11.dtd">
<svg xmlns="http://www.w3.org/2000/svg" xml:space="preserve" style="shape-rendering:geometricPrecision; text-rendering:geometricPrecision; image-rendering:optimizeQuality; fill-rule:evenodd; clip-rule:evenodd"
viewBox="0 0 16.0001 16.0001" xmlns:xlink="http://www.w3.org/1999/xlink">
  <path d="M5.42644 2.74814c0.66703,0 1.01472,0.533122 1.19366,1.16944 0.157678,0.561025 0.180709,1.20739 0.183367,1.56821l0.00103347 0.00103347 0 0.00989176c0,0.417078 -0.679136,0.994344 -0.739225,1.04469 -0.0304135,0.0276084 -0.055512,0.0614175 -0.072638,0.09877 -0.0169784,0.0369096 -0.0271654,0.0776577 -0.0280513,0.119735l0.000147638 0.0125493 0.00221457 0.0335139 0 0.0081201c0.00413387,0.126526 0.0135827,0.418407 0.0202264,0.752365 0.00664372,0.330119 0.01063,0.694343 0.00413387,0.95832 -0.00590553,0.238879 -0.0126969,0.757384 -0.0197835,1.3252 -0.0115158,0.91019 -0.0248032,1.94735 -0.0388289,2.1691 -0.00590553,0.0938979 -0.00664372,0.184843 -0.00723427,0.27505 -0.00250985,0.371015 -0.00546262,0.737453 -0.273426,0.893211l-0.00103347 0c-0.0295276,0.0169784 -0.0614175,0.0302658 -0.0952267,0.0406005l-0.00206694 0.00103347c-0.0246556,0.00723427 -0.0543309,0.0137304 -0.0875495,0.0188977l-0.0397147 0.00605317 -0.0397147 -0.00605317c-0.0333662,-0.00516734 -0.0628939,-0.0116634 -0.0875495,-0.0188977l-0.00206694 -0.00103347c-0.0367619,-0.0112205 -0.0699805,-0.0246556 -0.0972936,-0.0406005l0.000295276 -0.000442915c-0.267373,-0.156201 -0.270178,-0.522049 -0.272688,-0.892768 -0.000590553,-0.090207 -0.00132874,-0.181152 -0.00723427,-0.27505 -0.0140256,-0.221753 -0.0273131,-1.25891 -0.0388289,-2.1691 -0.00708664,-0.567817 -0.013878,-1.08632 -0.0197835,-1.3252 -0.00487206,-0.198131 -0.00383859,-0.453988 -0.000147638,-0.709254 0.00590553,-0.425789 0.0193406,-0.842571 0.0246556,-1.00143l0 -0.0081201 0.00221457 -0.0343997 0.000147638 -0.0186024c-0.0081201,-0.148967 -0.160335,-0.27254 -0.314027,-0.39759 -0.260877,-0.212304 -0.526035,-0.428003 -0.526035,-0.858664l0 -0.00989176 0.00103347 -0.00103347c0.00265749,-0.368505 0.0209646,-1.01354 0.176723,-1.57338 0.176575,-0.63514 0.523821,-1.16428 1.2003,-1.16428zm5.8354 0.364076l0.00428151 0.000295276 0.00413387 0c0.112648,0.00930121 0.213485,0.0589077 0.285828,0.131546 0.0757384,0.0761813 0.121211,0.176723 0.120916,0.287304 0.0152067,0.163436 0.225591,2.41595 0.245965,3.12048l0.00103347 0.00708664 0 0.00280513 -0.000738191 0c0.00959649,0.345031 0.0193406,0.694047 0.0242127,1.05104 0.00487206,0.356399 0.00457679,0.712355 -0.00546262,1.06329 -0.00634844,0.225739 -0.0137304,0.711321 -0.0214075,1.24356 -0.0126969,0.862503 -0.0273131,1.84769 -0.0426675,2.0569 -0.00634844,0.0887306 -0.00738191,0.173918 -0.00797247,0.257924 -0.00280513,0.359056 -0.00605317,0.713536 -0.301034,0.861764l-0.00103347 0.00103347c-0.0270178,0.0132874 -0.0584647,0.0248032 -0.0928645,0.0336615l0.000147638 0.000442915c-0.026132,0.006939 -0.0580218,0.0129922 -0.0928645,0.017569l-0.0342521 0.00442915 -0.0338092 -0.00442915c-0.0318899,-0.00428151 -0.0614175,-0.010187 -0.0874018,-0.0168308l-0.000147638 0.000442915 -0.00250985 -0.000885829 -0.000590553 0 0 -0.000147638c-0.0327757,-0.00841538 -0.0646656,-0.0203741 -0.0947838,-0.0355808l-0.000147638 0.000295276 -0.00177166 -0.000885829 -0.000295276 -0.000147638 0 -0.000147638c-0.29321,-0.148819 -0.29631,-0.502561 -0.299115,-0.860731 -0.000590553,-0.0838585 -0.00162402,-0.168898 -0.00797247,-0.257776 -0.0157973,-0.215109 -0.0317422,-1.27958 -0.0445868,-2.16113 -0.00738191,-0.506842 -0.0141733,-0.952414 -0.0194882,-1.13932 -0.00826774,-0.286123 -0.00590553,-0.570031 0.00221457,-0.853201 0.00826774,-0.285975 0.022441,-0.560878 0.0380907,-0.832827l-0.000885829 -0.0237698c0,-0.00206694 -0.0250985,-0.0372048 -0.0611222,-0.0854825 -0.0376478,-0.0507876 -0.0814963,-0.0974412 -0.118554,-0.118849l0 0.000147638 -0.00118111 -0.000590553 -0.000885829 -0.000442915 0 -0.000147638 -0.0680612 -0.0375001 0.000295276 -0.000442915c-0.249952,-0.136713 -0.424755,-0.23253 -0.471999,-0.538289 -0.0623033,-0.402905 0.00487206,-0.941784 0.143209,-1.46708 0.147638,-0.559992 0.379283,-1.11733 0.620819,-1.48288 0.0413387,-0.0736715 0.105857,-0.13317 0.181447,-0.171851l0 -0.00103347 0.00487206 -0.00236221 0.0671754 -0.0271654c0.0531498,-0.0165355 0.110581,-0.0236221 0.168898,-0.0200788l0.00206694 0zm0.0496065 3.90474c0.00132874,0.00989176 0.0019193,0.0197835 0.00221457,0.0289371l0.00118111 0.0290847 0.000295276 0.00516734 0.000590553 0.0113681 0 0.000885829 0.000147638 0.00280513 -0.000147638 0 0.000147638 0.00206694 -0.000885829 0.00959649c-0.0163878,0.283761 -0.0308564,0.562945 -0.0385336,0.83017 -0.00797247,0.27446 -0.0100394,0.549214 -0.00221457,0.824855 0.00516734,0.17879 0.0119587,0.631892 0.0194882,1.1473 0.0126969,0.864274 0.0283465,1.90822 0.0445868,2.13072 0.00620081,0.084892 0.00723427,0.187943 0.00797247,0.290257 0.000590553,0.077953 0.00177166,0.154873 0.00295276,0.220867 0.00103347,-0.065699 0.00132874,-0.142766 0.0019193,-0.220719 0.000738191,-0.102461 0.0019193,-0.20566 0.00797247,-0.290404 0.0157973,-0.217176 0.0301182,-1.1817 0.0426675,-2.02648 0.00782483,-0.540799 0.0152067,-1.03376 0.0214075,-1.25153 0.00989176,-0.346064 0.010187,-0.694933 0.00546262,-1.04292 -0.00472442,-0.344735 -0.0146162,-0.698919 -0.0245079,-1.05015l-0.00103347 -0.00708664 0 -0.00280513 0.000885829 0c-0.0160926,-0.533122 -0.171999,-2.27717 -0.227363,-2.88397 -0.0149115,0.0264272 -0.0298229,0.0537403 -0.134498,0.276822 -0.182924,0.421064 -0.256743,0.646656 -0.323032,0.898083 -0.122244,0.464618 -0.18381,0.928202 -0.13317,1.25537 0.0081201,0.0528545 0.0906499,0.0981794 0.20817,0.16255l0.00103347 0 0.0410434 0.0225887m0 0c0.0315946,0.00324804 0.483811,0.349017 0.475248,0.626577m-3.28982 -3.3192l0.0134351 0.167569 0 0.000147638 0.0231792 0.290552 0.0279036 -0.633959c0.0031004,-0.0599411 0.0255414,-0.105709 0.053445,-0.132579l0.000442915 -0.000590553c0.0274607,-0.0262796 0.0596459,-0.0392718 0.0961125,-0.0392718l0.00531498 0.000590553c0.0324804,0.00132874 0.0651085,0.0144685 0.0907975,0.0389765l0.00147638 0.00147638c0.0274607,0.0268702 0.0500494,0.0735238 0.0530021,0.13317l0.0152067 0.411615 0.015502 -0.415011c0.0031004,-0.0594982 0.0253938,-0.105118 0.0543309,-0.132432l0.00147638 -0.00147638c0.0259843,-0.0236221 0.0584647,-0.0373525 0.0941932,-0.0373525 0.0348426,0 0.0683565,0.0126969 0.0962601,0.0392718l-0.000147638 0.000147638c0.0283465,0.0268702 0.0510828,0.072638 0.0541832,0.131841l0.0279036 0.636468 0.0233268 -0.290552 0 -0.000147638 0.0132874 -0.16506c0.0121063,-0.151624 -0.0323328,-0.317127 0.151772,-0.352413 0.140847,-0.0268702 0.277265,0.0655514 0.304135,0.206398l0.0193406 0.0995082 0.00221457 0.0115158c0.157235,0.809648 0.357137,1.83913 0.191782,2.64981 -0.0200788,0.0989176 -0.0439962,0.170375 -0.0863684,0.240946 -0.0422245,0.0704234 -0.0941932,0.12564 -0.171113,0.191782l-0.00103347 0.00103347 -0.0535927 0.0454726 -0.00103347 0c-0.0611222,0.0513781 -0.129626,0.1094 -0.191044,0.173918l0.000295276 0.00974412c0.00664372,0.217619 0.0160926,0.561616 0.0203741,0.902365 0.00280513,0.233121 0.00339568,0.462698 -0.00103347,0.643703 -0.00605317,0.240798 -0.0128445,0.765652 -0.0200788,1.33908 -0.0113681,0.906794 -0.0246556,1.93436 -0.0385336,2.15522 -0.00590553,0.0941932 -0.00679136,0.185286 -0.00738191,0.275493 -0.00250985,0.370572 -0.00561025,0.736715 -0.273278,0.892621 -0.0302658,0.0174213 -0.0625986,0.031004 -0.0964078,0.0411911l-0.000147638 -0.000590553c-0.0268702,0.0081201 -0.0569884,0.0149115 -0.0884353,0.0199312l-0.0407482 0.00649608 -0.0407482 -0.00649608c-0.0317422,-0.0050197 -0.0614175,-0.0119587 -0.0882877,-0.0200788l-0.000147638 0.000738191 -0.0019193 -0.00103347 -0.000147638 0c-0.033071,-0.010187 -0.0648132,-0.0230316 -0.0943408,-0.0401576 -0.267816,-0.155906 -0.270769,-0.522049 -0.273278,-0.892621 -0.000590553,-0.090207 -0.00147638,-0.1813 -0.00738191,-0.275493 -0.0140256,-0.221605 -0.0273131,-1.25876 -0.0388289,-2.1691 -0.00708664,-0.567817 -0.013878,-1.08632 -0.0197835,-1.3252 -0.00442915,-0.182186 -0.00398623,-0.41383 -0.00103347,-0.649018 0.00442915,-0.345326 0.0141733,-0.691833 0.020817,-0.907385 -0.0615652,-0.0642226 -0.129922,-0.121506 -0.190601,-0.172737l-0.00103347 0 -0.0541832 -0.0460631 -0.00103347 -0.00103347c-0.0767719,-0.065699 -0.128593,-0.120916 -0.170817,-0.191044l-0.000442915 0.000295276c-0.0417816,-0.06939 -0.0655514,-0.141733 -0.0859255,-0.241979l-0.000295276 0c-0.165502,-0.810682 0.0343997,-1.84016 0.191634,-2.64981l0.00221457 -0.0115158 0.0193406 -0.0995082c0.0268702,-0.140847 0.163288,-0.233268 0.304135,-0.206398 0.183662,0.0349903 0.139666,0.197392 0.151772,0.349017zm0.917276 1.17328l-0.0268702 0.335139c-0.00634844,0.0807581 -0.0442915,0.142619 -0.0888782,0.175542l-0.000885829 0.000442915c-0.0270178,0.0194882 -0.0577266,0.0304135 -0.0888782,0.0321851l-0.00236221 0c-0.0361714,0.00132874 -0.0713093,-0.00900593 -0.102166,-0.0324804l0.000295276 -0.000295276c-0.019193,-0.0147638 -0.036319,-0.0348426 -0.0493112,-0.060384 -0.00826774,0.0727857 -0.0408958,0.126378 -0.0804628,0.156054 -0.0301182,0.0225887 -0.0637797,0.0332186 -0.097146,0.0332186 -0.0338092,0 -0.0674707,-0.0112205 -0.0969983,-0.0333662l-0.000442915 0c-0.0401576,-0.0304135 -0.0721951,-0.0843014 -0.0803152,-0.157973 -0.0141733,0.0271654 -0.0327757,0.0487206 -0.0535927,0.0639274l-0.000442915 0.000442915c-0.0284942,0.0206694 -0.0615652,0.0308564 -0.0955219,0.0305611l0 0.000885829c-0.0326281,0 -0.0649608,-0.01063 -0.093455,-0.0302658 -0.0454726,-0.0312993 -0.0825298,-0.0900593 -0.0888782,-0.169784l-0.0274607 -0.343849c-0.0612699,0.4751 -0.0841538,0.949462 -0.00413387,1.34129l0 0.00103347c0.00752955,0.0376478 0.0144685,0.0612699 0.0233268,0.0761813l0 0.00103347c0.00841538,0.0141733 0.0286418,0.0335139 0.062451,0.0625986l0.0541832 0.0460631 -0.000442915 0.000442915c0.0783959,0.0661419 0.167126,0.140995 0.243603,0.222638 0.137156,0.14631 0.136565,0.163731 0.131693,0.350936l0 0.00206694 -0.000147638 0.00457679c-0.00679136,0.218357 -0.0165355,0.568407 -0.020817,0.902217 -0.00280513,0.227953 -0.00324804,0.452954 0.00103347,0.630711 0.00575789,0.232826 0.0125493,0.756941 0.0197835,1.33111 0.00797247,0.626724 0.0172737,1.31383 0.0268702,1.74833 0.00944885,-0.431251 0.0177166,-1.11172 0.0255414,-1.73445 0.00738191,-0.579628 0.0141733,-1.11039 0.0200788,-1.34498 0.00428151,-0.176428 0.00369096,-0.399361 0.00103347,-0.625396 -0.00413387,-0.329824 -0.0135827,-0.674412 -0.0203741,-0.894393l-0.000590553 -0.0190453 0 -0.00103347c-0.00546262,-0.160335 -0.00679136,-0.199755 0.125197,-0.342521l-0.000590553 -0.000442915c0.0788388,-0.0851873 0.170375,-0.16255 0.25128,-0.230759l-0.000442915 -0.000590553 0.0535927 -0.0454726 0 0.000147638c0.0339568,-0.0292324 0.053888,-0.048573 0.0623033,-0.0627463 0.00856302,-0.0141733 0.0153544,-0.0385336 0.0234745,-0.0782483 0.0798723,-0.391832 0.057136,-0.866194 -0.00413387,-1.34129zm-2.8193 -0.813191c-0.12062,-0.429332 -0.329676,-0.788831 -0.693162,-0.788831 -0.372196,0 -0.581252,0.355218 -0.699805,0.781597 -0.139223,0.500789 -0.155906,1.09518 -0.158416,1.43622l0.00103347 0 0 0.00989176c0,0.185138 0.167717,0.321704 0.332629,0.455907 0.249509,0.20315 0.495917,0.403495 0.505366,0.795327l0 0.00708664 -0.000147638 0.0338092 0 0.0152067 -0.00221457 0.0343997c-0.00561025,0.166684 -0.0190453,0.579775 -0.0246556,0.983271 -0.00354332,0.248623 -0.00457679,0.497836 0.000147638,0.690947 0.00575789,0.232826 0.0125493,0.756941 0.0197835,1.33111 0.00797247,0.626134 0.0174213,1.3128 0.0268702,1.7473 0.00944885,-0.434499 0.0177166,-1.12116 0.0256891,-1.7473 0.00723427,-0.574165 0.0140256,-1.09828 0.0197835,-1.33111 0.00634844,-0.256152 0.00236221,-0.612551 -0.00413387,-0.936174 -0.00634844,-0.313288 -0.0152067,-0.604283 -0.0196359,-0.738044l-0.000590553 0 -0.00221457 -0.0335139 0 -0.0152067 -0.000147638 -0.034695 0 -0.00708664c0.00280513,-0.116339 0.0295276,-0.226625 0.0750002,-0.325395 0.0473919,-0.103051 0.115601,-0.194735 0.198131,-0.268997l0.00605317 -0.0050197c0.00147638,-0.00132874 0.558663,-0.465503 0.558663,-0.651823l0 -0.00989176 0.00103347 0c-0.00250985,-0.332186 -0.0233268,-0.924954 -0.16506,-1.42899z"/>
</svg>
