<?xml version="1.0" encoding="UTF-8"?>
<!DOCTYPE svg PUBLIC "-//W3C//DTD SVG 1.1//EN" "http://www.w3.org/Graphics/SVG/1.1/DTD/svg11.dtd">
<svg xmlns="http://www.w3.org/2000/svg" xml:space="preserve" style="shape-rendering:geometricPrecision; text-rendering:geometricPrecision; image-rendering:optimizeQuality; fill-rule:evenodd; clip-rule:evenodd"
viewBox="0 0 21.3337 21.3337" xmlns:xlink="http://www.w3.org/1999/xlink">
  <path d="M8.53728 16.9494l1.03269 -10.4962 0.00255908 -0.0181104 0.00275593 -0.0216537 0.00255908 -0.0261813 0.0141734 -0.0848433 0.00118111 0.000196852c0.0358271,-0.231104 0.0568903,-0.355515 0.173821,-0.53721 0.100395,-0.156301 0.213388,-0.25138 0.428941,-0.416933l0.000787409 0.000984261 0.0190947 -0.0169293 1.91163 -1.39096 0.117914 -0.0858276 0.0244097 -0.0177167 0.511619 -0.372248 0.538391 -0.391736 0.391145 0.540162 0.406697 0.561423 0.389767 0.5378 -0.538194 0.391736 -2.4077 1.75179 -1.01241 10.2904 -0.0649612 0.661227 -0.66162 -0.0649612 -0.688983 -0.0677172 -0.661227 -0.0651581 0.0649612 -0.661423zm3.59019 -12.1846l-0.974418 0.708865 0.424807 0.548233 2.00081 -1.45572 -0.406697 -0.561423 -0.926583 0.674219 -0.117914 0.0858276zm-1.24312 0.904536l-0.0135828 0.00984261 -0.116733 0.107088 0.499808 0.471461 0.0551186 -0.0401579 -0.42461 -0.548233zm-0.643707 0.788393l-0.00649612 0.0389767 -0.00275593 0.0216537 -0.00964576 0.0982293 0.666148 0.0813 -0.64725 -0.24016zm-0.0515753 0.490359l-0.00885835 0.0897646 0.69292 0.0273625 0.00334649 -0.033268 -0.687408 -0.083859zm-0.041339 0.42087l-0.949025 9.64556 0.688983 0.0677172 0.952962 -9.68592 -0.69292 -0.0273625zm0.212797 -1.22226l0.479335 0.177954 -0.331696 -0.313192 -0.147639 0.135237z"/>
</svg>
