<?xml version="1.0" encoding="UTF-8"?>
<!DOCTYPE svg PUBLIC "-//W3C//DTD SVG 1.1//EN" "http://www.w3.org/Graphics/SVG/1.1/DTD/svg11.dtd">
<svg xmlns="http://www.w3.org/2000/svg" xml:space="preserve" style="shape-rendering:geometricPrecision; text-rendering:geometricPrecision; image-rendering:optimizeQuality; fill-rule:evenodd; clip-rule:evenodd"
viewBox="0 0 32.0007 32.0007" xmlns:xlink="http://www.w3.org/1999/xlink">
  <path d="M9.94475 20.2264c0.0493119,-0.0676193 0.102167,-0.13701 0.160633,-0.207287 0.0977379,-0.117817 0.201086,-0.231205 0.307978,-0.338096l0.0132876 -0.0121065 3.25872 -3.26108c0.76773,-0.76832 1.89363,-1.46193 3.09218,-1.96155 1.19973,-0.500205 2.47977,-0.809955 3.5537,-0.809955 0.3003,0 0.57314,0.0248036 0.814384,0.0711626 0.181893,0.0348431 0.345774,0.0832691 0.492823,0.142621l0.810545 -0.811136c0.485146,-0.485737 0.787809,-0.939288 0.915665,-1.33644 0.0888795,-0.275497 0.0921275,-0.52117 0.0126971,-0.724619l-0.00649617 -0.0132876c-0.084155,-0.206106 -0.258075,-0.380912 -0.517036,-0.513788 -0.361128,-0.185436 -0.880231,-0.289375 -1.54934,-0.289375 -1.24402,0 -2.73489,0.362309 -4.13924,0.947851 -1.40524,0.585837 -2.71924,1.39284 -3.60656,2.28104l-4.00696 4.00991c-0.485146,0.485737 -0.787809,0.939288 -0.915665,1.33644 -0.0906511,0.281107 -0.0918323,0.530619 -0.00738201,0.736725 0.0844502,0.206106 0.259256,0.381503 0.518513,0.514674 0.211716,0.108663 0.478945,0.190161 0.797553,0.238291zm0.118408 1.89098c0.00885842,0.0183074 0.016831,0.0375006 0.0233272,0.0566939 0.0522647,0.117817 0.175692,0.222642 0.367034,0.303844 0.258666,0.109844 0.620089,0.170967 1.08132,0.170967 1.00632,0 2.21992,-0.295871 3.3662,-0.77393 1.14864,-0.478945 2.21844,-1.13476 2.93597,-1.85259l3.37358 -3.37594c0.205811,-0.206106 0.368805,-0.403058 0.488689,-0.587018l0.000885842 -0.00118112 -0.000885842 -0.000590561c0.111026,-0.170082 0.184255,-0.324513 0.221165,-0.460342l-2.39975 2.40152c-1.14598,1.14687 -2.82377,2.18124 -4.60726,2.92505 -1.62286,0.676488 -3.34612,1.11852 -4.85028,1.19352zm13.3963 -8.06057l-0.523237 1.76578c-0.00501977,0.0236224 -0.0118112,0.0475402 -0.0203744,0.0705721 -0.0682098,0.238291 -0.183665,0.485146 -0.346069,0.733772l-0.000885842 -0.000590561c-0.159452,0.244788 -0.367034,0.497253 -0.621861,0.752375l-3.37358 3.37594c-0.817041,0.817632 -2.00879,1.55318 -3.27378,2.08055 -1.26705,0.528257 -2.62298,0.855428 -3.76483,0.855428 -0.600896,0 -1.09992,-0.091537 -1.48821,-0.256599 -0.459752,-0.195771 -0.771863,-0.496071 -0.927476,-0.876393l-0.00472449 -0.0091537 -0.180416 -0.419298 -4.88069 0c-0.287603,0 -0.520875,-0.233272 -0.520875,-0.520875 0,-0.15827 0.0711626,-0.300891 0.182779,-0.396267l3.94259 -3.94554 4.82252 -4.82636c1.14657,-1.14717 2.82406,-2.18124 4.60756,-2.92505 1.78615,-0.744698 3.69307,-1.20534 5.29645,-1.20534l5.56309 0c0.287603,0 0.520875,0.233272 0.520875,0.520875 0,0.157975 -0.0696862,0.298824 -0.181007,0.394495l-3.94406 3.94731 -0.883775 0.884365zm3.23332 -4.7053l-4.30844 0c-1.2765,0 -2.77741,0.325694 -4.2423,0.866944 1.09756,-0.351679 2.19866,-0.557194 3.16246,-0.557194 0.747946,0 1.34441,0.124313 1.77611,0.346069 0.369691,0.189865 0.623337,0.451779 0.753261,0.770092l0.00649617 0.0171263c0.122837,0.313883 0.124018,0.672354 -0.000885842,1.06035 -0.0711626,0.22087 -0.184255,0.45296 -0.340163,0.692728l0.107482 -0.107482 3.08598 -3.08863zm-18.189 8.53774l-0.109549 0.109549 -3.08627 3.08863 4.30873 0c1.28034,0 2.78538,-0.326285 4.25411,-0.870487 -1.10169,0.354337 -2.20663,0.560738 -3.17427,0.560738 -0.747946,0 -1.34441,-0.124313 -1.77611,-0.346069 -0.368805,-0.189275 -0.622156,-0.450893 -0.752375,-0.768615 -0.130219,-0.318017 -0.134353,-0.682984 -0.00679145,-1.07866 0.0714579,-0.221756 0.185436,-0.453846 0.342525,-0.695091zm12.7417 -3.64553c-0.0614184,-0.0171263 -0.125494,-0.0330714 -0.193704,-0.0460638 -0.207582,-0.0398629 -0.448236,-0.0611231 -0.720485,-0.0611231 -1.00956,0 -2.2211,0.29469 -3.36236,0.770387 -1.14215,0.475992 -2.20958,1.13152 -2.92977,1.8523l-3.2599 3.26226 -0.0121065 0.0132876c-0.0850408,0.0850408 -0.160928,0.165948 -0.22648,0.241244l0.155908 0.0014764c1.24402,0 2.73518,-0.362309 4.13954,-0.947851 1.40524,-0.585541 2.71924,-1.39313 3.60626,-2.28075l2.8031 -2.80517z"/>
</svg>
