<?xml version="1.0" encoding="UTF-8"?>
<!DOCTYPE svg PUBLIC "-//W3C//DTD SVG 1.1//EN" "http://www.w3.org/Graphics/SVG/1.1/DTD/svg11.dtd">
<svg xmlns="http://www.w3.org/2000/svg" xml:space="preserve" style="shape-rendering:geometricPrecision; text-rendering:geometricPrecision; image-rendering:optimizeQuality; fill-rule:evenodd; clip-rule:evenodd"
viewBox="0 0 64.0024 64.0024" xmlns:xlink="http://www.w3.org/1999/xlink">
  <path d="M49.3999 24.886l1.23075 -1.23193c0.193707,-0.194888 0.510252,-0.196069 0.70514,-0.00236228 0.034253,0.034253 0.0637815,0.0720495 0.0862231,0.112208l2.46149 -2.4609 -0.00177171 -0.00177171 0.0868137 -0.0909477c-0.304734,-0.132288 -0.78782,-0.208471 -1.42741,-0.208471l-19.3937 0 0 -0.00413399c-1.03232,0 -2.18924,0.213786 -3.21978,0.556907 -0.982707,0.327175 -1.82309,0.761244 -2.28196,1.21953l-17.5263 17.5216 0.00177171 0.00177171 -0.0838608 0.0885854c0.304734,0.132288 0.784867,0.210833 1.42445,0.210833l2.54004 0 14.3762 -14.3709 -0.00118114 -0.00118114c0.170675,-0.170675 0.39391,-0.335443 0.65317,-0.486629l0.00295285 -0.00177171 -0.000590569 -0.000590569c0.205518,-0.119886 0.437612,-0.232684 0.682698,-0.333081l0.194888 -0.313002 0.00826797 -0.0112208 0.00354342 -0.00531512 0.00354342 -0.00531512 0.00177171 -0.00236228 0.00590569 -0.00826797 0.0141737 -0.0177171 0.00177171 -0.00295285 0.00354342 -0.00413399 0.00413399 -0.00472455 0.0100397 -0.0112208 0.00590569 -0.00649626 0.00118114 -0.00118114 0.00649626 -0.00708683 0.00354342 -0.00354342 0.012402 -0.012402 1.33114 -1.33173c0.193707,-0.194888 0.510252,-0.196069 0.70514,-0.00236228 0.034253,0.034253 0.0637815,0.0720495 0.0862231,0.112208l0.699825 1.12444 0.638405 0 0.211424 -0.339577 0.0118114 -0.0141737 0.00354342 -0.00590569 0.00354342 -0.00531512 0.0188982 -0.0236228 0.00885854 -0.0112208 0.00295285 -0.00295285 0.0100397 -0.0118114 0.00590569 -0.00708683 0.00472455 -0.00590569 0.00354342 -0.00354342 0.012402 -0.012402 0.790182 -0.790772c0.193707,-0.194888 0.510252,-0.196069 0.70514,-0.00236228 0.034253,0.034253 0.0637815,0.0720495 0.0862231,0.112208l0.699825 1.12444 0.638405 0 0.211424 -0.339577 0.0118114 -0.0141737 0.00354342 -0.00590569 0.00354342 -0.00531512 0.0188982 -0.0236228 0.00885854 -0.0112208 0.00295285 -0.00295285 0.0100397 -0.0118114 0.00590569 -0.00708683 0.00472455 -0.00590569 0.00354342 -0.00354342 0.012402 -0.012402 0.790182 -0.790772c0.193707,-0.194888 0.510252,-0.196069 0.70514,-0.00236228 0.034253,0.034253 0.0637815,0.0720495 0.0862231,0.112208l0.699825 1.12444 0.637815 0 0.211424 -0.339577 0.0177171 -0.0230322 0.00118114 -0.00236228 0.0206699 -0.0253945 0.00708683 -0.00944911 0.00413399 -0.00413399 0.00885854 -0.0106302 0.00708683 -0.0076774 0.00472455 -0.00649626 -0.00118114 -0.00118114 0.806718 -0.806718c0.194888,-0.194888 0.512614,-0.194888 0.707502,0 0.0401587,0.0401587 0.0732306,0.0844514 0.0968534,0.133469l0.686832 1.10318 0.637815 0 0.211424 -0.339577 0.0118114 -0.0141737 0.00354342 -0.00590569 0.00354342 -0.00531512 0.0188982 -0.0236228 0.00885854 -0.0112208 0.00295285 -0.00295285 0.0100397 -0.0118114 0.00590569 -0.00708683 0.00472455 -0.00590569 0.00354342 -0.00354342 0.012402 -0.012402 0.790182 -0.790772c0.193707,-0.194888 0.510252,-0.196069 0.70514,-0.00236228 0.034253,0.034253 0.0637815,0.0720495 0.0862231,0.112208l0.699825 1.12444 0.638405 0 0.211424 -0.339577 0.0118114 -0.0141737 0.00354342 -0.00590569 0.00354342 -0.00531512 0.0188982 -0.0236228 0.00885854 -0.0112208 0.00295285 -0.00295285 0.0100397 -0.0118114 0.00590569 -0.00708683 0.00472455 -0.00590569 0.00354342 -0.00354342 0.012402 -0.012402 0.790182 -0.790772c0.193707,-0.194888 0.510252,-0.196069 0.70514,-0.00236228 0.034253,0.034253 0.0637815,0.0720495 0.0862231,0.112208l0.698053 1.12208 0.496669 0zm6.17204 -2.34988l-3.16191 4.62888 -16.4031 16.4214 0.00177171 0.00177171c-0.439974,0.439974 -1.14039,0.825616 -1.91108,1.09019 -0.732897,0.250992 -1.5591,0.407493 -2.30027,0.407493l0 -0.00413399 -18.2563 0 0 0.00413399c-0.594703,0 -1.09551,-0.104531 -1.47111,-0.285245 -0.150595,-0.07264 -0.284064,-0.160044 -0.401587,-0.258079l-0.00885854 -0.00826797 -0.0354342 -0.0295285 -0.00236228 -0.00177171 -3.00836 -2.55657 -0.0159454 -0.0135831 -0.00177171 -0.00118114c-0.0437021,-0.0348436 -0.0856326,-0.0702778 -0.125791,-0.106893l-0.000590569 -0.000590569 -0.00354342 -0.00295285c-0.146461,-0.135831 -0.2693,-0.284654 -0.364972,-0.448242 -0.256898,-0.437612 -0.317136,-0.921879 -0.163588,-1.43154l0.00118114 0.000590569c0.112799,-0.377964 0.347845,-0.755338 0.709864,-1.11736l0.00413399 0 17.5287 -17.5234c0.683879,-0.682698 1.81895,-1.29039 3.09576,-1.7156 1.2272,-0.408674 2.6174,-0.663209 3.87059,-0.663209l0 -0.00413399 19.3937 0c0.976802,0 1.77879,0.158863 2.35283,0.431706l0.00413399 0c0.450014,0.214377 0.790182,0.511433 1.00397,0.875814 0.256898,0.438202 0.317136,0.92306 0.163588,1.43154l-0.00118114 -0.000590569c-0.0885854,0.295285 -0.253354,0.592341 -0.492535,0.879358zm-42.8399 20.1443c0.362019,0.278158 0.530922,0.279339 1.03409,0.325994l18.0313 0 0 -0.00413399c0.513795,0 1.09846,-0.112799 1.62466,-0.292922 0.367925,-0.125791 0.693919,-0.279339 0.92306,-0.438202l0.0537418 -0.154729c-1.14275,0.347255 -2.40125,0.55986 -3.54401,0.55986l0 0.00413399 -18.1228 0zm6.27775 -2.08353l0.827388 0 0.0236228 -0.0236228 -0.317136 -0.510252 -0.533875 0.533875zm3.21742 0l0.468321 0 -0.179533 -0.288788 -0.288788 0.288788zm1.64415 0l0.302372 0 0.205518 -0.330128 0.0194888 -0.0271662 0.00354342 -0.00531512 0.0159454 -0.0206699 0.000590569 0 0.00531512 -0.00708683 0.00177171 -0.00236228 0.000590569 -0.000590569 0.0129925 -0.0141737 0.00236228 -0.00295285 0.00354342 -0.00295285 0.00531512 -0.00649626 0.00118114 -0.000590569 0.0076774 -0.00826797 0.00649626 -0.00590569 0.00236228 -0.00295285 0.00295285 -0.00236228 0.09331 -0.09331 -0.630137 0 -0.395091 0 0.3319 0.533284zm1.57091 0l0.829159 0 0.758882 -0.758291 -0.318317 -0.511433 -1.26972 1.26972zm3.21919 0l0.468321 0 -0.179533 -0.288788 -0.288788 0.288788zm1.64415 0l0.302962 0 0.205518 -0.330128 0.0153548 -0.0218511 0.00295285 -0.00354342 0.0253945 -0.0330719 0.00295285 -0.00413399 0.00177171 -0.00177171 0.00236228 -0.00295285 0.00472455 -0.00413399 0.00236228 -0.00295285 0.00472455 -0.00590569 0.00236228 -0.00177171 0.00649626 -0.00708683 -0.00118114 -0.00118114 0.112799 -0.112799 -0.628366 0 -0.395091 0 0.3319 0.533284zm1.64296 -0.0696872c0.22796,-0.0289379 0.45592,-0.0643721 0.68506,-0.108665l-0.220873 -0.355523 -0.464188 0.464188zm1.70852 -0.353751c0.141146,-0.0407493 0.28052,-0.0832703 0.418123,-0.129335 0.130516,-0.0437021 0.258669,-0.0897665 0.38387,-0.137012l0.0555135 -0.0885854 -0.683289 0 -0.395091 0 0.220873 0.354932zm-14.101 -1.40319c0.0944911,-0.0159454 0.190754,-0.00413399 0.279339,0.034253l0.273434 -0.439974 0.206699 -0.3319 -0.783686 0 -0.3945 0 0.350208 0.562813c0.0348436,0.0561041 0.0572852,0.11398 0.068506,0.174809zm-1.44394 -0.494897l-1.78647 1.78588 0.220873 0.354932 0.0974439 0.156501 1.78647 -1.78588 -0.318317 -0.511433zm7.98804 -7.20376l0.350208 0.563403c0.0147642,0.0236228 0.0277568,0.046655 0.0377964,0.0708683l0.194888 -0.194888c0.148823,-0.148823 0.371468,-0.185439 0.554545,-0.106302l0.214967 -0.346074 -0.00354342 0 -0.00885854 0.00177171 -0.00177171 0 -0.0407493 0.00472455 -0.00472455 0.000590569 -0.0389776 0.00295285 0 0.00295285 -0.858688 0 -0.395091 0zm4.22552 -2.81702l0.0454738 0.0183076 0.274615 -0.441746 0.371468 -0.597656 -0.683289 0 -0.395091 0 0.350798 0.563403c0.089176,0.144099 0.0980345,0.313592 0.0360247,0.457691zm-1.41028 -0.776599l-1.78647 1.78647 0.219692 0.35316 0.0974439 0.156501 1.78647 -1.78588 -0.317136 -0.510252zm-7.06793 8.86976l0.57049 -0.57049c0.0242133,-0.0236228 0.0519701,-0.046655 0.0797269,-0.0649626l-0.644902 0 -0.395091 0 0.350798 0.563403c0.0147642,0.0236228 0.0283473,0.0472455 0.0389776,0.0720495zm-1.41323 -0.390957l-0.268709 0.268709 0.219692 0.35316 0.0974439 0.156501 0.268709 -0.268118 -0.317136 -0.510252zm2.56248 -0.336034l-0.0218511 0.0153548 -0.0218511 0.0112208 0 0.000590569 -0.0194888 0.0100397 0.0354342 0.0147642 0.0366153 -0.0584664 -0.00885854 0.00649626zm1.1711 -1.59513l0.381508 -0.381508c0.148823,-0.148823 0.371468,-0.185439 0.554545,-0.106302l0.112799 -0.181305 -0.0248039 0.0076774 -0.00590569 0.00177171 -0.0177171 0.00531512 -0.00177171 0.000590569 -0.00531512 0.00118114 -0.00354342 0.000590569 -0.000590569 0 -0.0525607 0.0100397 -0.00295285 0.000590569c-0.0230322,0.00295285 -0.0454738,0.00531512 -0.068506,0.00531512l0 0.00236228 -0.859278 0 -0.395091 0 0.350798 0.563403c0.0141737,0.0236228 0.0277568,0.0454738 0.038387,0.0702778zm-1.41264 -0.389185l-0.268709 0.268709 0.219692 0.35316 0.0974439 0.156501 0.268709 -0.268118 -0.317136 -0.510252zm1.41855 -1.17996l0 -0.000590569 0 0.000590569zm0.901799 -1.14157l-0.268709 0.268118 0.220873 0.354932 0.0962628 0.15532 0.268709 -0.268709 -0.317136 -0.509661zm6.51339 -6.51221l-0.62187 0.62246 0.220282 0.354342 0.0974439 0.156501 0.62246 -0.62187 -0.318317 -0.511433zm-10.6031 15.7481l0.17658 -0.284064 0.0153548 -0.0218511 0.00295285 -0.00354342 0.0253945 -0.0330719 0.00295285 -0.00413399 0.00177171 -0.00177171 0.00236228 -0.00295285 0.00472455 -0.00413399 0.00236228 -0.00295285 0.00472455 -0.00590569 0.00236228 -0.00177171 0.00649626 -0.00708683 -0.00118114 -0.00118114 0.357885 -0.357885 -0.628366 0 -0.395091 0 0.350798 0.563403c0.0336625,0.0543324 0.0566947,0.109846 0.0679155,0.168903zm10.1182 -11.2657l0.350798 0.563403c0.042521,0.0690966 0.068506,0.142918 0.0750023,0.218511 0.0755929,-0.00354342 0.151186,0.0106302 0.221464,0.0413399l0.274024 -0.439974 0.237999 -0.38328 -0.764197 0 -0.395091 0zm2.72134 -1.26264l0.00826797 0.00472455 0.0206699 -0.0330719 -0.0289379 0.0283473zm0.297647 -0.460644l0.413989 -0.665572 0.0153548 -0.0218511 0.00295285 -0.00354342 0.0253945 -0.0330719 0.00295285 -0.00413399 0.00177171 -0.00177171 0.00236228 -0.00295285 0.00472455 -0.00413399 0.00236228 -0.00295285 0.00472455 -0.00590569 0.00236228 -0.00177171 0.00649626 -0.00708683 -0.00118114 -0.00118114 0.112799 -0.112799 -0.627775 0 -0.3945 0 0.350208 0.562813c0.0590569,0.0956722 0.0844514,0.202565 0.0750023,0.305915zm-1.45044 -0.626004l-0.540371 0.540962 0.220282 0.354342 0.0974439 0.156501 0.540962 -0.540371 -0.318317 -0.511433zm-9.87314 12.109l0.00826797 0.00472455 0.0212605 -0.0336625 -0.0295285 0.0289379zm1.29098 -1.72564l0.245677 -0.245677c0.148823,-0.148823 0.371468,-0.185439 0.554545,-0.106302l0.18662 -0.300009 -0.0265756 0.00472455 -0.00295285 0c-0.030119,0.00531512 -0.0620098,0.0100397 -0.0921288,0.0100397l0 0.00295285 -0.858688 0 -0.395091 0 0.350208 0.563403c0.0147642,0.0236228 0.0283473,0.0460644 0.038387,0.0708683zm-1.41323 -0.390957l-1.08192 1.08192 0.220282 0.354342 0.0974439 0.156501 1.08192 -1.08192 -0.317726 -0.510842zm3.54755 -1.74277l0.633681 -0.633681 -0.627775 0 -0.395091 0 0.350798 0.563403c0.0141737,0.0236228 0.0277568,0.0454738 0.038387,0.0702778zm-1.41264 -0.389185l-0.0814986 0.0814986 0.219692 0.35316 0.0974439 0.156501 0.0814986 -0.0814986 -0.317136 -0.509661zm3.4944 -1.26559l0.0141737 0.00708683 0.274024 -0.439974 0.422257 -0.679155 -0.652579 0 -0.395091 0 0.350798 0.563403c0.108665,0.175399 0.0980345,0.389776 -0.0135831,0.548639zm-1.36067 -0.867546l-0.0814986 0.0814986 0.219692 0.35316 0.0974439 0.156501 0.0814986 -0.0814986 -0.317136 -0.509661zm3.13356 -3.13533l-1.08192 1.08192 0.220282 0.354932 0.0980345 0.157091 1.08192 -1.08192 -0.318317 -0.512024zm4.72751 -4.72515l-0.0820891 0.0814986 0.220873 0.354932 0.0962628 0.15532 0.0820891 -0.0820891 -0.317136 -0.509661zm-0.240362 4.23793l0.350208 0.562813c0.0147642,0.0236228 0.0277568,0.046655 0.0377964,0.0708683l0.562222 -0.562222c0.0271662,-0.0271662 0.0584664,-0.0513795 0.0903571,-0.0714589l-0.646083 0 -0.3945 0zm1.5408 -0.0927194l-0.0236228 0.0165359 -0.0496078 0.0253945 0.0372059 0.0159454 0.0360247 -0.0578758zm-1.1463 -0.842742l0 -0.000590569 0 0.000590569zm2.3422 -0.77837l0.633681 -0.633681 -0.627185 0 -0.395091 0 0.350208 0.562813c0.0147642,0.0236228 0.0283473,0.046655 0.038387,0.0708683zm-1.41205 -0.389776l-0.296466 0.296466 0.220282 0.35316 0.0968534 0.156501 0.296466 -0.295875 -0.317136 -0.510252zm-10.2688 11.0442l0.350798 0.563403c0.0147642,0.0236228 0.0283473,0.046655 0.0389776,0.0720495l0.440565 -0.440565c0.148823,-0.147642 0.369106,-0.182486 0.551001,-0.104531l0.0879948 -0.141737 -0.00590569 0.00295285c-0.0212605,0.0100397 -0.0431116,0.0171265 -0.0649626,0.0236228l-0.000590569 0.000590569 -0.0360247 0.00944911 -0.00590569 0.00118114 -0.0248039 0.00413399 -0.00708683 0.00177171 -0.00177171 0 -0.00708683 0 -0.0177171 0.00177171 -0.00885854 0.00118114 -0.0106302 0.000590569 -0.00649626 0 -0.00295285 0 -0.00590569 0 -0.00885854 0.00118114 0 0.00295285 -0.858688 0 -0.395091 0zm3.6007 -2.1414l0.0076774 0.00472455 0.0206699 -0.0330719 -0.0283473 0.0283473zm0.250401 -0.385642l0.0307096 -0.0496078 0.429344 -0.690376 0.0153548 -0.0218511 0.00295285 -0.00354342 0.0253945 -0.0330719 0.00295285 -0.00413399 0.00177171 -0.00177171 0.00236228 -0.00295285 0.00472455 -0.00413399 0.00236228 -0.00295285 0.00472455 -0.00590569 0.00236228 -0.00177171 0.00649626 -0.00708683 -0.00118114 -0.00118114 0.0720495 -0.0720495 -0.627775 0 -0.395681 0 0.350798 0.563403c0.0655532,0.106302 0.0885854,0.225007 0.0702778,0.338987zm-1.44453 -0.657894l-1.3778 1.3778 0.219692 0.35316 0.0974439 0.156501 1.3778 -1.37721 -0.317136 -0.510252zm-3.43003 3.42944l-0.0307096 0.0307096 0.219692 0.35316 0.0974439 0.156501 0.0307096 -0.0307096 -0.317136 -0.509661zm8.27329 -6.46969l0.418714 -0.418714c0.148823,-0.148823 0.371468,-0.185439 0.554545,-0.106302l0.0944911 -0.151776 -0.0248039 0.00826797 -0.000590569 0.000590569 -0.00826797 0.00295285 -0.000590569 0.000590569 -0.00649626 0.00118114 -0.000590569 0 -0.00177171 0.000590569 -0.00649626 0.00295285 -0.00177171 0.000590569 -0.000590569 0 -0.00649626 0.00118114 -0.000590569 0 -0.00177171 0.000590569 -0.00649626 0.00295285 -0.00236228 0.000590569 -0.00472455 0.00118114 -0.00413399 0.000590569 -0.00472455 0.00118114 -0.00413399 0.000590569 -0.00413399 0.00118114 -0.00472455 0.000590569 -0.00295285 0.00118114 -0.0153548 0.00236228 -0.00177171 0 -0.00708683 0.00177171 -0.00177171 0 -0.00708683 0.00177171 -0.00177171 0 -0.0336625 0.00295285 -0.00177171 0 -0.0330719 0.00177171 0 0.00295285 -0.858688 0 -0.395681 0 0.350798 0.563403c0.0141737,0.0236228 0.0277568,0.0454738 0.038387,0.0702778zm-1.41264 -0.389185l-1.3778 1.3778 0.219692 0.35316 0.0974439 0.156501 1.3778 -1.37721 -0.317136 -0.510252zm2.08235 -2.08353l-0.0307096 0.030119 0.220873 0.354932 0.0962628 0.15532 0.0307096 -0.0307096 -0.317136 -0.509661zm4.48242 -4.48065l-0.0820891 0.0814986 0.220873 0.354932 0.0962628 0.15532 0.0820891 -0.0820891 -0.317136 -0.509661zm-9.89853 14.9148l0.561631 -0.561631c0.0271662,-0.0271662 0.0590569,-0.0519701 0.0909477,-0.0720495l-0.646673 0 -0.395091 0 0.350798 0.563403c0.0141737,0.0236228 0.0277568,0.0454738 0.038387,0.0702778zm8.67783 -9.69715l0.350208 0.562813c0.0147642,0.0236228 0.0277568,0.046655 0.0377964,0.0708683l0.439384 -0.439384c0.149414,-0.149414 0.372059,-0.185439 0.555135,-0.106302l0.085042 -0.136422 -0.0401587 0.0153548 -0.00944911 0.00295285 -0.00236228 0.000590569 -0.000590569 0.000590569 -0.00826797 0.00295285 -0.00118114 0 -0.0153548 0.00472455 -0.00118114 0.000590569 -0.00118114 0 -0.00590569 0.00177171 -0.00295285 0.000590569 -0.00590569 0.00118114 -0.00295285 0.000590569 -0.00531512 0.00118114c-0.0372059,0.00826797 -0.0732306,0.012402 -0.111027,0.012402l0 0.00295285 -0.858688 0 -0.395091 0zm3.45896 -1.9979l0.00649626 0.00354342 0.0165359 -0.0265756 -0.0230322 0.0230322zm0.293513 -0.458282l0.415761 -0.667934 0.00826797 -0.0112208 0.00354342 -0.00531512 0.00354342 -0.00531512 0.00177171 -0.00236228 0.00590569 -0.00826797 0.0141737 -0.0177171 0.00177171 -0.00295285 0.00354342 -0.00413399 0.00413399 -0.00531512 0.000590569 -0.000590569 0.00236228 -0.00295285 0.00590569 -0.00531512 0.00118114 -0.00177171 0.00590569 -0.00708683 0.00118114 -0.000590569 0.00649626 -0.00708683 0.00118114 -0.00177171 0.00236228 -0.00177171 0.00649626 -0.00708683 0.00590569 -0.00531512 0.00295285 -0.00354342 0.00295285 -0.00236228 0.09331 -0.09331 -0.630728 0 -0.3945 0 0.350208 0.562813c0.0596475,0.0962628 0.0838608,0.203746 0.0738212,0.308277zm-1.44808 -0.627185l-1.27563 1.27563 -0.000590569 0.000590569 0.220282 0.35316 0.0962628 0.15532 1.27622 -1.27622 -0.316545 -0.50848zm-9.84302 12.0624l-0.0112208 0.00826797c-0.0153548,0.0100397 -0.0307096,0.0165359 -0.046655,0.0242133l-0.00354342 0.00177171 0.038387 0.0159454 0.0377964 -0.0602381 -0.00413399 0.00295285 -0.0106302 0.00708683zm1.08665 -1.50713l0.418714 -0.418714c0.148823,-0.148823 0.371468,-0.185439 0.554545,-0.106302l0.0956722 -0.154139c-0.034253,0.0153548 -0.0690966,0.0253945 -0.105121,0.0318907l-0.00413399 0.000590569 -0.0330719 0.00531512 -0.000590569 0 -0.0171265 0.00118114 -0.000590569 0 -0.0437021 0.00354342 0 0.00295285 -0.858688 0 -0.395091 0 0.350798 0.563403c0.0141737,0.0236228 0.0277568,0.0454738 0.038387,0.0702778zm-1.41264 -0.389185l-0.173627 0.173627 0.219692 0.35316 0.0974439 0.156501 0.173627 -0.173627 -0.317136 -0.509661zm5.80707 -3.56822l0.00826797 0.00472455 0.0212605 -0.034253 -0.0295285 0.0295285zm0.252173 -0.387413l0.0307096 -0.0496078 0.429344 -0.690376 0.0153548 -0.0218511 0.00295285 -0.00354342 0.0253945 -0.0330719 0.00295285 -0.00413399 0.00177171 -0.00177171 0.00236228 -0.00295285 0.00472455 -0.00413399 0.00236228 -0.00295285 0.00472455 -0.00590569 0.00236228 -0.00177171 0.00649626 -0.00708683 -0.00118114 -0.00118114 0.0720495 -0.0720495 -0.628366 0 -0.395091 0 0.350798 0.563403c0.0655532,0.106302 0.0885854,0.225007 0.0702778,0.338987zm-1.44453 -0.657894l-2.56248 2.56189 0.219692 0.35316 0.0974439 0.156501 2.56248 -2.5613 -0.317136 -0.510252zm1.41855 -1.17996l0 -0.000590569 0 0.000590569zm0.807308 -1.04531l-0.173627 0.173627 0.220282 0.35316 0.0962628 0.15532 0.173627 -0.173627 -0.316545 -0.50848zm5.46277 -5.4604l-0.0820891 0.0820891 0.219692 0.35316 0.0968534 0.15532 0.0820891 -0.0820891 -0.316545 -0.50848zm-0.240952 4.23674l0.350208 0.562813c0.0141737,0.0236228 0.0277568,0.0454738 0.038387,0.0702778l0.63309 -0.63309 -0.627185 0 -0.3945 0zm2.23353 -0.773055l0.00590569 0.00354342 0.0153548 -0.0248039 -0.0212605 0.0212605zm0.532103 -0.841561l0.177171 -0.285245 0.0194888 -0.0271662 0.00354342 -0.00531512 0.0159454 -0.0206699 0.000590569 0 0.00531512 -0.00708683 0.00177171 -0.00236228 0.000590569 -0.000590569 0.0129925 -0.0141737 0.00236228 -0.00295285 0.00354342 -0.00295285 0.00531512 -0.00649626 0.00118114 -0.000590569 0.0076774 -0.00826797 0.00649626 -0.00590569 0.00236228 -0.00295285 0.00295285 -0.00236228 0.337806 -0.337806 -0.630137 0 -0.3945 0 0.350208 0.562813c0.0336625,0.0543324 0.0566947,0.111027 0.0673249,0.170084zm-1.44217 -0.490173l-0.296466 0.295875 0.220873 0.354932 0.0962628 0.15532 0.296466 -0.296466 -0.317136 -0.509661zm-10.2682 11.0454l0.350798 0.563403c0.0431116,0.0690966 0.0673249,0.142918 0.0744117,0.218511 0.0761834,-0.00354342 0.151776,0.0106302 0.222645,0.0413399l0.273434 -0.439974 0.237999 -0.38328 -0.764197 0 -0.395091 0zm3.76665 -2.31739l0.0153548 0.00708683 0.273434 -0.439974 0.422257 -0.679155 -0.651989 0 -0.395091 0 0.350208 0.563403c0.108665,0.175399 0.0974439,0.389776 -0.0141737,0.548639zm-1.36067 -0.868728l-1.3778 1.3778 0.220282 0.354342 0.0974439 0.156501 1.3778 -1.3778 -0.317726 -0.510842zm-3.42944 3.43062l-0.0307096 0.0307096 0.219692 0.35316 0.0968534 0.15532 0.0307096 -0.0307096 -0.316545 -0.50848zm6.92974 -4.69089l0.00885854 0.00472455 0.0218511 -0.0354342 -0.0307096 0.0307096zm1.34355 -1.7782l0.245677 -0.245677c0.148823,-0.148823 0.371468,-0.185439 0.554545,-0.106302l0.18662 -0.300009 -0.0265756 0.00472455 -0.00295285 0c-0.030119,0.00531512 -0.0620098,0.0100397 -0.0921288,0.0100397l0 0.00295285 -0.858688 0 -0.395681 0 0.350798 0.563403c0.0147642,0.0236228 0.0283473,0.0460644 0.038387,0.0708683zm-1.41264 -0.389776l-1.3778 1.3778 0.219692 0.35316 0.0974439 0.156501 1.3778 -1.37721 -0.317136 -0.510252zm2.08353 -2.08235l-0.0307096 0.0307096 0.219692 0.35316 0.0974439 0.156501 0.0307096 -0.0307096 -0.317136 -0.509661zm4.48124 -4.48183l-0.0820891 0.0814986 0.220873 0.354932 0.0962628 0.15532 0.0820891 -0.0820891 -0.317136 -0.509661zm-0.486039 4.48242l0.350798 0.563403c0.0348436,0.0561041 0.0572852,0.11398 0.068506,0.174809 0.0944911,-0.0159454 0.190754,-0.00413399 0.279339,0.034253l0.274024 -0.439974 0.20729 -0.332491 -0.784276 0 -0.395681 0zm2.98178 -1.95774l0.634271 -0.634271 -0.627185 0 -0.395091 0 0.350208 0.562813c0.0147642,0.0236228 0.0277568,0.046655 0.0377964,0.0714589zm-1.41264 -0.390957l-0.540371 0.540371 0.220282 0.354342 0.0962628 0.15532 0.540962 -0.540962 -0.317136 -0.509071zm-8.58156 10.384l0.196069 -0.196069c0.148823,-0.147642 0.369106,-0.183076 0.551001,-0.104531l0.214967 -0.345483c-0.0324813,0.00649626 -0.0643721,0.00826797 -0.0974439,0.00826797l0 0.00236228 -0.859278 0 -0.395091 0 0.350798 0.563403c0.0147642,0.0236228 0.0283473,0.046655 0.0389776,0.0720495zm-1.41323 -0.390957l-1.08192 1.08192 0.219692 0.35316 0.0974439 0.156501 1.08192 -1.08133 -0.317136 -0.510252zm1.41855 -1.17996l0 -0.000590569 0 0.000590569zm2.12723 -0.562813l0.382098 -0.382098c0.148823,-0.148823 0.371468,-0.185439 0.554545,-0.106302l0.11457 -0.184258 -0.00177171 0.000590569 -0.0218511 0.0076774 -0.00118114 0 -0.0076774 0.00354342 -0.00885854 0.00177171 -0.0253945 0.00708683 -0.00118114 0.000590569 -0.00649626 0.00118114 -0.00236228 0 -0.00649626 0.00177171 -0.00413399 0.000590569 -0.00295285 0 -0.00413399 0.00118114 -0.00472455 0.000590569 -0.00413399 0.00118114 -0.00177171 0 -0.0188982 0.00236228 -0.00590569 0.000590569 -0.00295285 0.000590569 -0.0147642 0.00118114 -0.00295285 0.000590569 -0.00590569 0 -0.00236228 0 -0.00649626 0 -0.00236228 0.000590569 -0.00236228 0 -0.0112208 0.000590569 -0.00413399 0.000590569 0 0.00295285 -0.858688 0 -0.395091 0 0.350208 0.563403c0.0147642,0.0236228 0.0277568,0.046655 0.0377964,0.0714589zm-1.41264 -0.391547l-0.0814986 0.0814986 0.220873 0.354342 0.0962628 0.15532 0.0814986 -0.0814986 -0.317136 -0.509661zm3.54755 -1.74277l0.568128 -0.568128c0.0236228,-0.0236228 0.050789,-0.046655 0.0785457,-0.0655532l-0.640768 0 -0.395091 0 0.350798 0.563403c0.0141737,0.0236228 0.0277568,0.0454738 0.038387,0.0702778zm-1.41264 -0.389185l-0.0814986 0.0814986 0.219692 0.35316 0.0974439 0.156501 0.0814986 -0.0814986 -0.317136 -0.509661zm2.57016 -0.341349l-0.0295285 0.0206699 -0.0395681 0.0212605 0.034253 0.0141737 0.0348436 -0.0561041zm0.563994 -2.79221l-1.08192 1.08192 0.219692 0.35316 0.0974439 0.156501 1.08192 -1.08133 -0.317136 -0.510252zm5.55549 -3.31368l0.00590569 0.00354342 0.0147642 -0.0242133 -0.0206699 0.0206699zm-0.828569 -1.41323l-0.0820891 0.0814986 0.220873 0.354932 0.0962628 0.15532 0.0820891 -0.0820891 -0.317136 -0.509661z"/>
</svg>
