<?xml version="1.0" encoding="UTF-8"?>
<!DOCTYPE svg PUBLIC "-//W3C//DTD SVG 1.1//EN" "http://www.w3.org/Graphics/SVG/1.1/DTD/svg11.dtd">
<svg xmlns="http://www.w3.org/2000/svg" xml:space="preserve" style="shape-rendering:geometricPrecision; text-rendering:geometricPrecision; image-rendering:optimizeQuality; fill-rule:evenodd; clip-rule:evenodd"
viewBox="0 0 1.73398e+006 1.73398e+006" xmlns:xlink="http://www.w3.org/1999/xlink">
  <path d="M1.17256e+006 390544l192 15216 656 54720 128 11888 3072 195696 0 912 -16816 276992 17360 233392 16 352 -16 976 -3904 141744 48 0 0 20048 0 11952 -11904 1488 -132128 16352 -1648 192 -1648 -192 -327744 -40496 -126640 12000 -14816 1392 0 -14832 0 -7904 64 -960 15440 -211216 -11568 -258368 -32 -592 32 -560 11584 -254688 -1344 -119008 -1264 -13440 -5088 -53760 -1280 -13440 13456 -1264 149728 -14112 3296 -320 1456 -144 1504 192 2480 320 0 -48 52208 6448 -2192 -37808 -25152 -3248 -215568 15280 13824 231536 64 1232 -64 1632 -11568 254272 11568 258096 80 1984 -80 1216 -15376 210256 0 39744 153008 -14432 3424 -336 2640 336 325488 40208 159536 -19792 0 -46176 112 -768 3872 -140112 -17376 -233424 -128 -1648 128 -1984 16864 -277696 -3008 -300320 -185248 11680 -2384 144 -2896 -368 -65984 -8512 -4480 36192 71648 8848 147424 -19408 0 -16 11904 -1552 15040 -1984zm-150624 101856l336 34192 -26976 224 -320 -31872 -1728 -208 -64 0 -46128 -5696 3296 -26880 46128 5696 1632 208 1632 -208 72576 -8992 3296 26880 -53680 6656zm608 61184l608 59696 43856 -2768 1696 26976 -45280 2848 272 27728 0 912 -640 10672 -26976 -1600 640 -10544 -256 -25456 -13056 816 -1216 64 -1328 -160 -35472 -4576 3392 -26784 34144 4400 13264 -832 -624 -61168 26976 -224zm-1136 153024l-2960 48800 48736 -6032 3296 26880 -53696 6656 -2032 33408 -26976 -1600 1856 -30544 -44464 -5488 3296 -26880 42816 5280 3152 -52080 26976 1600zm-8304 136752l-2544 42048 43648 -2736 1696 26976 -47008 2960 -2016 33328 304 4080 -26976 2016 -368 -4880 -64 -816 64 -992 1888 -31120 -864 -112 -38848 -5008 3392 -26784 37520 4832 448 -32 2752 -45360 26976 1600zm-3920 133648l4128 55536 55040 -6832 3296 26880 -56320 6992 3024 40720 -26976 1920 -3104 -41712 -41920 -5168 3296 -26880 36576 4512 -4016 -54048 26976 -1920zm11184 150240l3872 52112 16 160 43792 -2768 1696 26976 -45968 2912 -912 50304 -26976 -416 864 -48176 -13232 832 -1216 64 -1328 -160 -35008 -4512 3392 -26784 33664 4336 14224 -896 0 -176 -3856 -51888 26976 -1920zm2000 157024l-1088 60128 6336 784 118576 -14672 0 -8080 64 -368 3392 -123408 -52960 3360 -1696 -26976 54464 -3456 -9488 -127472 -41456 5152 -3296 -26880 42736 -5312 -5200 -69968 -64 -800 64 -960 2480 -40704 -52192 3296 -1696 -26976 55536 -3504 6704 -110272 -46000 5712 -3296 -26880 50960 -6320 4384 -72208 -560 -35056 -53264 3344 -1696 -26976 54544 -3424 -2032 -129216 -43952 6192 -3712 -26784 47312 -6656 16 0 -352 -27616 -146080 19232 -1840 240 -1552 -192 -132336 -16352 3296 -26880 32240 3984 4496 -36336 -91632 -11808 2176 37664 25808 3184 -3296 26880 -105280 -13008 -48 -48 -1024 -128 -1840 176 -136272 12848 2560 26880 37584 -3552 2528 26880 -37568 3552 64 592 1376 119936 32 576 -32 800 -320 6896 33840 -2400 1920 26976 -36992 2624 -4880 107408 34096 -3216 2432 26880 -37760 3552 -3920 86176 1072 24064 32384 -2288 1920 26976 -33088 2352 5008 111776 31024 -2912 2432 26880 -32256 3024 3088 68880 32 944 -32 592 -4256 58272 32720 -2320 1920 26976 -36640 2592 -8656 118320 112960 -10704 896 -80 992 -36208 26976 736 -1056 38624 115104 14224 3088 -46688 26976 1696 -3200 48320 127232 15712 1040 -57216 26976 416zm-177216 -36080l3712 -56128 -51280 -6608 3392 -26784 49664 6400 3248 -49008 26976 1696 -3360 50784 44992 5792 -3392 26784 -43376 -5584 -3600 54352 -26976 -1696zm8192 -158352l-2064 -46240 -53712 -6624 3296 -26880 49184 6064 -1984 -44176 26976 -1152 2176 48688 45264 5584 -3296 26880 -40736 -5024 1872 41728 -26976 1152zm-6496 -145232l-2160 -48064 -54528 -7024 3392 -26784 49904 6432 -768 -17280 -32 -592 32 -560 832 -18368 26976 1152 -800 17792 960 21360 47728 6160 -3392 26784 -43120 -5552 1952 43392 -26976 1152zm-2096 -139408l1760 -38688 -57616 -7120 3296 -26880 55568 6864 2000 -44032 26976 1152 -2112 46192 46960 5808 -3296 26880 -44896 -5552 -1664 36528 -26976 -1152zm6224 -136912l1920 -42032 -60160 -7760 3392 -26784 58000 7488 144 -3152 -2880 -47952 26976 -1600 2912 48544 32 592 -32 784 -288 6256 40480 5216 -3392 26784 -38320 -4944 -1808 39712 -26976 -1152zm-1216 -147536l-2640 -44048 -37888 -4688 3296 -26880 110224 13616 -3296 26880 -45056 -5568 2336 39088 -26976 1600zm-123712 -58336l528 53456 -26976 224 -512 -51136 -36704 3456 -2528 -26880 68432 -6448 1648 -160 1264 160 54480 6736 -3296 26880 -53216 -6576 -3120 288zm800 80592l512 51216 39136 -2784 1920 26976 -40784 2896 432 42656 -26976 224 -416 -40976 -38928 2768 -1920 -26976 40576 -2880 -528 -52896 26976 -224zm-144 149024l-2032 33456 4368 -416 1648 -160 1264 160 33376 4128 -3296 26880 -32112 -3968 -6896 656 -2640 43440 -26976 -1600 2384 -39280 -39440 3712 -2528 -26880 43616 -4112 2288 -37616 26976 1600zm-7968 131280l-2608 43040 47728 -3376 1920 26976 -51312 3632 -2560 42288 -26976 -1600 2352 -38752 -37120 2624 -1920 -26976 40688 -2880 2832 -46576 26976 1600zm-6304 137904l3104 41632 13520 -1264 1616 -160 1248 160 41792 5152 -3296 26880 -40560 -4992 -12320 1152 4032 54288 -26976 1920 -3984 -53680 -34864 3280 -2432 -26880 35280 -3312 -3136 -42256 26976 -1920zm11152 149920l3664 49392 44112 -3120 1920 26976 -44816 3168 -1504 54400 -26976 -736 1424 -51744 -44672 3152 -1920 -26976 45456 -3216 -3664 -49376 26976 -1920zm-210816 -803696l245792 -17424 2416 -176 3088 400 237088 30592 212432 -13392 29568 -1872 304 29760 3328 331664 0 1872 -16752 275968 17296 232544 48 736 -48 2016 -3904 141344 96 0 0 71104 0 24912 -24800 3088 -187760 23280 -3424 416 -3424 -416 -326288 -40304 -180432 17024 -30864 2896 0 -30896 0 -71104 112 -1984 15392 -210576 -11520 -257344 -64 -1232 64 -1200 11536 -253840 -15408 -258096 -1664 -27792 27792 -1968z"/>
</svg>
