<?xml version="1.0" encoding="UTF-8"?>
<!DOCTYPE svg PUBLIC "-//W3C//DTD SVG 1.1//EN" "http://www.w3.org/Graphics/SVG/1.1/DTD/svg11.dtd">
<svg xmlns="http://www.w3.org/2000/svg" xml:space="preserve" style="shape-rendering:geometricPrecision; text-rendering:geometricPrecision; image-rendering:optimizeQuality; fill-rule:evenodd; clip-rule:evenodd"
viewBox="0 0 63.997 63.997" xmlns:xlink="http://www.w3.org/1999/xlink">
  <path d="M41.8094 20.9316l12.2385 0c0.575167,0 1.04168,0.466511 1.04168,1.04168 0,0.308252 -0.135229,0.584615 -0.348407,0.775353l-8.696 8.7025 -1.96525 1.97352 -1.17927 3.98011c-0.141725,0.532059 -0.399782,1.0901 -0.769448,1.65759 -0.331282,0.507257 -0.76,1.03046 -1.28025,1.56075 -0.0230303,0.0289355 -0.0472416,0.057871 -0.073815,0.0844444 -1.67472,1.6759 -4.31375,3.18704 -7.02247,4.31611 -3.10791,1.29619 -6.36404,2.1117 -8.38834,2.1117 -1.97057,0 -3.08606,-0.221445 -3.80827,-0.618865 -0.887552,-0.489541 -1.13911,-1.0966 -1.42433,-1.83947l-0.69209 -1.6074c-0.057871,-0.134639 -0.0838539,-0.276364 -0.0838539,-0.413955l-9.40817 0c-0.572805,0 -1.03754,-0.464739 -1.03754,-1.03754 0,-0.285221 0.114561,-0.54446 0.301165,-0.732245l8.73911 -8.7462 2.14359 -2.15304c2.51148,-2.51325 6.18983,-4.78026 10.102,-6.41187 3.91043,-1.62984 8.09072,-2.63904 11.6114,-2.63904l0 -0.00413364zm-0.634809 14.9874c-2.15304,1.57846 -4.70999,2.98626 -7.37442,4.09703 -3.91102,1.63043 -8.0919,2.63963 -11.6126,2.63963l-0.676146 0c0.247428,0.660202 0.709215,1.85246 1.04699,2.03848 0.417498,0.229712 1.22415,0.357855 2.80792,0.357855 1.77688,0 4.72298,-0.752323 7.59114,-1.94872 2.64553,-1.10191 5.7871,-2.65085 7.43288,-5.17237 0.255695,-0.393287 0.424584,-0.754094 0.511981,-1.09305l0.27223 -0.91885zm-3.15397 -0.380295c-1.20171,0.704491 -2.49141,1.34461 -3.81299,1.89557 -3.21243,1.3393 -6.63627,2.16839 -9.50738,2.16839 -0.541507,0 -1.04463,-0.0312976 -1.51232,-0.088578 -0.12519,0.0312976 -0.259829,0.013582 -0.37439,-0.0531468 -0.78362,-0.126371 -1.4515,-0.333644 -1.99773,-0.614141 -0.800746,-0.411002 -1.34934,-0.979083 -1.63161,-1.66822 -0.281088,-0.687366 -0.289945,-1.47748 -0.013582,-2.3361 0.233846,-0.724568 0.677327,-1.5076 1.3328,-2.32134l-1.07829 1.08301 -6.9705 6.97641 9.73296 0c3.23664,0 7.13349,-0.950147 10.8154,-2.48491 1.76034,-0.734017 3.46517,-1.60031 5.01765,-2.55695zm-9.83512 -8.73439c0.571033,-0.278726 1.15211,-0.540326 1.74085,-0.785983 1.66527,-0.693861 3.38841,-1.24954 5.06135,-1.62511l0.141725 -0.0312976c1.50346,-0.32951 2.96382,-0.511391 4.30489,-0.511391 1.63751,0 2.94138,0.271639 3.88444,0.755866l0.00118104 0.00059052 0.00059052 -0.00059052c0.797793,0.409821 1.3458,0.976721 1.62866,1.66645l0.00059052 -0.00059052c0.282269,0.687956 0.290536,1.47925 0.013582,2.33787 -0.234437,0.729883 -0.682051,1.51528 -1.34639,2.3361l0.955462 -0.959595 6.96637 -6.97168 -9.72941 0 0 -0.00413364c-3.23664,0 -7.13289,0.949557 -10.8142,2.48432 -0.959005,0.399782 -1.8997,0.837948 -2.8097,1.30918zm-5.26331 11.6634c1.6759,-1.60267 4.05038,-3.04354 6.57308,-4.09585 2.63313,-1.09778 5.44224,-1.77747 7.79782,-1.77747 0.65843,0 1.25427,0.0543279 1.78219,0.155307 0.339549,0.0649572 0.653115,0.149402 0.936565,0.253924 0.613551,-0.473007 1.2023,-0.977311 1.76211,-1.51764l0.18188 -0.187785 0.0312976 -0.0324786c1.07357,-1.07416 1.74322,-2.07922 2.02667,-2.96028 0.203139,-0.629495 0.205501,-1.18931 0.014763,-1.65405l0 -0.00118104c-0.188966,-0.463558 -0.581663,-0.856845 -1.1651,-1.15683l0.00059052 -0.00059052c-0.801336,-0.411002 -1.95049,-0.641896 -3.42974,-0.641896l-0.12519 0.00118104 -0.0029526 0 -0.122828 0.00177156 -0.00649572 0 -0.0566899 0.00177156 -0.0637762 0.00118104 -0.0100388 0.00059052 -0.0537373 0.00118104 -0.0643667 0.00177156 -0.013582 0.00059052 -0.11397 0.00531468 -0.0171251 0.00059052 -0.112199 0.00531468 -0.0206682 0.00059052 -0.043108 0.0029526 -0.0655478 0.00354312 -0.0248019 0.00177156 -0.0407459 0.00236208 -0.0655478 0.00354312 -0.028345 0.00177156 -0.10216 0.00826728 -0.0318881 0.00236208 -0.0336597 0.0029526 -0.0655478 0.00472416 -0.0059052 0.00059052 -0.126371 0.0112199 -0.0395649 0.00354312 -0.0259829 0.00236208 -0.00059052 0 -0.110427 0.0100388 -0.0218493 0.00236208 -0.0673193 0.00708624 -0.0478321 0.00531468 -0.0188966 0.00177156 -0.0673193 0.00708624 -0.0519658 0.0059052 -0.0153535 0.00236208 -0.0673193 0.00708624 -0.0555089 0.00649572 -0.0118104 0.00177156 -0.0259829 0.0029526 -0.0614141 0.00708624 -0.383248 0.0531468 -0.00413364 0.00059052 -0.0679098 0.0106294 -0.00354312 0 -0.0655478 0.00944832 -0.00531468 0.00118104 -0.402144 0.0649572 -0.0059052 0.00118104 -0.0690909 0.0124009 -0.0183061 0.0029526 -0.0773582 0.013582 -0.112199 0.0206682 -0.0690909 0.013582 -0.0271639 0.00472416 -0.043108 0.00767676 -0.0307071 0.00649572 -0.213178 0.0413364 -0.0366123 0.00708624 -0.0106294 0.00236208 -0.199596 0.0419269 -0.0419269 0.0088578 -0.0809013 0.0171251 -0.0183061 0.00413364 -0.0460606 0.00944832 -0.0248019 0.0059052 -0.120466 0.0259829 -0.0212587 0.00472416 -0.141725 0.0318881 -0.0720435 0.0177156 -0.0560994 0.013582 -0.0165346 0.00413364 -0.072634 0.0177156 -0.0560994 0.013582 -0.0165346 0.00413364 -0.072634 0.0188966 -0.0560994 0.013582 -0.0165346 0.00413364 -0.072634 0.0183061 -0.057871 0.013582 -0.0153535 0.00413364 -0.072634 0.0194872 -0.0584615 0.014763 -0.0141725 0.00413364 -0.132867 0.0348407 -0.013582 0.00413364c-0.337187,0.0909401 -0.677327,0.188966 -1.01629,0.293489l-0.0106294 0.00354312 -0.125781 0.0383838 -0.0106294 0.00354312 -0.0106294 0.0029526 -0.072634 0.0242113 -0.0637762 0.0200777 -0.0106294 0.0029526 -0.072634 0.0236208 -0.0655478 0.0200777 -0.0088578 0.0029526 -0.072634 0.0248019 -0.0655478 0.0218493 -0.00708624 0.00236208 -0.139953 0.0460606 -0.00708624 0.00236208 -0.00708624 0.00236208 -0.132867 0.0460606 -0.00708624 0.00236208 -0.00472416 0.00177156 -0.13582 0.0460606 -0.00649572 0.00236208 -0.140544 0.0501942 -0.00531468 0.00236208 -0.141725 0.0496037 -0.00531468 0.00177156 -0.072634 0.0265734 -0.14704 0.0531468 -0.0696814 0.0253924 -0.00472416 0.00118104 -0.072634 0.028345 -0.0679098 0.0259829 -0.00472416 0.00118104 -0.0348407 0.013582 -0.0844444 0.0318881 -0.0230303 0.00826728 -0.00413364 0.00118104 -0.072634 0.028345 -0.0696814 0.0271639 -0.0029526 0.00118104 -0.072634 0.028345 -0.071453 0.0271639 -0.00236208 0.00118104 -0.142906 0.0572805 -0.00236208 0.00118104 -0.072634 0.0289355 -0.071453 0.028345 -0.00118104 0 -0.072634 0.0301165 -0.071453 0.029526 -0.00118104 0 -0.072634 0.0301165 -0.072634 0.0289355c-3.09492,1.29029 -5.98965,3.06834 -7.94663,5.02533 -0.899362,0.926526 -1.83652,1.92273 -2.24221,3.18231 -0.203139,0.630676 -0.204911,1.19167 -0.014763,1.657 0.189557,0.462968 0.581072,0.856254 1.16392,1.15565 0.444071,0.227941 0.997389,0.399192 1.65287,0.507847zm16.0645 -4.71885l-0.0992074 -0.0188966c-0.460015,-0.0879875 -0.992665,-0.135229 -1.5944,-0.135229 -2.22744,0 -4.89896,0.649572 -7.41516,1.69834 -2.09753,0.874561 -4.0805,2.02312 -5.60345,3.3016 0.138772,0.00472416 0.279907,0.00767676 0.425765,0.00767676 2.74238,0 6.0298,-0.798974 9.12472,-2.08926 1.80286,-0.751732 3.55139,-1.65936 5.16174,-2.76423z"/>
</svg>
