<?xml version="1.0" encoding="UTF-8"?>
<!DOCTYPE svg PUBLIC "-//W3C//DTD SVG 1.1//EN" "http://www.w3.org/Graphics/SVG/1.1/DTD/svg11.dtd">
<svg xmlns="http://www.w3.org/2000/svg" xml:space="preserve" style="shape-rendering:geometricPrecision; text-rendering:geometricPrecision; image-rendering:optimizeQuality; fill-rule:evenodd; clip-rule:evenodd"
viewBox="0 0 32.0074 32.0074" xmlns:xlink="http://www.w3.org/1999/xlink">
  <path d="M23.4991 10.5188l1.74069 0c0.662317,0.000885846 1.19796,0.10453 1.57444,0.281994 0.282585,0.132877 0.493121,0.314475 0.622454,0.534165 0.150594,0.255714 0.186028,0.540071 0.0956714,0.841258 -0.0688007,0.23032 -0.215851,0.466545 -0.446171,0.699228l-2.03449 2.03892 -0.765961 3.93699 -0.00177169 -0.000295282c-0.0242131,0.134353 -0.0552177,0.269592 -0.117522,0.410737 -0.067029,0.152956 -0.166834,0.307979 -0.323924,0.46625l-5.58201 5.59471 -0.00206697 0.00206697c-0.347252,0.34548 -0.918917,0.651097 -1.56145,0.864881 -0.622159,0.206697 -1.32227,0.335145 -1.9524,0.335145l-6.23783 0c-0.673243,0 -1.0763,-0.127857 -1.32168,-0.278156 -0.341051,-0.20906 -0.425206,-0.457687 -0.465955,-0.588202l-0.00797261 -0.0307093 -0.806415 -3.2667 -0.213784 0c-0.663794,0 -1.20209,-0.10453 -1.58301,-0.284652 -0.28288,-0.133763 -0.493121,-0.314771 -0.621569,-0.53446 -0.150594,-0.255714 -0.185437,-0.540071 -0.0950808,-0.841258 0.0696865,-0.232387 0.218804,-0.470384 0.451191,-0.703657l3.43974 -3.44742 -0.888503 0c-0.622159,0 -1.12739,-0.0983289 -1.48527,-0.267821 -0.269002,-0.126971 -0.469794,-0.300302 -0.593221,-0.510838 -0.144983,-0.246856 -0.17835,-0.520877 -0.0918327,-0.810254 0.0667337,-0.221757 0.208174,-0.447943 0.428454,-0.668814l7.26777 -7.28402c0.43495,-0.435541 1.15632,-0.822065 1.97012,-1.09402 0.79106,-0.264277 1.68783,-0.428454 2.50045,-0.42934l0 -0.00206697 8.14624 0 0 0.00206697c0.620387,0.000590564 1.12325,0.0983289 1.4773,0.265163 0.270183,0.127267 0.47127,0.299711 0.594107,0.508476l0 0.00206697c0.144688,0.24656 0.178646,0.520287 0.0924232,0.810254 -0.0658479,0.219985 -0.205812,0.444695 -0.42373,0.66468l-2.77742 2.78362zm0.236816 5.7143l-4.49153 4.50157 -0.00206697 0.00206697c-0.465069,0.462707 -1.23782,0.87433 -2.11097,1.16489 -0.85307,0.283766 -1.81274,0.459459 -2.67732,0.459459l-7.47949 0 0.73791 2.98855c0.000885846,0.00118113 0.00413395,0.00442923 0.013583,0.0100396 0.108664,0.0664384 0.331602,0.123428 0.780725,0.123428l6.23783 0c0.527964,0 1.11144,-0.106597 1.627,-0.27786 0.496074,-0.165063 0.920689,-0.384162 1.15455,-0.616844l5.57994 -5.59264c0.0540366,-0.0543319 0.0874035,-0.105416 0.108368,-0.153251 0.025099,-0.0569894 0.0389772,-0.118703 0.0501979,-0.180417l0 -0.00620092 0.47127 -2.42279zm0.467431 -1.93882l1.20357 -1.20652 0.942835 -0.944607c0.103349,-0.10453 0.164767,-0.19341 0.185732,-0.263982l0.00590564 -0.0191933c-0.020965,-0.0354338 -0.0788403,-0.076478 -0.170673,-0.119589 -0.245675,-0.115751 -0.628655,-0.18337 -1.13093,-0.183961l-2.77595 0 -0.0797261 0.0800214 1.3208 0c0.529441,0.000590564 0.953465,0.0814978 1.24698,0.21969 0.203449,0.0962619 0.353452,0.223528 0.442628,0.375303 0.0998053,0.169197 0.122247,0.358768 0.0623045,0.559855 -0.0496074,0.165653 -0.157976,0.338393 -0.328649,0.510542l-6.61107 6.62554 -0.00118113 0.00118113c-0.371465,0.369398 -0.996281,0.700999 -1.70555,0.93693 -0.699818,0.232977 -1.48793,0.377075 -2.19808,0.377075l-7.38766 0c-0.531508,0 -0.95819,-0.0814978 -1.25406,-0.221461 -0.203154,-0.0962619 -0.353157,-0.223528 -0.442037,-0.375303 -0.0992147,-0.169197 -0.121951,-0.359358 -0.0617139,-0.559855 0.0499026,-0.167425 0.160043,-0.341051 0.333078,-0.514381l3.01512 -3.02192 -0.0655526 0 -4.17056 4.17972c-0.106597,0.106892 -0.169492,0.197248 -0.190752,0.268411l-0.0064962 0.0191933c0.020965,0.0357291 0.078545,0.0767733 0.169787,0.119884 0.244198,0.115455 0.629836,0.182484 1.13949,0.182484l8.76308 0c0.762418,0 1.60545,-0.153842 2.35192,-0.402174 0.726689,-0.241836 1.35239,-0.566941 1.70407,-0.91685l5.69333 -5.70603zm-13.1152 6.34974l0.108073 -0.108368 -0.437903 -3.98601 -0.249809 0 0.579638 4.09438zm1.05238 -1.05475l0.0398631 -0.0401583 -0.263982 -2.99947 -0.111026 0 0.335145 3.03963zm1.00189 -0.995395l0.0569894 -0.0463593 -0.00177169 0 -0.168311 -1.99788 -0.067029 0 0.180122 2.04424zm1.05504 -0.581115l0.0221461 -0.00856318 -0.0425206 -1.45456 -0.102758 0 0.123133 1.46312zm1.05268 -0.284947l0.0103349 -0.00177169 -0.00236226 -1.22011 -0.0437017 0.00472451 0.0357291 1.21715zm1.04766 -0.0809073l0.196362 0 0.0395678 -1.38015c-0.0788403,0.020965 -0.158271,0.0407489 -0.238293,0.0599422l0.00236226 1.32021zm1.23487 0l0.0342527 0 0.131991 -1.78705 -0.116341 0.0501979 -0.0499026 1.73685zm1.07748 0l0.0141735 0 0.200792 -2.4594 -0.0354338 0.0292329 -0.179531 2.43017zm1.05859 0l0.0723441 0 0.412804 -3.77547 -0.192524 0.193114 -0.292624 3.58236zm-0.0797261 0.500208l-3.46897 0 0 -0.00118113c-0.50818,0.000590564 -1.07424,0.10512 -1.57681,0.272841 -0.491349,0.164177 -0.915669,0.385934 -1.15485,0.625702l-1.69403 1.69787 2.91798 0c0.661432,0 1.39344,-0.133763 2.04158,-0.349319 0.63899,-0.212603 1.19323,-0.50257 1.51066,-0.818226l1.42444 -1.42769zm2.0528 -5.76686l-0.313885 0.314771 -0.455325 4.16584 0.221166 -0.221757 0.548043 -4.25885zm-7.4225 -5.48191c-0.669699,0.223824 -1.24432,0.522354 -1.56322,0.841849l-7.26777 7.28402c-0.0944902,0.0947855 -0.150003,0.173331 -0.168015,0.233568 -0.000590564,0.00177169 -0.0150594,-0.020965 -0.0097443,-0.0118113l0.00826789 0.011516 0.00147641 0.000295282 -0.00147641 -0.000295282c0.020965,0.0242131 0.0667337,0.053446 0.133172,0.0847459 0.221461,0.104825 0.573733,0.165653 1.04175,0.165653l8.13295 0 0 0.00206697c0.699523,0 1.47818,-0.142621 2.17091,-0.373236 0.669109,-0.222347 1.24461,-0.521173 1.56677,-0.841849l7.27575 -7.29199c0.0912421,-0.092128 0.144688,-0.168901 0.1627,-0.228548 -0.0218509,-0.0253942 -0.0664384,-0.0540366 -0.132582,-0.0850412 -0.222938,-0.10512 -0.573142,-0.166834 -1.03378,-0.16713l0 0.00206697 -8.14624 0 0 -0.00206697c-0.698637,0.000590564 -1.47789,0.144688 -2.17091,0.376189zm9.96547 5.26488l-0.28288 1.66185 0.872558 -0.874625c0.110435,-0.111321 0.17776,-0.213194 0.20404,-0.301483 0.0186028,-0.0628951 0.013583,-0.119589 -0.0132877,-0.165358 -0.0372055,-0.0634856 -0.114274,-0.123428 -0.225891,-0.176283 -0.141145,-0.0664384 -0.328058,-0.11516 -0.554539,-0.144098zm-1.56027 2.9416l0.510542 -2.97054 -0.415462 0 -0.422253 3.29859 0.327172 -0.328058zm-12.5719 5.63752l-0.586135 -4.13956 -0.136716 0.137011 0.693913 4.00255 0.0289376 0zm-1.08368 0l-0.530622 -3.10932 -0.225891 0.226481 0.579343 2.88284 0.177169 0zm-1.23664 0l-0.406308 -1.99404 -0.108368 0.108368 0.443218 1.88567 0.0714582 0zm-1.15189 -0.0528555l-0.226481 -0.967048 -0.200201 0.200496c-0.112798,0.113093 -0.181894,0.216146 -0.208469,0.305322 -0.018898,0.0631903 -0.0141735,0.119589 0.0126971,0.165358 0.0372055,0.0634856 0.113979,0.123723 0.2253,0.176283 0.106597,0.0501979 0.240064,0.0903563 0.397154,0.119589z"/>
</svg>
