<?xml version="1.0" encoding="UTF-8"?>
<!DOCTYPE svg PUBLIC "-//W3C//DTD SVG 1.1//EN" "http://www.w3.org/Graphics/SVG/1.1/DTD/svg11.dtd">
<svg xmlns="http://www.w3.org/2000/svg" xml:space="preserve" style="shape-rendering:geometricPrecision; text-rendering:geometricPrecision; image-rendering:optimizeQuality; fill-rule:evenodd; clip-rule:evenodd"
viewBox="0 0 21.333 21.333" xmlns:xlink="http://www.w3.org/1999/xlink">
  <path d="M8.60336 8.11105c0.159249,-0.0761795 0.320466,-0.150194 0.482076,-0.221255 0.92124,-0.404716 1.88205,-0.731087 2.82455,-0.953523l0.134446 -0.030708 -0.0696835 0c-0.931082,0 -2.02535,0.439164 -3.07277,1.03167 -0.0999978,0.0564948 -0.199799,0.114761 -0.298616,0.173815zm0.925571 6.96087c-0.339756,0.0875965 -0.672623,0.15669 -0.991908,0.202752 -0.330111,0.0474399 -0.64723,0.0728331 -0.944665,0.0728331 -0.299994,0 -0.574988,-0.0263774 -0.822423,-0.0763763 -0.224798,-0.0454715 -0.423416,-0.111218 -0.59546,-0.194484l-2.37711 0 0 -0.00137792c-0.397236,0 -0.701166,-0.0669277 -0.926358,-0.185232 -0.392118,-0.206295 -0.550382,-0.540146 -0.54487,-0.947421 0.00452746,-0.334245 0.1311,-0.712189 0.326371,-1.09742 0.474006,-0.934626 1.38107,-1.9724 1.85587,-2.4468 0.586798,-0.586208 2.24346,-2.04031 4.05188,-3.06312 1.14131,-0.645655 2.35074,-1.12419 3.41449,-1.12419l5.55185 0 0 0.00137792c0.400188,0 0.706087,0.0671245 0.932854,0.186216 0.392905,0.206492 0.55176,0.54054 0.546839,0.948011 -0.00413377,0.334048 -0.130509,0.712189 -0.325977,1.09761 -0.473612,0.933444 -1.3793,1.96866 -1.85606,2.44503 -0.589161,0.588767 -2.24227,2.04031 -4.05346,3.06352 -1.07872,0.609436 -2.21905,1.06947 -3.24186,1.11907zm6.92249 -8.16636c0.033267,0.0133855 0.0661403,0.0269679 0.0978325,0.0411408 0.539752,0.24153 0.875769,0.601956 0.998994,1.05175 0.0866123,0.315741 0.0637782,0.674592 -0.0708646,1.06179 0.222239,-0.30393 0.429715,-0.623018 0.584436,-0.927736 0.151965,-0.299797 0.249995,-0.576956 0.25275,-0.794077 0.00157477,-0.143698 -0.0501958,-0.25964 -0.177949,-0.326765 -0.130706,-0.0686993 -0.329717,-0.107478 -0.610026,-0.107478l0 0.00137792 -1.07517 0zm-3.70917 6.26424c-0.163973,0.0785416 -0.328733,0.154918 -0.495068,0.227948 -0.92124,0.404716 -1.88185,0.731087 -2.82435,0.95372l-0.135233 0.030708 0.0616128 0c0.937381,0 2.03421,-0.438967 3.08261,-1.03128 0.104132,-0.058857 0.207476,-0.119682 0.310426,-0.181098zm-7.86066 1.21238c-0.033267,-0.0133855 -0.0663372,-0.0267711 -0.0982262,-0.0411408 -0.539949,-0.241727 -0.875572,-0.601956 -0.998797,-1.05195 -0.0864155,-0.314757 -0.063975,-0.67282 0.0696835,-1.05884 -0.221649,0.303537 -0.428731,0.622231 -0.583255,0.926752 -0.151965,0.299797 -0.250388,0.576956 -0.253144,0.793881 -0.00177162,0.143698 0.0492115,0.25964 0.17598,0.326174 0.129328,0.0679119 0.325977,0.106494 0.60353,0.106494l0 -0.00137792 1.08423 0zm-0.714748 -1.01395l1.35844 0.353536c0.00295269,-0.040944 0.007677,-0.0828722 0.0143698,-0.124997l-1.46611 -0.55983c0.00649592,0.0564948 0.0165351,0.111809 0.0311017,0.16476 0.0157477,0.0574791 0.0368102,0.112596 0.0622034,0.166532zm0.00393692 -1.0364l1.59544 0.609239c0.0163382,-0.0314954 0.0338575,-0.0629908 0.0517705,-0.0950767l-1.53048 -0.792503 -0.0263774 0.0555106c-0.0350386,0.0757858 -0.0647624,0.149997 -0.0903524,0.22283zm0.480501 -0.869863l1.56414 0.809825 0.0354323 -0.0433062 -1.44938 -0.960412c-0.0527548,0.0649592 -0.103147,0.130115 -0.150194,0.193893zm0.621443 -0.712583l1.45784 0.966121 0.0340544 -0.0324796 -1.32182 -1.09801c-0.0580696,0.0545264 -0.114761,0.10925 -0.170075,0.164367zm0.699198 -0.623609l1.32064 1.09702 0.114761 -0.0909429 -1.15135 -1.22753c-0.0968483,0.0732268 -0.191728,0.146847 -0.284049,0.221452zm0.853722 -0.626561l1.14624 1.22222 0.140351 -0.0935019 -0.962971 -1.33914 -0.155312 0.0990136c-0.0564948,0.0366134 -0.112793,0.074211 -0.168303,0.111415zm0.919272 -0.566917l0.95746 1.33186 0.110824 -0.0633845 -0.777936 -1.4291c-0.0976357,0.0527548 -0.194484,0.106297 -0.290348,0.160626zm0.90628 -0.47558l0.772818 1.41965 0.0602349 -0.0295269 -0.586208 -1.50745c-0.0826754,0.0385818 -0.16476,0.0775574 -0.246845,0.11732zm0.881083 -0.396054l0.582074 1.49642 0.0803132 -0.0340544 -0.405109 -1.5669c-0.0860218,0.0340544 -0.17165,0.0688962 -0.257278,0.104525zm0.909429 -0.34763l0.40255 1.55686 0.136611 -0.0482273 -0.208657 -1.62024c-0.110234,0.035826 -0.220468,0.0732268 -0.330505,0.111612zm1.00175 -0.313379l0.20787 1.61296c0.0647624,-0.0181098 0.129525,-0.0356292 0.19409,-0.0523611l0.00295269 -1.6665c-0.13484,0.033267 -0.269876,0.0685025 -0.404913,0.105903zm1.09683 -0.257868l-0.00295269 1.66611c0.0624002,-0.0114171 0.124604,-0.0220468 0.186216,-0.0316922l0.216334 -1.70469c-0.132477,0.0210625 -0.265742,0.0444872 -0.399598,0.0702741zm1.10824 -0.161217l-0.218106 1.71886 0.0893682 -0.00433062 0.414361 -1.73795c-0.0944862,0.00649592 -0.189957,0.0141729 -0.285624,0.0234247zm1.00372 -0.043503l-0.4244 1.77949 0.0999978 0.0124013 0.63286 -1.78165c-0.099801,-0.00551169 -0.202555,-0.00885808 -0.308458,-0.010236zm1.01533 0.0911398l-0.667112 1.87791c0.0440935,0.0188972 0.0868092,0.038385 0.127359,0.0596444l0.00925177 0.00531485 0.90628 -1.85488c-0.117123,-0.0338575 -0.242318,-0.0633845 -0.375779,-0.0879902zm1.01258 0.364756l-1.0047 2.05645 -0.0244089 -0.0120076c0.035826,0.0594475 0.0663372,0.121454 0.0903524,0.186807l1.25824 -1.96c-0.0860218,-0.0994073 -0.192516,-0.190153 -0.319481,-0.271254zm0.579318 1.14407l-1.45213 2.2407c0.0913366,-0.0834628 0.179721,-0.167122 0.264561,-0.251766 0.476171,-0.475777 0.807857,-0.931082 0.999585,-1.34722 0.105116,-0.228342 0.167319,-0.442904 0.187988,-0.641718zm-2.79069 3.2767l-0.00295269 -0.00295269c0.495068,-0.494871 0.805691,-0.957853 0.938956,-1.36021 0.0897618,-0.271648 0.0970452,-0.512587 0.0240152,-0.711599 -0.0718488,-0.196059 -0.224601,-0.359244 -0.454518,-0.479124 -0.290742,-0.151768 -0.703725,-0.236019 -1.23383,-0.236019 -1.05884,0 -2.35861,0.338575 -3.60347,0.885414 -1.24702,0.547823 -2.43577,1.30391 -3.27001,2.13736 -0.495068,0.494871 -0.805888,0.95805 -0.939153,1.3604 -0.0897618,0.271648 -0.0970452,0.512391 -0.0240152,0.711402 0.0249995,0.0681088 0.0590538,0.13169 0.103344,0.191531 0.238971,0.0271648 0.499989,0.0419282 0.781479,0.0419282 0.803723,0 1.67339,-0.115549 2.55861,-0.324402 0.923602,-0.218106 1.86492,-0.537981 2.76726,-0.934429 0.780495,-0.342709 1.53835,-0.748015 2.22416,-1.19308l0.130115 -0.0862186z"/>
</svg>
