<?xml version="1.0" encoding="UTF-8"?>
<!DOCTYPE svg PUBLIC "-//W3C//DTD SVG 1.1//EN" "http://www.w3.org/Graphics/SVG/1.1/DTD/svg11.dtd">
<svg xmlns="http://www.w3.org/2000/svg" xml:space="preserve" style="shape-rendering:geometricPrecision; text-rendering:geometricPrecision; image-rendering:optimizeQuality; fill-rule:evenodd; clip-rule:evenodd"
viewBox="0 0 15.9998 15.9998" xmlns:xlink="http://www.w3.org/1999/xlink">
  <path d="M7.99991 4.82531c0.128147,0 0.254375,0.000885811 0.377356,0.00221453 0.128443,0.00132872 0.252013,0.00369088 0.37086,0.00634831l0.00103345 0c0.124309,0.00280507 0.241679,0.00649595 0.351815,0.0104821 0.125342,0.00457669 0.241384,0.00959629 0.346795,0.0146159 0.121651,0.00590541 0.228096,0.0119584 0.322731,0.0178639 0.120027,0.00752939 0.223077,0.0149112 0.312101,0.02185 0.0718983,0.00561014 0.168895,0.0144682 0.285969,0.0256885 0.11176,0.0107774 0.202408,0.020226 0.268991,0.027903 0.0788372,0.00915338 0.160627,0.0197831 0.244779,0.0315939 0.0825281,0.0115155 0.15605,0.0230311 0.219829,0.0339561 0.0677645,0.0115155 0.133315,0.0245074 0.194731,0.0374993 0.0565443,0.0121061 0.113827,0.0264267 0.169928,0.0417808l0.000885811 0c0.0518199,0.0143206 0.10113,0.0302652 0.146306,0.046948l0.00103345 0c0.0479814,0.0180115 0.0905004,0.0377946 0.126671,0.0583159 0.0506389,0.0284936 0.0925673,0.0621544 0.124309,0.0990632l0.000885811 0.000885811 -0.000147635 0c0.0544774,0.0631879 0.0822328,0.134496 0.0822328,0.212742 0,0.0794277 -0.0281983,0.150293 -0.0828233,0.213333 -0.0323321,0.0372041 -0.0739652,0.0701267 -0.123866,0.098325l0.00029527 0.000590541c-0.0348419,0.0199307 -0.078099,0.0397139 -0.128147,0.0584635l-0.0118108 0.00398615 0 0.0558061c0,0.0863666 -0.0698314,0.165351 -0.197979,0.236069l-0.0496054 0.272977 -0.098325 0.517166 -0.0984727 0.517314 -0.0984727 0.517166 -0.0984727 0.517314 -0.098325 0.517166 -0.0984727 0.517314 -0.0984727 0.517314 -0.0984727 0.517166 -0.00398615 0.0183068 -0.000738176 0.00280507 -0.00118108 0.00487196c-0.00752939,0.0445858 -0.0249503,0.0868095 -0.051377,0.126819l0.000442906 0.00029527 -0.00103345 0.00103345c-0.0248027,0.0372041 -0.0574301,0.0708649 -0.097144,0.099949l-0.000590541 -0.000738176c-0.0289365,0.0212595 -0.0608257,0.0405997 -0.0953723,0.0574301l-0.00103345 0.000885811c-0.0332179,0.0160922 -0.0682075,0.0308558 -0.103492,0.0434047l-0.000885811 0c-0.0318892,0.0113679 -0.0702743,0.0233264 -0.114122,0.0354324 -0.0352848,0.00989156 -0.0785419,0.0203737 -0.128147,0.0312987l0.000147635 0.000442906c-0.0416331,0.00930102 -0.0902051,0.0191926 -0.14424,0.0289365 -0.0668787,0.0121061 -0.120175,0.0214071 -0.155755,0.026722 -0.0552156,0.00826757 -0.11235,0.0163875 -0.16978,0.0233264l-0.000147635 -0.00103345c-0.0693885,0.00856284 -0.129181,0.0156493 -0.183511,0.0212595 -0.0778037,0.0079723 -0.14232,0.0140253 -0.195469,0.0183068l0 0.000147635 -0.00103345 0c-0.0531487,0.00428142 -0.12298,0.00944865 -0.205508,0.0147635 -0.0612686,0.00383851 -0.133757,0.00767703 -0.219829,0.0116632l0 0.000147635 -0.00103345 0c-0.0646642,0.00310034 -0.138925,0.00605304 -0.221158,0.00841521 -0.0733747,0.00221453 -0.152655,0.00413379 -0.236216,0.00531487l-0.235478 0.00280507 -0.235478 -0.00280507c-0.0835615,-0.00118108 -0.162842,-0.00310034 -0.236216,-0.00531487 -0.0822328,-0.00236216 -0.156346,-0.00531487 -0.221158,-0.00841521l-0.00103345 0 0 -0.000147635c-0.0860713,-0.00398615 -0.158708,-0.00782466 -0.219829,-0.0116632 -0.0823804,-0.00531487 -0.15236,-0.0104821 -0.205508,-0.0147635l-0.00103345 0 0 -0.000147635c-0.0531487,-0.00428142 -0.11737,-0.0103345 -0.195321,-0.0183068 -0.0543297,-0.00561014 -0.11427,-0.0126966 -0.183806,-0.0212595l-0.000147635 0.00103345c-0.0574301,-0.00693885 -0.114565,-0.0150588 -0.169633,-0.0233264 -0.0357277,-0.00531487 -0.0888764,-0.0146159 -0.155755,-0.026722 -0.0540345,-0.00974392 -0.102606,-0.0196355 -0.14424,-0.0289365l0 -0.00029527c-0.0494578,-0.0110726 -0.0925673,-0.0215547 -0.128,-0.0314463 -0.0438476,-0.0121061 -0.0822328,-0.0240645 -0.114122,-0.0354324l-0.000885811 0c-0.0352848,-0.012549 -0.0702743,-0.0273125 -0.103492,-0.0434047l-0.00103345 -0.000885811c-0.0345466,-0.0168304 -0.0668787,-0.0363183 -0.0959629,-0.0577254l-0.00103345 0c-0.0400091,-0.0296747 -0.072046,-0.0621544 -0.0961105,-0.0978821l-0.00103345 -0.00310034c-0.0262791,-0.0400091 -0.0438476,-0.0826757 -0.051377,-0.126671l-0.00177162 -0.0054625 -0.00369088 -0.0199307 -0.788224 -4.14117 -0.0496054 -0.270172c-0.128,-0.0707173 -0.197831,-0.149407 -0.197831,-0.235626l0 -0.0566919 -0.00989156 -0.0029527 -0.00103345 0c-0.0476862,-0.0180115 -0.090648,-0.037647 -0.127409,-0.0584635l-0.00103345 0c-0.0490149,-0.0280507 -0.0905004,-0.0609733 -0.123571,-0.0990632 -0.054625,-0.0630402 -0.0828233,-0.133905 -0.0828233,-0.213333 0,-0.0785419 0.0280507,-0.150293 0.0828233,-0.21348 0.032775,-0.0377946 0.0742605,-0.0710125 0.123423,-0.0990632l0.00103345 0c0.0351372,-0.0199307 0.0779514,-0.0397139 0.127704,-0.0581683 0.0450287,-0.0168304 0.0941912,-0.032775 0.146306,-0.0470956l0.000885811 0c0.0563966,-0.0155017 0.113827,-0.0298223 0.170076,-0.0417808 0.0614162,-0.0129919 0.126819,-0.0259838 0.194583,-0.0374993 0.0637784,-0.0110726 0.138187,-0.0225882 0.220862,-0.0342514 0.0835615,-0.0118108 0.165499,-0.0224405 0.243746,-0.0314463 0.0667311,-0.00767703 0.157527,-0.0171257 0.269582,-0.027903 0.116779,-0.0112203 0.213776,-0.0200784 0.285526,-0.0256885 0.0888764,-0.00693885 0.19163,-0.0143206 0.311658,-0.02185 0.0944865,-0.00590541 0.201522,-0.0119584 0.323026,-0.0178639 0.105412,-0.0050196 0.221453,-0.0100392 0.346795,-0.0146159 0.109841,-0.00398615 0.227211,-0.00767703 0.351667,-0.0104821l0.00103345 0c0.118846,-0.00265743 0.242712,-0.0050196 0.371007,-0.00634831 0.12298,-0.00132872 0.249208,-0.00221453 0.377356,-0.00221453zm-2.26856 1.86522c0.0683551,0.00782466 0.117665,0.0698314 0.109841,0.138187 -0.00782466,0.0683551 -0.0698314,0.117665 -0.138187,0.109841 -0.167861,-0.0196355 -0.31904,-0.0422237 -0.45014,-0.0662882l0.622578 3.27101c0.194288,0.0527058 0.441872,0.098325 0.728875,0.133462 0.403192,0.0494578 0.881973,0.078099 1.3956,0.078099 0.513623,0 0.992404,-0.0286412 1.3956,-0.078099 0.287003,-0.0351372 0.534735,-0.0807564 0.728875,-0.133462l0.031151 -0.16358 0.0984727 -0.517314 0.0984727 -0.517314 0.0685027 -0.360673c-0.0456193,0.00649595 -0.0937483,0.0129919 -0.144535,0.0190449l0 0.000147635 -0.000590541 0c-0.0708649,0.00856284 -0.156789,0.0180115 -0.254523,0.0276078 -0.0683551,0.00664358 -0.129624,-0.0434047 -0.136267,-0.11176 -0.00664358,-0.0683551 0.0434047,-0.129624 0.11176,-0.136267 0.0782466,-0.00767703 0.16107,-0.0168304 0.249208,-0.0276078l0.000590541 0c0.0754416,-0.00915338 0.148816,-0.0191926 0.219238,-0.0298223l0.00457669 -0.000885811 0.0788372 -0.414264 0.0984727 -0.517166 0.0984727 -0.517314 0.0964058 -0.506979c-0.111465,0.0243598 -0.233559,0.0465051 -0.365249,0.0661406 -0.635569,0.0946342 -1.51193,0.153245 -2.47747,0.153245 -0.965534,0 -1.84204,-0.0586112 -2.47732,-0.153245 -0.131838,-0.0196355 -0.253933,-0.042076 -0.365545,-0.0664358l0.0456193 0.23976 0.076475 0.0155017c0.126819,0.0237693 0.279178,0.0462098 0.452207,0.0664358zm4.34166 3.72306c-0.185135,0.0435524 -0.403339,0.081347 -0.647085,0.111169 -0.413821,0.0507865 -0.903084,0.0801659 -1.42601,0.0801659 -0.522924,0 -1.01219,-0.0293794 -1.42601,-0.0801659 -0.243598,-0.0298223 -0.461803,-0.0676169 -0.646937,-0.111169l0.00620068 0.0326274 0.0293794 0.0112203c0.0258362,0.00900575 0.0525581,0.0180115 0.0783943,0.025098 0.0351372,0.00974392 0.0698314,0.018602 0.102754,0.0258362l0.00103345 0c0.0408949,0.00915338 0.0819375,0.0175686 0.121799,0.0248027 0.0265743,0.00472433 0.0732271,0.0124014 0.141582,0.0225882 0.0479814,0.00723412 0.099949,0.0144682 0.15546,0.0212595l0.000885811 0.00103345c0.0442906,0.0054625 0.104083,0.0122537 0.172733,0.0191926 0.0442906,0.00457669 0.107183,0.0101868 0.184249,0.0163875l0.00103345 0c0.0770656,0.00634831 0.141582,0.0113679 0.196207,0.0147635 0.0788372,0.00487196 0.150293,0.00915338 0.210823,0.0118108l0.00103345 0c0.0766227,0.00354324 0.147635,0.00649595 0.211856,0.00841521 0.0782466,0.00236216 0.154869,0.00428142 0.228244,0.00531487l0.229277 0.000738176 0.229277 -0.000738176c0.0733747,-0.00103345 0.149997,-0.0029527 0.228244,-0.00531487 0.0642213,-0.00191926 0.135234,-0.00487196 0.211856,-0.00841521l0.00103345 0c0.0605304,-0.00265743 0.131986,-0.00693885 0.210823,-0.0118108 0.0544774,-0.00339561 0.119142,-0.00841521 0.196207,-0.0147635l0.00103345 0c0.0770656,-0.00620068 0.140253,-0.0119584 0.184396,-0.0163875 0.0685027,-0.00693885 0.128,-0.0135824 0.172438,-0.0191926l0.000885811 -0.00103345c0.0555108,-0.00679122 0.107478,-0.0140253 0.155607,-0.0212595 0.0683551,-0.0101868 0.11486,-0.0177162 0.141582,-0.0225882 0.0398615,-0.00723412 0.0809041,-0.0156493 0.121799,-0.0248027l0.00103345 0c0.0329226,-0.00723412 0.0676169,-0.0160922 0.102754,-0.0258362 0.0259838,-0.00708649 0.0525581,-0.0160922 0.0783943,-0.025098l0.029527 -0.0113679 0.00620068 -0.0324797zm0.0324797 0.0149112l-0.000147635 0.000147635 0.000147635 0 0 -0.000147635zm-4.27788 0.0913862l0.000590541 -0.00029527m5.51816 -4.55646l-0.0476862 0.0110726 -0.00103345 0c-0.0618591,0.0132872 -0.127409,0.0258362 -0.195617,0.037647 -0.0640737,0.010925 -0.138629,0.0227358 -0.222486,0.0345466 -0.082971,0.0116632 -0.164761,0.0224405 -0.241974,0.0312987 -0.067174,0.00782466 -0.15797,0.0172733 -0.267367,0.0276078 -0.112941,0.010925 -0.208904,0.0196355 -0.287741,0.0256885l0 0.000147635 -0.00103345 0c-0.0887287,0.00693885 -0.19355,0.0146159 -0.313429,0.0221453 -0.0931578,0.00575777 -0.200341,0.0119584 -0.320221,0.0177162 -0.105116,0.00516723 -0.219386,0.0101868 -0.342514,0.0144682 -0.110283,0.00398615 -0.229277,0.00752939 -0.356096,0.0104821l0 0.000147635 -0.00103345 0c-0.118994,0.00280507 -0.243746,0.00516723 -0.372336,0.00664358 -0.179672,0.00206689 -0.30531,0.00324797 -0.375879,0.00324797 -0.0705696,0 -0.196207,-0.00118108 -0.375732,-0.00324797 -0.128738,-0.00147635 -0.253342,-0.00383851 -0.372484,-0.00664358l-0.00103345 0c-0.126671,-0.0029527 -0.24596,-0.00664358 -0.356244,-0.0106297 -0.123128,-0.00428142 -0.23725,-0.00930102 -0.342366,-0.0144682 -0.119289,-0.00590541 -0.226768,-0.0121061 -0.322878,-0.0180115l-0.00103345 0c-0.119584,-0.00767703 -0.224258,-0.0150588 -0.310624,-0.02185 -0.070422,-0.00561014 -0.166532,-0.0143206 -0.288479,-0.0258362 -0.112055,-0.0106297 -0.199898,-0.0199307 -0.266777,-0.0276078 -0.0786896,-0.00900575 -0.160479,-0.0197831 -0.243598,-0.0314463 -0.0832662,-0.0116632 -0.156789,-0.0233264 -0.220862,-0.034399 -0.0685027,-0.0118108 -0.134053,-0.0246551 -0.195764,-0.0377946l-0.0479814 -0.0110726c0.0516723,0.0676169 0.387395,0.148226 0.904561,0.225144 0.623168,0.0927149 1.48639,0.150293 2.4413,0.150293 0.954904,0 1.81813,-0.0575777 2.44144,-0.150293 0.517018,-0.0767703 0.853036,-0.157379 0.905004,-0.224996zm-2.97529 -0.61682c-0.12298,-0.00132872 -0.246846,-0.00221453 -0.371155,-0.00221453 -0.124309,0 -0.248175,0.000885811 -0.371155,0.00221453l-0.00103345 0c-0.120618,0.00118108 -0.243303,0.00339561 -0.365102,0.00620068l0 0.000147635 -0.00103345 0c-0.111907,0.00265743 -0.227358,0.00634831 -0.344433,0.0104821 -0.108955,0.00383851 -0.222781,0.00885811 -0.340594,0.0146159 -0.0965534,0.00457669 -0.203146,0.010925 -0.315053,0.0178639 -0.0915338,0.00561014 -0.194436,0.0132872 -0.30339,0.02185 -0.122537,0.00959629 -0.213923,0.0175686 -0.277554,0.0236216 -0.0714554,0.00679122 -0.158117,0.0162399 -0.259247,0.027903 -0.0875477,0.0100392 -0.165056,0.0200784 -0.23164,0.0293794 -0.0364659,0.00516723 -0.0735223,0.0103345 -0.110579,0.0162399l0.110726 0.016978c0.0665835,0.00930102 0.143797,0.0193402 0.231492,0.0293794 0.0992108,0.0113679 0.186906,0.0209642 0.256442,0.0276078 0.0605304,0.00575777 0.154722,0.0138777 0.280507,0.0237693 0.111317,0.00871048 0.211561,0.0160922 0.302357,0.02185 0.110726,0.00693885 0.216876,0.0131395 0.315939,0.0180115 0.115598,0.00561014 0.228392,0.0106297 0.336165,0.0144682 0.120027,0.00442906 0.236807,0.00811994 0.34901,0.0106297l0.00103345 0c0.123128,0.0029527 0.246108,0.00531487 0.367612,0.00664358 0.0651071,0.000738176 0.188678,0.00118108 0.369531,0.00118108 0.181001,0 0.304424,-0.000442906 0.369679,-0.00118108 0.121356,-0.00132872 0.244484,-0.00369088 0.367464,-0.00664358l0.00103345 0c0.112203,-0.0025098 0.228982,-0.00620068 0.348862,-0.0106297 0.107921,-0.00383851 0.220715,-0.00885811 0.336313,-0.0144682 0.0961105,-0.00472433 0.200489,-0.0107774 0.312248,-0.0177162 0.0928625,-0.00590541 0.195321,-0.0134348 0.306195,-0.0221453l0.00103345 0c0.116632,-0.00900575 0.210528,-0.0171257 0.278735,-0.0237693 0.0729318,-0.00693885 0.157822,-0.0160922 0.257033,-0.0276078 0.0875477,-0.0101868 0.16417,-0.0200784 0.229868,-0.0292318l0.111612 -0.0172733 -0.108807 -0.0159446c-0.0662882,-0.00930102 -0.144535,-0.0193402 -0.232673,-0.029527 -0.100687,-0.0116632 -0.187054,-0.0211118 -0.258657,-0.027903 -0.0637784,-0.00605304 -0.155165,-0.0140253 -0.277997,-0.0236216 -0.109398,-0.00856284 -0.212595,-0.0162399 -0.303833,-0.02185 -0.11176,-0.00693885 -0.218352,-0.0132872 -0.314758,-0.0178639 -0.117813,-0.00575777 -0.23164,-0.0107774 -0.340594,-0.0146159 -0.117222,-0.00413379 -0.232968,-0.0079723 -0.344581,-0.0104821l-0.00103345 0 0 -0.000147635c-0.121947,-0.00280507 -0.244189,-0.0050196 -0.364954,-0.00620068l-0.00103345 0z"/>
</svg>
