<?xml version="1.0" encoding="UTF-8"?>
<!DOCTYPE svg PUBLIC "-//W3C//DTD SVG 1.1//EN" "http://www.w3.org/Graphics/SVG/1.1/DTD/svg11.dtd">
<svg xmlns="http://www.w3.org/2000/svg" xml:space="preserve" style="shape-rendering:geometricPrecision; text-rendering:geometricPrecision; image-rendering:optimizeQuality; fill-rule:evenodd; clip-rule:evenodd"
viewBox="0 0 12.8001 12.8001" xmlns:xlink="http://www.w3.org/1999/xlink">
  <path d="M6.60769 5.62241c0,0.114567 -0.0929529,0.20752 -0.20752,0.20752 -0.114567,0 -0.20752,-0.0929529 -0.20752,-0.20752l0 -0.842245c0,-0.114567 0.0929529,-0.20752 0.20752,-0.20752 0.114567,0 0.20752,0.0929529 0.20752,0.20752l0 0.842245zm2.06445 0.455788c-0.469134,0.288662 -1.13008,0.46441 -1.82835,0.515316 -0.720001,0.052441 -1.48784,-0.0259843 -2.13189,-0.247677 -0.367678,-0.126496 -0.660473,-0.288426 -0.873308,-0.471497l0 1.7876 -0.000826773 0.017126c-0.0127559,0.152126 0.0610631,0.311457 0.21567,0.462048 0.172205,0.167717 0.438662,0.321142 0.793466,0.443268 0.590906,0.203386 1.29969,0.274961 1.96748,0.226536 0.660355,-0.0480709 1.27477,-0.212953 1.68579,-0.482835l0.00011811 0.000236221 0.0422835 -0.0291733 0.00413386 -0.00318898c0.152953,-0.100394 0.263268,-0.206339 0.33189,-0.312874 0.0628347,-0.0975592 0.0904726,-0.196063 0.0844489,-0.291378l0 -0.0129921 -0.00141732 -1.80579c-0.056693,0.0478347 -0.118819,0.0940159 -0.187205,0.138898l-0.00011811 -0.000236221 -0.0422835 0.0291733 -0.0542127 0.037441 -0.0056693 0zm-4.81961 -1.11154c0.0666143,-0.0621261 0.143622,-0.122717 0.231142,-0.180355l-0.00011811 -0.000236221 0.0466536 -0.0320079 0.00153543 -0.000708662c0.45567,-0.299174 1.12288,-0.480945 1.83236,-0.53256 0.706536,-0.0512599 1.45914,0.0253937 2.08925,0.242244 0.295394,0.101693 0.540001,0.226063 0.729568,0.364607l-0.00011811 0.00011811c0.0597639,0.0437008 0.11374,0.0892914 0.162874,0.135709 -0.0151181,-0.0511418 -0.0392126,-0.102992 -0.072756,-0.154134l0.000590552 -0.000354331c-0.147402,-0.224174 -0.458268,-0.434292 -0.92008,-0.59315 -0.590906,-0.203386 -1.29969,-0.274961 -1.96748,-0.226418 -0.659174,0.0479528 -1.27158,0.211536 -1.68166,0.479292l0.00011811 0.000236221 -0.0465355 0.0320079 -0.00413386 0.00236221c-0.212717,0.139725 -0.342402,0.289489 -0.393426,0.437717l-0.00779529 0.02563zm0.0801969 0.200433c-0.0238583,0.0255118 -0.0450001,0.0517323 -0.0646064,0.0775985 0.0148819,0.0381497 0.0344882,0.0758269 0.0594095,0.113858l-0.000590552 0.000354331c0.147402,0.224174 0.458386,0.43441 0.92008,0.59315 0.590906,0.203386 1.29969,0.274961 1.96748,0.226418 0.659056,-0.0479528 1.27158,-0.211654 1.68166,-0.47941l-0.00011811 -0.00011811 0.0465355 -0.032126 0.00413386 -0.00318898c0.203977,-0.133819 0.3313,-0.276024 0.386339,-0.417402 -0.066378,-0.0890552 -0.155669,-0.175984 -0.267638,-0.257717l-0.000354331 0c-0.173268,-0.126496 -0.399686,-0.2413 -0.676418,-0.336496 -0.604843,-0.20811 -1.3291,-0.281575 -2.01036,-0.232087 -0.677363,0.0493701 -1.30973,0.219567 -1.73575,0.49878l0.00011811 0.000236221 -0.0466536 0.0320079 -0.00153543 0.000708662c-0.105354,0.0692127 -0.192638,0.141732 -0.261733,0.215433zm-0.510827 -0.0317717c-0.00720473,-0.110079 0.00720473,-0.22063 0.0446457,-0.32941 0.0798426,-0.231969 0.263268,-0.45378 0.555473,-0.646536l-0.00011811 -0.000236221 0.0465355 -0.0320079 0.00413386 -0.00236221c0.471733,-0.309804 1.15748,-0.497481 1.8841,-0.550394 0.720001,-0.052441 1.48784,0.0259843 2.13189,0.247677 0.551103,0.189567 0.934726,0.459567 1.13173,0.759568l0.000826773 0c0.0799607,0.121772 0.130394,0.249449 0.150236,0.379725 0.0106299,0.0702757 0.0120473,0.141142 0.00472442,0.211418l0.00200788 2.49296c0.0115748,0.184134 -0.0373229,0.36756 -0.149646,0.542009 -0.100158,0.155315 -0.251103,0.303189 -0.454016,0.436418l-0.00011811 -0.000236221 -0.0422835 0.0291733 -0.00413386 0.00318898c-0.471024,0.309213 -1.15689,0.496772 -1.88421,0.549686 -0.720001,0.0523229 -1.48795,-0.0261024 -2.13189,-0.247796 -0.413623,-0.142323 -0.732521,-0.32941 -0.947954,-0.539174 -0.243898,-0.237756 -0.360827,-0.507166 -0.34193,-0.781418l0 -2.52225z"/>
</svg>
