<?xml version="1.0" encoding="UTF-8"?>
<!DOCTYPE svg PUBLIC "-//W3C//DTD SVG 1.1//EN" "http://www.w3.org/Graphics/SVG/1.1/DTD/svg11.dtd">
<svg xmlns="http://www.w3.org/2000/svg" xml:space="preserve" style="shape-rendering:geometricPrecision; text-rendering:geometricPrecision; image-rendering:optimizeQuality; fill-rule:evenodd; clip-rule:evenodd"
viewBox="0 0 16.003 16.003" xmlns:xlink="http://www.w3.org/1999/xlink">
  <path d="M6.43199 5.34348c-0.058168,-0.0366134 -0.0755889,-0.113679 -0.0389755,-0.171847 0.0366134,-0.058168 0.113679,-0.0755889 0.171847,-0.0389755l0.164022 0.103787c0.176571,-0.255555 0.412343,-0.504762 0.724147,-0.687386 0.0592014,-0.0346941 0.135676,-0.0149111 0.17037,0.0442904 0.0346941,0.0592014 0.0149111,0.135676 -0.0442904,0.17037 -0.27401,0.160479 -0.483208,0.379125 -0.640881,0.605006l0.169927 0.107478c0.058168,0.0366134 0.0755889,0.113679 0.0389755,0.171847 -0.0366134,0.058168 -0.113679,0.0755889 -0.171847,0.0389755l-0.169927 -0.107478c-0.245811,0.434488 -0.317562,0.836645 -0.317857,0.838564 -0.0115155,0.0679119 -0.0760318,0.113531 -0.143944,0.102015 -0.0679119,-0.0115155 -0.113531,-0.0760318 -0.102015,-0.143944 0.000442904,-0.00206688 0.0798703,-0.44748 0.35447,-0.928916l-0.164022 -0.103787zm4.21762 3.58973c-0.04119,0.05492 -0.119436,0.0661403 -0.174356,0.0249502 -0.05492,-0.04119 -0.0661403,-0.119436 -0.0249502,-0.174356 0.00118108,-0.00162398 0.447333,-0.589652 0.554368,-1.13029 0.0131395,-0.0676166 0.0788368,-0.111759 0.146453,-0.0986198 0.0676166,0.0131395 0.111759,0.0788368 0.0986198,0.146453 -0.118108,0.596739 -0.598806,1.23009 -0.600134,1.23186zm-0.563373 -5.96724c0.961839,0.398318 1.64406,1.20942 1.96871,2.19739 0.319776,0.973797 0.291578,2.12239 -0.160626,3.21415 -0.449104,1.08438 -1.49318,2.12756 -2.57105,2.83473 -1.05396,0.691225 -2.16521,1.06695 -2.83207,0.867943 -0.015354,0.0403042 -0.0326272,0.0832659 -0.0484241,0.121208 0.0640734,0.219828 0.0971435,0.507863 -0.0422235,0.753084 -0.119436,0.209936 -0.289954,0.284492 -0.46933,0.36259 -0.190744,0.0829706 -0.39507,0.172142 -0.514359,0.497824l-0.234444 -0.0859233c0.155754,-0.425187 0.410867,-0.536651 0.649297,-0.640438 0.140253,-0.060973 0.273714,-0.119289 0.352108,-0.257179 0.0788368,-0.138481 0.0775081,-0.305013 0.0475383,-0.453976 -0.0354323,-0.0149111 -0.360376,-0.158855 -0.320219,-0.395808l0.00959624 -0.0566916 0.0494576 -0.0296745c0.000295269,-0.000147635 0.0419282,-0.0255408 0.0983246,-0.056544 -0.516721,-0.444527 -0.965234,-1.38954 -1.21356,-2.47288 -0.287444,-1.25578 -0.3214,-2.71825 0.106592,-3.79908l0 -0.0599396 0.0422235 -0.0422235c0.455748,-1.0674 1.23806,-1.88131 2.13893,-2.33676 0.911791,-0.46062 1.94641,-0.556877 2.89393,-0.182181l0.000442904 0 0.0491623 0.0203736zm1.47443 2.35802c-0.273862,-0.833544 -0.838564,-1.51827 -1.63136,-1.86123l-0.0404519 -0.0166827c-0.814942,-0.337492 -1.71551,-0.257032 -2.5123,0.145568 -0.809185,0.409095 -1.51163,1.14874 -1.91438,2.12136l-0.00103344 0.00250979c-0.404961,0.97985 -0.371153,2.34946 -0.0998009,3.53422 0.264561,1.15494 0.738468,2.11295 1.22994,2.31653 0.489408,0.202702 1.47265,-0.149997 2.44734,-0.789254 1.00303,-0.658155 1.96944,-1.61615 2.37559,-2.59674 0.40319,-0.973502 0.429616,-1.9941 0.146453,-2.85628z"/>
</svg>
