<?xml version="1.0" encoding="UTF-8"?>
<!DOCTYPE svg PUBLIC "-//W3C//DTD SVG 1.1//EN" "http://www.w3.org/Graphics/SVG/1.1/DTD/svg11.dtd">
<svg xmlns="http://www.w3.org/2000/svg" xml:space="preserve" style="shape-rendering:geometricPrecision; text-rendering:geometricPrecision; image-rendering:optimizeQuality; fill-rule:evenodd; clip-rule:evenodd"
viewBox="0 0 128 128" xmlns:xlink="http://www.w3.org/1999/xlink">
  <path d="M29.641,95.06c-0.586,-0.793 -0.541,-1.915 0.159,-2.658l28.8,-30.507l28.686,-30.387l0.012,-0.015l0.077,-0.085c0.731,-0.736 1.814,-1.304 3.021,-1.682c1.093,-0.342 2.346,-0.554 3.495,-0.554c1.022,0 1.894,0.175 2.541,0.472c0.488,0.225 0.889,0.53 1.183,0.907l0.032,0.043l0.018,0.022l0.103,0.152c0.361,0.57 0.492,1.201 0.367,1.867c0.048,0.119 0.091,0.244 0.124,0.375c0.133,0.519 0.193,1.094 0.193,1.65c0,1.368 -0.383,2.811 -0.944,3.372l-0.076,0.067l0.001,0.001l-0.043,0.04l-0.005,0.004l-32.119,30.411l-30.195,28.587c-0.986,0.935 -2.458,0.667 -3.63,-0.048c-0.532,-0.326 -1.021,-0.756 -1.351,-1.191l-0.004,-0.005l-0.03,-0.046c-0.187,-0.254 -0.33,-0.521 -0.415,-0.792Zm35.325,-30.237l0,0l-32.177,30.465c-0.062,0.062 -0.126,0.119 -0.193,0.171c0.455,0.259 0.919,0.409 1.101,0.238l30.194,-28.588l32.136,-30.426l0.012,-0.012l0.029,-0.027l0.025,-0.027c0.285,-0.285 0.384,-0.952 0.388,-1.624l-0.008,-0.002l-31.507,29.832Zm-32.371,30.637l0.001,-0.001l0,0l-0.001,0.001Zm-2.955,-0.404l0.001,0.004l0.004,0.006l-0.004,-0.007l-0.001,-0.003Zm53.993,-53.626l8.247,-7.808l-0.247,0.074c-0.593,0.185 -1.059,0.398 -1.249,0.588l-0.029,0.027l-0.06,0.063l-6.662,7.056l0,0l0,0l0,0Z"/>
</svg>
