<?xml version="1.0" encoding="UTF-8"?>
<!DOCTYPE svg PUBLIC "-//W3C//DTD SVG 1.1//EN" "http://www.w3.org/Graphics/SVG/1.1/DTD/svg11.dtd">
<svg xmlns="http://www.w3.org/2000/svg" xml:space="preserve" style="shape-rendering:geometricPrecision; text-rendering:geometricPrecision; image-rendering:optimizeQuality; fill-rule:evenodd; clip-rule:evenodd"
viewBox="0 0 128 128" xmlns:xlink="http://www.w3.org/1999/xlink">
  <path d="M90.732,98.047l0,11.227l-5.87,-4.742l-5.87,4.742l0,-11.219c0.372,0.51 0.884,0.887 1.452,1.087c0.728,0.259 1.558,0.245 2.318,-0.105l2.094,-0.966l2.096,0.97c0.723,0.333 1.524,0.361 2.237,0.131c0.606,-0.195 1.151,-0.582 1.543,-1.125l0,0l0,0l0,0Zm-58.516,-54.625l0.733,-0.734l0.001,-0.001l15.221,-15.221l0.734,-0.733l32.201,0c1.714,0 3.277,0.705 4.41,1.837l0.01,0.009c1.131,1.134 1.836,2.696 1.836,4.41l0,39.483c-0.136,0.041 -0.269,0.093 -0.401,0.155l-2.095,0.966l-1.999,-0.925c-0.164,-0.083 -0.334,-0.151 -0.506,-0.202l0,-39.477c0,-0.347 -0.141,-0.662 -0.365,-0.889c-0.228,-0.225 -0.543,-0.366 -0.89,-0.366l-28.668,0l0,0l0,8.964c0,1.712 -0.701,3.273 -1.836,4.41l-0.01,0.01c-1.137,1.135 -2.698,1.836 -4.41,1.837l-8.966,0l0,48.057c0,0.347 0.142,0.663 0.367,0.891c0.226,0.223 0.542,0.365 0.889,0.365l39.496,0l0.023,0.042l0,4.958l-39.519,0c-1.714,0 -3.276,-0.705 -4.41,-1.836l-0.01,-0.01c-1.131,-1.134 -1.836,-2.696 -1.836,-4.41l0,-51.59Zm63.573,36.223l-0.329,2.759l1.873,2.025c0.74,0.801 0.725,2.027 -0.004,2.814l0.004,0.002l-1.876,2.025l0.327,2.757c0.129,1.088 -0.61,2.078 -1.667,2.285l0,0.002l-2.711,0.536l-1.351,2.414c-0.534,0.952 -1.71,1.32 -2.685,0.871l-2.513,-1.162l-2.513,1.158c-1.028,0.474 -2.244,0.036 -2.739,-0.975l-1.291,-2.31l-2.712,-0.539c-1.1,-0.215 -1.828,-1.265 -1.658,-2.363l0.32,-2.683l-1.873,-2.025c-0.761,-0.822 -0.73,-2.098 0.059,-2.88l1.815,-1.96l-0.326,-2.758c-0.131,-1.115 0.644,-2.132 1.744,-2.302l2.634,-0.521l1.351,-2.414c0.55,-0.981 1.774,-1.345 2.765,-0.834l2.433,1.126l1.603,-0.741l0.029,-0.013l0.881,-0.406c1.02,-0.472 2.225,-0.045 2.726,0.952l0,0l1.304,2.335l2.712,0.538c1.075,0.21 1.792,1.216 1.665,2.287l0.003,0Zm-9.32,-2.389c-0.523,-0.097 -1.057,-0.147 -1.607,-0.147c-2.405,0 -4.586,0.978 -6.164,2.555l-0.005,0.005c-1.577,1.577 -2.555,3.759 -2.555,6.164c0,2.406 0.978,4.586 2.555,6.164l0.005,0.005c1.578,1.576 3.759,2.554 6.164,2.554c2.406,0 4.586,-0.978 6.164,-2.554l0.005,-0.005c1.576,-1.578 2.554,-3.758 2.554,-6.164c0,-2.405 -0.978,-4.587 -2.554,-6.164l-0.005,-0.005c-1.211,-1.21 -2.779,-2.071 -4.528,-2.404l-0.029,-0.004l0,0Zm-1.55,1.854c0.595,0.005 1.165,0.084 1.714,0.234l0,0l0.058,0.015c1.12,0.317 2.126,0.919 2.927,1.717c1.214,1.217 1.967,2.9 1.967,4.757c0,1.858 -0.753,3.539 -1.967,4.756c-1.216,1.214 -2.898,1.966 -4.756,1.966c-1.857,0 -3.54,-0.752 -4.756,-1.966c-1.215,-1.217 -1.967,-2.898 -1.967,-4.756c0,-1.856 0.751,-3.538 1.964,-4.754l0.005,-0.005c1.216,-1.213 2.898,-1.964 4.754,-1.964l0.057,0Zm0.06,1.083l-0.117,0c-1.558,0 -2.971,0.628 -3.989,1.643l-0.004,0.003l-0.004,0.005c-1.015,1.018 -1.643,2.431 -1.643,3.989c0,1.559 0.628,2.969 1.643,3.988l0.008,0.009c1.02,1.014 2.431,1.642 3.989,1.642c1.56,0 2.973,-0.63 3.992,-1.647c1.017,-1.02 1.648,-2.432 1.648,-3.992c0,-1.558 -0.629,-2.97 -1.643,-3.989l-0.009,-0.008l-0.083,-0.085l-0.011,-0.011l-0.018,-0.016l-0.104,-0.097l-0.027,-0.025l-0.015,-0.014l-0.031,-0.025l-0.005,-0.005l-0.023,-0.021l-0.028,-0.022l-0.004,-0.003l-0.012,-0.01l-0.037,-0.03l-0.011,-0.011l-0.032,-0.024l-0.062,-0.05l0,-0.001l-0.095,-0.072l-0.012,-0.01l-0.02,-0.015l-0.032,-0.022l-0.001,-0.003l-0.031,-0.022l-0.025,-0.017l-0.029,-0.02l-0.012,-0.009l-0.016,-0.01l-0.016,-0.012l-0.066,-0.042l-0.001,-0.001l-0.029,-0.02l-0.003,-0.003l-0.002,-0.001l-0.271,-0.166l-0.012,-0.008l-0.024,-0.011l-0.035,-0.022l-0.001,0l-0.034,-0.017l-0.006,-0.004l-0.059,-0.033l-0.006,-0.002l-0.015,-0.009l-0.021,-0.011l-0.035,-0.018l-0.004,-0.002l-0.032,-0.016l-0.028,-0.015l-0.007,-0.002l-0.036,-0.018l-0.02,-0.008l-0.018,-0.009l-0.036,-0.017l-0.006,-0.004l-0.031,-0.014l-0.218,-0.093l-0.005,-0.003l-0.001,0l-0.006,-0.002l-0.106,-0.043l-0.014,-0.004l-0.025,-0.01l-0.076,-0.028l-0.028,-0.011l-0.011,-0.003l-0.039,-0.013l0,0l-0.058,-0.019l-0.024,-0.009l-0.025,-0.007l-0.005,-0.002l-0.101,-0.032l-0.025,-0.007l-0.029,-0.007l-0.014,-0.005l-0.01,-0.003l-0.029,-0.007l-0.025,-0.008l-0.003,-0.001l-0.025,-0.006l-0.025,-0.007l-0.017,-0.004l-0.011,-0.003l-0.026,-0.007l-0.053,-0.013l-0.029,-0.007c-0.116,-0.027 -0.237,-0.051 -0.356,-0.07l-0.006,0l-0.023,-0.003l-0.118,-0.018l-0.019,-0.003l-0.028,-0.004l-0.024,-0.002l-0.004,-0.002l-0.057,-0.007l-0.009,0l-0.072,-0.007l-0.004,-0.001l-0.11,-0.009l-0.003,0l-0.025,-0.003l-0.004,-0.001l-0.028,-0.001l-0.288,-0.013Zm-16.868,-12.19l-20.679,0c-0.106,-0.003 -0.133,-0.001 -0.239,-0.016c-1.02,-0.14 -1.773,-1.307 -1.412,-2.323c0.213,-0.601 0.779,-1.062 1.412,-1.149c0.106,-0.015 0.133,-0.013 0.239,-0.016l20.679,0c0.039,0.001 0.079,0.002 0.119,0.004c0.106,0.01 0.133,0.011 0.237,0.032c1.107,0.23 1.794,1.708 1.075,2.727c-0.276,0.39 -0.718,0.66 -1.193,0.725c-0.105,0.015 -0.132,0.013 -0.238,0.016Zm4.031,-7.491l-24.71,0c-0.243,-0.025 -0.49,-0.052 -0.713,-0.151c-0.895,-0.398 -1.309,-1.603 -0.805,-2.477c0.246,-0.426 0.673,-0.736 1.154,-0.838c0.119,-0.026 0.242,-0.026 0.364,-0.038l24.71,0c0.121,0.012 0.243,0.025 0.364,0.038c0.585,0.19 1.11,0.58 1.302,1.172c0.228,0.701 -0.04,1.526 -0.636,1.96c-0.296,0.215 -0.661,0.296 -1.03,0.334Zm-24.704,-19.814l0,-5.43l-6.687,6.686l5.431,0c0.35,0 0.665,-0.138 0.886,-0.36l0.009,-0.01c0.222,-0.221 0.361,-0.536 0.361,-0.886l0,0Z"/>
</svg>