<?xml version="1.0" encoding="UTF-8"?>
<!DOCTYPE svg PUBLIC "-//W3C//DTD SVG 1.1//EN" "http://www.w3.org/Graphics/SVG/1.1/DTD/svg11.dtd">
<svg xmlns="http://www.w3.org/2000/svg" xml:space="preserve" style="shape-rendering:geometricPrecision; text-rendering:geometricPrecision; image-rendering:optimizeQuality; fill-rule:evenodd; clip-rule:evenodd"
viewBox="0 0 58.829 58.829" xmlns:xlink="http://www.w3.org/1999/xlink">
  <path d="M36.9181 40.3971c-0.465208,0.771366 -1.02161,1.48139 -1.65455,2.11433 -1.996,1.996 -4.75359,3.23094 -7.79834,3.23094 -3.04475,0 -5.80234,-1.23494 -7.79834,-3.23094 -1.996,-1.996 -3.2304,-4.75304 -3.2304,-7.79834 0,-3.04475 1.2344,-5.80234 3.2304,-7.79834 1.0189,-1.01835 2.23539,-1.83858 3.58758,-2.39769l0 1.22517 0 1.32451c-0.721968,0.398439 -1.38205,0.896217 -1.96071,1.47488 -1.57964,1.57964 -2.55674,3.76183 -2.55674,6.17147 0,2.41018 0.977099,4.59237 2.55674,6.17147 1.57964,1.57964 3.76183,2.55674 6.17147,2.55674 2.41018,0 4.59182,-0.977099 6.17147,-2.55674 0.987956,-0.987956 1.74032,-2.2115 2.16536,-3.5789l1.11606 3.09143zm-9.34975 -16.0928l4.73947 0 2.31247 0 0 1.43796 0 1.43796 -0.0955386 0 -6.57588 0 -0.380526 0 0 1.26697 2.14582 0.123766 6.15681 0.356098 0.558032 0.0320271 0.946701 0.0548261 0.322986 0.894589 0.942901 2.61211 1.55522 4.30629 1.15786 3.20869 1.99871 -0.721968 0.410925 -0.148193 0.40821 -0.147651 0.453808 1.26589 0.016285 0.0450551 0.013028 0.0374555 0.483121 1.34785 -4.16136 1.50256 -1.34351 0.485293 -0.487464 -1.35003 -3.20489 -8.8764 -0.616115 -1.70612 -1.67355 -0.0971671 -7.6002 -0.439152 -1.35925 -0.0781679 0 -1.35383 0 -4.05876 0 -6.6535c-0.812621,-0.607973 -1.33863,-1.57747 -1.33863,-2.66965 0,-1.83966 1.4917,-3.33191 3.33191,-3.33191 1.83966,0 3.33137,1.49225 3.33137,3.33191 0,1.53405 -1.03735,2.82653 -2.44872,3.21357l0 4.67162z"/>
</svg>
