<?xml version="1.0" encoding="UTF-8"?>
<!DOCTYPE svg PUBLIC "-//W3C//DTD SVG 1.1//EN" "http://www.w3.org/Graphics/SVG/1.1/DTD/svg11.dtd">
<svg xmlns="http://www.w3.org/2000/svg" xml:space="preserve" style="shape-rendering:geometricPrecision; text-rendering:geometricPrecision; image-rendering:optimizeQuality; fill-rule:evenodd; clip-rule:evenodd"
viewBox="0 0 30.6528 30.6528" xmlns:xlink="http://www.w3.org/1999/xlink">
  <path d="M6.77692 16.7381l4.4907 -4.4907c0.270398,-0.270681 0.70937,-0.270681 0.979768,0 0.150755,0.150472 0.217506,0.353271 0.200253,0.550129l0 1.98499 0.395697 0 2.53484 -2.53512c0.270681,-0.270681 0.70937,-0.270681 0.980051,0 0.150472,0.150472 0.217223,0.353271 0.200253,0.550129l0 1.98499 0.395414 0 2.33204 -2.33204 0 -3.9697c0,-0.5094 0.20789,-0.971565 0.542493,-1.30645 0.334886,-0.334603 0.797051,-0.542493 1.30645,-0.542493l0 0.00282843 0.385798 0 0 -0.00282843c0.509117,0 0.971565,0.20789 1.30645,0.542493 0.334603,0.334886 0.542493,0.797051 0.542493,1.30645l0 13.1013c0,0.5094 -0.20789,0.971565 -0.542493,1.30645 -0.334886,0.334603 -0.797334,0.542493 -1.30645,0.542493l-13.1013 0c-0.5094,0 -0.971565,-0.20789 -1.30645,-0.542493 -0.334603,-0.334886 -0.542493,-0.797051 -0.542493,-1.30645l0 -4.35069c0,-0.193182 0.0789132,-0.367696 0.206475,-0.493278zm2.73792 2.36711c-0.380989,0 -0.690137,-0.308864 -0.690137,-0.690137 0,-0.381272 0.309147,-0.690137 0.690137,-0.690137l1.23518 0c0.381272,0 0.690137,0.308864 0.690137,0.690137 0,0.381272 -0.308864,0.690137 -0.690137,0.690137l-1.23518 0zm9.67521 0c-0.381272,0 -0.690137,-0.308864 -0.690137,-0.690137 0,-0.381272 0.308864,-0.690137 0.690137,-0.690137l1.23518 0c0.380989,0 0.690137,0.308864 0.690137,0.690137 0,0.381272 -0.309147,0.690137 -0.690137,0.690137l-1.23518 0zm-4.83746 0.00282843c-0.382686,0 -0.692965,-0.310279 -0.692965,-0.692965 0,-0.382686 0.310279,-0.692965 0.692965,-0.692965l1.23489 0c0.382686,0 0.692965,0.310279 0.692965,0.692965 0,0.382686 -0.310279,0.692965 -0.692965,0.692965l-1.23489 0zm-3.28522 -4.70057l-3.11099 3.11099 0 4.0636c0,0.126714 0.0523259,0.242396 0.136613,0.326401 0.0840043,0.0842872 0.199687,0.136613 0.326401,0.136613l13.1013 0c0.126714,0 0.242396,-0.0523259 0.326401,-0.136613 0.0842872,-0.0840043 0.136613,-0.199687 0.136613,-0.326401l0 -13.1013c0,-0.126714 -0.0523259,-0.242396 -0.136613,-0.326401 -0.0840043,-0.0842872 -0.199687,-0.136613 -0.326401,-0.136613l0 -0.00282843 -0.385798 0 0 0.00282843c-0.126714,0 -0.242396,0.0523259 -0.326684,0.136613 -0.0840043,0.0840043 -0.13633,0.199687 -0.13633,0.326401l0 4.2565 -0.000282843 0c0,0.177343 -0.0675995,0.354685 -0.202798,0.489884l-2.73453 2.73453c-0.125582,0.127562 -0.300379,0.206475 -0.493561,0.206475l-1.37264 0 0 -0.00254559c-0.380989,0 -0.690137,-0.309147 -0.690137,-0.69042l0 -1.06773 -1.5545 1.55422c-0.125582,0.127562 -0.300096,0.206475 -0.493278,0.206475l-1.37264 0 0 -0.00254559c-0.381272,0 -0.690137,-0.309147 -0.690137,-0.69042l0 -1.06773z"/>
</svg>
