<?xml version="1.0" encoding="UTF-8"?>
<!DOCTYPE svg PUBLIC "-//W3C//DTD SVG 1.1//EN" "http://www.w3.org/Graphics/SVG/1.1/DTD/svg11.dtd">
<svg xmlns="http://www.w3.org/2000/svg" xml:space="preserve" class="with-stroke" style="shape-rendering:geometricPrecision; text-rendering:geometricPrecision; image-rendering:optimizeQuality; fill-rule:evenodd; clip-rule:evenodd"
viewBox="0 0 128.0 128.0" xmlns:xlink="http://www.w3.org/1999/xlink">
  <path stroke-width="2" d="M57.412,65.352v40.256h48.307V65.352H57.412z M82.908,70.719
      v2.684h-2.685v-2.684H77.54v2.684h-2.684v-5.367h13.419v5.367h-2.684v-2.684H82.908z M80.224,100.239v-2.684h2.685v2.684h2.684
      v-2.684h2.684v5.368H74.856v-5.368h2.684v2.684H80.224z M103.035,102.924H90.959v-8.052H72.173v8.052H60.096V68.035h12.077v8.051
      h18.786v-8.051h12.076V102.924z"/>
  <path stroke-width="2" d="M36.28,49.031c0.319,1.02,0.852,1.963,1.629,2.74l5.691,5.692
      c0.76,0.761,1.771,1.179,2.847,1.179h5.829c1.075,0,2.087-0.418,2.846-1.179l5.692-5.692c0.746-0.746,1.267-1.646,1.593-2.62
      c2.498-0.459,4.399-2.641,4.399-5.269c0-1.978-1.087-3.69-2.684-4.622v-6.114c0-2.677-1.97-4.901-4.536-5.303
      c-1.982-3.369-5.561-5.432-9.517-5.432h-0.708c-8.138,0-14.76,6.622-14.76,14.76v2.383c-1.471,0.917-2.46,2.536-2.46,4.393
      C32.142,46.45,33.921,48.543,36.28,49.031z M34.825,43.949c0-0.869,0.444-1.633,1.118-2.083v4.166
      C35.27,45.583,34.825,44.817,34.825,43.949z M58.917,49.873l-5.692,5.693c-0.251,0.25-0.596,0.393-0.949,0.393h-5.829
      c-0.353,0-0.699-0.142-0.949-0.393l-5.692-5.693c-0.76-0.761-1.179-1.771-1.179-2.847v-5.827h4.947
      c3.226,0,6.258-1.256,8.538-3.537l1.131-1.131c1.717,2.209,4.161,3.74,6.852,4.359v6.136
      C60.096,48.103,59.678,49.112,58.917,49.873z M62.78,46.193v-4.621c0.799,0.466,1.342,1.322,1.342,2.311
      C64.122,44.873,63.579,45.727,62.78,46.193z M49.361,25.096h0.708c3.189,0,6.057,1.773,7.483,4.625l0.372,0.742h0.829
      c1.48,0,2.684,1.204,2.684,2.684v5.259c-2.437-0.356-4.679-1.657-6.174-3.648l-1.732-2.312l-3.318,3.318
      c-1.773,1.774-4.133,2.751-6.641,2.751h-6.288v-1.342C37.285,30.513,42.702,25.096,49.361,25.096z"/>
  <path stroke-width="2" d="M49.361,76.244l7.309-3.654l-1.201-2.401l-2.587,1.294
      l5.872-9.785v-3.056h-2.684v2.312l-6.709,11.183l-6.709-11.183v-2.312h-2.684v1.659l-7.139,1.945
      c-4.532,1.238-7.961,5.033-8.733,9.668l-1.814,10.881h32.447v-2.684H34.807l1.123-7.859l-2.656-0.381l-1.178,8.24h-6.644
      l1.292-7.756c0.601-3.606,3.269-6.557,6.793-7.52l5.709-1.556l-2.259,6.778L49.361,76.244z M45.839,71.484l-5.573-2.787l1.393-4.18
      L45.839,71.484z"/>
</svg>
